<?xml version="1.0" encoding="utf-8"?>
<!-- Generator: Adobe Illustrator 21.0.0, SVG Export Plug-In . SVG Version: 6.00 Build 0)  -->
<svg version="1.1" id="图层_1" xmlns="http://www.w3.org/2000/svg" xmlns:xlink="http://www.w3.org/1999/xlink" x="0px" y="0px"
	 viewBox="0 0 101 101" enable-background="new 0 0 101 101" xml:space="preserve">
<g id="消息-_x28_1_x29_" transform="translate(22.000000, 25.000000)">
	<path id="Shape" fill="#07AEFC" d="M0.5,8.8v23.5c0,4.6,3.7,8.3,8.2,8.3H21l0.4,10.4l12.1-10.4h13.8c4.5,0,8.2-3.7,8.2-8.3V8.8
		c0-4.6-3.7-8.3-8.2-8.3H8.7C4.2,0.5,0.5,4.2,0.5,8.8L0.5,8.8z M35.9,21.6c0-2.2,1.7-3.9,3.9-3.9s3.9,1.7,3.9,3.9
		c0,2.2-1.7,3.9-3.9,3.9C37.7,25.5,35.9,23.8,35.9,21.6z M24.1,21.6c0-2.2,1.7-3.9,3.9-3.9s3.9,1.7,3.9,3.9c0,2.2-1.7,3.9-3.9,3.9
		C25.8,25.5,24.1,23.8,24.1,21.6z M12.4,21.6c0-2.2,1.7-3.9,3.9-3.9s3.9,1.7,3.9,3.9c0,2.2-1.7,3.9-3.9,3.9
		C14.1,25.5,12.4,23.8,12.4,21.6z"/>
</g>
</svg>
