<?xml version="1.0" encoding="utf-8"?>
<!-- Generator: Adobe Illustrator 21.0.0, SVG Export Plug-In . SVG Version: 6.00 Build 0)  -->
<svg version="1.1" id="图层_1" xmlns="http://www.w3.org/2000/svg" xmlns:xlink="http://www.w3.org/1999/xlink" x="0px" y="0px"
	 viewBox="0 0 100 100" enable-background="new 0 0 100 100" xml:space="preserve">
<rect fill="#07AEFC" width="100" height="100"/>
<g id="消息-_x28_1_x29_" transform="translate(22.000000, 25.000000)">
	<path id="Shape" fill="#FFFFFF" d="M0,8.2v23.3c0,4.5,3.7,8.2,8.2,8.2h12.3L21,50l12.1-10.3h13.8c4.5,0,8.2-3.7,8.2-8.2V8.2
		c0-4.5-3.7-8.2-8.2-8.2H8.2C3.7,0,0,3.7,0,8.2L0,8.2z M35.4,21.1c0-2.2,1.7-3.9,3.9-3.9s3.9,1.7,3.9,3.9c0,2.2-1.7,3.9-3.9,3.9
		C37.2,25,35.4,23.3,35.4,21.1z M23.6,21.1c0-2.2,1.7-3.9,3.9-3.9s3.9,1.7,3.9,3.9c0,2.2-1.7,3.9-3.9,3.9
		C25.3,25,23.6,23.3,23.6,21.1z M11.9,21.1c0-2.2,1.7-3.9,3.9-3.9s3.9,1.7,3.9,3.9c0,2.2-1.7,3.9-3.9,3.9
		C13.6,25,11.9,23.3,11.9,21.1z"/>
</g>
</svg>
