<?xml version="1.0" encoding="UTF-8"?>
<svg width="84px" height="84px" viewBox="0 0 84 84" version="1.1" xmlns="http://www.w3.org/2000/svg" xmlns:xlink="http://www.w3.org/1999/xlink">
    <!-- Generator: Sketch 43.2 (39069) - http://www.bohemiancoding.com/sketch -->
    <title>音乐2</title>
    <desc>Created with Sketch.</desc>
    <defs></defs>
    <g id="Page-1" stroke="none" stroke-width="1" fill="none" fill-rule="evenodd">
        <g id="我要认真爱妈妈" transform="translate(-5164.000000, -661.000000)">
            <g id="音乐2" transform="translate(5166.000000, 663.000000)">
                <g id="Group-5">
                    <circle id="Oval-5" stroke="#333333" stroke-width="4" fill="#FFFFFF" cx="40" cy="40" r="40"></circle>
                    <g id="音乐" transform="translate(23.000000, 10.000000)" fill-rule="nonzero" fill="#333333">
                        <path d="M40.9858318,23.10425 C40.7125607,23.0685 40.4682243,22.87675 40.2528224,22.5355 C40.0374206,22.19425 39.8734579,21.57025 39.7545047,20.657 C39.5583925,19.17825 39.0600748,18.08625 38.2595514,17.38425 C37.459028,16.68225 36.2180561,16.1785 34.5366355,15.87625 C32.7780561,15.53175 31.2252336,14.84275 29.8781682,13.79625 C28.5311028,12.75625 27.4058692,11.77475 26.5088972,10.868 C25.6472897,10.0685 24.9850093,9.78575 24.5156262,10.01325 C24.046243,10.24075 23.8115514,10.66 23.8115514,11.26775 L23.8115514,13.715 L23.8115514,19.06775 C23.8115514,21.19325 23.8019065,23.48775 23.7826168,25.9545 C23.7633271,28.42125 23.7536822,30.7515 23.7536822,32.95175 L23.7536822,38.7595 L23.7536822,42.003 C23.7922617,42.913 23.6475888,43.93025 23.3132336,45.045 C22.9820935,46.16625 22.3551776,47.21925 21.4389159,48.20725 C20.5194393,49.19525 19.300972,50.037 17.7770841,50.74225 C16.2531963,51.44425 14.3563738,51.8505 12.0898318,51.9675 C9.78471028,52.08125 7.70463551,51.6815 5.84639252,50.7715 C3.99136449,49.8615 2.55428037,48.711 1.53835514,47.32975 C0.522429907,45.942 0.0241121495,44.42425 0.0434018692,42.7765 C0.0626915888,41.1255 0.795700935,39.5785 2.24242991,38.13875 C3.68915888,36.69575 5.25162617,35.6915 6.93304673,35.12275 C8.61125234,34.554 10.2348037,34.23875 11.797271,34.1835 C13.3597383,34.125 14.758243,34.229 15.9895701,34.4955 C17.2208972,34.762 18.127514,35.009 18.7158505,35.2365 L18.7158505,19.11975 C18.7158505,14.64125 18.7351402,9.594 18.7737196,3.978 C18.7737196,2.87625 19.0662804,1.976 19.6546168,1.274 C20.2365234,0.57525 21.017757,0.16575 21.9951028,0.052 C22.8149159,-0.06175 23.4900561,0.0975 24.0173084,0.53625 C24.5445607,0.97175 25.0814579,1.5795 25.628,2.35625 C26.1745421,3.13625 26.8496822,4.017 27.6502056,5.00175 C28.450729,5.98975 29.5341682,6.95825 30.9037383,7.904 C32.0771963,8.77825 33.1027664,9.40225 33.9804486,9.7825 C34.8581308,10.16275 35.6811589,10.51375 36.4431028,10.8355 C37.2050467,11.15725 37.9573458,11.54725 38.7,12.00225 C39.4426542,12.45725 40.2624673,13.19825 41.1626542,14.222 C42.0596262,15.20675 42.6093832,16.23375 42.8054953,17.2965 C43.0016075,18.35925 43.0112523,19.32775 42.8344299,20.19875 C42.6576075,21.06975 42.3746916,21.7815 41.9856822,22.334 C41.590243,22.8865 41.2591028,23.14325 40.9858318,23.10425 L40.9858318,23.10425 Z" id="Shape"></path>
                    </g>
                </g>
                <path d="M13.9797334,11.9797334 L68.5,66.5" id="Line" stroke="#333333" stroke-width="3" stroke-linecap="square"></path>
            </g>
        </g>
    </g>
</svg>