<?xml version="1.0" encoding="UTF-8"?>
<svg width="398px" height="64px" viewBox="0 0 398 64" version="1.1" xmlns="http://www.w3.org/2000/svg" xmlns:xlink="http://www.w3.org/1999/xlink">
    <!-- Generator: Sketch 43.2 (39069) - http://www.bohemiancoding.com/sketch -->
    <title>她的世界很小</title>
    <desc>Created with Sketch.</desc>
    <defs></defs>
    <g id="Page-1" stroke="none" stroke-width="1" fill="none" fill-rule="evenodd">
        <g id="我要认真爱妈妈" transform="translate(-386.000000, -1769.000000)" stroke="#FFFFFF" fill="#FFFFFF">
            <path d="M401.014126,1804.92 L401.050126,1804.92 L401.050126,1804.884 C401.050126,1804.86 401.038126,1804.848 401.014126,1804.848 C400.990126,1804.848 400.978126,1804.86 400.978126,1804.884 C400.978126,1804.908 400.990126,1804.92 401.014126,1804.92 Z M405.262126,1811.904 L405.010126,1812.12 L404.722126,1812.012 C404.530125,1811.94 404.386127,1811.796 404.290126,1811.58 C404.194126,1811.364 404.002128,1810.992 403.714126,1810.464 C403.426125,1809.936 403.186127,1809.588 402.994126,1809.42 C402.802125,1809.252 402.526128,1808.952 402.166126,1808.52 C401.806125,1808.088 401.590127,1807.788 401.518126,1807.62 C401.446126,1807.452 401.386127,1807.368 401.338126,1807.368 C401.290126,1807.368 401.110128,1807.104 400.798126,1806.576 C400.486125,1806.048 400.210128,1805.7 399.970126,1805.532 C399.730125,1805.364 399.490128,1805.148 399.250126,1804.884 C399.010125,1804.62 398.230133,1803.90001 396.910126,1802.724 C395.59012,1801.54799 393.838137,1799.89201 391.654126,1797.756 C389.470115,1795.61999 388.258128,1794.312 388.018126,1793.832 C387.778125,1793.352 387.502128,1792.896 387.190126,1792.464 C386.878125,1792.032 386.950124,1791.852 387.406126,1791.924 C387.862129,1791.996 388.366124,1792.164 388.918126,1792.428 C389.470129,1792.692 389.986124,1792.968 390.466126,1793.256 C390.946129,1793.544 391.258126,1793.796 391.402126,1794.012 C391.546127,1794.228 391.618126,1794.516 391.618126,1794.876 C391.618126,1795.236 392.350119,1796.15999 393.814126,1797.648 C395.278134,1799.13601 396.166125,1800 396.478126,1800.24 C396.790128,1800.48 397.258123,1800.924 397.882126,1801.572 C398.506129,1802.22 398.998125,1802.712 399.358126,1803.048 C399.718128,1803.384 400.078125,1803.768 400.438126,1804.2 C400.798128,1804.632 400.774128,1804.416 400.366126,1803.552 C399.958124,1802.688 399.934125,1802.268 400.294126,1802.292 C400.654128,1802.316 401.014125,1802.412 401.374126,1802.58 C401.734128,1802.748 402.022125,1802.952 402.238126,1803.192 C402.454127,1803.432 402.850123,1804.10399 403.426126,1805.208 C404.002129,1806.31201 404.398125,1807.2 404.614126,1807.872 C404.830127,1808.544 405.022126,1808.988 405.190126,1809.204 C405.358127,1809.42 405.478126,1809.684 405.550126,1809.996 C405.622127,1810.308 405.634127,1810.668 405.586126,1811.076 C405.538126,1811.484 405.430127,1811.76 405.262126,1811.904 Z M394.030126,1809.312 L394.282126,1809.384 L394.822126,1808.988 C395.182128,1808.724 395.518125,1808.4 395.830126,1808.016 C396.142128,1807.632 396.502124,1807.02 396.910126,1806.18 C397.318128,1805.34 397.918122,1803.80401 398.710126,1801.572 C399.50213,1799.33999 399.910126,1797.732 399.934126,1796.748 C399.958126,1795.764 399.658129,1795.428 399.034126,1795.74 C398.410123,1796.052 397.882129,1796.28 397.450126,1796.424 C397.018124,1796.568 396.778127,1796.64 396.730126,1796.64 C396.682126,1796.64 396.466128,1796.688 396.082126,1796.784 C395.698124,1796.88 395.482127,1796.928 395.434126,1796.928 C395.386126,1796.928 394.99013,1797.348 394.246126,1798.188 C393.502123,1799.028 393.106127,1799.448 393.058126,1799.448 C393.010126,1799.448 392.734129,1799.712 392.230126,1800.24 C391.726124,1800.768 391.462126,1801.032 391.438126,1801.032 C391.414126,1801.032 391.354127,1801.128 391.258126,1801.32 C391.162126,1801.512 391.102126,1801.608 391.078126,1801.608 C391.054126,1801.608 391.006127,1801.74 390.934126,1802.004 C390.862126,1802.268 390.814126,1802.4 390.790126,1802.4 C390.766126,1802.4 390.742126,1802.64 390.718126,1803.12 C390.694126,1803.6 390.718126,1803.984 390.790126,1804.272 C390.862127,1804.56 390.970126,1804.836 391.114126,1805.1 C391.258127,1805.364 391.570124,1805.94 392.050126,1806.828 C392.530129,1807.716 392.938125,1808.34 393.274126,1808.7 C393.610128,1809.06 393.862126,1809.264 394.030126,1809.312 Z M396.190126,1812.624 L395.506126,1812.696 L395.362126,1812.696 C395.266126,1812.696 395.098128,1812.624 394.858126,1812.48 C394.618125,1812.336 394.402127,1812.216 394.210126,1812.12 C394.018125,1812.024 393.790128,1811.832 393.526126,1811.544 C393.262125,1811.256 392.962128,1810.956 392.626126,1810.644 C392.290125,1810.332 391.954128,1809.876 391.618126,1809.276 C391.282125,1808.676 390.910128,1808.052 390.502126,1807.404 C390.094124,1806.756 389.602129,1805.84401 389.026126,1804.668 C388.450123,1803.49199 388.066127,1802.532 387.874126,1801.788 C387.682125,1801.044 387.622126,1800.468 387.694126,1800.06 C387.766127,1799.652 387.898125,1799.244 388.090126,1798.836 C388.282127,1798.428 388.522125,1798.116 388.810126,1797.9 C389.098128,1797.684 389.554123,1797.372 390.178126,1796.964 C390.802129,1796.556 391.462123,1796.052 392.158126,1795.452 C392.85413,1794.852 393.610122,1794.348 394.426126,1793.94 C395.24213,1793.532 396.23812,1792.98 397.414126,1792.284 C398.590132,1791.588 399.310125,1790.66401 399.574126,1789.512 C399.838128,1788.35999 400.126125,1787.796 400.438126,1787.82 C400.750128,1787.844 401.026125,1787.904 401.266126,1788 C401.506128,1788.096 401.758125,1788.276 402.022126,1788.54 C402.286128,1788.804 402.442126,1789.02 402.490126,1789.188 C402.538127,1789.356 402.646126,1789.416 402.814126,1789.368 C402.982127,1789.32 403.114126,1789.248 403.210126,1789.152 C403.306127,1789.056 403.522125,1789.008 403.858126,1789.008 C404.194128,1789.008 404.506125,1789.068 404.794126,1789.188 C405.082128,1789.308 405.346125,1789.488 405.586126,1789.728 C405.826128,1789.968 405.982126,1790.208 406.054126,1790.448 C406.126127,1790.688 406.162126,1791.096 406.162126,1791.672 C406.162126,1792.248 406.114127,1792.608 406.018126,1792.752 C405.922126,1792.896 405.598129,1793.052 405.046126,1793.22 C404.494124,1793.388 404.158127,1793.472 404.038126,1793.472 C403.918126,1793.472 403.642129,1793.568 403.210126,1793.76 C402.778124,1793.952 402.538127,1794.048 402.490126,1794.048 C402.442126,1794.048 402.370127,1794.99599 402.274126,1796.892 C402.178126,1798.78801 401.73413,1800.87599 400.942126,1803.156 C400.150122,1805.43601 399.502129,1806.924 398.998126,1807.62 C398.494124,1808.316 398.230126,1808.664 398.206126,1808.664 C398.182126,1808.664 398.098127,1808.88 397.954126,1809.312 C397.810126,1809.744 397.726126,1809.96 397.702126,1809.96 C397.678126,1809.96 397.594127,1810.308 397.450126,1811.004 C397.306126,1811.7 397.174127,1812.132 397.054126,1812.3 C396.934126,1812.468 396.646129,1812.576 396.190126,1812.624 Z M427.870126,1785.912 L427.906126,1785.912 L427.906126,1785.876 C427.906126,1785.852 427.894126,1785.84 427.870126,1785.84 C427.846126,1785.84 427.834126,1785.852 427.834126,1785.876 C427.834126,1785.9 427.846126,1785.912 427.870126,1785.912 Z M421.102126,1794.876 L421.210126,1795.128 L421.750126,1794.372 C422.110128,1793.868 423.070119,1792.62001 424.630126,1790.628 C426.190134,1788.63599 427.114125,1787.352 427.402126,1786.776 C427.690128,1786.2 427.810127,1785.924 427.762126,1785.948 C427.714126,1785.972 427.654127,1785.984 427.582126,1785.984 C427.510126,1785.984 427.258129,1786.104 426.826126,1786.344 C426.394124,1786.584 425.902129,1786.872 425.350126,1787.208 C424.798124,1787.544 424.498127,1787.712 424.450126,1787.712 C424.402126,1787.712 424.066129,1787.964 423.442126,1788.468 C422.818123,1788.972 422.482127,1789.224 422.434126,1789.224 C422.386126,1789.224 422.254127,1789.332 422.038126,1789.548 C421.822125,1789.764 421.690127,1789.872 421.642126,1789.872 C421.594126,1789.872 421.414128,1790.004 421.102126,1790.268 C420.790125,1790.532 420.610127,1790.664 420.562126,1790.664 C420.514126,1790.664 420.346128,1790.796 420.058126,1791.06 C419.770125,1791.324 419.602127,1791.456 419.554126,1791.456 C419.506126,1791.456 419.338128,1791.576 419.050126,1791.816 C418.762125,1792.056 418.798125,1792.236 419.158126,1792.356 C419.518128,1792.476 419.794125,1792.608 419.986126,1792.752 C420.178127,1792.896 420.370125,1793.1 420.562126,1793.364 C420.754127,1793.628 420.874126,1793.904 420.922126,1794.192 C420.970127,1794.48 421.030126,1794.708 421.102126,1794.876 Z M421.642126,1800.204 L421.354126,1800.456 L421.210126,1800.456 C421.114126,1800.456 420.994127,1800.396 420.850126,1800.276 C420.706126,1800.156 420.538127,1799.868 420.346126,1799.412 C420.154125,1798.956 419.902128,1798.524 419.590126,1798.116 C419.278125,1797.708 419.014127,1797.288 418.798126,1796.856 C418.582125,1796.424 418.462126,1795.98 418.438126,1795.524 C418.414126,1795.068 418.330127,1794.492 418.186126,1793.796 C418.042126,1793.1 417.958126,1792.764 417.934126,1792.788 C417.910126,1792.812 417.874127,1792.824 417.826126,1792.824 C417.778126,1792.824 417.658127,1792.92 417.466126,1793.112 C417.274125,1793.304 417.154127,1793.4 417.106126,1793.4 C417.058126,1793.4 416.782129,1793.748 416.278126,1794.444 C415.774124,1795.14 415.342128,1795.656 414.982126,1795.992 C414.622125,1796.328 414.418127,1796.496 414.370126,1796.496 C414.322126,1796.496 414.178128,1796.604 413.938126,1796.82 C413.698125,1797.036 413.554127,1797.144 413.506126,1797.144 C413.458126,1797.144 413.290128,1797.264 413.002126,1797.504 C412.714125,1797.744 412.558126,1797.864 412.534126,1797.864 C412.510126,1797.864 412.486126,1797.936 412.462126,1798.08 C412.438126,1798.224 412.390127,1798.344 412.318126,1798.44 C412.246126,1798.536 411.742131,1798.8 410.806126,1799.232 C409.870122,1799.664 409.306127,1799.856 409.114126,1799.808 C408.922125,1799.76 408.718127,1799.508 408.502126,1799.052 C408.286125,1798.596 408.022128,1798.152 407.710126,1797.72 C407.398125,1797.288 407.602123,1796.892 408.322126,1796.532 C409.04213,1796.172 409.510125,1795.968 409.726126,1795.92 C409.942127,1795.872 410.554121,1795.536 411.562126,1794.912 C412.570131,1794.288 413.470122,1793.688 414.262126,1793.112 C415.05413,1792.536 416.254118,1791.52801 417.862126,1790.088 C419.470134,1788.64799 421.102118,1787.29201 422.758126,1786.02 C424.414135,1784.74799 425.518124,1783.944 426.070126,1783.608 C426.622129,1783.272 427.198123,1782.984 427.798126,1782.744 C428.398129,1782.504 428.902124,1782.396 429.310126,1782.42 C429.718128,1782.444 430.138124,1782.576 430.570126,1782.816 C431.002129,1783.056 431.338125,1783.308 431.578126,1783.572 C431.818128,1783.836 431.974126,1784.112 432.046126,1784.4 C432.118127,1784.688 432.130127,1785.084 432.082126,1785.588 C432.034126,1786.092 431.890128,1786.488 431.650126,1786.776 C431.410125,1787.064 431.278126,1787.208 431.254126,1787.208 C431.230126,1787.208 431.074128,1787.448 430.786126,1787.928 C430.498125,1788.408 430.342126,1788.648 430.318126,1788.648 C430.294126,1788.648 430.186127,1788.816 429.994126,1789.152 C429.802125,1789.488 429.490129,1789.896 429.058126,1790.376 C428.626124,1790.856 427.846132,1791.65999 426.718126,1792.788 C425.590121,1793.91601 425.014126,1794.48 424.990126,1794.48 C424.966126,1794.48 424.810128,1794.72 424.522126,1795.2 C424.234125,1795.68 423.802129,1796.364 423.226126,1797.252 C422.650123,1798.14 422.350126,1798.584 422.326126,1798.584 C422.302126,1798.584 422.278126,1798.68 422.254126,1798.872 C422.230126,1799.064 422.170127,1799.292 422.074126,1799.556 C421.978126,1799.82 421.834127,1800.036 421.642126,1800.204 Z M419.950126,1802.4 L419.698126,1802.616 L419.554126,1802.616 C419.458126,1802.616 419.350127,1802.556 419.230126,1802.436 C419.110126,1802.316 418.954127,1802.208 418.762126,1802.112 C418.570125,1802.016 417.994131,1801.584 417.034126,1800.816 C416.074122,1800.048 415.522127,1799.484 415.378126,1799.124 C415.234126,1798.764 414.958128,1798.296 414.550126,1797.72 C414.142124,1797.144 414.106125,1796.856 414.442126,1796.856 C414.778128,1796.856 415.078125,1796.904 415.342126,1797 C415.606128,1797.096 415.978124,1797.324 416.458126,1797.684 C416.938129,1798.044 417.190126,1797.744 417.214126,1796.784 C417.238126,1795.824 417.106128,1793.22002 416.818126,1788.972 C416.530125,1784.72398 416.542125,1782.612 416.854126,1782.636 C417.166128,1782.66 417.442125,1782.72 417.682126,1782.816 C417.922128,1782.912 418.174125,1783.092 418.438126,1783.356 C418.702128,1783.62 418.990125,1784.37599 419.302126,1785.624 C419.614128,1786.87201 419.770126,1787.7 419.770126,1788.108 C419.770126,1788.516 419.698127,1788.78 419.554126,1788.9 C419.410126,1789.02 419.254127,1789.056 419.086126,1789.008 C418.918126,1788.96 418.918126,1790.38799 419.086126,1793.292 C419.254127,1796.19601 419.278127,1797.852 419.158126,1798.26 C419.038126,1798.668 419.002126,1798.98 419.050126,1799.196 C419.098127,1799.412 419.206126,1799.592 419.374126,1799.736 C419.542127,1799.88 419.722125,1800.084 419.914126,1800.348 C420.106127,1800.612 420.214126,1800.876 420.238126,1801.14 C420.262126,1801.404 420.262126,1801.644 420.238126,1801.86 C420.214126,1802.076 420.118127,1802.256 419.950126,1802.4 Z M418.294126,1816.476 L417.106126,1816.728 L416.386126,1816.584 C415.906124,1816.488 415.474128,1816.26 415.090126,1815.9 C414.706124,1815.54 414.406127,1815.204 414.190126,1814.892 C413.974125,1814.58 413.806127,1814.364 413.686126,1814.244 C413.566126,1814.124 413.374128,1813.788 413.110126,1813.236 C412.846125,1812.684 412.570128,1812.228 412.282126,1811.868 C411.994125,1811.508 411.718128,1810.872 411.454126,1809.96 C411.190125,1809.048 411.010127,1808.316 410.914126,1807.764 C410.818126,1807.212 410.722127,1806.06001 410.626126,1804.308 C410.530126,1802.55599 410.410127,1800.84001 410.266126,1799.16 C410.122126,1797.47999 409.882128,1796.01601 409.546126,1794.768 C409.210125,1793.51999 408.994127,1792.548 408.898126,1791.852 C408.802126,1791.156 408.598128,1789.80001 408.286126,1787.784 C407.974125,1785.76799 407.806126,1784.352 407.782126,1783.536 C407.758126,1782.72 407.926125,1782.324 408.286126,1782.348 C408.646128,1782.372 408.958125,1782.432 409.222126,1782.528 C409.486128,1782.624 409.714125,1782.744 409.906126,1782.888 C410.098127,1783.032 410.290125,1783.236 410.482126,1783.5 C410.674127,1783.764 410.782126,1784.304 410.806126,1785.12 C410.830126,1785.936 410.878126,1786.488 410.950126,1786.776 C411.022127,1787.064 411.178125,1788.31199 411.418126,1790.52 C411.658128,1792.72801 411.862126,1794.12 412.030126,1794.696 C412.198127,1795.272 412.330126,1795.92 412.426126,1796.64 C412.522127,1797.36 412.558126,1798.14 412.534126,1798.98 C412.510126,1799.82 412.486126,1800.24 412.462126,1800.24 C412.438126,1800.24 412.426126,1800.636 412.426126,1801.428 C412.426126,1802.22 412.474126,1803 412.570126,1803.768 C412.666127,1804.536 412.714126,1805.43599 412.714126,1806.468 C412.714126,1807.50001 412.702126,1808.016 412.678126,1808.016 C412.654126,1808.016 412.642126,1808.208 412.642126,1808.592 C412.642126,1808.976 412.702126,1809.276 412.822126,1809.492 C412.942127,1809.708 413.026126,1809.9 413.074126,1810.068 C413.122127,1810.236 413.326125,1810.632 413.686126,1811.256 C414.046128,1811.88 414.394125,1812.384 414.730126,1812.768 C415.066128,1813.152 415.474124,1813.356 415.954126,1813.38 C416.434129,1813.404 416.926124,1813.38 417.430126,1813.308 C417.934129,1813.236 418.534123,1813.104 419.230126,1812.912 C419.92613,1812.72 420.95812,1812.384 422.326126,1811.904 C423.694133,1811.424 425.206118,1810.812 426.862126,1810.068 C428.518135,1809.324 429.898121,1808.664 431.002126,1808.088 C432.106132,1807.512 432.706126,1807.164 432.802126,1807.044 C432.898127,1806.924 432.886127,1806.828 432.766126,1806.756 C432.646126,1806.684 432.526127,1806.636 432.406126,1806.612 C432.286126,1806.588 432.214126,1806.552 432.190126,1806.504 C432.166126,1806.456 431.974128,1806.36 431.614126,1806.216 C431.254125,1806.072 430.918128,1805.904 430.606126,1805.712 C430.294125,1805.52 429.970128,1805.328 429.634126,1805.136 L428.626126,1804.56 C428.290125,1804.368 428.062127,1804.248 427.942126,1804.2 C427.822126,1804.152 427.534129,1803.984 427.078126,1803.696 C426.622124,1803.408 426.238128,1803 425.926126,1802.472 C425.614125,1801.944 425.518126,1801.668 425.638126,1801.644 C425.758127,1801.62 425.926125,1801.656 426.142126,1801.752 C426.358127,1801.848 427.07812,1802.172 428.302126,1802.724 C429.526132,1803.276 430.76212,1803.792 432.010126,1804.272 C433.258133,1804.752 434.194123,1805.232 434.818126,1805.712 C435.442129,1806.192 435.826126,1806.54 435.970126,1806.756 C436.114127,1806.972 436.186126,1807.248 436.186126,1807.584 C436.186126,1807.92 436.138127,1808.172 436.042126,1808.34 C435.946126,1808.508 435.874127,1808.592 435.826126,1808.592 C435.778126,1808.592 435.718127,1808.64 435.646126,1808.736 C435.574126,1808.832 435.502127,1808.88 435.430126,1808.88 C435.358126,1808.88 435.322126,1808.904 435.322126,1808.952 C435.322126,1809 435.286127,1809.024 435.214126,1809.024 C435.142126,1809.024 435.106126,1809.048 435.106126,1809.096 C435.106126,1809.144 435.010127,1809.228 434.818126,1809.348 C434.626125,1809.468 434.470127,1809.528 434.350126,1809.528 C434.230126,1809.528 433.918129,1809.636 433.414126,1809.852 C432.910124,1810.068 432.598127,1810.176 432.478126,1810.176 C432.358126,1810.176 432.202127,1810.236 432.010126,1810.356 C431.818125,1810.476 431.662127,1810.536 431.542126,1810.536 C431.422126,1810.536 431.194128,1810.62 430.858126,1810.788 C430.522125,1810.956 430.306127,1811.04 430.210126,1811.04 C430.114126,1811.04 429.958127,1811.1 429.742126,1811.22 C429.526125,1811.34 429.382127,1811.4 429.310126,1811.4 C429.238126,1811.4 428.662132,1811.664 427.582126,1812.192 C426.502121,1812.72 425.57813,1813.224 424.810126,1813.704 C424.042123,1814.184 423.26213,1814.616 422.470126,1815 C421.678122,1815.384 420.982129,1815.684 420.382126,1815.9 C419.782123,1816.116 419.08613,1816.308 418.294126,1816.476 Z M474.418126,1789.692 C474.610127,1789.524 474.802125,1789.212 474.994126,1788.756 C475.186127,1788.3 475.282126,1787.856 475.282126,1787.424 C475.282126,1786.992 475.210127,1786.56 475.066126,1786.128 C474.922126,1785.696 474.694128,1785.312 474.382126,1784.976 C474.070125,1784.64 473.602129,1784.268 472.978126,1783.86 C472.354123,1783.452 471.910128,1783.2 471.646126,1783.104 C471.382125,1783.008 471.010129,1782.96 470.530126,1782.96 C470.050124,1782.96 468.526139,1783.296 465.958126,1783.968 C463.390113,1784.64 462.226125,1785.108 462.466126,1785.372 C462.706127,1785.636 462.994125,1786.08 463.330126,1786.704 C463.666128,1787.328 463.870126,1787.724 463.942126,1787.892 C464.014127,1788.06 464.170125,1788.168 464.410126,1788.216 C464.650127,1788.264 465.910115,1788 468.190126,1787.424 C470.470138,1786.848 471.790124,1786.8 472.150126,1787.28 C472.510128,1787.76 472.798125,1788.216 473.014126,1788.648 C473.230127,1789.08 473.374126,1789.38 473.446126,1789.548 C473.518127,1789.716 473.650125,1789.824 473.842126,1789.872 L474.130126,1789.944 L474.418126,1789.692 Z M490.654126,1810.212 L491.050126,1810.248 L491.950126,1809.996 C492.550129,1809.828 493.174123,1809.48 493.822126,1808.952 C494.47013,1808.424 495.142123,1807.716 495.838126,1806.828 C496.53413,1805.94 496.966125,1805.34 497.134126,1805.028 C497.302127,1804.716 496.786132,1804.452 495.586126,1804.236 C494.38612,1804.02 493.630128,1803.924 493.318126,1803.948 C493.006125,1803.972 492.730127,1803.984 492.490126,1803.984 C492.250125,1803.984 492.010127,1804.02 491.770126,1804.092 C491.530125,1804.164 491.350127,1804.2 491.230126,1804.2 C491.110126,1804.2 490.882128,1804.332 490.546126,1804.596 C490.210125,1804.86 490.030126,1804.992 490.006126,1804.992 C489.982126,1804.992 489.922127,1805.088 489.826126,1805.28 C489.730126,1805.472 489.670126,1805.568 489.646126,1805.568 C489.622126,1805.568 489.538127,1805.712 489.394126,1806 C489.250126,1806.288 489.166126,1806.432 489.142126,1806.432 C489.118126,1806.432 489.118126,1806.732 489.142126,1807.332 C489.166126,1807.932 489.250126,1808.352 489.394126,1808.592 C489.538127,1808.832 489.718125,1809.156 489.934126,1809.564 C490.150127,1809.972 490.390125,1810.188 490.654126,1810.212 Z M468.190126,1813.272 L467.794126,1813.632 L467.650126,1813.632 C467.554126,1813.632 467.410127,1813.56 467.218126,1813.416 C467.026125,1813.272 466.894127,1813.116 466.822126,1812.948 C466.750126,1812.78 466.570128,1812.42 466.282126,1811.868 C465.994125,1811.316 465.718128,1810.884 465.454126,1810.572 C465.190125,1810.26 465.046126,1809.996 465.022126,1809.78 C464.998126,1809.564 464.962127,1809.432 464.914126,1809.384 C464.866126,1809.336 464.818127,1809.252 464.770126,1809.132 C464.722126,1809.012 464.254131,1808.46 463.366126,1807.476 C462.478122,1806.492 461.998127,1805.916 461.926126,1805.748 C461.854126,1805.58 461.698127,1805.256 461.458126,1804.776 C461.218125,1804.296 460.942128,1803.864 460.630126,1803.48 C460.318125,1803.096 460.102127,1802.544 459.982126,1801.824 C459.862126,1801.104 459.982124,1800.756 460.342126,1800.78 C460.702128,1800.804 461.050125,1800.888 461.386126,1801.032 C461.722128,1801.176 462.046125,1801.416 462.358126,1801.752 C462.670128,1802.088 462.874126,1802.58 462.970126,1803.228 C463.066127,1803.876 463.606121,1804.76399 464.590126,1805.892 C465.574131,1807.02001 466.126126,1807.596 466.246126,1807.62 C466.366127,1807.644 466.450126,1807.596 466.498126,1807.476 C466.546127,1807.356 466.702125,1807.164 466.966126,1806.9 C467.230128,1806.636 467.662123,1806.096 468.262126,1805.28 C468.862129,1804.464 469.402124,1803.888 469.882126,1803.552 C470.362129,1803.216 470.770125,1802.964 471.106126,1802.796 C471.442128,1802.628 471.934123,1802.544 472.582126,1802.544 C473.23013,1802.544 473.590126,1802.568 473.662126,1802.616 C473.734127,1802.664 473.794126,1802.544 473.842126,1802.256 C473.890127,1801.968 474.082125,1801.488 474.418126,1800.816 C474.754128,1800.144 475.210123,1799.412 475.786126,1798.62 C476.362129,1797.828 477.094122,1797.084 477.982126,1796.388 C478.870131,1795.692 479.830121,1795.056 480.862126,1794.48 C481.894131,1793.904 482.962121,1793.424 484.066126,1793.04 C485.170132,1792.656 486.778116,1792.356 488.890126,1792.14 C491.002137,1791.924 492.73012,1791.876 494.074126,1791.996 C495.418133,1792.116 496.426123,1792.308 497.098126,1792.572 C497.77013,1792.836 498.490122,1793.172 499.258126,1793.58 C500.02613,1793.988 500.530125,1794.312 500.770126,1794.552 C501.010127,1794.792 501.214125,1795.068 501.382126,1795.38 C501.550127,1795.692 501.658126,1795.932 501.706126,1796.1 C501.754127,1796.268 501.838126,1796.448 501.958126,1796.64 C502.078127,1796.832 502.186126,1797.336 502.282126,1798.152 C502.378127,1798.968 502.318127,1799.868 502.102126,1800.852 C501.886125,1801.836 501.610128,1802.652 501.274126,1803.3 C500.938125,1803.948 500.782126,1804.416 500.806126,1804.704 C500.830126,1804.992 500.794127,1805.208 500.698126,1805.352 C500.602126,1805.496 500.458127,1805.568 500.266126,1805.568 C500.074125,1805.568 499.942127,1805.64 499.870126,1805.784 C499.798126,1805.928 499.750126,1806 499.726126,1806 C499.702126,1806 499.594127,1806.168 499.402126,1806.504 C499.210125,1806.84 498.994127,1807.176 498.754126,1807.512 C498.514125,1807.848 498.370127,1808.016 498.322126,1808.016 C498.274126,1808.016 498.034128,1808.316 497.602126,1808.916 C497.170124,1809.516 496.61813,1810.164 495.946126,1810.86 C495.274123,1811.556 494.650129,1812.048 494.074126,1812.336 C493.498123,1812.624 493.030128,1812.816 492.670126,1812.912 C492.310124,1813.008 491.926128,1813.056 491.518126,1813.056 C491.110124,1813.056 490.642129,1812.84 490.114126,1812.408 C489.586124,1811.976 489.202127,1811.508 488.962126,1811.004 C488.722125,1810.5 488.494127,1810.116 488.278126,1809.852 C488.062125,1809.588 487.738128,1809.048 487.306126,1808.232 C486.874124,1807.416 486.646126,1806.576 486.622126,1805.712 C486.598126,1804.848 486.730125,1804.092 487.018126,1803.444 C487.306128,1802.796 487.678124,1802.292 488.134126,1801.932 C488.590129,1801.572 489.40612,1801.332 490.582126,1801.212 C491.758132,1801.092 492.850121,1801.128 493.858126,1801.32 C494.866131,1801.512 495.874121,1801.8 496.882126,1802.184 C497.890131,1802.568 498.514125,1802.388 498.754126,1801.644 C498.994127,1800.9 499.186126,1800.096 499.330126,1799.232 C499.474127,1798.368 499.510127,1797.6 499.438126,1796.928 C499.366126,1796.256 499.306127,1795.896 499.258126,1795.848 C499.210126,1795.8 498.922129,1795.62 498.394126,1795.308 C497.866124,1794.996 497.470128,1794.768 497.206126,1794.624 C496.942125,1794.48 496.48613,1794.336 495.838126,1794.192 C495.190123,1794.048 494.734128,1793.964 494.470126,1793.94 C494.206125,1793.916 494.050127,1793.88 494.002126,1793.832 C493.954126,1793.784 493.846127,1793.772 493.678126,1793.796 C493.510125,1793.82 493.354127,1793.832 493.210126,1793.832 C493.066126,1793.832 492.814128,1793.844 492.454126,1793.868 C492.094124,1793.892 491.854127,1793.904 491.734126,1793.904 C491.614126,1793.904 490.918133,1793.94 489.646126,1794.012 C488.37412,1794.084 487.630127,1794.12 487.414126,1794.12 C487.198125,1794.12 486.68213,1794.276 485.866126,1794.588 C485.050122,1794.9 484.606127,1795.056 484.534126,1795.056 C484.462126,1795.056 484.306127,1795.128 484.066126,1795.272 C483.826125,1795.416 483.682127,1795.488 483.634126,1795.488 C483.586126,1795.488 483.334129,1795.644 482.878126,1795.956 C482.422124,1796.268 482.170127,1796.424 482.122126,1796.424 C482.074126,1796.424 481.942127,1796.508 481.726126,1796.676 C481.510125,1796.844 481.378127,1796.928 481.330126,1796.928 C481.282126,1796.928 481.150127,1797.024 480.934126,1797.216 C480.718125,1797.408 480.586127,1797.504 480.538126,1797.504 C480.490126,1797.504 480.406127,1797.576 480.286126,1797.72 C480.166126,1797.864 479.878129,1798.128 479.422126,1798.512 C478.966124,1798.896 478.726126,1799.088 478.702126,1799.088 C478.678126,1799.088 478.606127,1799.244 478.486126,1799.556 C478.366126,1799.868 478.294126,1800.024 478.270126,1800.024 C478.246126,1800.024 478.162127,1800.204 478.018126,1800.564 C477.874126,1800.924 477.790126,1801.104 477.766126,1801.104 C477.742126,1801.104 477.574128,1801.56 477.262126,1802.472 C476.950125,1803.384 476.782126,1803.84 476.758126,1803.84 C476.734126,1803.84 476.710126,1804.092 476.686126,1804.596 C476.662126,1805.1 476.698126,1805.412 476.794126,1805.532 C476.890127,1805.652 476.962126,1806 477.010126,1806.576 C477.058127,1807.152 477.130126,1807.692 477.226126,1808.196 C477.322127,1808.7 477.346127,1809.156 477.298126,1809.564 C477.250126,1809.972 477.214126,1810.176 477.190126,1810.176 C477.166126,1810.176 477.118127,1810.488 477.046126,1811.112 C476.974126,1811.736 476.854127,1812.12 476.686126,1812.264 C476.518125,1812.408 476.386127,1812.48 476.290126,1812.48 C476.194126,1812.48 476.050127,1812.408 475.858126,1812.264 C475.666125,1812.12 475.534127,1811.964 475.462126,1811.796 C475.390126,1811.628 475.210128,1811.268 474.922126,1810.716 C474.634125,1810.164 474.358128,1809.732 474.094126,1809.42 C473.830125,1809.108 473.686126,1808.484 473.662126,1807.548 C473.638126,1806.612 473.398129,1806.3 472.942126,1806.612 C472.486124,1806.924 472.234127,1807.08 472.186126,1807.08 C472.138126,1807.08 471.886129,1807.404 471.430126,1808.052 C470.974124,1808.7 470.566128,1809.216 470.206126,1809.6 C469.846124,1809.984 469.654126,1810.176 469.630126,1810.176 C469.606126,1810.176 469.582126,1810.272 469.558126,1810.464 C469.534126,1810.656 469.414127,1810.932 469.198126,1811.292 C468.982125,1811.652 468.862126,1811.832 468.838126,1811.832 C468.814126,1811.832 468.766127,1812.012 468.694126,1812.372 C468.622126,1812.732 468.454128,1813.032 468.190126,1813.272 Z M534.394126,1800.564 L533.890126,1800.744 L530.218126,1800.492 C527.770114,1800.324 526.414128,1800.204 526.150126,1800.132 C525.886125,1800.06 525.682127,1799.856 525.538126,1799.52 C525.394125,1799.184 525.190128,1798.824 524.926126,1798.44 C524.662125,1798.056 525.766114,1797.96 528.238126,1798.152 C530.710139,1798.344 533.60211,1798.092 536.914126,1797.396 C540.226143,1796.7 542.818117,1796.1 544.690126,1795.596 C546.562136,1795.092 548.386117,1794.66 550.162126,1794.3 C551.938135,1793.94 553.666118,1793.544 555.346126,1793.112 C557.026135,1792.68 558.862116,1792.32 560.854126,1792.032 C562.846136,1791.744 564.44212,1791.588 565.642126,1791.564 C566.842132,1791.54 567.406127,1791.48 567.334126,1791.384 C567.262126,1791.288 567.418124,1791.264 567.802126,1791.312 C568.186128,1791.36 568.738123,1791.42 569.458126,1791.492 C570.17813,1791.564 570.718124,1791.672 571.078126,1791.816 C571.438128,1791.96 571.774125,1792.2 572.086126,1792.536 C572.398128,1792.872 572.566126,1793.172 572.590126,1793.436 C572.614126,1793.7 572.614126,1793.952 572.590126,1794.192 C572.566126,1794.432 572.470127,1794.624 572.302126,1794.768 C572.134125,1794.912 571.834128,1794.984 571.402126,1794.984 C570.970124,1794.984 570.538128,1794.936 570.106126,1794.84 C569.674124,1794.744 569.374127,1794.6 569.206126,1794.408 C569.038125,1794.216 568.306133,1794.036 567.010126,1793.868 C565.71412,1793.7 564.73013,1793.592 564.058126,1793.544 C563.386123,1793.496 562.954127,1793.484 562.762126,1793.508 C562.570125,1793.532 562.414127,1793.544 562.294126,1793.544 C562.174126,1793.544 562.006127,1793.556 561.790126,1793.58 C561.574125,1793.604 561.418127,1793.616 561.322126,1793.616 C561.226126,1793.616 561.058127,1793.628 560.818126,1793.652 C560.578125,1793.676 560.422127,1793.688 560.350126,1793.688 C560.278126,1793.688 560.110128,1793.7 559.846126,1793.724 C559.582125,1793.748 559.414127,1793.76 559.342126,1793.76 C559.270126,1793.76 558.89813,1793.82 558.226126,1793.94 C557.554123,1794.06 557.194126,1794.12 557.146126,1794.12 C557.098126,1794.12 556.894128,1794.156 556.534126,1794.228 C556.174124,1794.3 555.982126,1794.336 555.958126,1794.336 C555.934126,1794.336 555.790128,1794.36 555.526126,1794.408 C555.262125,1794.456 555.022127,1794.48 554.806126,1794.48 C554.590125,1794.48 554.314128,1794.528 553.978126,1794.624 C553.642125,1794.72 553.426127,1794.768 553.330126,1794.768 C553.234126,1794.768 552.934129,1794.816 552.430126,1794.912 C551.926124,1795.008 551.554127,1795.056 551.314126,1795.056 C551.074125,1795.056 550.786128,1795.104 550.450126,1795.2 C550.114125,1795.296 549.862127,1795.344 549.694126,1795.344 C549.526125,1795.344 549.406127,1795.356 549.334126,1795.38 C549.262126,1795.404 549.166127,1795.416 549.046126,1795.416 C548.926126,1795.416 548.698128,1795.512 548.362126,1795.704 C548.026125,1795.896 547.822127,1795.992 547.750126,1795.992 C547.678126,1795.992 547.618126,1796.028 547.570126,1796.1 C547.522126,1796.172 547.462127,1796.208 547.390126,1796.208 C547.318126,1796.208 546.790131,1796.484 545.806126,1797.036 C544.822121,1797.588 544.042129,1797.948 543.466126,1798.116 C542.890123,1798.284 542.062132,1798.512 540.982126,1798.8 C539.902121,1799.088 539.146128,1799.292 538.714126,1799.412 C538.282124,1799.532 538.006127,1799.592 537.886126,1799.592 C537.766126,1799.592 537.610127,1799.64 537.418126,1799.736 C537.226125,1799.832 537.070127,1799.88 536.950126,1799.88 C536.830126,1799.88 536.506129,1799.964 535.978126,1800.132 C535.450124,1800.3 535.138127,1800.384 535.042126,1800.384 C534.946126,1800.384 534.730128,1800.444 534.394126,1800.564 Z M553.294126,1807.728 L553.042126,1807.944 L552.898126,1807.944 C552.802126,1807.944 552.682127,1807.896 552.538126,1807.8 C552.394125,1807.704 552.190128,1807.356 551.926126,1806.756 C551.662125,1806.156 551.362128,1805.652 551.026126,1805.244 C550.690125,1804.836 550.510126,1802.95202 550.486126,1799.592 C550.462126,1796.23198 550.270128,1793.67601 549.910126,1791.924 C549.550124,1790.17199 549.046129,1788.84 548.398126,1787.928 C547.750123,1787.016 547.318127,1786.584 547.102126,1786.632 C546.886125,1786.68 546.658127,1786.68 546.418126,1786.632 C546.178125,1786.584 545.986127,1786.38 545.842126,1786.02 C545.698125,1785.66 545.434128,1785.204 545.050126,1784.652 C544.666124,1784.1 544.642125,1783.776 544.978126,1783.68 C545.314128,1783.584 545.698124,1783.548 546.130126,1783.572 C546.562128,1783.596 546.946125,1783.704 547.282126,1783.896 C547.618128,1784.088 547.954125,1784.424 548.290126,1784.904 C548.626128,1785.384 548.842126,1785.732 548.938126,1785.948 C549.034127,1786.164 549.142126,1786.344 549.262126,1786.488 C549.382127,1786.632 549.766123,1787.21999 550.414126,1788.252 C551.062129,1789.28401 551.446126,1789.956 551.566126,1790.268 C551.686127,1790.58 551.770126,1790.964 551.818126,1791.42 C551.866126,1791.876 551.962125,1792.404 552.106126,1793.004 C552.250127,1793.604 552.346126,1794.144 552.394126,1794.624 C552.442126,1795.104 552.502126,1795.464 552.574126,1795.704 C552.646127,1795.944 552.622127,1796.388 552.502126,1797.036 C552.382126,1797.684 552.490125,1798.176 552.826126,1798.512 C553.162128,1798.848 553.318126,1799.83199 553.294126,1801.464 C553.270126,1803.09601 553.294126,1804.116 553.366126,1804.524 C553.438127,1804.932 553.510126,1805.316 553.582126,1805.676 C553.654127,1806.036 553.666126,1806.432 553.618126,1806.864 C553.570126,1807.296 553.462127,1807.584 553.294126,1807.728 Z M553.294126,1809.168 L553.042126,1809.384 L552.898126,1809.384 C552.802126,1809.384 552.682127,1809.336 552.538126,1809.24 C552.394125,1809.144 552.190128,1808.796 551.926126,1808.196 C551.662125,1807.596 551.362128,1807.092 551.026126,1806.684 C550.690125,1806.276 550.510126,1805.952 550.486126,1805.712 C550.462126,1805.472 550.486126,1805.316 550.558126,1805.244 C550.630127,1805.172 550.834125,1805.076 551.170126,1804.956 C551.506128,1804.836 551.950123,1804.572 552.502126,1804.164 C553.054129,1803.756 553.522124,1803.456 553.906126,1803.264 C554.290128,1803.072 554.554125,1802.916 554.698126,1802.796 C554.842127,1802.676 555.394121,1801.92001 556.354126,1800.528 C557.314131,1799.13599 558.046124,1797.96 558.550126,1797 C559.054129,1796.04 559.558124,1794.44401 560.062126,1792.212 C560.566129,1789.97999 560.722127,1788.30001 560.530126,1787.172 C560.338125,1786.04399 560.158127,1785.528 559.990126,1785.624 C559.822125,1785.72 559.678127,1785.768 559.558126,1785.768 C559.438126,1785.768 559.306127,1785.72 559.162126,1785.624 C559.018125,1785.528 558.826127,1785.204 558.586126,1784.652 C558.346125,1784.1 558.046128,1783.584 557.686126,1783.104 C557.326124,1782.624 557.494123,1782.192 558.190126,1781.808 C558.88613,1781.424 559.438124,1781.232 559.846126,1781.232 C560.254128,1781.232 560.638124,1781.304 560.998126,1781.448 C561.358128,1781.592 561.694125,1781.832 562.006126,1782.168 C562.318128,1782.504 562.534126,1782.984 562.654126,1783.608 C562.774127,1784.232 562.858126,1784.76 562.906126,1785.192 C562.954126,1785.624 563.062125,1786.284 563.230126,1787.172 C563.398127,1788.06 563.530126,1788.936 563.626126,1789.8 C563.722127,1790.664 563.470129,1792.21199 562.870126,1794.444 C562.270123,1796.67601 561.730129,1798.2 561.250126,1799.016 C560.770124,1799.832 560.698125,1800.312 561.034126,1800.456 C561.370128,1800.6 561.694125,1800.84 562.006126,1801.176 C562.318128,1801.512 562.498126,1801.884 562.546126,1802.292 C562.594126,1802.7 562.570127,1803.036 562.474126,1803.3 C562.378126,1803.564 562.186128,1803.78 561.898126,1803.948 C561.610125,1804.116 561.274128,1804.176 560.890126,1804.128 C560.506124,1804.08 560.194127,1804.104 559.954126,1804.2 C559.714125,1804.296 559.546127,1804.344 559.450126,1804.344 C559.354126,1804.344 559.246127,1804.392 559.126126,1804.488 C559.006126,1804.584 558.910127,1804.632 558.838126,1804.632 C558.766126,1804.632 558.682127,1804.68 558.586126,1804.776 C558.490126,1804.872 558.418126,1804.92 558.370126,1804.92 C558.322126,1804.92 558.118128,1805.04 557.758126,1805.28 C557.398124,1805.52 557.194126,1805.64 557.146126,1805.64 C557.098126,1805.64 556.894128,1805.76 556.534126,1806 C556.174124,1806.24 555.970126,1806.36 555.922126,1806.36 C555.874126,1806.36 555.718128,1806.528 555.454126,1806.864 C555.190125,1807.2 554.854128,1807.536 554.446126,1807.872 C554.038124,1808.208 553.810126,1808.376 553.762126,1808.376 C553.714126,1808.376 553.666126,1808.472 553.618126,1808.664 C553.570126,1808.856 553.462127,1809.024 553.294126,1809.168 Z M550.954126,1819.932 L549.586126,1820.904 L548.542126,1820.616 C547.846123,1820.424 547.342128,1820.184 547.030126,1819.896 C546.718125,1819.608 546.382128,1819.104 546.022126,1818.384 C545.662124,1817.664 545.362127,1817.16 545.122126,1816.872 C544.882125,1816.584 544.570128,1816.08 544.186126,1815.36 C543.802124,1814.64 543.514127,1813.75201 543.322126,1812.696 C543.130125,1811.63999 542.878128,1810.52401 542.566126,1809.348 C542.254125,1808.17199 541.990127,1807.03201 541.774126,1805.928 C541.558125,1804.82399 541.318128,1803.78 541.054126,1802.796 C540.790125,1801.812 540.334129,1800.37201 539.686126,1798.476 C539.038123,1796.57999 538.414129,1794.61201 537.814126,1792.572 C537.214123,1790.53199 537.190123,1789.524 537.742126,1789.548 C538.294129,1789.572 538.750124,1789.656 539.110126,1789.8 C539.470128,1789.944 539.806125,1790.184 540.118126,1790.52 C540.430128,1790.856 540.598126,1791.156 540.622126,1791.42 C540.646126,1791.684 540.646126,1791.936 540.622126,1792.176 C540.598126,1792.416 540.574126,1792.536 540.550126,1792.536 C540.526126,1792.536 540.526126,1792.692 540.550126,1793.004 C540.574126,1793.316 540.670125,1793.76 540.838126,1794.336 C541.006127,1794.912 541.126126,1795.38 541.198126,1795.74 C541.270127,1796.1 541.366126,1796.424 541.486126,1796.712 C541.606127,1797 541.690126,1797.288 541.738126,1797.576 C541.786126,1797.864 541.870126,1798.14 541.990126,1798.404 C542.110127,1798.668 542.194126,1798.944 542.242126,1799.232 C542.290126,1799.52 542.386125,1799.844 542.530126,1800.204 C542.674127,1800.564 542.770126,1800.888 542.818126,1801.176 C542.866126,1801.464 542.926126,1801.668 542.998126,1801.788 C543.070127,1801.908 543.130126,1802.136 543.178126,1802.472 C543.226126,1802.808 543.334125,1803.24 543.502126,1803.768 C543.670127,1804.296 543.790126,1805.052 543.862126,1806.036 C543.934127,1807.02 544.066125,1807.86 544.258126,1808.556 C544.450127,1809.252 544.678125,1809.948 544.942126,1810.644 C545.206128,1811.34 545.374126,1811.796 545.446126,1812.012 C545.518127,1812.228 545.566126,1812.432 545.590126,1812.624 C545.614126,1812.816 545.698125,1813.128 545.842126,1813.56 C545.986127,1813.992 546.118126,1814.448 546.238126,1814.928 C546.358127,1815.408 546.514125,1815.768 546.706126,1816.008 C546.898127,1816.248 547.066125,1816.512 547.210126,1816.8 C547.354127,1817.088 547.522125,1817.196 547.714126,1817.124 C547.906127,1817.052 548.254124,1816.956 548.758126,1816.836 C549.262129,1816.716 549.814123,1816.524 550.414126,1816.26 C551.014129,1815.996 551.266127,1815.732 551.170126,1815.468 C551.074126,1815.204 550.906127,1814.904 550.666126,1814.568 C550.426125,1814.232 550.426125,1814.064 550.666126,1814.064 C550.906127,1814.064 551.386123,1814.208 552.106126,1814.496 C552.82613,1814.784 553.654122,1814.712 554.590126,1814.28 C555.526131,1813.848 556.498121,1813.464 557.506126,1813.128 C558.514131,1812.792 559.690119,1812.624 561.034126,1812.624 C562.378133,1812.624 563.230124,1812.696 563.590126,1812.84 C563.950128,1812.984 564.274125,1813.212 564.562126,1813.524 C564.850128,1813.836 565.030126,1814.136 565.102126,1814.424 C565.174127,1814.712 565.186126,1815.072 565.138126,1815.504 C565.090126,1815.936 564.982127,1816.224 564.814126,1816.368 C564.646125,1816.512 564.478127,1816.56 564.310126,1816.512 C564.142125,1816.464 563.926128,1816.524 563.662126,1816.692 C563.398125,1816.86 562.834131,1817.052 561.970126,1817.268 C561.106122,1817.484 560.30213,1817.568 559.558126,1817.52 C558.814122,1817.472 558.310128,1817.436 558.046126,1817.412 C557.782125,1817.388 557.26613,1817.352 556.498126,1817.304 C555.730122,1817.256 555.250127,1817.316 555.058126,1817.484 C554.866125,1817.652 554.734127,1817.736 554.662126,1817.736 C554.590126,1817.736 554.470127,1817.808 554.302126,1817.952 C554.134125,1818.096 554.014127,1818.168 553.942126,1818.168 C553.870126,1818.168 553.618128,1818.3 553.186126,1818.564 C552.754124,1818.828 552.502127,1818.96 552.430126,1818.96 C552.358126,1818.96 551.866131,1819.284 550.954126,1819.932 Z M618.814126,1791.528 L618.562126,1791.744 L618.274126,1791.672 C618.082125,1791.624 617.950126,1791.516 617.878126,1791.348 C617.806126,1791.18 617.626128,1790.82 617.338126,1790.268 C617.050125,1789.716 616.774127,1789.284 616.510126,1788.972 C616.246125,1788.66 616.102126,1788.42 616.078126,1788.252 C616.054126,1788.084 616.006126,1787.928 615.934126,1787.784 C615.862126,1787.64 615.862126,1787.568 615.934126,1787.568 C616.006126,1787.568 616.006126,1787.4 615.934126,1787.064 C615.862126,1786.728 615.814126,1786.212 615.790126,1785.516 C615.766126,1784.82 615.718126,1784.256 615.646126,1783.824 C615.574126,1783.392 615.382128,1782.57601 615.070126,1781.376 C614.758125,1780.17599 614.146131,1778.97601 613.234126,1777.776 C612.322122,1776.57599 611.782127,1775.772 611.614126,1775.364 C611.446125,1774.956 611.146128,1774.44 610.714126,1773.816 C610.282124,1773.192 610.234124,1772.88 610.570126,1772.88 C610.906128,1772.88 611.206125,1772.928 611.470126,1773.024 C611.734127,1773.12 611.962125,1773.24 612.154126,1773.384 C612.346127,1773.528 613.246118,1774.66799 614.854126,1776.804 C616.462134,1778.94001 617.338125,1780.212 617.482126,1780.62 C617.626127,1781.028 617.878124,1781.97599 618.238126,1783.464 C618.598128,1784.95201 618.802126,1786.116 618.850126,1786.956 C618.898126,1787.796 618.970126,1788.42 619.066126,1788.828 C619.162127,1789.236 619.186126,1789.752 619.138126,1790.376 C619.090126,1791 618.982127,1791.384 618.814126,1791.528 Z M629.326126,1791.024 L628.426126,1791.456 L626.698126,1791.456 C625.54612,1791.456 624.910127,1791.42 624.790126,1791.348 C624.670126,1791.276 624.514127,1791.012 624.322126,1790.556 C624.130125,1790.1 623.830128,1789.584 623.422126,1789.008 C623.014124,1788.432 623.338121,1788.132 624.394126,1788.108 C625.450131,1788.084 626.182124,1787.988 626.590126,1787.82 C626.998128,1787.652 627.550123,1787.316 628.246126,1786.812 C628.94213,1786.308 629.554123,1785.804 630.082126,1785.3 C630.610129,1784.796 631.294122,1783.94401 632.134126,1782.744 C632.97413,1781.54399 633.898121,1780.15201 634.906126,1778.568 C635.914131,1776.98399 636.598124,1775.65201 636.958126,1774.572 C637.318128,1773.49199 637.414127,1772.928 637.246126,1772.88 C637.078125,1772.832 636.63413,1772.796 635.914126,1772.772 C635.194123,1772.748 634.822126,1772.748 634.798126,1772.772 C634.774126,1772.796 634.282131,1772.808 633.322126,1772.808 C632.362121,1772.808 631.846126,1772.82 631.774126,1772.844 C631.702126,1772.868 631.558127,1772.88 631.342126,1772.88 C631.126125,1772.88 630.922127,1772.928 630.730126,1773.024 C630.538125,1773.12 630.370127,1773.168 630.226126,1773.168 C630.082125,1773.168 629.950127,1773.204 629.830126,1773.276 C629.710126,1773.348 629.590127,1773.384 629.470126,1773.384 C629.350126,1773.384 628.90613,1773.516 628.138126,1773.78 C627.370122,1774.044 626.686129,1774.272 626.086126,1774.464 C625.486123,1774.656 624.850129,1774.86 624.178126,1775.076 C623.506123,1775.292 623.002128,1775.46 622.666126,1775.58 C622.330124,1775.7 622.114127,1775.76 622.018126,1775.76 C621.922126,1775.76 621.802127,1775.808 621.658126,1775.904 C621.514125,1776 621.394127,1776.048 621.298126,1776.048 C621.202126,1776.048 620.938128,1776.156 620.506126,1776.372 C620.074124,1776.588 619.198133,1776.756 617.878126,1776.876 C616.55812,1776.996 615.766127,1777.056 615.502126,1777.056 C615.238125,1777.056 614.950128,1776.972 614.638126,1776.804 C614.326125,1776.636 614.074127,1776.324 613.882126,1775.868 C613.690125,1775.412 613.390128,1774.896 612.982126,1774.32 C612.574124,1773.744 612.550124,1773.456 612.910126,1773.456 C613.270128,1773.456 613.486126,1773.48 613.558126,1773.528 C613.630126,1773.576 614.27812,1773.564 615.502126,1773.492 C616.726132,1773.42 617.854121,1773.228 618.886126,1772.916 C619.918131,1772.604 621.454116,1772.184 623.494126,1771.656 C625.534136,1771.128 627.694115,1770.72 629.974126,1770.432 C632.254138,1770.144 634.138119,1770 635.626126,1770 C637.114134,1770 638.026124,1770.072 638.362126,1770.216 C638.698128,1770.36 639.034124,1770.588 639.370126,1770.9 C639.706128,1771.212 640.018125,1771.596 640.306126,1772.052 C640.594128,1772.508 640.750126,1773.108 640.774126,1773.852 C640.798126,1774.596 640.774126,1775.088 640.702126,1775.328 C640.630126,1775.568 640.294129,1776.23999 639.694126,1777.344 C639.094123,1778.44801 638.770126,1779 638.722126,1779 C638.674126,1779 638.446128,1779.3 638.038126,1779.9 C637.630124,1780.5 637.270128,1780.968 636.958126,1781.304 C636.646125,1781.64 636.466126,1781.808 636.418126,1781.808 C636.370126,1781.808 636.226127,1781.964 635.986126,1782.276 C635.746125,1782.588 635.614126,1782.744 635.590126,1782.744 C635.566126,1782.744 635.530126,1782.804 635.482126,1782.924 C635.434126,1783.044 635.266128,1783.344 634.978126,1783.824 C634.690125,1784.304 634.534126,1784.544 634.510126,1784.544 C634.486126,1784.544 634.462126,1784.604 634.438126,1784.724 C634.414126,1784.844 634.390126,1784.904 634.366126,1784.904 C634.342126,1784.904 634.222127,1785.168 634.006126,1785.696 C633.790125,1786.224 633.538128,1786.692 633.250126,1787.1 C632.962125,1787.508 632.806126,1787.712 632.782126,1787.712 C632.758126,1787.712 632.674127,1787.82 632.530126,1788.036 C632.386125,1788.252 632.302126,1788.36 632.278126,1788.36 C632.254126,1788.36 632.122127,1788.516 631.882126,1788.828 C631.642125,1789.14 631.306128,1789.512 630.874126,1789.944 C630.442124,1790.376 629.926129,1790.736 629.326126,1791.024 Z M620.218126,1788.936 L620.290126,1788.936 L621.478126,1788.108 C622.27013,1787.556 622.942123,1787.016 623.494126,1786.488 C624.046129,1785.96 624.274127,1785.66 624.178126,1785.588 C624.082126,1785.516 623.854128,1785.3 623.494126,1784.94 C623.134124,1784.58 622.834127,1784.436 622.594126,1784.508 C622.354125,1784.58 622.198126,1784.616 622.126126,1784.616 C622.054126,1784.616 621.958127,1784.868 621.838126,1785.372 C621.718126,1785.876 621.538127,1786.344 621.298126,1786.776 C621.058125,1787.208 620.926126,1787.424 620.902126,1787.424 C620.878126,1787.424 620.746127,1787.676 620.506126,1788.18 C620.266125,1788.684 620.170126,1788.936 620.218126,1788.936 Z M607.474126,1813.308 L606.754126,1813.632 L606.322126,1813.632 C606.034125,1813.632 605.842127,1813.608 605.746126,1813.56 C605.650126,1813.512 605.554127,1813.38 605.458126,1813.164 C605.362126,1812.948 605.206127,1812.624 604.990126,1812.192 C604.774125,1811.76 604.522128,1811.364 604.234126,1811.004 C603.946125,1810.644 603.742127,1810.344 603.622126,1810.104 C603.502126,1809.864 603.430126,1809.552 603.406126,1809.168 C603.382126,1808.784 603.550124,1808.604 603.910126,1808.628 C604.270128,1808.652 604.582125,1808.712 604.846126,1808.808 C605.110127,1808.904 605.350125,1809.048 605.566126,1809.24 C605.782127,1809.432 606.082124,1809.384 606.466126,1809.096 C606.850128,1808.808 607.402123,1808.268 608.122126,1807.476 C608.84213,1806.684 609.538123,1805.856 610.210126,1804.992 C610.882129,1804.128 611.506123,1803.228 612.082126,1802.292 C612.658129,1801.356 613.102125,1800.54 613.414126,1799.844 C613.726128,1799.148 614.302122,1797.96001 615.142126,1796.28 C615.98213,1794.59999 616.258128,1793.544 615.970126,1793.112 C615.682125,1792.68 615.610125,1792.368 615.754126,1792.176 C615.898127,1791.984 616.198124,1791.756 616.654126,1791.492 C617.110128,1791.228 617.398126,1791.024 617.518126,1790.88 C617.638127,1790.736 617.854125,1790.05201 618.166126,1788.828 C618.478128,1787.60399 618.514127,1786.788 618.274126,1786.38 C618.034125,1785.972 617.794127,1785.636 617.554126,1785.372 C617.314125,1785.108 617.290125,1784.43601 617.482126,1783.356 C617.674127,1782.27599 618.106123,1781.652 618.778126,1781.484 C619.450129,1781.316 619.822126,1781.196 619.894126,1781.124 C619.966126,1781.052 620.014126,1780.41601 620.038126,1779.216 C620.062126,1778.01599 620.254124,1777.428 620.614126,1777.452 C620.974128,1777.476 621.322124,1777.56 621.658126,1777.704 C621.994128,1777.848 622.318125,1778.088 622.630126,1778.424 C622.942128,1778.76 623.122126,1779.144 623.170126,1779.576 C623.218126,1780.008 623.662122,1780.104 624.502126,1779.864 C625.34213,1779.624 626.014124,1779.504 626.518126,1779.504 C627.022129,1779.504 627.814121,1779.72 628.894126,1780.152 C629.974132,1780.584 630.658125,1780.956 630.946126,1781.268 C631.234128,1781.58 631.414126,1781.88 631.486126,1782.168 C631.558126,1782.456 631.534127,1782.924 631.414126,1783.572 C631.294126,1784.22 631.222126,1784.544 631.198126,1784.544 C631.174126,1784.544 631.210126,1784.616 631.306126,1784.76 C631.402127,1784.904 631.462126,1785.108 631.486126,1785.372 C631.510126,1785.636 631.510126,1785.876 631.486126,1786.092 C631.462126,1786.308 631.366127,1786.5 631.198126,1786.668 C631.030125,1786.836 630.706129,1786.98 630.226126,1787.1 C629.746124,1787.22 629.470126,1787.28 629.398126,1787.28 C629.326126,1787.28 628.966129,1787.436 628.318126,1787.748 C627.670123,1788.06 627.322126,1788.216 627.274126,1788.216 C627.226126,1788.216 627.142127,1788.288 627.022126,1788.432 C626.902126,1788.576 626.506129,1788.948 625.834126,1789.548 C625.162123,1790.148 624.802126,1790.448 624.754126,1790.448 C624.706126,1790.448 624.562127,1790.556 624.322126,1790.772 C624.082125,1790.988 623.938126,1791.096 623.890126,1791.096 C623.842126,1791.096 623.674128,1791.204 623.386126,1791.42 C623.098125,1791.636 622.930126,1791.744 622.882126,1791.744 C622.834126,1791.744 622.774126,1791.792 622.702126,1791.888 C622.630126,1791.984 622.570126,1792.032 622.522126,1792.032 C622.474126,1792.032 622.342127,1792.116 622.126126,1792.284 C621.910125,1792.452 621.778126,1792.536 621.730126,1792.536 C621.682126,1792.536 621.610127,1792.596 621.514126,1792.716 C621.418126,1792.836 621.346126,1792.896 621.298126,1792.896 C621.250126,1792.896 621.082128,1793.076 620.794126,1793.436 C620.506125,1793.796 620.134128,1794.216 619.678126,1794.696 C619.222124,1795.176 618.802128,1795.404 618.418126,1795.38 C618.034124,1795.356 617.506129,1796.06399 616.834126,1797.504 C616.162123,1798.94401 615.622128,1800.108 615.214126,1800.996 C614.806124,1801.884 614.590126,1802.328 614.566126,1802.328 C614.542126,1802.328 614.434127,1802.52 614.242126,1802.904 C614.050125,1803.288 613.942126,1803.48 613.918126,1803.48 C613.894126,1803.48 613.52213,1804.15199 612.802126,1805.496 C612.082123,1806.84001 611.710126,1807.512 611.686126,1807.512 C611.662126,1807.512 611.530127,1807.716 611.290126,1808.124 C611.050125,1808.532 610.618129,1809.204 609.994126,1810.14 C609.370123,1811.076 609.046126,1811.544 609.022126,1811.544 C608.998126,1811.544 608.854127,1811.784 608.590126,1812.264 C608.326125,1812.744 607.954129,1813.092 607.474126,1813.308 Z M651.574126,1804.776 L651.322126,1804.992 L650.782126,1804.812 C650.422124,1804.692 649.89413,1804.608 649.198126,1804.56 C648.502123,1804.512 647.986128,1804.44 647.650126,1804.344 C647.314124,1804.248 646.78613,1804.128 646.066126,1803.984 L643.906126,1803.552 C643.186123,1803.408 642.670128,1803.312 642.358126,1803.264 C642.046125,1803.216 641.638129,1803.108 641.134126,1802.94 C640.630124,1802.772 640.258127,1802.664 640.018126,1802.616 C639.778125,1802.568 639.490128,1802.472 639.154126,1802.328 C638.818124,1802.184 638.314129,1802.016 637.642126,1801.824 C636.970123,1801.632 636.370129,1801.392 635.842126,1801.104 C635.314123,1800.816 634.990127,1800.66 634.870126,1800.636 C634.750126,1800.612 634.210131,1800.348 633.250126,1799.844 C632.290121,1799.34 631.030134,1798.40401 629.470126,1797.036 C627.910118,1795.66799 627.034127,1794.756 626.842126,1794.3 C626.650125,1793.844 626.350128,1793.328 625.942126,1792.752 C625.534124,1792.176 625.498124,1791.888 625.834126,1791.888 C626.170128,1791.888 626.434125,1791.924 626.626126,1791.996 C626.818127,1792.068 627.034125,1792.176 627.274126,1792.32 C627.514127,1792.464 628.318119,1793.14799 629.686126,1794.372 C631.054133,1795.59601 632.122122,1796.412 632.890126,1796.82 C633.65813,1797.228 634.282124,1797.576 634.762126,1797.864 C635.242129,1798.152 635.950121,1798.476 636.886126,1798.836 C637.822131,1799.196 638.998119,1799.592 640.414126,1800.024 C641.830133,1800.456 643.11412,1800.768 644.266126,1800.96 C645.418132,1801.152 646.522121,1801.272 647.578126,1801.32 C648.634131,1801.368 649.438123,1801.5 649.990126,1801.716 C650.542129,1801.932 650.986124,1802.22 651.322126,1802.58 C651.658128,1802.94 651.838126,1803.252 651.862126,1803.516 C651.886126,1803.78 651.886126,1804.02 651.862126,1804.236 C651.838126,1804.452 651.742127,1804.632 651.574126,1804.776 Z M618.814126,1817.16 L618.562126,1817.376 L618.274126,1817.304 C618.082125,1817.256 617.950126,1817.148 617.878126,1816.98 C617.806126,1816.812 617.626128,1816.452 617.338126,1815.9 C617.050125,1815.348 616.774127,1814.916 616.510126,1814.604 C616.246125,1814.292 616.102126,1814.028 616.078126,1813.812 C616.054126,1813.596 616.090126,1813.488 616.186126,1813.488 C616.282127,1813.488 616.330126,1813.308 616.330126,1812.948 C616.330126,1812.588 616.414125,1812.048 616.582126,1811.328 C616.750127,1810.608 616.882126,1809.52801 616.978126,1808.088 C617.074127,1806.64799 617.086126,1805.856 617.014126,1805.712 C616.942126,1805.568 616.726128,1805.244 616.366126,1804.74 C616.006124,1804.236 615.982125,1803.984 616.294126,1803.984 C616.606128,1803.984 616.894125,1804.032 617.158126,1804.128 C617.422127,1804.224 617.866123,1804.512 618.490126,1804.992 C619.114129,1805.472 619.534125,1805.856 619.750126,1806.144 C619.966127,1806.432 620.062126,1806.96 620.038126,1807.728 C620.014126,1808.496 619.990126,1808.88 619.966126,1808.88 C619.942126,1808.88 619.882127,1809.372 619.786126,1810.356 C619.690126,1811.34 619.546127,1812.312 619.354126,1813.272 C619.162125,1814.232 619.054126,1814.712 619.030126,1814.712 C619.006126,1814.712 619.030126,1814.892 619.102126,1815.252 C619.174126,1815.612 619.186126,1815.984 619.138126,1816.368 C619.090126,1816.752 618.982127,1817.016 618.814126,1817.16 Z M629.398126,1831.776 L629.290126,1831.848 L629.074126,1831.812 C628.930125,1831.788 628.810127,1831.656 628.714126,1831.416 C628.618126,1831.176 628.462127,1830.924 628.246126,1830.66 C628.030125,1830.396 627.910126,1829.11201 627.886126,1826.808 C627.862126,1824.50399 627.814126,1823.04 627.742126,1822.416 C627.670126,1821.792 627.622126,1819.87202 627.598126,1816.656 C627.574126,1813.43998 627.514127,1810.92001 627.418126,1809.096 C627.322126,1807.27199 627.106128,1805.52001 626.770126,1803.84 C626.434124,1802.15999 626.158127,1801.188 625.942126,1800.924 C625.726125,1800.66 625.798124,1800.528 626.158126,1800.528 C626.518128,1800.528 626.794125,1800.564 626.986126,1800.636 C627.178127,1800.708 627.466124,1800.852 627.850126,1801.068 C628.234128,1801.284 628.558125,1801.56 628.822126,1801.896 C629.086127,1802.232 629.362125,1803.33599 629.650126,1805.208 C629.938128,1807.08001 630.082126,1808.92799 630.082126,1810.752 C630.082126,1812.57601 630.034127,1814.18399 629.938126,1815.576 C629.842126,1816.96801 629.686127,1818.21599 629.470126,1819.32 C629.254125,1820.42401 629.134126,1820.976 629.110126,1820.976 C629.086126,1820.976 629.134126,1821.50399 629.254126,1822.56 C629.374127,1823.61601 629.446126,1825.40399 629.470126,1827.924 C629.494126,1830.44401 629.470126,1831.728 629.398126,1831.776 Z M683.254126,1821.192 C683.422127,1821.048 683.530126,1820.88 683.578126,1820.688 C683.626126,1820.496 683.638126,1819.956 683.614126,1819.068 C683.590126,1818.18 683.530127,1817.664 683.434126,1817.52 C683.338126,1817.376 683.290126,1816.58401 683.290126,1815.144 C683.290126,1813.70399 683.302126,1812.984 683.326126,1812.984 C683.350126,1812.984 683.458125,1812.04801 683.650126,1810.176 C683.842127,1808.30399 683.962126,1806.82801 684.010126,1805.748 C684.058126,1804.66799 684.094126,1804.128 684.118126,1804.128 C684.142126,1804.128 684.214125,1803.72 684.334126,1802.904 C684.454127,1802.088 684.478126,1801.2 684.406126,1800.24 C684.334126,1799.28 684.238127,1798.596 684.118126,1798.188 C683.998125,1797.78 683.782128,1797.408 683.470126,1797.072 C683.158124,1796.736 682.822128,1796.46 682.462126,1796.244 C682.102124,1796.028 681.994125,1795.812 682.138126,1795.596 C682.282127,1795.38 682.366126,1795.272 682.390126,1795.272 C682.414126,1795.272 682.594124,1795.02 682.930126,1794.516 C683.266128,1794.012 683.458126,1793.76 683.506126,1793.76 C683.554126,1793.76 683.842123,1793.436 684.370126,1792.788 C684.898129,1792.14 685.318124,1791.576 685.630126,1791.096 C685.942128,1790.616 686.110126,1790.376 686.134126,1790.376 C686.158126,1790.376 686.266125,1790.22 686.458126,1789.908 C686.650127,1789.596 686.758126,1789.44 686.782126,1789.44 C686.806126,1789.44 686.902125,1789.296 687.070126,1789.008 C687.238127,1788.72 687.418125,1788.288 687.610126,1787.712 C687.802127,1787.136 687.898126,1786.632 687.898126,1786.2 C687.898126,1785.768 687.850127,1785.348 687.754126,1784.94 C687.658126,1784.532 687.598126,1784.196 687.574126,1783.932 C687.550126,1783.668 687.334128,1783.32 686.926126,1782.888 C686.518124,1782.456 686.206127,1782.18 685.990126,1782.06 C685.774125,1781.94 685.678126,1781.88 685.702126,1781.88 C685.726126,1781.88 685.942124,1781.688 686.350126,1781.304 C686.758128,1780.92 687.214124,1780.38 687.718126,1779.684 C688.222129,1778.988 688.474126,1778.448 688.474126,1778.064 C688.474126,1777.68 688.390127,1777.368 688.222126,1777.128 C688.054125,1776.888 687.850127,1776.684 687.610126,1776.516 C687.370125,1776.348 687.154127,1776.228 686.962126,1776.156 C686.770125,1776.084 686.494128,1776.048 686.134126,1776.048 C685.774124,1776.048 685.294129,1776.456 684.694126,1777.272 C684.094123,1778.088 682.978134,1779.29999 681.346126,1780.908 C679.714118,1782.51601 678.610129,1783.56 678.034126,1784.04 C677.458123,1784.52 677.074127,1784.808 676.882126,1784.904 C676.690125,1785 676.534127,1785.132 676.414126,1785.3 C676.294125,1785.468 676.390124,1785.768 676.702126,1786.2 C677.014128,1786.632 677.278125,1787.076 677.494126,1787.532 C677.710127,1787.988 678.010124,1788.276 678.394126,1788.396 C678.778128,1788.516 679.054125,1788.504 679.222126,1788.36 C679.390127,1788.216 679.690124,1787.916 680.122126,1787.46 C680.554128,1787.004 680.794126,1786.776 680.842126,1786.776 C680.890126,1786.776 681.046125,1786.656 681.310126,1786.416 C681.574127,1786.176 681.730126,1786.056 681.778126,1786.056 C681.826126,1786.056 682.030124,1785.924 682.390126,1785.66 C682.750128,1785.396 682.954126,1785.264 683.002126,1785.264 C683.050126,1785.264 683.134125,1785.216 683.254126,1785.12 C683.374127,1785.024 683.542125,1784.976 683.758126,1784.976 C683.974127,1784.976 684.166125,1784.964 684.334126,1784.94 C684.502127,1784.916 684.514127,1785.132 684.370126,1785.588 C684.226125,1786.044 683.73413,1786.90799 682.894126,1788.18 C682.054122,1789.45201 681.27413,1790.556 680.554126,1791.492 C679.834122,1792.428 679.07813,1793.28 678.286126,1794.048 C677.494122,1794.816 677.026127,1795.224 676.882126,1795.272 C676.738125,1795.32 676.594127,1795.44 676.450126,1795.632 C676.306125,1795.824 676.438124,1796.208 676.846126,1796.784 C677.254128,1797.36 677.554125,1797.876 677.746126,1798.332 C677.938127,1798.788 678.094125,1799.052 678.214126,1799.124 C678.334127,1799.196 678.490125,1799.232 678.682126,1799.232 C678.874127,1799.232 679.054125,1799.16 679.222126,1799.016 C679.390127,1798.872 679.474126,1798.776 679.474126,1798.728 C679.474126,1798.68 679.846122,1798.656 680.590126,1798.656 C681.33413,1798.656 681.742126,1798.872 681.814126,1799.304 C681.886126,1799.736 681.910126,1801.19999 681.886126,1803.696 C681.862126,1806.19201 681.790127,1807.92 681.670126,1808.88 C681.550125,1809.84 681.406127,1810.704 681.238126,1811.472 C681.070125,1812.24 680.950126,1813.19999 680.878126,1814.352 C680.806126,1815.50401 680.722127,1816.08 680.626126,1816.08 C680.530126,1816.08 680.494126,1816.428 680.518126,1817.124 C680.542126,1817.82 680.686125,1818.324 680.950126,1818.636 C681.214127,1818.948 681.490125,1819.38 681.778126,1819.932 C682.066127,1820.484 682.246126,1820.844 682.318126,1821.012 C682.390126,1821.18 682.522125,1821.288 682.714126,1821.336 L683.002126,1821.408 L683.254126,1821.192 Z M703.630126,1788.72 L703.738126,1788.72 L704.854126,1788.36 C705.59813,1788.12 706.018126,1787.952 706.114126,1787.856 C706.210127,1787.76 706.558123,1787.28 707.158126,1786.416 C707.758129,1785.552 707.746129,1785.204 707.122126,1785.372 C706.498123,1785.54 706.138127,1785.624 706.042126,1785.624 C705.946126,1785.624 705.622129,1785.756 705.070126,1786.02 C704.518123,1786.284 704.206126,1786.416 704.134126,1786.416 C704.062126,1786.416 703.990126,1786.464 703.918126,1786.56 C703.846126,1786.656 703.798126,1786.704 703.774126,1786.704 C703.750126,1786.704 703.690127,1786.8 703.594126,1786.992 C703.498126,1787.184 703.438126,1787.28 703.414126,1787.28 C703.390126,1787.28 703.402126,1787.52 703.450126,1788 C703.498126,1788.48 703.558126,1788.72 703.630126,1788.72 Z M710.434126,1806.504 L710.650126,1806.504 L710.650126,1806.468 C710.650126,1806.444 710.578127,1806.432 710.434126,1806.432 C710.290125,1806.432 710.218126,1806.444 710.218126,1806.468 C710.218126,1806.492 710.290125,1806.504 710.434126,1806.504 Z M711.190126,1806.396 L711.514126,1806.432 L712.126126,1806.36 C712.534128,1806.312 712.846125,1806.12 713.062126,1805.784 C713.278127,1805.448 713.362126,1805.292 713.314126,1805.316 C713.266126,1805.34 713.206126,1805.352 713.134126,1805.352 C713.062126,1805.352 712.786128,1805.472 712.306126,1805.712 C711.826124,1805.952 711.538127,1806.072 711.442126,1806.072 C711.346126,1806.072 711.226127,1806.12 711.082126,1806.216 C710.938125,1806.312 710.974125,1806.372 711.190126,1806.396 Z M703.378126,1821.588 L703.594126,1821.768 L704.530126,1820.544 C705.154129,1819.728 705.802123,1818.78001 706.474126,1817.7 C707.146129,1816.61999 708.10612,1814.83201 709.354126,1812.336 C710.602132,1809.83999 711.166127,1808.616 711.046126,1808.664 C710.926125,1808.712 710.734127,1808.736 710.470126,1808.736 C710.206125,1808.736 710.050126,1808.76 710.002126,1808.808 C709.954126,1808.856 709.786127,1808.88 709.498126,1808.88 C709.210125,1808.88 708.910128,1808.916 708.598126,1808.988 C708.286124,1809.06 708.046127,1809.096 707.878126,1809.096 C707.710125,1809.096 707.338129,1809.168 706.762126,1809.312 C706.186123,1809.456 705.850127,1809.528 705.754126,1809.528 C705.658126,1809.528 705.502127,1809.588 705.286126,1809.708 C705.070125,1809.828 704.758128,1809.936 704.350126,1810.032 C703.942124,1810.128 703.594127,1810.176 703.306126,1810.176 C703.018125,1810.176 702.814127,1810.14 702.694126,1810.068 C702.574125,1809.996 702.454127,1809.804 702.334126,1809.492 C702.214125,1809.18 702.010127,1808.796 701.722126,1808.34 C701.434125,1807.884 701.302126,1808.72399 701.326126,1810.86 C701.350126,1812.99601 701.398126,1814.196 701.470126,1814.46 C701.542126,1814.724 701.590126,1814.964 701.614126,1815.18 C701.638126,1815.396 701.698126,1815.672 701.794126,1816.008 C701.890127,1816.344 701.950126,1816.632 701.974126,1816.872 C701.998126,1817.112 702.130125,1817.77199 702.370126,1818.852 C702.610127,1819.93201 702.790125,1820.568 702.910126,1820.76 C703.030127,1820.952 703.102126,1821.108 703.126126,1821.228 C703.150126,1821.348 703.234125,1821.468 703.378126,1821.588 Z M705.826126,1825.296 L705.178126,1825.728 L705.034126,1825.728 C704.938126,1825.728 704.710128,1825.62 704.350126,1825.404 C703.990124,1825.188 703.618128,1824.816 703.234126,1824.288 C702.850124,1823.76 702.526127,1823.232 702.262126,1822.704 C701.998125,1822.176 701.734127,1821.744 701.470126,1821.408 C701.206125,1821.072 700.966127,1820.628 700.750126,1820.076 C700.534125,1819.524 700.330127,1818.38401 700.138126,1816.656 C699.946125,1814.92799 699.838126,1811.11203 699.814126,1805.208 C699.790126,1799.30397 699.646127,1796.184 699.382126,1795.848 C699.118125,1795.512 699.106125,1795.212 699.346126,1794.948 C699.586127,1794.684 699.718126,1794.216 699.742126,1793.544 C699.766126,1792.872 699.694127,1791.63601 699.526126,1789.836 C699.358125,1788.03599 699.262126,1786.52401 699.238126,1785.3 C699.214126,1784.07599 699.430124,1783.476 699.886126,1783.5 C700.342128,1783.524 700.630125,1783.572 700.750126,1783.644 C700.870127,1783.716 701.014125,1783.68 701.182126,1783.536 C701.350127,1783.392 701.710123,1783.164 702.262126,1782.852 C702.814129,1782.54 703.65412,1782.24 704.782126,1781.952 C705.910132,1781.664 706.930121,1781.52 707.842126,1781.52 C708.754131,1781.52 709.414124,1781.616 709.822126,1781.808 C710.230128,1782 710.518125,1781.616 710.686126,1780.656 C710.854127,1779.696 710.950126,1778.808 710.974126,1777.992 C710.998126,1777.176 710.338133,1776.804 708.994126,1776.876 C707.650119,1776.948 706.774128,1776.984 706.366126,1776.984 C705.958124,1776.984 704.926134,1777.068 703.270126,1777.236 C701.614118,1777.404 700.738127,1777.488 700.642126,1777.488 C700.546126,1777.488 700.330128,1777.584 699.994126,1777.776 C699.658124,1777.968 699.382127,1778.04 699.166126,1777.992 C698.950125,1777.944 698.770127,1777.74 698.626126,1777.38 C698.482125,1777.02 698.218128,1776.564 697.834126,1776.012 C697.450124,1775.46 697.414124,1775.088 697.726126,1774.896 C698.038128,1774.704 699.142117,1774.596 701.038126,1774.572 C702.934136,1774.548 704.290122,1774.5 705.106126,1774.428 C705.92213,1774.356 706.798121,1774.32 707.734126,1774.32 C708.670131,1774.32 709.402123,1774.392 709.930126,1774.536 C710.458129,1774.68 710.854125,1774.848 711.118126,1775.04 C711.382127,1775.232 711.694124,1775.52 712.054126,1775.904 C712.414128,1776.288 712.702125,1776.576 712.918126,1776.768 C713.134127,1776.96 713.350125,1777.212 713.566126,1777.524 C713.782127,1777.836 713.902126,1778.112 713.926126,1778.352 C713.950126,1778.592 713.938126,1779.036 713.890126,1779.684 C713.842126,1780.332 713.710127,1781.1 713.494126,1781.988 C713.278125,1782.876 713.158126,1783.32 713.134126,1783.32 C713.110126,1783.32 713.086126,1783.38 713.062126,1783.5 C713.038126,1783.62 713.014126,1783.68 712.990126,1783.68 C712.966126,1783.68 712.798128,1784.04 712.486126,1784.76 C712.174124,1785.48 712.006126,1785.84 711.982126,1785.84 C711.958126,1785.84 711.874127,1785.996 711.730126,1786.308 C711.586125,1786.62 711.610125,1786.8 711.802126,1786.848 C711.994127,1786.896 712.210125,1786.992 712.450126,1787.136 C712.690127,1787.28 712.930125,1787.508 713.170126,1787.82 C713.410127,1788.132 713.530126,1788.48 713.530126,1788.864 C713.530126,1789.248 713.494126,1789.5 713.422126,1789.62 C713.350126,1789.74 713.170127,1789.86 712.882126,1789.98 C712.594125,1790.1 712.402127,1790.16 712.306126,1790.16 C712.210126,1790.16 711.826129,1790.292 711.154126,1790.556 C710.482123,1790.82 710.098127,1790.952 710.002126,1790.952 C709.906126,1790.952 709.846126,1790.976 709.822126,1791.024 C709.798126,1791.072 709.762126,1791.096 709.714126,1791.096 C709.666126,1791.096 709.474128,1791.252 709.138126,1791.564 C708.802124,1791.876 708.610126,1792.032 708.562126,1792.032 C708.514126,1792.032 708.358127,1792.176 708.094126,1792.464 C707.830125,1792.752 707.686126,1792.896 707.662126,1792.896 C707.638126,1792.896 707.554127,1793.028 707.410126,1793.292 C707.266125,1793.556 707.182126,1793.688 707.158126,1793.688 C707.134126,1793.688 706.858129,1794.144 706.330126,1795.056 C705.802123,1795.968 705.358128,1796.592 704.998126,1796.928 C704.638124,1797.264 704.362127,1797.432 704.170126,1797.432 C703.978125,1797.432 703.738127,1797.312 703.450126,1797.072 C703.162125,1796.832 702.850128,1796.868 702.514126,1797.18 C702.178124,1797.492 701.986126,1797.648 701.938126,1797.648 C701.890126,1797.648 701.866126,1797.696 701.866126,1797.792 C701.866126,1797.888 701.806127,1798.008 701.686126,1798.152 C701.566125,1798.296 701.470126,1798.368 701.398126,1798.368 C701.326126,1798.368 701.278126,1799.72399 701.254126,1802.436 C701.230126,1805.14801 701.434124,1806.468 701.866126,1806.396 C702.298128,1806.324 702.994121,1806.096 703.954126,1805.712 C704.914131,1805.328 705.946121,1804.956 707.050126,1804.596 C708.154132,1804.236 709.714116,1803.54001 711.730126,1802.508 C713.746136,1801.47599 715.054123,1800.756 715.654126,1800.348 C716.254129,1799.94 716.722124,1799.676 717.058126,1799.556 C717.394128,1799.436 717.574126,1799.316 717.598126,1799.196 C717.622126,1799.076 717.814124,1799.028 718.174126,1799.052 C718.534128,1799.076 718.810125,1799.124 719.002126,1799.196 C719.194127,1799.268 719.410125,1799.376 719.650126,1799.52 C719.890127,1799.664 720.130125,1799.892 720.370126,1800.204 C720.610127,1800.516 720.730126,1800.912 720.730126,1801.392 C720.730126,1801.872 720.694126,1802.172 720.622126,1802.292 C720.550126,1802.412 720.358128,1802.544 720.046126,1802.688 C719.734124,1802.832 719.542126,1802.904 719.470126,1802.904 C719.398126,1802.904 719.194128,1803.036 718.858126,1803.3 C718.522124,1803.564 718.330126,1803.696 718.282126,1803.696 C718.234126,1803.696 718.078127,1803.816 717.814126,1804.056 C717.550125,1804.296 717.394126,1804.416 717.346126,1804.416 C717.298126,1804.416 717.034128,1804.668 716.554126,1805.172 C716.074124,1805.676 717.010114,1805.928 719.362126,1805.928 C721.714138,1805.928 723.010125,1805.964 723.250126,1806.036 C723.490127,1806.108 723.730125,1806.276 723.970126,1806.54 C724.210127,1806.804 724.330126,1807.068 724.330126,1807.332 C724.330126,1807.596 724.282127,1807.764 724.186126,1807.836 C724.090126,1807.908 723.490132,1807.944 722.386126,1807.944 C721.282121,1807.944 720.118132,1807.896 718.894126,1807.8 C717.67012,1807.704 717.022126,1807.668 716.950126,1807.692 C716.878126,1807.716 716.674128,1807.728 716.338126,1807.728 C716.002124,1807.728 715.726127,1807.74 715.510126,1807.764 C715.294125,1807.788 715.066127,1807.8 714.826126,1807.8 C714.586125,1807.8 714.442126,1807.824 714.394126,1807.872 C714.346126,1807.92 714.286126,1807.944 714.214126,1807.944 C714.142126,1807.944 714.094126,1807.992 714.070126,1808.088 C714.046126,1808.184 714.022126,1808.232 713.998126,1808.232 C713.974126,1808.232 713.782128,1808.508 713.422126,1809.06 C713.062124,1809.612 712.870126,1809.888 712.846126,1809.888 C712.822126,1809.888 712.654128,1810.45199 712.342126,1811.58 C712.030124,1812.70801 711.742127,1813.644 711.478126,1814.388 C711.214125,1815.132 711.070126,1815.504 711.046126,1815.504 C711.022126,1815.504 710.938127,1815.732 710.794126,1816.188 C710.650125,1816.644 710.566126,1816.872 710.542126,1816.872 C710.518126,1816.872 710.458127,1817.028 710.362126,1817.34 C710.266126,1817.652 709.918129,1818.41999 709.318126,1819.644 C708.718123,1820.86801 708.406126,1821.48 708.382126,1821.48 C708.358126,1821.48 708.298127,1821.636 708.202126,1821.948 C708.106126,1822.26 708.046126,1822.416 708.022126,1822.416 C707.998126,1822.416 707.950126,1822.536 707.878126,1822.776 C707.806126,1823.016 707.554128,1823.424 707.122126,1824 C706.690124,1824.576 706.258128,1825.008 705.826126,1825.296 Z M763.174126,1813.056 C763.342127,1812.912 763.438126,1812.732 763.462126,1812.516 C763.486126,1812.3 763.474126,1812.012 763.426126,1811.652 C763.378126,1811.292 763.306126,1811.016 763.210126,1810.824 C763.114126,1810.632 762.946127,1809.78001 762.706126,1808.268 C762.466125,1806.75599 762.274127,1804.83601 762.130126,1802.508 C761.986125,1800.17999 761.890126,1798.48801 761.842126,1797.432 C761.794126,1796.37599 761.722126,1795.596 761.626126,1795.092 C761.530126,1794.588 761.470126,1794.132 761.446126,1793.724 C761.422126,1793.316 761.506125,1792.60801 761.698126,1791.6 C761.890127,1790.59199 761.998126,1790.088 762.022126,1790.088 C762.046126,1790.088 762.058126,1789.812 762.058126,1789.26 C762.058126,1788.708 761.950127,1787.66401 761.734126,1786.128 C761.518125,1784.59199 761.386126,1783.572 761.338126,1783.068 C761.290126,1782.564 761.110128,1782.144 760.798126,1781.808 C760.486124,1781.472 759.91013,1781.004 759.070126,1780.404 C758.230122,1779.804 757.690127,1779.456 757.450126,1779.36 C757.210125,1779.264 756.934128,1779.204 756.622126,1779.18 C756.310124,1779.156 756.262125,1779.456 756.478126,1780.08 C756.694127,1780.704 756.934125,1781.184 757.198126,1781.52 C757.462127,1781.856 757.726125,1782.288 757.990126,1782.816 C758.254127,1783.344 758.482125,1783.608 758.674126,1783.608 C758.866127,1783.608 759.034125,1783.536 759.178126,1783.392 C759.322127,1783.248 759.526125,1783.96799 759.790126,1785.552 C760.054127,1787.13601 760.198126,1788.88799 760.222126,1790.808 C760.246126,1792.72801 760.294126,1794.024 760.366126,1794.696 C760.438126,1795.368 760.462126,1798.00798 760.438126,1802.616 C760.414126,1807.22402 760.186128,1809.252 759.754126,1808.7 C759.322124,1808.148 758.986127,1807.668 758.746126,1807.26 C758.506125,1806.852 758.290127,1806.516 758.098126,1806.252 C757.906125,1805.988 757.774126,1805.772 757.702126,1805.604 C757.630126,1805.436 757.450127,1805.244 757.162126,1805.028 C756.874125,1804.812 756.550128,1804.68 756.190126,1804.632 C755.830124,1804.584 755.878124,1805.016 756.334126,1805.928 C756.790128,1806.84 757.102125,1807.392 757.270126,1807.584 C757.438127,1807.776 757.558126,1807.956 757.630126,1808.124 C757.702126,1808.292 757.858125,1808.592 758.098126,1809.024 C758.338127,1809.456 758.710123,1810.008 759.214126,1810.68 C759.718129,1811.352 760.270123,1811.928 760.870126,1812.408 C761.470129,1812.888 761.818126,1813.152 761.914126,1813.2 C762.010126,1813.248 762.202125,1813.272 762.490126,1813.272 L762.922126,1813.272 L763.174126,1813.056 Z M747.910126,1809.312 C748.078127,1809.168 748.210126,1808.664 748.306126,1807.8 C748.402126,1806.936 748.462126,1806.504 748.486126,1806.504 C748.510126,1806.504 748.522126,1806.3 748.522126,1805.892 C748.522126,1805.484 748.426127,1805.148 748.234126,1804.884 C748.042125,1804.62 747.850127,1804.416 747.658126,1804.272 C747.466125,1804.128 747.190128,1804.008 746.830126,1803.912 C746.470124,1803.816 746.266126,1803.19201 746.218126,1802.04 C746.170126,1800.88799 746.158126,1800.312 746.182126,1800.312 C746.206126,1800.312 746.254126,1800.096 746.326126,1799.664 C746.398126,1799.232 746.446126,1799.016 746.470126,1799.016 C746.494126,1799.016 746.554126,1798.86 746.650126,1798.548 C746.746126,1798.236 746.758126,1797.948 746.686126,1797.684 C746.614126,1797.42 746.458127,1797.168 746.218126,1796.928 C745.978125,1796.688 745.714127,1796.508 745.426126,1796.388 C745.138125,1796.268 744.838128,1796.196 744.526126,1796.172 C744.214124,1796.148 744.010126,1796.232 743.914126,1796.424 C743.818126,1796.616 743.794126,1797.61199 743.842126,1799.412 C743.890126,1801.21201 743.962126,1802.568 744.058126,1803.48 C744.154126,1804.392 744.262125,1805.028 744.382126,1805.388 C744.502127,1805.748 744.670125,1806.06 744.886126,1806.324 C745.102127,1806.588 745.330125,1806.96 745.570126,1807.44 C745.810127,1807.92 746.014125,1808.256 746.182126,1808.448 C746.350127,1808.64 746.482126,1808.82 746.578126,1808.988 C746.674126,1809.156 746.782125,1809.288 746.902126,1809.384 C747.022127,1809.48 747.178125,1809.528 747.370126,1809.528 L747.658126,1809.528 L747.910126,1809.312 Z M783.046126,1805.28 C783.214127,1805.136 783.310126,1804.908 783.334126,1804.596 C783.358126,1804.284 783.358126,1803.996 783.334126,1803.732 C783.310126,1803.468 783.262126,1803.312 783.190126,1803.264 C783.118126,1803.216 783.106126,1803.072 783.154126,1802.832 C783.202126,1802.592 783.214126,1801.81201 783.190126,1800.492 C783.166126,1799.17199 783.070127,1798.236 782.902126,1797.684 C782.734125,1797.132 782.626126,1796.688 782.578126,1796.352 C782.530126,1796.016 782.470126,1795.788 782.398126,1795.668 C782.326126,1795.548 782.266126,1795.32 782.218126,1794.984 C782.170126,1794.648 782.038127,1794.252 781.822126,1793.796 C781.606125,1793.34 781.306128,1792.836 780.922126,1792.284 C780.538124,1791.732 780.238127,1791.372 780.022126,1791.204 C779.806125,1791.036 779.422129,1790.904 778.870126,1790.808 C778.318123,1790.712 778.246124,1790.976 778.654126,1791.6 C779.062128,1792.224 779.494124,1793.31599 779.950126,1794.876 C780.406128,1796.43601 780.622126,1797.71999 780.598126,1798.728 C780.574126,1799.73601 780.466127,1800.204 780.274126,1800.132 C780.082125,1800.06 779.818128,1800.024 779.482126,1800.024 C779.146124,1800.024 779.074125,1800.264 779.266126,1800.744 C779.458127,1801.224 779.686125,1801.62 779.950126,1801.932 C780.214127,1802.244 780.442125,1802.58 780.634126,1802.94 C780.826127,1803.3 780.994125,1803.636 781.138126,1803.948 C781.282127,1804.26 781.462125,1804.488 781.678126,1804.632 C781.894127,1804.776 782.050126,1804.932 782.146126,1805.1 C782.242126,1805.268 782.374125,1805.376 782.542126,1805.424 L782.794126,1805.496 L783.046126,1805.28 Z" id="她的世界很小"></path>
        </g>
    </g>
</svg>