<?xml version="1.0" encoding="UTF-8"?>
<svg width="400px" height="69px" viewBox="0 0 400 69" version="1.1" xmlns="http://www.w3.org/2000/svg" xmlns:xlink="http://www.w3.org/1999/xlink">
    <!-- Generator: Sketch 43.2 (39069) - http://www.bohemiancoding.com/sketch -->
    <title>却常忽略了她</title>
    <desc>Created with Sketch.</desc>
    <defs></defs>
    <g id="Page-1" stroke="none" stroke-width="1" fill="none" fill-rule="evenodd">
        <g id="我要认真爱妈妈" transform="translate(-386.000000, -2005.000000)" stroke="#FFFFFF" fill="#FFFFFF">
            <path d="M402.0912,2014.928 L402.2352,2015.144 L402.1632,2013.992 C402.1152,2013.224 402.0792,2012.852 402.0552,2012.876 C402.0312,2012.9 402.0072,2012.912 401.9832,2012.912 C401.9592,2012.912 401.9472,2013.212 401.9472,2013.812 C401.9472,2014.412 401.9952,2014.784 402.0912,2014.928 Z M403.8552,2022.776 L403.9632,2022.776 L404.9352,2022.38 C405.583203,2022.116 405.751202,2021.876 405.4392,2021.66 C405.127199,2021.444 404.803202,2021.18 404.4672,2020.868 C404.131198,2020.556 403.9272,2020.796 403.8552,2021.588 C403.7832,2022.38 403.7832,2022.776 403.8552,2022.776 Z M408.1032,2052.44 L408.2832,2052.8 L408.4992,2050.784 C408.643201,2049.43999 408.655201,2048.852 408.5352,2049.02 C408.415199,2049.188 408.223201,2049.428 407.9592,2049.74 C407.695199,2050.052 407.5392,2050.208 407.4912,2050.208 C407.4432,2050.208 407.275202,2050.364 406.9872,2050.676 C406.699199,2050.988 406.663199,2051.18 406.8792,2051.252 C407.095201,2051.324 407.323199,2051.48 407.5632,2051.72 C407.803201,2051.96 407.983199,2052.2 408.1032,2052.44 Z M409.6512,2057.444 L409.4352,2057.624 L409.1472,2057.552 C408.955199,2057.504 408.727201,2057.312 408.4632,2056.976 C408.199199,2056.64 407.935201,2056.196 407.6712,2055.644 C407.407199,2055.092 407.119202,2054.612 406.8072,2054.204 C406.495199,2053.796 406.243201,2053.304 406.0512,2052.728 C405.859199,2052.152 405.679201,2051.924 405.5112,2052.044 C405.343199,2052.164 405.2472,2052.224 405.2232,2052.224 C405.1992,2052.224 405.079201,2052.38 404.8632,2052.692 C404.647199,2053.004 404.5152,2053.16 404.4672,2053.16 C404.4192,2053.16 404.119203,2053.532 403.5672,2054.276 C403.015197,2055.02 402.499202,2055.524 402.0192,2055.788 C401.539198,2056.052 401.191201,2056.184 400.9752,2056.184 C400.759199,2056.184 400.603201,2056.148 400.5072,2056.076 C400.4112,2056.004 400.315201,2055.86 400.2192,2055.644 C400.1232,2055.428 399.931202,2055.056 399.6432,2054.528 C399.355199,2054 399.091201,2053.604 398.8512,2053.34 C398.611199,2053.076 398.5272,2052.632 398.5992,2052.008 C398.6712,2051.384 398.851199,2050.676 399.1392,2049.884 C399.427202,2049.092 399.739198,2048.336 400.0752,2047.616 C400.411202,2046.896 400.783198,2045.99601 401.1912,2044.916 C401.599202,2043.83599 401.995198,2042.61201 402.3792,2041.244 C402.763202,2039.87599 402.9312,2039.036 402.8832,2038.724 C402.8352,2038.412 402.703201,2038.088 402.4872,2037.752 C402.271199,2037.416 401.695205,2037.524 400.7592,2038.076 C399.823195,2038.628 399.3312,2038.904 399.2832,2038.904 C399.2352,2038.904 398.19121,2039.76799 396.1512,2041.496 C394.11119,2043.22401 393.0672,2044.088 393.0192,2044.088 C392.9712,2044.088 392.899201,2044.148 392.8032,2044.268 C392.7072,2044.388 392.6352,2044.448 392.5872,2044.448 C392.5392,2044.448 392.395201,2044.568 392.1552,2044.808 C391.915199,2045.048 391.7712,2045.168 391.7232,2045.168 C391.6752,2045.168 391.603201,2045.228 391.5072,2045.348 C391.4112,2045.468 391.3392,2045.528 391.2912,2045.528 C391.2432,2045.528 391.075202,2045.708 390.7872,2046.068 C390.499199,2046.428 390.3432,2046.608 390.3192,2046.608 C390.2952,2046.608 390.223201,2046.788 390.1032,2047.148 C389.983199,2047.508 389.839201,2047.76 389.6712,2047.904 C389.503199,2048.048 389.323201,2048.084 389.1312,2048.012 C388.939199,2047.94 388.795201,2047.796 388.6992,2047.58 C388.6032,2047.364 388.435201,2047.028 388.1952,2046.572 C387.955199,2046.116 387.703201,2045.732 387.4392,2045.42 C387.175199,2045.108 387.0312,2044.88 387.0072,2044.736 C386.9832,2044.592 387.0192,2044.472 387.1152,2044.376 C387.211201,2044.28 387.691196,2043.944 388.5552,2043.368 C389.419204,2042.792 391.267186,2041.38801 394.0992,2039.156 C396.931214,2036.92399 398.851195,2035.436 399.8592,2034.692 C400.867205,2033.948 401.3712,2033.24 401.3712,2032.568 C401.3712,2031.896 401.443199,2030.74401 401.5872,2029.112 C401.731201,2027.47999 401.431204,2026.82 400.6872,2027.132 C399.943196,2027.444 399.5352,2027.6 399.4632,2027.6 C399.3912,2027.6 399.259201,2027.66 399.0672,2027.78 C398.875199,2027.9 398.7432,2027.96 398.6712,2027.96 C398.5992,2027.96 398.359202,2028.056 397.9512,2028.248 C397.543198,2028.44 397.3032,2028.536 397.2312,2028.536 C397.1592,2028.536 397.1112,2028.68 397.0872,2028.968 C397.0632,2029.256 396.979201,2029.46 396.8352,2029.58 C396.691199,2029.7 396.307203,2029.724 395.6832,2029.652 C395.059197,2029.58 394.675201,2029.508 394.5312,2029.436 C394.387199,2029.364 394.183201,2029.052 393.9192,2028.5 C393.655199,2027.948 393.391201,2027.516 393.1272,2027.204 C392.863199,2026.892 394.291184,2026.19601 397.4112,2025.116 C400.531216,2024.03599 402.1032,2023.4 402.1272,2023.208 C402.1512,2023.016 402.1752,2022.15201 402.1992,2020.616 C402.2232,2019.07999 402.019202,2018.024 401.5872,2017.448 C401.155198,2016.872 400.855201,2016.38 400.6872,2015.972 C400.519199,2015.564 400.255202,2015.12 399.8952,2014.64 C399.535198,2014.16 399.271201,2013.752 399.1032,2013.416 C398.935199,2013.08 398.8392,2012.504 398.8152,2011.688 C398.7912,2010.872 398.8032,2010.416 398.8512,2010.32 C398.8992,2010.224 399.019199,2010.068 399.2112,2009.852 C399.403201,2009.636 399.619199,2009.468 399.8592,2009.348 C400.099201,2009.228 400.447198,2009.168 400.9032,2009.168 C401.359202,2009.168 401.719199,2009.216 401.9832,2009.312 C402.247201,2009.408 402.475199,2009.528 402.6672,2009.672 C402.859201,2009.816 403.111199,2010.092 403.4232,2010.5 C403.735202,2010.908 403.999199,2011.472 404.2152,2012.192 C404.431201,2012.912 404.5392,2013.656 404.5392,2014.424 C404.5392,2015.192 404.491201,2015.96 404.3952,2016.728 C404.2992,2017.496 404.407199,2018.024 404.7192,2018.312 C405.031202,2018.6 405.415198,2018.876 405.8712,2019.14 C406.327202,2019.404 406.783198,2019.608 407.2392,2019.752 C407.695202,2019.896 408.307196,2019.992 409.0752,2020.04 C409.843204,2020.088 410.407198,2020.196 410.7672,2020.364 C411.127202,2020.532 411.439199,2020.76 411.7032,2021.048 C411.967201,2021.336 412.1112,2021.612 412.1352,2021.876 C412.1592,2022.14 412.1592,2022.38 412.1352,2022.596 C412.1112,2022.812 412.015201,2022.992 411.8472,2023.136 C411.679199,2023.28 411.235204,2023.352 410.5152,2023.352 C409.795196,2023.352 409.375201,2023.424 409.2552,2023.568 C409.135199,2023.712 408.163209,2024.144 406.3392,2024.864 C404.515191,2025.584 403.5912,2025.944 403.5672,2025.944 C403.5432,2025.944 403.5072,2026.45999 403.4592,2027.492 C403.4112,2028.52401 403.3632,2029.65199 403.3152,2030.876 C403.2672,2032.10001 403.399199,2032.724 403.7112,2032.748 C404.023202,2032.772 404.311199,2032.832 404.5752,2032.928 C404.839201,2033.024 405.031199,2033.132 405.1512,2033.252 C405.271201,2033.372 405.955194,2033.108 407.2032,2032.46 C408.451206,2031.812 409.243198,2031.38 409.5792,2031.164 C409.915202,2030.948 410.299198,2030.732 410.7312,2030.516 C411.163202,2030.3 411.439199,2030.132 411.5592,2030.012 C411.679201,2029.892 411.979198,2029.868 412.4592,2029.94 C412.939202,2030.012 413.323199,2030.132 413.6112,2030.3 C413.899202,2030.468 414.151199,2030.696 414.3672,2030.984 C414.583201,2031.272 414.6912,2031.62 414.6912,2032.028 C414.6912,2032.436 414.619201,2032.736 414.4752,2032.928 C414.331199,2033.12 414.151201,2033.276 413.9352,2033.396 C413.719199,2033.516 413.5872,2033.576 413.5392,2033.576 C413.4912,2033.576 413.203203,2033.744 412.6752,2034.08 C412.147197,2034.416 411.8472,2034.584 411.7752,2034.584 C411.7032,2034.584 411.103206,2034.896 409.9752,2035.52 C408.847194,2036.144 408.2592,2036.456 408.2112,2036.456 C408.1632,2036.456 408.031201,2036.54 407.8152,2036.708 C407.599199,2036.876 407.4672,2036.96 407.4192,2036.96 C407.3712,2036.96 407.263201,2037.104 407.0952,2037.392 C406.927199,2037.68 406.8312,2037.824 406.8072,2037.824 C406.7832,2037.824 406.651201,2038.052 406.4112,2038.508 C406.171199,2038.964 406.0392,2039.192 406.0152,2039.192 C405.9912,2039.192 405.883201,2039.492 405.6912,2040.092 C405.499199,2040.692 405.3912,2040.992 405.3672,2040.992 C405.3432,2040.992 405.3072,2041.088 405.2592,2041.28 C405.2112,2041.472 405.1752,2041.568 405.1512,2041.568 C405.1272,2041.568 405.007201,2041.832 404.7912,2042.36 C404.575199,2042.888 404.4552,2043.152 404.4312,2043.152 C404.4072,2043.152 404.3712,2043.236 404.3232,2043.404 C404.2752,2043.572 404.2392,2043.656 404.2152,2043.656 C404.1912,2043.656 404.1552,2043.74 404.1072,2043.908 C404.0592,2044.076 404.0232,2044.16 403.9992,2044.16 C403.9752,2044.16 403.9392,2044.244 403.8912,2044.412 C403.8432,2044.58 403.8072,2044.664 403.7832,2044.664 C403.7592,2044.664 403.579202,2045.084 403.2432,2045.924 C402.907198,2046.764 402.7272,2047.184 402.7032,2047.184 C402.6792,2047.184 402.583201,2047.472 402.4152,2048.048 C402.247199,2048.624 402.1512,2048.912 402.1272,2048.912 C402.1032,2048.912 402.007201,2049.26 401.8392,2049.956 C401.671199,2050.652 402.103195,2050.568 403.1352,2049.704 C404.167205,2048.84 405.103196,2048 405.9432,2047.184 C406.783204,2046.368 407.515197,2045.564 408.1392,2044.772 C408.763203,2043.98 409.0512,2043.512 409.0032,2043.368 C408.9552,2043.224 408.9192,2042.948 408.8952,2042.54 C408.8712,2042.132 409.087198,2041.94 409.5432,2041.964 C409.999202,2041.988 410.359199,2042.048 410.6232,2042.144 C410.887201,2042.24 411.115199,2042.36 411.3072,2042.504 C411.499201,2042.648 411.691199,2042.852 411.8832,2043.116 C412.075201,2043.38 412.1712,2043.932 412.1712,2044.772 C412.1712,2045.612 412.111201,2046.116 411.9912,2046.284 C411.871199,2046.452 411.7872,2046.536 411.7392,2046.536 C411.6912,2046.536 411.607201,2046.716 411.4872,2047.076 C411.367199,2047.436 411.2952,2047.616 411.2712,2047.616 C411.2472,2047.616 411.163201,2048.50399 411.0192,2050.28 C410.875199,2052.05601 410.7912,2052.944 410.7672,2052.944 C410.7432,2052.944 410.671201,2053.148 410.5512,2053.556 C410.431199,2053.964 410.3592,2054.168 410.3352,2054.168 C410.3112,2054.168 410.227201,2054.68399 410.0832,2055.716 C409.939199,2056.74801 409.795201,2057.324 409.6512,2057.444 Z M420.4152,2035.88 L420.4512,2035.88 L420.4512,2035.772 C420.4512,2035.7 420.4392,2035.664 420.4152,2035.664 C420.3912,2035.664 420.3792,2035.7 420.3792,2035.772 C420.3792,2035.844 420.3912,2035.88 420.4152,2035.88 Z M420.4872,2036.168 L420.5232,2036.168 L420.5232,2036.132 C420.5232,2036.108 420.5112,2036.096 420.4872,2036.096 C420.4632,2036.096 420.4512,2036.108 420.4512,2036.132 C420.4512,2036.156 420.4632,2036.168 420.4872,2036.168 Z M423.1152,2040.992 L423.9792,2042.432 L424.0152,2042.252 C424.0392,2042.132 424.231198,2041.808 424.5912,2041.28 C424.951202,2040.752 425.647195,2039.45601 426.6792,2037.392 C427.711205,2035.32799 428.515197,2033.804 429.0912,2032.82 C429.667203,2031.836 430.135198,2030.972 430.4952,2030.228 C430.855202,2029.484 430.06321,2029.46 428.1192,2030.156 C426.17519,2030.852 424.615206,2031.428 423.4392,2031.884 C422.263194,2032.34 421.6632,2032.568 421.6392,2032.568 C421.6152,2032.568 421.711199,2032.964 421.9272,2033.756 C422.143201,2034.548 422.2512,2035.71199 422.2512,2037.248 C422.2512,2038.78401 422.539197,2040.032 423.1152,2040.992 Z M424.2312,2072.672 L424.1952,2073.104 L423.4032,2073.104 C422.875197,2073.104 422.6232,2073.092 422.6472,2073.068 C422.6712,2073.044 422.575201,2072.78 422.3592,2072.276 C422.143199,2071.772 421.879202,2071.316 421.5672,2070.908 C421.255199,2070.5 421.207199,2070.284 421.4232,2070.26 C421.639201,2070.236 421.7592,2069.37201 421.7832,2067.668 C421.8072,2065.96399 421.735201,2064.09201 421.5672,2062.052 C421.399199,2060.01199 421.3032,2057.72001 421.2792,2055.176 C421.2552,2052.63199 421.2072,2050.904 421.1352,2049.992 C421.0632,2049.08 421.0032,2047.20801 420.9552,2044.376 C420.9072,2041.54399 420.547203,2039.55201 419.8752,2038.4 C419.203197,2037.24799 418.711202,2036.3 418.3992,2035.556 C418.087199,2034.812 417.835201,2034.512 417.6432,2034.656 C417.451199,2034.8 417.259201,2034.836 417.0672,2034.764 C416.875199,2034.692 416.731201,2034.548 416.6352,2034.332 C416.5392,2034.116 416.371201,2033.78 416.1312,2033.324 C415.891199,2032.868 415.639201,2032.484 415.3752,2032.172 C415.111199,2031.86 414.9672,2031.584 414.9432,2031.344 C414.9192,2031.104 415.327196,2030.84 416.1672,2030.552 C417.007204,2030.264 417.4392,2030.072 417.4632,2029.976 C417.4872,2029.88 417.619199,2029.832 417.8592,2029.832 C418.099201,2029.832 418.675196,2029.652 419.5872,2029.292 C420.499205,2028.932 422.695183,2028.14001 426.1752,2026.916 C429.655217,2025.69199 431.599198,2024.972 432.0072,2024.756 C432.415202,2024.54 432.811198,2024.432 433.1952,2024.432 C433.579202,2024.432 433.927199,2024.504 434.2392,2024.648 C434.551202,2024.792 434.815199,2024.984 435.0312,2025.224 C435.247201,2025.464 435.427199,2025.776 435.5712,2026.16 C435.715201,2026.544 435.7872,2026.94 435.7872,2027.348 C435.7872,2027.756 435.667201,2028.128 435.4272,2028.464 C435.187199,2028.8 435.0552,2028.968 435.0312,2028.968 C435.0072,2028.968 434.755202,2029.364 434.2752,2030.156 C433.795198,2030.948 433.339202,2031.692 432.9072,2032.388 C432.475198,2033.084 432.2472,2033.432 432.2232,2033.432 C432.1992,2033.432 432.115201,2033.552 431.9712,2033.792 C431.827199,2034.032 431.7432,2034.152 431.7192,2034.152 C431.6952,2034.152 431.611201,2034.272 431.4672,2034.512 C431.323199,2034.752 431.2392,2034.872 431.2152,2034.872 C431.1912,2034.872 431.047201,2035.076 430.7832,2035.484 C430.519199,2035.892 430.3752,2036.096 430.3512,2036.096 C430.3272,2036.096 429.979203,2036.528 429.3072,2037.392 C428.635197,2038.256 428.2872,2038.688 428.2632,2038.688 C428.2392,2038.688 427.951203,2039.49199 427.3992,2041.1 C426.847197,2042.70801 426.5592,2043.512 426.5352,2043.512 C426.5112,2043.512 426.403201,2044.01599 426.2112,2045.024 C426.019199,2046.03201 425.839201,2046.608 425.6712,2046.752 C425.503199,2046.896 425.323201,2046.968 425.1312,2046.968 C424.939199,2046.968 424.795201,2046.932 424.6992,2046.86 C424.6032,2046.788 424.495201,2046.632 424.3752,2046.392 C424.255199,2046.152 424.063201,2045.876 423.7992,2045.564 C423.535199,2045.252 423.331201,2044.94 423.1872,2044.628 C423.043199,2044.316 422.875201,2043.992 422.6832,2043.656 C422.491199,2043.32 422.347201,2043.83599 422.2512,2045.204 C422.1552,2046.57201 422.1312,2047.79599 422.1792,2048.876 C422.2272,2049.95601 422.2752,2051.81599 422.3232,2054.456 C422.3712,2057.09601 422.4432,2058.788 422.5392,2059.532 C422.635201,2060.276 422.7072,2060.864 422.7552,2061.296 C422.8032,2061.728 422.8392,2062.124 422.8632,2062.484 C422.8872,2062.844 422.971199,2063.48 423.1152,2064.392 C423.259201,2065.304 423.3792,2066.12 423.4752,2066.84 C423.571201,2067.56 423.739199,2068.45999 423.9792,2069.54 C424.219201,2070.62001 424.3392,2071.34 424.3392,2071.7 C424.3392,2072.06 424.3272,2072.24 424.3032,2072.24 C424.2792,2072.24 424.2552,2072.384 424.2312,2072.672 Z M406.0872,2040.128 L405.8352,2040.344 L405.5472,2040.236 C405.355199,2040.164 405.211201,2040.02 405.1152,2039.804 C405.0192,2039.588 404.851201,2039.252 404.6112,2038.796 C404.371199,2038.34 404.119201,2037.956 403.8552,2037.644 C403.591199,2037.332 403.4472,2037.116 403.4232,2036.996 C403.3992,2036.876 403.567198,2036.828 403.9272,2036.852 C404.287202,2036.876 404.647198,2036.972 405.0072,2037.14 C405.367202,2037.308 405.679199,2037.536 405.9432,2037.824 C406.207201,2038.112 406.3512,2038.388 406.3752,2038.652 C406.3992,2038.916 406.3992,2039.192 406.3752,2039.48 C406.3512,2039.768 406.255201,2039.984 406.0872,2040.128 Z M481.9032,2022.416 L481.6512,2022.632 L481.3272,2022.632 C481.111199,2022.632 480.859201,2022.548 480.5712,2022.38 C480.283199,2022.212 480.091201,2022.032 479.9952,2021.84 C479.8992,2021.648 479.707201,2021.456 479.4192,2021.264 C479.131199,2021.072 478.867201,2020.7 478.6272,2020.148 C478.387199,2019.596 478.087202,2019.08 477.7272,2018.6 C477.367198,2018.12 477.367198,2017.88 477.7272,2017.88 C478.087202,2017.88 478.399199,2017.928 478.6632,2018.024 C478.927201,2018.12 479.0952,2018.036 479.1672,2017.772 C479.2392,2017.508 479.2872,2016.32001 479.3112,2014.208 C479.3352,2012.09599 479.263201,2010.86 479.0952,2010.5 C478.927199,2010.14 478.783201,2009.96 478.6632,2009.96 C478.543199,2009.96 478.423201,2009.924 478.3032,2009.852 C478.183199,2009.78 477.955202,2009.396 477.6192,2008.7 C477.283198,2008.004 476.959202,2007.476 476.6472,2007.116 C476.335198,2006.756 476.299199,2006.48 476.5392,2006.288 C476.779201,2006.096 477.103198,2006 477.5112,2006 C477.919202,2006 478.303198,2006.072 478.6632,2006.216 C479.023202,2006.36 479.347199,2006.588 479.6352,2006.9 C479.923201,2007.212 480.475196,2008.25599 481.2912,2010.032 C482.107204,2011.80801 482.5272,2013.82399 482.5512,2016.08 C482.5752,2018.33601 482.5632,2019.572 482.5152,2019.788 C482.4672,2020.004 482.4312,2020.112 482.4072,2020.112 C482.3832,2020.112 482.3352,2020.46 482.2632,2021.156 C482.1912,2021.852 482.071201,2022.272 481.9032,2022.416 Z M473.3712,2025.476 L472.7232,2026.088 L472.3272,2026.052 C472.063199,2026.028 471.883201,2025.944 471.7872,2025.8 C471.6912,2025.656 471.595201,2025.548 471.4992,2025.476 C471.4032,2025.404 471.223201,2025.08 470.9592,2024.504 C470.695199,2023.928 470.407202,2023.448 470.0952,2023.064 C469.783198,2022.68 469.6152,2021.02401 469.5912,2018.096 C469.5672,2015.16799 469.795198,2013.74 470.2752,2013.812 C470.755202,2013.884 471.139199,2014.004 471.4272,2014.172 C471.715201,2014.34 471.967199,2014.568 472.1832,2014.856 C472.399201,2015.144 472.5192,2016.42799 472.5432,2018.708 C472.5672,2020.98801 472.663199,2022.164 472.8312,2022.236 C472.999201,2022.308 473.239198,2022.512 473.5512,2022.848 C473.863202,2023.184 474.0312,2023.484 474.0552,2023.748 C474.0792,2024.012 474.0792,2024.264 474.0552,2024.504 C474.0312,2024.744 473.803202,2025.068 473.3712,2025.476 Z M487.8432,2024.108 L486.9792,2024.576 L486.7992,2024.576 C486.679199,2024.576 486.547201,2024.528 486.4032,2024.432 C486.259199,2024.336 486.067201,2024.012 485.8272,2023.46 C485.587199,2022.908 485.287202,2022.392 484.9272,2021.912 C484.567198,2021.432 484.663197,2021.036 485.2152,2020.724 C485.767203,2020.412 486.343197,2019.968 486.9432,2019.392 C487.543203,2018.816 488.287196,2017.95201 489.1752,2016.8 C490.063204,2015.64799 490.5312,2014.952 490.5792,2014.712 C490.6272,2014.472 490.279204,2014.436 489.5352,2014.604 C488.791196,2014.772 488.347201,2014.856 488.2032,2014.856 C488.059199,2014.856 487.927201,2014.82 487.8072,2014.748 C487.687199,2014.676 487.459202,2014.292 487.1232,2013.596 C486.787198,2012.9 486.463202,2012.372 486.1512,2012.012 C485.839198,2011.652 486.559191,2011.28 488.3112,2010.896 C490.063209,2010.512 491.203197,2010.32 491.7312,2010.32 C492.259203,2010.32 492.703198,2010.392 493.0632,2010.536 C493.423202,2010.68 493.747199,2010.908 494.0352,2011.22 C494.323201,2011.532 494.5032,2011.832 494.5752,2012.12 C494.6472,2012.408 494.515202,2013.43999 494.1792,2015.216 C493.843198,2016.99201 493.279204,2018.41999 492.4872,2019.5 C491.695196,2020.58001 490.867204,2021.54 490.0032,2022.38 C489.139196,2023.22 488.419203,2023.796 487.8432,2024.108 Z M458.0352,2041.964 L457.7472,2042.216 L457.6032,2042.216 C457.5072,2042.216 457.387201,2042.168 457.2432,2042.072 C457.099199,2041.976 456.895201,2041.628 456.6312,2041.028 C456.367199,2040.428 456.067202,2039.924 455.7312,2039.516 C455.395198,2039.108 455.2152,2038.736 455.1912,2038.4 C455.1672,2038.064 455.239199,2037.764 455.4072,2037.5 C455.575201,2037.236 455.887198,2037.128 456.3432,2037.176 C456.799202,2037.224 457.123199,2037.104 457.3152,2036.816 C457.507201,2036.528 457.891197,2036.096 458.4672,2035.52 C459.043203,2034.944 459.787195,2034.06801 460.6992,2032.892 C461.611205,2031.71599 462.295198,2030.78 462.7512,2030.084 C463.207202,2029.388 464.191192,2028.46401 465.7032,2027.312 C467.215208,2026.15999 468.163198,2025.584 468.5472,2025.584 C468.931202,2025.584 469.303198,2025.668 469.6632,2025.836 C470.023202,2026.004 470.335199,2026.232 470.5992,2026.52 C470.863201,2026.808 471.0072,2027.072 471.0312,2027.312 C471.0552,2027.552 471.0432,2027.792 470.9952,2028.032 C470.9472,2028.272 470.167208,2028.96799 468.6552,2030.12 C467.143192,2031.27201 466.3752,2031.848 466.3512,2031.848 C466.3272,2031.848 466.111202,2032.148 465.7032,2032.748 C465.295198,2033.348 465.0672,2033.648 465.0192,2033.648 C464.9712,2033.648 464.755202,2033.9 464.3712,2034.404 C463.987198,2034.908 463.7832,2035.16 463.7592,2035.16 C463.7352,2035.16 463.627201,2035.292 463.4352,2035.556 C463.243199,2035.82 463.1232,2035.952 463.0752,2035.952 C463.0272,2035.952 462.679203,2036.348 462.0312,2037.14 C461.383197,2037.932 461.0472,2038.328 461.0232,2038.328 C460.9992,2038.328 460.867201,2038.52 460.6272,2038.904 C460.387199,2039.288 460.2552,2039.48 460.2312,2039.48 C460.2072,2039.48 460.1592,2039.564 460.0872,2039.732 C460.0152,2039.9 459.811202,2040.14 459.4752,2040.452 C459.139198,2040.764 458.9592,2040.92 458.9352,2040.92 C458.9112,2040.92 458.803201,2041.052 458.6112,2041.316 C458.419199,2041.58 458.227201,2041.796 458.0352,2041.964 Z M477.5472,2054.24 L477.5472,2054.384 L478.2312,2053.916 C478.687202,2053.604 479.455195,2053.136 480.5352,2052.512 C481.615205,2051.888 482.1672,2051.03601 482.1912,2049.956 C482.2152,2048.87599 482.2032,2048.36 482.1552,2048.408 C482.1072,2048.456 482.0592,2048.48 482.0112,2048.48 C481.9632,2048.48 481.711202,2048.744 481.2552,2049.272 C480.799198,2049.8 480.5592,2050.064 480.5352,2050.064 C480.5112,2050.064 480.175203,2050.556 479.5272,2051.54 C478.879197,2052.524 478.399202,2053.196 478.0872,2053.556 C477.775198,2053.916 477.6072,2054.096 477.5832,2054.096 C477.5592,2054.096 477.5472,2054.144 477.5472,2054.24 Z M485.8632,2056.256 L486.1872,2057.336 L486.5112,2057.012 C486.727201,2056.796 487.447194,2055.98001 488.6712,2054.564 C489.895206,2053.14799 490.723198,2052.092 491.1552,2051.396 C491.587202,2050.7 491.707201,2050.364 491.5152,2050.388 C491.323199,2050.412 491.095201,2050.424 490.8312,2050.424 C490.567199,2050.424 489.931205,2050.568 488.9232,2050.856 C487.915195,2051.144 487.351201,2051.288 487.2312,2051.288 C487.111199,2051.288 486.847202,2051.396 486.4392,2051.612 C486.031198,2051.828 485.779201,2051.936 485.6832,2051.936 C485.5872,2051.936 485.491201,2052.368 485.3952,2053.232 C485.2992,2054.096 485.2992,2054.636 485.3952,2054.852 C485.491201,2055.068 485.647199,2055.536 485.8632,2056.256 Z M483.5592,2072.06 L483.4512,2072.168 L483.2712,2072.132 C483.151199,2072.108 483.0672,2072.036 483.0192,2071.916 C482.9712,2071.796 482.839201,2071.568 482.6232,2071.232 C482.407199,2070.896 482.3232,2070.16401 482.3712,2069.036 C482.4192,2067.90799 482.4552,2065.13602 482.4792,2060.72 C482.5032,2056.30398 482.215203,2054.372 481.6152,2054.924 C481.015197,2055.476 480.6912,2055.752 480.6432,2055.752 C480.5952,2055.752 480.439201,2055.872 480.1752,2056.112 C479.911199,2056.352 479.7552,2056.472 479.7072,2056.472 C479.6592,2056.472 479.503201,2056.592 479.2392,2056.832 C478.975199,2057.072 478.8192,2057.192 478.7712,2057.192 C478.7232,2057.192 478.579201,2057.3 478.3392,2057.516 C478.099199,2057.732 477.9552,2057.84 477.9072,2057.84 C477.8592,2057.84 477.775201,2057.912 477.6552,2058.056 C477.535199,2058.2 477.307202,2058.404 476.9712,2058.668 C476.635198,2058.932 476.4432,2059.064 476.3952,2059.064 C476.3472,2059.064 476.251201,2059.148 476.1072,2059.316 C475.963199,2059.484 475.8672,2059.568 475.8192,2059.568 C475.7712,2059.568 475.7352,2059.652 475.7112,2059.82 C475.6872,2059.988 475.627201,2060.18 475.5312,2060.396 C475.4352,2060.612 475.243201,2060.804 474.9552,2060.972 C474.667199,2061.14 474.463201,2061.224 474.3432,2061.224 C474.223199,2061.224 474.103201,2061.188 473.9832,2061.116 C473.863199,2061.044 473.635202,2060.66 473.2992,2059.964 C472.963198,2059.268 472.639202,2058.74 472.3272,2058.38 C472.015198,2058.02 471.8952,2057.66 471.9672,2057.3 C472.0392,2056.94 472.315198,2056.4 472.7952,2055.68 C473.275202,2054.96 474.031195,2054.01201 475.0632,2052.836 C476.095205,2051.65999 476.887197,2050.652 477.4392,2049.812 C477.991203,2048.972 478.615197,2048.156 479.3112,2047.364 C480.007204,2046.572 480.715196,2045.684 481.4352,2044.7 C482.155204,2043.716 482.431201,2043.272 482.2632,2043.368 C482.095199,2043.464 481.9872,2043.512 481.9392,2043.512 C481.8912,2043.512 481.711202,2043.644 481.3992,2043.908 C481.087198,2044.172 480.9072,2044.304 480.8592,2044.304 C480.8112,2044.304 480.715201,2044.388 480.5712,2044.556 C480.427199,2044.724 480.247201,2044.868 480.0312,2044.988 C479.815199,2045.108 479.6832,2045.168 479.6352,2045.168 C479.5872,2045.168 479.5272,2045.216 479.4552,2045.312 C479.3832,2045.408 479.071203,2045.624 478.5192,2045.96 C477.967197,2046.296 477.6672,2046.464 477.6192,2046.464 C477.5712,2046.464 477.499201,2046.524 477.4032,2046.644 C477.3072,2046.764 477.127201,2046.92 476.8632,2047.112 C476.599199,2047.304 476.419201,2047.4 476.3232,2047.4 C476.2272,2047.4 476.107201,2047.352 475.9632,2047.256 C475.819199,2047.16 475.627201,2046.836 475.3872,2046.284 C475.147199,2045.732 474.847202,2045.216 474.4872,2044.736 C474.127198,2044.256 474.007199,2043.932 474.1272,2043.764 C474.247201,2043.596 474.559198,2043.368 475.0632,2043.08 C475.567203,2042.792 475.747201,2042.552 475.6032,2042.36 C475.459199,2042.168 475.3752,2041.832 475.3512,2041.352 C475.3272,2040.872 475.3512,2040.488 475.4232,2040.2 C475.4952,2039.912 475.5792,2039.708 475.6752,2039.588 C475.771201,2039.468 475.8312,2038.90401 475.8552,2037.896 C475.8792,2036.88799 475.9272,2036.312 475.9992,2036.168 C476.0712,2036.024 476.1192,2035.7 476.1432,2035.196 C476.1672,2034.692 476.263199,2034.368 476.4312,2034.224 C476.599201,2034.08 476.7192,2033.9 476.7912,2033.684 C476.8632,2033.468 477.067198,2033.012 477.4032,2032.316 C477.739202,2031.62 477.967199,2031.272 478.0872,2031.272 C478.207201,2031.272 478.3152,2031.236 478.4112,2031.164 C478.507201,2031.092 479.431191,2031.044 481.1832,2031.02 C482.935209,2030.996 484.423194,2030.84 485.6472,2030.552 C486.871206,2030.264 488.083194,2029.952 489.2832,2029.616 C490.483206,2029.28 491.587195,2028.92 492.5952,2028.536 C493.603205,2028.152 494.959192,2027.492 496.6632,2026.556 C498.367209,2025.62 499.411198,2025.02 499.7952,2024.756 C500.179202,2024.492 500.179202,2024.348 499.7952,2024.324 C499.411198,2024.3 499.171201,2024.3 499.0752,2024.324 C498.9792,2024.348 498.703202,2024.36 498.2472,2024.36 C497.791198,2024.36 497.5272,2024.372 497.4552,2024.396 C497.3832,2024.42 497.179202,2024.432 496.8432,2024.432 C496.507198,2024.432 496.3152,2024.444 496.2672,2024.468 C496.2192,2024.492 496.051201,2024.504 495.7632,2024.504 C495.475199,2024.504 495.199201,2024.54 494.9352,2024.612 C494.671199,2024.684 494.407201,2024.72 494.1432,2024.72 C493.879199,2024.72 493.603201,2024.756 493.3152,2024.828 C493.027199,2024.9 492.835201,2024.936 492.7392,2024.936 C492.6432,2024.936 492.163204,2025.152 491.2992,2025.584 C490.435196,2026.016 489.175208,2026.496 487.5192,2027.024 C485.863192,2027.552 484.987201,2027.816 484.8912,2027.816 C484.7952,2027.816 484.555202,2027.9 484.1712,2028.068 C483.787198,2028.236 483.547201,2028.32 483.4512,2028.32 C483.3552,2028.32 483.019203,2028.428 482.4432,2028.644 C481.867197,2028.86 481.531201,2028.968 481.4352,2028.968 C481.3392,2028.968 481.099202,2029.052 480.7152,2029.22 C480.331198,2029.388 480.091201,2029.472 479.9952,2029.472 C479.8992,2029.472 479.527203,2029.592 478.8792,2029.832 C478.231197,2030.072 477.8712,2030.192 477.7992,2030.192 C477.7272,2030.192 477.523202,2030.264 477.1872,2030.408 C476.851198,2030.552 476.635201,2030.624 476.5392,2030.624 C476.4432,2030.624 475.507209,2030.948 473.7312,2031.596 C471.955191,2032.244 471.007201,2032.568 470.8872,2032.568 C470.767199,2032.568 470.635201,2032.508 470.4912,2032.388 C470.347199,2032.268 470.2392,2032.1 470.1672,2031.884 C470.0952,2031.668 469.963201,2031.38 469.7712,2031.02 C469.579199,2030.66 469.351201,2030.336 469.0872,2030.048 C468.823199,2029.76 469.399193,2029.352 470.8152,2028.824 C472.231207,2028.296 474.547184,2027.564 477.7632,2026.628 C480.979216,2025.692 483.787188,2024.948 486.1872,2024.396 C488.587212,2023.844 490.867189,2023.352 493.0272,2022.92 C495.187211,2022.488 497.071192,2022.152 498.6792,2021.912 C500.287208,2021.672 501.775193,2021.552 503.1432,2021.552 C504.511207,2021.552 505.375198,2021.624 505.7352,2021.768 C506.095202,2021.912 506.431198,2022.152 506.7432,2022.488 C507.055202,2022.824 507.2232,2023.124 507.2472,2023.388 C507.2712,2023.652 507.2712,2023.904 507.2472,2024.144 C507.2232,2024.384 507.103201,2024.612 506.8872,2024.828 C506.671199,2025.044 506.5392,2025.152 506.4912,2025.152 C506.4432,2025.152 506.143203,2025.332 505.5912,2025.692 C505.039197,2026.052 504.631201,2026.304 504.3672,2026.448 C504.103199,2026.592 503.683203,2026.82 503.1072,2027.132 C502.531197,2027.444 501.643206,2027.852 500.4432,2028.356 C499.243194,2028.86 498.583201,2029.112 498.4632,2029.112 C498.343199,2029.112 498.223201,2029.148 498.1032,2029.22 C497.983199,2029.292 497.863201,2029.328 497.7432,2029.328 C497.623199,2029.328 497.347202,2029.412 496.9152,2029.58 C496.483198,2029.748 496.207201,2029.832 496.0872,2029.832 C495.967199,2029.832 495.583203,2029.976 494.9352,2030.264 C494.287197,2030.552 493.543204,2030.84 492.7032,2031.128 C491.863196,2031.416 490.747207,2031.776 489.3552,2032.208 C487.963193,2032.64 486.835204,2032.976 485.9712,2033.216 C485.107196,2033.456 484.195205,2033.636 483.2352,2033.756 C482.275195,2033.876 481.735201,2033.936 481.6152,2033.936 C481.495199,2033.936 481.351201,2034.056 481.1832,2034.296 C481.015199,2034.536 480.9072,2034.656 480.8592,2034.656 C480.8112,2034.656 480.679201,2034.896 480.4632,2035.376 C480.247199,2035.856 480.655195,2035.832 481.6872,2035.304 C482.719205,2034.776 483.679196,2034.416 484.5672,2034.224 C485.455204,2034.032 485.983199,2033.888 486.1512,2033.792 C486.319201,2033.696 486.607198,2033.648 487.0152,2033.648 C487.423202,2033.648 487.807198,2033.72 488.1672,2033.864 C488.527202,2034.008 488.899198,2034.284 489.2832,2034.692 C489.667202,2035.1 489.8952,2035.448 489.9672,2035.736 C490.0392,2036.024 490.0512,2036.336 490.0032,2036.672 C489.9552,2037.008 489.811201,2037.284 489.5712,2037.5 C489.331199,2037.716 489.1872,2037.824 489.1392,2037.824 C489.0912,2037.824 489.151199,2037.932 489.3192,2038.148 C489.487201,2038.364 489.6072,2038.616 489.6792,2038.904 C489.7512,2039.192 489.7632,2039.504 489.7152,2039.84 C489.6672,2040.176 489.499201,2040.488 489.2112,2040.776 C488.923199,2041.064 488.7552,2041.208 488.7072,2041.208 C488.6592,2041.208 488.443202,2041.46 488.0592,2041.964 C487.675198,2042.468 487.4592,2042.72 487.4112,2042.72 C487.3632,2042.72 487.111202,2042.996 486.6552,2043.548 C486.199198,2044.1 485.9472,2044.376 485.8992,2044.376 C485.8512,2044.376 485.683201,2044.508 485.3952,2044.772 C485.107199,2045.036 484.9392,2045.168 484.8912,2045.168 C484.8432,2045.168 484.699201,2045.3 484.4592,2045.564 C484.219199,2045.828 484.0872,2045.96 484.0632,2045.96 C484.0392,2045.96 483.955201,2046.08 483.8112,2046.32 C483.667199,2046.56 483.775198,2046.74 484.1352,2046.86 C484.495202,2046.98 484.831198,2047.208 485.1432,2047.544 C485.455202,2047.88 485.6352,2048.336 485.6832,2048.912 C485.7312,2049.488 486.259195,2049.548 487.2672,2049.092 C488.275205,2048.636 489.163196,2048.3 489.9312,2048.084 C490.699204,2047.868 491.407197,2047.748 492.0552,2047.724 C492.703203,2047.7 493.183198,2047.724 493.4952,2047.796 C493.807202,2047.868 494.083199,2047.988 494.3232,2048.156 C494.563201,2048.324 494.887198,2048.672 495.2952,2049.2 C495.703202,2049.728 495.9432,2050.136 496.0152,2050.424 C496.0872,2050.712 496.051201,2051.168 495.9072,2051.792 C495.763199,2052.416 495.607201,2052.8 495.4392,2052.944 C495.271199,2053.088 495.127201,2053.16 495.0072,2053.16 C494.887199,2053.16 494.8152,2053.184 494.7912,2053.232 C494.7672,2053.28 494.7312,2053.304 494.6832,2053.304 C494.6352,2053.304 494.443202,2053.532 494.1072,2053.988 C493.771198,2054.444 493.423202,2054.864 493.0632,2055.248 C492.703198,2055.632 492.4992,2055.824 492.4512,2055.824 C492.4032,2055.824 492.331201,2055.884 492.2352,2056.004 C492.1392,2056.124 492.0672,2056.184 492.0192,2056.184 C491.9712,2056.184 491.659203,2056.484 491.0832,2057.084 C490.507197,2057.684 489.931203,2058.272 489.3552,2058.848 C488.779197,2059.424 488.4672,2059.712 488.4192,2059.712 C488.3712,2059.712 488.287201,2059.808 488.1672,2060 C488.047199,2060.192 487.9752,2060.288 487.9512,2060.288 C487.9272,2060.288 487.867201,2060.468 487.7712,2060.828 C487.6752,2061.188 487.543201,2061.44 487.3752,2061.584 C487.207199,2061.728 487.015201,2061.764 486.7992,2061.692 C486.583199,2061.62 486.427201,2061.488 486.3312,2061.296 C486.2352,2061.104 486.091201,2060.876 485.8992,2060.612 C485.707199,2060.348 485.467201,2059.94 485.1792,2059.388 C484.891199,2058.836 484.7232,2058.812 484.6752,2059.316 C484.6272,2059.82 484.543201,2060.48 484.4232,2061.296 C484.303199,2062.112 484.2312,2062.52 484.2072,2062.52 C484.1832,2062.52 484.1472,2063.26399 484.0992,2064.752 C484.0512,2066.24001 484.0152,2066.984 483.9912,2066.984 C483.9672,2066.984 483.907201,2067.81199 483.8112,2069.468 C483.7152,2071.12401 483.6312,2071.988 483.5592,2072.06 Z M537.2712,2021.264 L537.3072,2021.264 L537.3072,2021.228 C537.3072,2021.204 537.2952,2021.192 537.2712,2021.192 C537.2472,2021.192 537.2352,2021.204 537.2352,2021.228 C537.2352,2021.252 537.2472,2021.264 537.2712,2021.264 Z M549.4032,2038.364 L549.6192,2038.4 L550.4832,2038.004 C551.059203,2037.74 551.491199,2037.416 551.7792,2037.032 C552.067201,2036.648 552.595196,2036.072 553.3632,2035.304 C554.131204,2034.536 555.271192,2033.21601 556.7832,2031.344 C558.295208,2029.47199 559.411196,2027.98401 560.1312,2026.88 C560.851204,2025.77599 561.451198,2024.768 561.9312,2023.856 C562.411202,2022.944 562.735199,2022.212 562.9032,2021.66 C563.071201,2021.108 563.1672,2020.7 563.1912,2020.436 C563.2152,2020.172 563.035202,2019.98 562.6512,2019.86 C562.267198,2019.74 561.667204,2019.62 560.8512,2019.5 C560.035196,2019.38 559.519201,2019.344 559.3032,2019.392 C559.087199,2019.44 558.9312,2019.464 558.8352,2019.464 C558.739199,2019.464 558.355203,2019.512 557.6832,2019.608 C557.011197,2019.704 556.543201,2019.752 556.2792,2019.752 C556.015199,2019.752 555.679202,2019.8 555.2712,2019.896 C554.863198,2019.992 554.6112,2020.04 554.5152,2020.04 C554.419199,2020.04 553.783206,2020.136 552.6072,2020.328 C551.431194,2020.52 550.711201,2020.616 550.4472,2020.616 C550.183199,2020.616 549.727203,2020.688 549.0792,2020.832 C548.431197,2020.976 548.023201,2021.048 547.8552,2021.048 C547.687199,2021.048 546.919207,2021.18 545.5512,2021.444 C544.183193,2021.708 543.427201,2021.84 543.2832,2021.84 C543.139199,2021.84 542.803203,2021.984 542.2752,2022.272 C541.747197,2022.56 541.4352,2022.704 541.3392,2022.704 C541.243199,2022.704 540.979202,2022.824 540.5472,2023.064 C540.115198,2023.304 539.707202,2023.496 539.3232,2023.64 C538.939198,2023.784 538.7112,2023.856 538.6392,2023.856 C538.5672,2023.856 538.5312,2023.88 538.5312,2023.928 C538.5312,2023.976 538.651199,2024.072 538.8912,2024.216 C539.131201,2024.36 539.383199,2024.612 539.6472,2024.972 C539.911201,2025.332 540.0672,2025.668 540.1152,2025.98 C540.1632,2026.292 540.1752,2026.448 540.1512,2026.448 C540.1272,2026.448 540.187199,2026.676 540.3312,2027.132 C540.475201,2027.588 540.5832,2028.236 540.6552,2029.076 C540.7272,2029.916 540.859199,2030.468 541.0512,2030.732 C541.243201,2030.996 541.627197,2031.464 542.2032,2032.136 C542.779203,2032.808 543.379197,2033.42 544.0032,2033.972 C544.627203,2034.524 545.239197,2035.064 545.8392,2035.592 C546.439203,2036.12 546.799199,2036.456 546.9192,2036.6 C547.039201,2036.744 547.231199,2036.912 547.4952,2037.104 C547.759201,2037.296 548.107198,2037.548 548.5392,2037.86 C548.971202,2038.172 549.259199,2038.34 549.4032,2038.364 Z M551.5632,2041.568 L550.9152,2041.856 L550.7352,2041.856 C550.615199,2041.856 550.363202,2041.76 549.9792,2041.568 C549.595198,2041.376 549.055203,2040.992 548.3592,2040.416 C547.663196,2039.84 547.063202,2039.324 546.5592,2038.868 C546.055197,2038.412 545.443204,2037.788 544.7232,2036.996 C544.003196,2036.204 543.475202,2035.652 543.1392,2035.34 C542.803198,2035.028 542.347203,2034.536 541.7712,2033.864 C541.195197,2033.192 540.8592,2033.3 540.7632,2034.188 C540.667199,2035.076 540.6072,2035.52 540.5832,2035.52 C540.5592,2035.52 540.5472,2035.868 540.5472,2036.564 L540.5472,2038.184 C540.5472,2038.568 540.5352,2038.76 540.5112,2038.76 C540.4872,2038.76 540.4272,2039.012 540.3312,2039.516 C540.235199,2040.02 540.103201,2040.344 539.9352,2040.488 C539.767199,2040.632 539.587201,2040.68 539.3952,2040.632 C539.203199,2040.584 539.047201,2040.428 538.9272,2040.164 C538.807199,2039.9 538.603201,2039.504 538.3152,2038.976 C538.027199,2038.448 537.763201,2038.052 537.5232,2037.788 C537.283199,2037.524 537.1872,2037.176 537.2352,2036.744 C537.2832,2036.312 537.403199,2035.82 537.5952,2035.268 C537.787201,2034.716 537.943199,2034.14 538.0632,2033.54 C538.183201,2032.94 538.2552,2032.02801 538.2792,2030.804 C538.3032,2029.57999 538.2792,2028.92 538.2072,2028.824 C538.1352,2028.728 537.871202,2028.308 537.4152,2027.564 C536.959198,2026.82 536.635201,2026.196 536.4432,2025.692 C536.251199,2025.188 535.843203,2025.116 535.2192,2025.476 C534.595197,2025.836 534.175201,2025.992 533.9592,2025.944 C533.743199,2025.896 533.5872,2025.764 533.4912,2025.548 C533.395199,2025.332 533.215201,2024.972 532.9512,2024.468 C532.687199,2023.964 532.423201,2023.556 532.1592,2023.244 C531.895199,2022.932 531.7512,2022.656 531.7272,2022.416 C531.7032,2022.176 531.751199,2021.96 531.8712,2021.768 C531.991201,2021.576 532.315197,2021.168 532.8432,2020.544 C533.371203,2019.92 534.211194,2018.78001 535.3632,2017.124 C536.515206,2015.46799 538.003191,2013.53601 539.8272,2011.328 C541.651209,2009.11999 542.743198,2008.016 543.1032,2008.016 C543.463202,2008.016 543.811198,2008.088 544.1472,2008.232 C544.483202,2008.376 544.795199,2008.604 545.0832,2008.916 C545.371201,2009.228 545.5392,2009.564 545.5872,2009.924 C545.6352,2010.284 545.6232,2010.548 545.5512,2010.716 C545.4792,2010.884 544.615208,2011.97599 542.9592,2013.992 C541.303192,2016.00801 540.4632,2017.016 540.4392,2017.016 C540.4152,2017.016 540.187202,2017.304 539.7552,2017.88 C539.323198,2018.456 539.0952,2018.744 539.0712,2018.744 C539.0472,2018.744 538.747203,2019.152 538.1712,2019.968 C537.595197,2020.784 538.171191,2020.964 539.8992,2020.508 C541.627209,2020.052 543.955185,2019.596 546.8832,2019.14 C549.811215,2018.684 552.29519,2018.252 554.3352,2017.844 C556.37521,2017.436 557.971194,2017.22 559.1232,2017.196 C560.275206,2017.172 561.103197,2017.196 561.6072,2017.268 C562.111202,2017.34 562.603198,2017.436 563.0832,2017.556 C563.563202,2017.676 563.983198,2017.88 564.3432,2018.168 C564.703202,2018.456 565.027199,2018.756 565.3152,2019.068 C565.603201,2019.38 565.795199,2019.668 565.8912,2019.932 C565.9872,2020.196 566.0712,2020.64 566.1432,2021.264 C566.2152,2021.888 566.131201,2022.512 565.8912,2023.136 C565.651199,2023.76 565.435201,2024.252 565.2432,2024.612 C565.051199,2024.972 564.9432,2025.152 564.9192,2025.152 C564.8952,2025.152 564.691202,2025.452 564.3072,2026.052 C563.923198,2026.652 563.275205,2027.42 562.3632,2028.356 C561.451195,2029.292 560.9712,2029.76 560.9232,2029.76 C560.8752,2029.76 560.635202,2030.048 560.2032,2030.624 C559.771198,2031.2 559.5312,2031.488 559.4832,2031.488 C559.4352,2031.488 559.303201,2031.644 559.0872,2031.956 C558.871199,2032.268 558.7512,2032.424 558.7272,2032.424 C558.7032,2032.424 558.463202,2032.736 558.0072,2033.36 C557.551198,2033.984 557.3112,2034.296 557.2872,2034.296 C557.2632,2034.296 557.2272,2034.356 557.1792,2034.476 C557.1312,2034.596 556.987201,2034.812 556.7472,2035.124 C556.507199,2035.436 556.3752,2035.592 556.3512,2035.592 C556.3272,2035.592 556.051203,2035.916 555.5232,2036.564 C554.995197,2037.212 554.7192,2037.536 554.6952,2037.536 C554.6712,2037.536 554.563201,2037.716 554.3712,2038.076 C554.179199,2038.436 554.0712,2038.616 554.0472,2038.616 C554.0232,2038.616 553.9992,2038.676 553.9752,2038.796 C553.9512,2038.916 553.9272,2038.976 553.9032,2038.976 C553.8792,2038.976 553.8312,2039.06 553.7592,2039.228 C553.6872,2039.396 553.6392,2039.48 553.6152,2039.48 C553.5912,2039.48 553.447201,2039.72 553.1832,2040.2 C552.919199,2040.68 552.691201,2040.98 552.4992,2041.1 C552.307199,2041.22 551.995202,2041.376 551.5632,2041.568 Z M547.1352,2044.232 L546.8832,2044.448 L546.7032,2044.448 C546.583199,2044.448 546.391201,2044.376 546.1272,2044.232 C545.863199,2044.088 545.6952,2043.932 545.6232,2043.764 C545.5512,2043.596 545.371201,2043.236 545.0832,2042.684 C544.795199,2042.132 544.519201,2041.7 544.2552,2041.388 C543.991199,2041.076 543.751201,2040.428 543.5352,2039.444 C543.319199,2038.46 543.391198,2037.98 543.7512,2038.004 C544.111202,2038.028 544.423199,2038.088 544.6872,2038.184 C544.951201,2038.28 545.203199,2038.436 545.4432,2038.652 C545.683201,2038.868 545.983198,2038.652 546.3432,2038.004 C546.703202,2037.356 546.979199,2036.6 547.1712,2035.736 C547.363201,2034.872 547.4712,2033.27601 547.4952,2030.948 C547.5192,2028.61999 547.003205,2026.36401 545.9472,2024.18 C544.891195,2021.99599 544.603198,2020.952 545.0832,2021.048 C545.563202,2021.144 545.935199,2021.312 546.1992,2021.552 C546.463201,2021.792 547.159194,2023.09999 548.2872,2025.476 C549.415206,2027.85201 549.9432,2030.13199 549.8712,2032.316 C549.7992,2034.50001 549.7272,2035.712 549.6552,2035.952 C549.5832,2036.192 549.5352,2036.312 549.5112,2036.312 C549.4872,2036.312 549.379201,2036.576 549.1872,2037.104 C548.995199,2037.632 548.8872,2037.896 548.8632,2037.896 C548.8392,2037.896 548.767201,2038.208 548.6472,2038.832 C548.527199,2039.456 548.371201,2040.14 548.1792,2040.884 C547.987199,2041.628 547.8792,2042 547.8552,2042 C547.8312,2042 547.8072,2042.06 547.7832,2042.18 C547.7592,2042.3 547.7352,2042.36 547.7112,2042.36 C547.6872,2042.36 547.6272,2042.636 547.5312,2043.188 C547.435199,2043.74 547.303201,2044.088 547.1352,2044.232 Z M534.7512,2059.784 C534.919201,2059.64 535.0392,2059.22 535.1112,2058.524 C535.1832,2057.828 535.2312,2057.48 535.2552,2057.48 C535.2792,2057.48 535.3032,2057.348 535.3272,2057.084 C535.3512,2056.82 535.3512,2056.556 535.3272,2056.292 C535.3032,2056.028 535.135202,2055.728 534.8232,2055.392 C534.511198,2055.056 534.187202,2054.816 533.8512,2054.672 C533.515198,2054.528 533.143202,2054.432 532.7352,2054.384 C532.327198,2054.336 531.715204,2053.52001 530.8992,2051.936 C530.083196,2050.35199 529.543201,2049.428 529.2792,2049.164 C529.015199,2048.9 528.715202,2048.696 528.3792,2048.552 C528.043198,2048.408 527.707202,2048.336 527.3712,2048.336 C527.035198,2048.336 527.395195,2049.35599 528.4512,2051.396 C529.507205,2053.43601 530.143199,2054.588 530.3592,2054.852 C530.575201,2055.116 530.875198,2055.62 531.2592,2056.364 C531.643202,2057.108 532.159197,2057.852 532.8072,2058.596 C533.455203,2059.34 533.851199,2059.76 533.9952,2059.856 C534.139201,2059.952 534.259199,2060 534.3552,2060 L534.4992,2060 L534.7512,2059.784 Z M557.5392,2059.568 L557.1072,2059.712 L555.8472,2059.712 C555.007196,2059.712 554.107205,2059.592 553.1472,2059.352 C552.187195,2059.112 551.203205,2058.824 550.1952,2058.488 C549.187195,2058.152 547.939207,2057.6 546.4512,2056.832 C544.963193,2056.064 543.499207,2055.16401 542.0592,2054.132 C540.619193,2053.09999 539.803201,2052.356 539.6112,2051.9 C539.419199,2051.444 539.119202,2050.928 538.7112,2050.352 C538.303198,2049.776 538.267198,2049.488 538.6032,2049.488 C538.939202,2049.488 539.239199,2049.536 539.5032,2049.632 C539.767201,2049.728 540.547193,2050.244 541.8432,2051.18 C543.139206,2052.116 544.267195,2052.848 545.2272,2053.376 C546.187205,2053.904 547.063196,2054.348 547.8552,2054.708 C548.647204,2055.068 549.667194,2055.416 550.9152,2055.752 C552.163206,2056.088 553.099197,2056.268 553.7232,2056.292 C554.347203,2056.316 554.755199,2056.292 554.9472,2056.22 C555.139201,2056.148 555.463198,2056.1 555.9192,2056.076 C556.375202,2056.052 556.711199,2056.004 556.9272,2055.932 C557.143201,2055.86 557.551197,2055.668 558.1512,2055.356 C558.751203,2055.044 558.967201,2054.876 558.7992,2054.852 C558.631199,2054.828 558.187204,2054.732 557.4672,2054.564 C556.747196,2054.396 556.171202,2054.228 555.7392,2054.06 C555.307198,2053.892 554.815203,2053.736 554.2632,2053.592 C553.711197,2053.448 553.255202,2053.424 552.8952,2053.52 C552.535198,2053.616 552.3072,2053.664 552.2112,2053.664 C552.115199,2053.664 551.923201,2053.58 551.6352,2053.412 C551.347199,2053.244 551.107201,2053.064 550.9152,2052.872 C550.723199,2052.68 550.495201,2052.5 550.2312,2052.332 C549.967199,2052.164 549.715201,2052.02 549.4752,2051.9 C549.235199,2051.78 549.019201,2051.492 548.8272,2051.036 C548.635199,2050.58 548.335202,2050.064 547.9272,2049.488 C547.519198,2048.912 547.591197,2048.624 548.1432,2048.624 C548.695203,2048.624 549.043199,2048.66 549.1872,2048.732 C549.331201,2048.804 549.631198,2048.804 550.0872,2048.732 C550.543202,2048.66 551.071197,2048.612 551.6712,2048.588 C552.271203,2048.564 552.643199,2048.516 552.7872,2048.444 C552.931201,2048.372 553.315197,2048.288 553.9392,2048.192 C554.563203,2048.096 555.175197,2047.952 555.7752,2047.76 C556.375203,2047.568 556.831198,2047.388 557.1432,2047.22 C557.455202,2047.052 557.827198,2046.968 558.2592,2046.968 C558.691202,2046.968 559.075198,2047.04 559.4112,2047.184 C559.747202,2047.328 560.071198,2047.568 560.3832,2047.904 C560.695202,2048.24 560.8632,2048.54 560.8872,2048.804 C560.9112,2049.068 560.8992,2049.32 560.8512,2049.56 C560.8032,2049.8 560.671201,2049.992 560.4552,2050.136 C560.239199,2050.28 559.819203,2050.472 559.1952,2050.712 C558.571197,2050.952 557.959203,2051.144 557.3592,2051.288 C556.759197,2051.432 556.387201,2051.504 556.2432,2051.504 C556.099199,2051.504 555.943201,2051.54 555.7752,2051.612 C555.607199,2051.684 556.51919,2051.9 558.5112,2052.26 C560.50321,2052.62 561.895196,2052.824 562.6872,2052.872 C563.479204,2052.92 563.935199,2052.98 564.0552,2053.052 C564.175201,2053.124 564.367199,2053.172 564.6312,2053.196 C564.895201,2053.22 565.123199,2053.268 565.3152,2053.34 C565.507201,2053.412 565.723199,2053.52 565.9632,2053.664 C566.203201,2053.808 566.443199,2054.036 566.6832,2054.348 C566.923201,2054.66 567.0432,2055.056 567.0432,2055.536 C567.0432,2056.016 567.0072,2056.316 566.9352,2056.436 C566.8632,2056.556 566.671202,2056.7 566.3592,2056.868 C566.047198,2057.036 565.771201,2057.12 565.5312,2057.12 C565.291199,2057.12 564.739204,2057.252 563.8752,2057.516 C563.011196,2057.78 562.5312,2057.912 562.4352,2057.912 C562.339199,2057.912 562.087202,2058.02 561.6792,2058.236 C561.271198,2058.452 560.731203,2058.704 560.0592,2058.992 C559.387197,2059.28 558.871202,2059.424 558.5112,2059.424 C558.151198,2059.424 557.827201,2059.472 557.5392,2059.568 Z M565.3872,2048.444 L564.5232,2048.768 L564.1992,2048.696 C563.983199,2048.648 563.8392,2048.54 563.7672,2048.372 C563.6952,2048.204 563.491202,2047.808 563.1552,2047.184 C562.819198,2046.56 562.531201,2046.116 562.2912,2045.852 C562.051199,2045.588 562.315196,2045.312 563.0832,2045.024 C563.851204,2044.736 564.775195,2044.544 565.8552,2044.448 C566.935205,2044.352 568.603189,2044.304 570.8592,2044.304 C573.115211,2044.304 574.411198,2044.376 574.7472,2044.52 C575.083202,2044.664 575.407198,2044.904 575.7192,2045.24 C576.031202,2045.576 576.1992,2045.876 576.2232,2046.14 C576.2472,2046.404 576.2472,2046.644 576.2232,2046.86 C576.1992,2047.076 576.103201,2047.256 575.9352,2047.4 C575.767199,2047.544 575.455202,2047.616 574.9992,2047.616 C574.543198,2047.616 574.075202,2047.664 573.5952,2047.76 C573.115198,2047.856 572.731201,2047.904 572.4432,2047.904 C572.155199,2047.904 571.867201,2047.94 571.5792,2048.012 C571.291199,2048.084 571.0992,2048.12 571.0032,2048.12 C570.907199,2048.12 570.751201,2048.132 570.5352,2048.156 C570.319199,2048.18 570.139201,2048.192 569.9952,2048.192 C569.851199,2048.192 569.191206,2048.18 568.0152,2048.156 C566.839194,2048.132 565.963203,2048.228 565.3872,2048.444 Z M608.5512,2032.1 L610.8912,2032.136 L610.9632,2031.776 C611.0112,2031.536 611.0352,2030.75601 611.0352,2029.436 C611.0352,2028.11599 610.843202,2027.384 610.4592,2027.24 C610.075198,2027.096 609.559203,2027.06 608.9112,2027.132 C608.263197,2027.204 607.9152,2027.24 607.8672,2027.24 C607.8192,2027.24 607.519203,2027.396 606.9672,2027.708 C606.415197,2028.02 606.1032,2028.176 606.0312,2028.176 C605.9592,2028.176 605.659203,2028.572 605.1312,2029.364 C604.603197,2030.156 604.3152,2030.552 604.2672,2030.552 C604.2192,2030.552 604.1352,2030.684 604.0152,2030.948 C603.895199,2031.212 603.8472,2031.368 603.8712,2031.416 C603.8952,2031.464 604.291196,2031.584 605.0592,2031.776 C605.827204,2031.968 606.991192,2032.076 608.5512,2032.1 Z M597.1032,2038.688 L597.1392,2038.688 L597.1392,2038.652 C597.1392,2038.628 597.1272,2038.616 597.1032,2038.616 C597.0792,2038.616 597.0672,2038.628 597.0672,2038.652 C597.0672,2038.676 597.0792,2038.688 597.1032,2038.688 Z M607.7232,2038.58 L607.8672,2039.12 L608.2272,2038.508 C608.467201,2038.1 608.791198,2037.5 609.1992,2036.708 C609.607202,2035.916 609.667201,2035.544 609.3792,2035.592 C609.091198,2035.64 608.8872,2035.664 608.7672,2035.664 C608.647199,2035.664 608.347202,2035.688 607.8672,2035.736 C607.387197,2035.784 607.075201,2035.808 606.9312,2035.808 C606.787199,2035.808 606.7392,2035.868 606.7872,2035.988 C606.8352,2036.108 606.8832,2036.288 606.9312,2036.528 C606.9792,2036.768 607.099199,2037.08 607.2912,2037.464 C607.483201,2037.848 607.627199,2038.22 607.7232,2038.58 Z M597.2112,2038.328 L597.2112,2038.616 L597.3192,2038.508 C597.3912,2038.436 597.571198,2038.172 597.8592,2037.716 C598.147201,2037.26 598.375199,2036.768 598.5432,2036.24 C598.711201,2035.712 598.555202,2035.064 598.0752,2034.296 C597.595197,2033.528 597.3432,2033.95999 597.3192,2035.592 C597.2952,2037.22401 597.2712,2038.04 597.2472,2038.04 C597.2232,2038.04 597.2112,2038.136 597.2112,2038.328 Z M602.5752,2043.836 L602.8272,2043.872 L603.4032,2043.764 C603.787202,2043.692 604.135198,2043.536 604.4472,2043.296 C604.759201,2043.056 605.059198,2042.78 605.3472,2042.468 C605.635201,2042.156 605.7192,2041.916 605.5992,2041.748 C605.479199,2041.58 605.4072,2041.412 605.3832,2041.244 C605.3592,2041.076 605.263201,2040.824 605.0952,2040.488 C604.927199,2040.152 604.927199,2039.996 605.0952,2040.02 C605.263201,2040.044 605.2992,2039.54001 605.2032,2038.508 C605.107199,2037.47599 604.9992,2036.828 604.8792,2036.564 C604.759199,2036.3 604.627201,2036.204 604.4832,2036.276 C604.339199,2036.348 604.2312,2036.384 604.1592,2036.384 C604.0872,2036.384 603.883202,2036.456 603.5472,2036.6 C603.211198,2036.744 603.0192,2036.816 602.9712,2036.816 C602.9232,2036.816 602.731202,2036.96 602.3952,2037.248 C602.059198,2037.536 601.8792,2037.68 601.8552,2037.68 C601.8312,2037.68 601.7592,2037.848 601.6392,2038.184 C601.519199,2038.52 601.4472,2038.688 601.4232,2038.688 C601.3992,2038.688 601.3752,2038.796 601.3512,2039.012 C601.3272,2039.228 601.3032,2039.336 601.2792,2039.336 C601.2552,2039.336 601.2432,2039.744 601.2432,2040.56 C601.2432,2041.376 601.351199,2042.048 601.5672,2042.576 C601.783201,2043.104 601.963199,2043.44 602.1072,2043.584 C602.251201,2043.728 602.407199,2043.812 602.5752,2043.836 Z M605.0952,2046.932 L604.6992,2047.112 L604.4112,2047.076 C604.219199,2047.052 603.991201,2047.016 603.7272,2046.968 C603.463199,2046.92 603.199201,2046.848 602.9352,2046.752 C602.671199,2046.656 602.287202,2046.368 601.7832,2045.888 C601.279197,2045.408 600.931201,2044.94 600.7392,2044.484 C600.547199,2044.028 600.271202,2043.548 599.9112,2043.044 C599.551198,2042.54 599.191202,2042.444 598.8312,2042.756 C598.471198,2043.068 598.2432,2043.224 598.1472,2043.224 C598.051199,2043.224 597.859201,2043.14 597.5712,2042.972 C597.283198,2042.804 597.043201,2042.564 596.8512,2042.252 C596.659199,2041.94 596.467201,2041.58 596.2752,2041.172 C596.083199,2040.764 595.831201,2040.356 595.5192,2039.948 C595.207198,2039.54 595.0392,2037.90801 595.0152,2035.052 C594.9912,2032.19599 594.9312,2030.42 594.8352,2029.724 C594.739199,2029.028 594.847198,2028.692 595.1592,2028.716 C595.471201,2028.74 595.771198,2028.812 596.0592,2028.932 C596.347201,2029.052 596.611199,2029.232 596.8512,2029.472 C597.091201,2029.712 597.607196,2030.49199 598.3992,2031.812 C599.191204,2033.13201 599.815198,2033.3 600.2712,2032.316 C600.727202,2031.332 600.9312,2030.78 600.8832,2030.66 C600.8352,2030.54 600.883199,2030.468 601.0272,2030.444 C601.171201,2030.42 601.363199,2030.18 601.6032,2029.724 C601.843201,2029.268 602.275197,2028.56 602.8992,2027.6 C603.523203,2026.64 604.147197,2025.932 604.7712,2025.476 C605.395203,2025.02 606.019197,2024.672 606.6432,2024.432 C607.267203,2024.192 608.011196,2024.12 608.8752,2024.216 C609.739204,2024.312 610.339198,2024.42 610.6752,2024.54 C611.011202,2024.66 611.275199,2024.792 611.4672,2024.936 C611.659201,2025.08 611.995197,2025.464 612.4752,2026.088 C612.955202,2026.712 613.279199,2027.408 613.4472,2028.176 C613.615201,2028.944 613.6512,2029.92799 613.5552,2031.128 C613.459199,2032.32801 613.519199,2033.036 613.7352,2033.252 C613.951201,2033.468 614.0712,2033.708 614.0952,2033.972 C614.1192,2034.236 614.1192,2034.476 614.0952,2034.692 C614.0712,2034.908 613.975201,2035.088 613.8072,2035.232 C613.639199,2035.376 613.399201,2035.448 613.0872,2035.448 C612.775198,2035.448 612.5592,2035.604 612.4392,2035.916 C612.319199,2036.228 612.2472,2036.384 612.2232,2036.384 C612.1992,2036.384 612.043201,2036.708 611.7552,2037.356 C611.467198,2038.004 611.3112,2038.328 611.2872,2038.328 C611.2632,2038.328 611.155201,2038.556 610.9632,2039.012 C610.771199,2039.468 610.6632,2039.696 610.6392,2039.696 C610.6152,2039.696 610.471201,2039.972 610.2072,2040.524 C609.943199,2041.076 609.7992,2041.352 609.7752,2041.352 C609.7512,2041.352 609.655201,2041.532 609.4872,2041.892 C609.319199,2042.252 609.115201,2042.612 608.8752,2042.972 C608.635199,2043.332 608.5032,2043.512 608.4792,2043.512 C608.4552,2043.512 608.4312,2043.608 608.4072,2043.8 C608.3832,2043.992 608.299201,2044.172 608.1552,2044.34 C608.011199,2044.508 607.9152,2044.592 607.8672,2044.592 C607.8192,2044.592 607.591202,2044.88 607.1832,2045.456 C606.775198,2046.032 606.451201,2046.392 606.2112,2046.536 C605.971199,2046.68 605.7912,2046.752 605.6712,2046.752 C605.551199,2046.752 605.359201,2046.812 605.0952,2046.932 Z M633.8232,2020.472 L633.8592,2020.472 L633.8592,2020.436 C633.8592,2020.412 633.8472,2020.4 633.8232,2020.4 C633.7992,2020.4 633.7872,2020.412 633.7872,2020.436 C633.7872,2020.46 633.7992,2020.472 633.8232,2020.472 Z M620.4312,2044.664 L619.8912,2044.952 L619.7472,2044.952 C619.651199,2044.952 619.411202,2044.772 619.0272,2044.412 C618.643198,2044.052 618.4032,2043.764 618.3072,2043.548 C618.211199,2043.332 618.043201,2042.996 617.8032,2042.54 C617.563199,2042.084 617.311201,2041.7 617.0472,2041.388 C616.783199,2041.076 616.555201,2040.536 616.3632,2039.768 C616.171199,2039 616.243198,2038.616 616.5792,2038.616 C616.915202,2038.616 617.263198,2038.7 617.6232,2038.868 C617.983202,2039.036 618.295199,2039.264 618.5592,2039.552 C618.823201,2039.84 619.015199,2040.188 619.1352,2040.596 C619.2552,2041.004 619.399199,2041.184 619.5672,2041.136 C619.735201,2041.088 620.323195,2040.44001 621.3312,2039.192 C622.339205,2037.94399 623.035198,2037.056 623.4192,2036.528 C623.803202,2036 624.655193,2034.86001 625.9752,2033.108 C627.295206,2031.35599 628.723192,2029.31601 630.2592,2026.988 C631.795208,2024.65999 632.767198,2022.99201 633.1752,2021.984 C633.583202,2020.97599 633.379204,2020.592 632.5632,2020.832 C631.747196,2021.072 631.267201,2021.192 631.1232,2021.192 C630.979199,2021.192 630.631203,2021.264 630.0792,2021.408 C629.527197,2021.552 629.011202,2021.576 628.5312,2021.48 C628.051197,2021.384 627.691201,2021.228 627.4512,2021.012 C627.211199,2020.796 626.971201,2020.436 626.7312,2019.932 C626.491199,2019.428 626.239201,2019.008 625.9752,2018.672 C625.711199,2018.336 625.5672,2018.096 625.5432,2017.952 C625.5192,2017.808 625.735198,2017.472 626.1912,2016.944 C626.647202,2016.416 627.367195,2015.07201 628.3512,2012.912 C629.335205,2010.75199 630.031198,2009.696 630.4392,2009.744 C630.847202,2009.792 631.219198,2009.912 631.5552,2010.104 C631.891202,2010.296 632.143199,2010.512 632.3112,2010.752 C632.479201,2010.992 632.5632,2011.304 632.5632,2011.688 C632.5632,2012.072 632.155204,2013.13999 631.3392,2014.892 C630.523196,2016.64401 630.403197,2017.424 630.9792,2017.232 C631.555203,2017.04 632.299195,2016.944 633.2112,2016.944 C634.123204,2016.944 634.675199,2016.98 634.8672,2017.052 C635.059201,2017.124 635.323198,2017.268 635.6592,2017.484 C635.995202,2017.7 636.343198,2018 636.7032,2018.384 C637.063202,2018.768 637.2552,2019.068 637.2792,2019.284 C637.3032,2019.5 637.3032,2019.716 637.2792,2019.932 C637.2552,2020.148 637.003202,2020.712 636.5232,2021.624 C636.043197,2022.536 635.419204,2023.53199 634.6512,2024.612 C633.883196,2025.69201 633.4872,2026.232 633.4632,2026.232 C633.4392,2026.232 633.235202,2026.508 632.8512,2027.06 C632.467198,2027.612 632.2632,2027.888 632.2392,2027.888 C632.2152,2027.888 631.747204,2028.54799 630.8352,2029.868 C629.923195,2031.18801 629.4432,2031.848 629.3952,2031.848 C629.3472,2031.848 629.251201,2031.968 629.1072,2032.208 C628.963199,2032.448 628.8792,2032.568 628.8552,2032.568 C628.8312,2032.568 628.603202,2032.844 628.1712,2033.396 C627.739198,2033.948 627.5112,2034.224 627.4872,2034.224 C627.4632,2034.224 627.307201,2034.452 627.0192,2034.908 C626.731198,2035.364 626.5752,2035.592 626.5512,2035.592 C626.5272,2035.592 626.4912,2035.652 626.4432,2035.772 C626.3952,2035.892 626.3592,2035.952 626.3352,2035.952 C626.3112,2035.952 626.227201,2036.084 626.0832,2036.348 C625.939199,2036.612 625.8552,2036.744 625.8312,2036.744 C625.8072,2036.744 625.699201,2036.912 625.5072,2037.248 C625.315199,2037.584 625.2072,2037.752 625.1832,2037.752 C625.1592,2037.752 625.1112,2037.836 625.0392,2038.004 C624.9672,2038.172 624.9192,2038.256 624.8952,2038.256 C624.8712,2038.256 624.751201,2038.448 624.5352,2038.832 C624.319199,2039.216 624.1992,2039.408 624.1752,2039.408 C624.1512,2039.408 624.1152,2039.468 624.0672,2039.588 C624.0192,2039.708 623.887201,2039.936 623.6712,2040.272 C623.455199,2040.608 623.3352,2040.776 623.3112,2040.776 C623.2872,2040.776 623.155201,2041.016 622.9152,2041.496 C622.675199,2041.976 622.5432,2042.216 622.5192,2042.216 C622.4952,2042.216 622.4232,2042.348 622.3032,2042.612 C622.183199,2042.876 621.931202,2043.236 621.5472,2043.692 C621.163198,2044.148 620.791202,2044.472 620.4312,2044.664 Z M655.2432,2042.54 L655.0272,2042.72 L654.7392,2042.612 C654.547199,2042.54 654.283202,2042.18 653.9472,2041.532 C653.611198,2040.884 653.3952,2040.524 653.2992,2040.452 C653.203199,2040.38 653.035201,2040.212 652.7952,2039.948 C652.555199,2039.684 651.715207,2039.204 650.2752,2038.508 C648.835193,2037.812 647.683204,2037.26 646.8192,2036.852 C645.955196,2036.444 644.959206,2035.976 643.8312,2035.448 C642.703194,2034.92 641.839203,2034.56 641.2392,2034.368 C640.639197,2034.176 640.039203,2034.008 639.4392,2033.864 C638.839197,2033.72 638.443201,2033.6 638.2512,2033.504 C638.059199,2033.408 637.867201,2033.348 637.6752,2033.324 C637.483199,2033.3 637.267201,2033.24 637.0272,2033.144 C636.787199,2033.048 636.559201,2032.964 636.3432,2032.892 C636.127199,2032.82 635.923201,2032.772 635.7312,2032.748 C635.539199,2032.724 635.4312,2032.688 635.4072,2032.64 C635.3832,2032.592 635.275201,2032.556 635.0832,2032.532 C634.891199,2032.508 634.651201,2032.436 634.3632,2032.316 C634.075198,2032.196 633.703202,2032.04 633.2472,2031.848 C632.791198,2031.656 632.479201,2031.548 632.3112,2031.524 C632.143199,2031.5 632.0352,2031.464 631.9872,2031.416 C631.9392,2031.368 631.663202,2031.248 631.1592,2031.056 C630.655197,2030.864 629.671207,2030.504 628.2072,2029.976 C626.743193,2029.448 624.943211,2029.124 622.8072,2029.004 C620.671189,2028.884 619.5552,2028.788 619.4592,2028.716 C619.363199,2028.644 619.183201,2028.332 618.9192,2027.78 C618.655199,2027.228 618.343202,2026.712 617.9832,2026.232 C617.623198,2025.752 618.643188,2025.572 621.0432,2025.692 C623.443212,2025.812 624.739199,2025.908 624.9312,2025.98 C625.123201,2026.052 625.543197,2026.244 626.1912,2026.556 C626.839203,2026.868 627.607195,2027.216 628.4952,2027.6 C629.383204,2027.984 630.391194,2028.416 631.5192,2028.896 C632.647206,2029.376 633.859193,2029.868 635.1552,2030.372 C636.451206,2030.876 637.651194,2031.368 638.7552,2031.848 C639.859205,2032.328 641.095193,2032.892 642.4632,2033.54 C643.831207,2034.188 645.175193,2034.788 646.4952,2035.34 C647.815206,2035.892 649.075194,2036.396 650.2752,2036.852 C651.475206,2037.308 652.447196,2037.836 653.1912,2038.436 C653.935204,2039.036 654.379199,2039.444 654.5232,2039.66 L655.0992,2040.524 C655.339201,2040.884 655.4712,2041.184 655.4952,2041.424 C655.5192,2041.664 655.5192,2041.88 655.4952,2042.072 C655.4712,2042.264 655.387201,2042.42 655.2432,2042.54 Z M634.1832,2049.344 L634.2192,2049.344 L634.2192,2049.308 C634.2192,2049.284 634.2072,2049.272 634.1832,2049.272 C634.1592,2049.272 634.1472,2049.284 634.1472,2049.308 C634.1472,2049.332 634.1592,2049.344 634.1832,2049.344 Z M626.1552,2051.972 L626.2992,2052.152 L626.5152,2051.9 C626.659201,2051.732 627.475192,2051.09601 628.9632,2049.992 C630.451207,2048.88799 631.639195,2047.94 632.5272,2047.148 C633.415204,2046.356 634.171197,2045.636 634.7952,2044.988 C635.419203,2044.34 635.911198,2043.788 636.2712,2043.332 C636.631202,2042.876 636.715201,2042.684 636.5232,2042.756 C636.331199,2042.828 636.151201,2042.864 635.9832,2042.864 C635.815199,2042.864 635.599201,2042.924 635.3352,2043.044 C635.071199,2043.164 634.531204,2043.404 633.7152,2043.764 C632.899196,2044.124 632.083204,2044.52 631.2672,2044.952 C630.451196,2045.384 629.491205,2045.888 628.3872,2046.464 C627.283194,2047.04 626.575201,2047.388 626.2632,2047.508 C625.951198,2047.628 625.7472,2047.688 625.6512,2047.688 C625.555199,2047.688 625.5072,2047.784 625.5072,2047.976 C625.5072,2048.168 625.5432,2048.672 625.6152,2049.488 C625.6872,2050.304 625.7112,2050.712 625.6872,2050.712 C625.6632,2050.712 625.6872,2050.808 625.7592,2051 C625.8312,2051.192 625.8912,2051.372 625.9392,2051.54 C625.9872,2051.708 626.059199,2051.852 626.1552,2051.972 Z M626.7672,2056.544 L626.5152,2056.76 L626.2272,2056.652 C626.035199,2056.58 625.771202,2056.208 625.4352,2055.536 C625.099198,2054.864 624.799201,2054.372 624.5352,2054.06 C624.271199,2053.748 624.1272,2053.532 624.1032,2053.412 C624.0792,2053.292 623.983201,2053.112 623.8152,2052.872 C623.647199,2052.632 623.323202,2051.63601 622.8432,2049.884 C622.363197,2048.13199 622.1112,2046.848 622.0872,2046.032 C622.0632,2045.216 622.123199,2044.808 622.2672,2044.808 C622.411201,2044.808 622.4712,2044.784 622.4472,2044.736 C622.4232,2044.688 622.3992,2044.16001 622.3752,2043.152 C622.3512,2042.14399 622.507198,2041.652 622.8432,2041.676 C623.179202,2041.7 623.503198,2041.784 623.8152,2041.928 C624.127201,2042.072 624.391199,2042.264 624.6072,2042.504 C624.823201,2042.744 625.015199,2043.02 625.1832,2043.332 C625.351201,2043.644 625.807196,2043.668 626.5512,2043.404 C627.295204,2043.14 628.111195,2042.804 628.9992,2042.396 C629.887204,2041.988 630.823195,2041.64 631.8072,2041.352 C632.791205,2041.064 633.679196,2040.764 634.4712,2040.452 C635.263204,2040.14 635.887198,2039.936 636.3432,2039.84 C636.799202,2039.744 637.291197,2039.696 637.8192,2039.696 C638.347203,2039.696 638.851197,2039.78 639.3312,2039.948 C639.811202,2040.116 640.195198,2040.32 640.4832,2040.56 C640.771201,2040.8 640.987199,2041.064 641.1312,2041.352 C641.275201,2041.64 641.3592,2041.928 641.3832,2042.216 C641.4072,2042.504 641.4072,2042.744 641.3832,2042.936 C641.3592,2043.128 641.263201,2043.308 641.0952,2043.476 C640.927199,2043.644 640.8192,2043.728 640.7712,2043.728 C640.7232,2043.728 640.591201,2043.848 640.3752,2044.088 C640.159199,2044.328 640.0272,2044.448 639.9792,2044.448 C639.9312,2044.448 639.679202,2044.664 639.2232,2045.096 C638.767198,2045.528 638.5152,2045.744 638.4672,2045.744 C638.4192,2045.744 638.263201,2045.864 637.9992,2046.104 C637.735199,2046.344 637.5792,2046.464 637.5312,2046.464 C637.4832,2046.464 637.315201,2046.608 637.0272,2046.896 C636.739198,2047.184 636.5592,2047.328 636.4872,2047.328 C636.4152,2047.328 636.307201,2047.412 636.1632,2047.58 C636.019199,2047.748 635.9232,2047.832 635.8752,2047.832 C635.8272,2047.832 635.659201,2047.976 635.3712,2048.264 C635.083198,2048.552 634.9152,2048.696 634.8672,2048.696 C634.8192,2048.696 634.711201,2048.78 634.5432,2048.948 C634.375199,2049.116 634.3152,2049.2 634.3632,2049.2 L635.3352,2049.2 C635.935203,2049.2 636.379198,2049.26 636.6672,2049.38 C636.955201,2049.5 637.231199,2049.692 637.4952,2049.956 C637.759201,2050.22 637.9272,2050.652 637.9992,2051.252 C638.0712,2051.852 638.0592,2052.26 637.9632,2052.476 C637.867199,2052.692 637.711201,2052.872 637.4952,2053.016 C637.279199,2053.16 637.1472,2053.232 637.0992,2053.232 C637.0512,2053.232 636.655204,2053.58 635.9112,2054.276 C635.167196,2054.972 634.591202,2055.464 634.1832,2055.752 C633.775198,2056.04 633.355202,2056.232 632.9232,2056.328 C632.491198,2056.424 632.179201,2056.436 631.9872,2056.364 C631.795199,2056.292 631.567201,2055.992 631.3032,2055.464 C631.039199,2054.936 630.8832,2054.684 630.8352,2054.708 C630.7872,2054.732 630.307204,2054.984 629.3952,2055.464 C628.483195,2055.944 627.9672,2056.184 627.8472,2056.184 C627.727199,2056.184 627.583201,2056.1 627.4152,2055.932 C627.247199,2055.764 627.1392,2055.788 627.0912,2056.004 C627.0432,2056.22 626.935201,2056.4 626.7672,2056.544 Z M688.2912,2058.524 C688.435201,2058.452 688.723198,2058.188 689.1552,2057.732 C689.587202,2057.276 689.983198,2056.712 690.3432,2056.04 C690.703202,2055.368 690.991199,2054.54 691.2072,2053.556 C691.423201,2052.572 691.591199,2051.44401 691.7112,2050.172 C691.8312,2048.89999 691.9032,2047.58001 691.9272,2046.212 C691.9512,2044.84399 691.9152,2043.34401 691.8192,2041.712 C691.723199,2040.07999 691.6512,2038.65201 691.6032,2037.428 C691.5552,2036.20399 691.5432,2035.592 691.5672,2035.592 C691.5912,2035.592 691.5912,2035.328 691.5672,2034.8 C691.5432,2034.272 691.387201,2033.24001 691.0992,2031.704 C690.811198,2030.16799 690.595201,2029.256 690.4512,2028.968 C690.307199,2028.68 690.2472,2028.536 690.2712,2028.536 C690.2952,2028.536 690.391199,2028.44 690.5592,2028.248 C690.727201,2028.056 690.8352,2027.96 690.8832,2027.96 C690.9312,2027.96 691.039199,2027.876 691.2072,2027.708 C691.375201,2027.54 691.4832,2027.456 691.5312,2027.456 C691.5792,2027.456 692.407192,2026.66401 694.0152,2025.08 C695.623208,2023.49599 696.4512,2022.704 696.4992,2022.704 C696.5472,2022.704 696.739198,2022.608 697.0752,2022.416 C697.411201,2022.224 697.831197,2021.828 698.3352,2021.228 C698.839202,2020.628 699.175199,2020.076 699.3432,2019.572 C699.511201,2019.068 699.5952,2018.612 699.5952,2018.204 C699.5952,2017.796 699.499201,2017.46 699.3072,2017.196 C699.115199,2016.932 698.803202,2016.656 698.3712,2016.368 C697.939198,2016.08 697.543202,2015.864 697.1832,2015.72 C696.823198,2015.576 696.043206,2015.504 694.8432,2015.504 C693.643194,2015.504 692.659204,2015.564 691.8912,2015.684 C691.123196,2015.804 689.851209,2016.104 688.0752,2016.584 C686.299191,2017.064 684.811206,2017.424 683.6112,2017.664 C682.411194,2017.904 681.511203,2018.012 680.9112,2017.988 C680.311197,2017.964 679.9752,2017.928 679.9032,2017.88 C679.831199,2017.832 679.603202,2017.808 679.2192,2017.808 C678.835198,2017.808 678.6192,2017.856 678.5712,2017.952 C678.5232,2018.048 678.703198,2018.384 679.1112,2018.96 C679.519202,2019.536 679.807199,2020.028 679.9752,2020.436 C680.143201,2020.844 680.287199,2021.096 680.4072,2021.192 C680.5272,2021.288 681.163194,2021.336 682.3152,2021.336 C683.467206,2021.336 684.127199,2021.3 684.2952,2021.228 C684.463201,2021.156 684.607199,2021.12 684.7272,2021.12 C684.8472,2021.12 685.075198,2021.06 685.4112,2020.94 C685.747201,2020.82 685.975199,2020.76 686.0952,2020.76 C686.2152,2020.76 686.503198,2020.688 686.9592,2020.544 C687.415202,2020.4 687.703199,2020.328 687.8232,2020.328 C687.9432,2020.328 688.099199,2020.28 688.2912,2020.184 C688.483201,2020.088 688.627199,2020.04 688.7232,2020.04 C688.8192,2020.04 689.647192,2019.824 691.2072,2019.392 C692.767208,2018.96 693.619199,2018.744 693.7632,2018.744 C693.907201,2018.744 694.207198,2018.72 694.6632,2018.672 C695.119202,2018.624 694.963204,2018.996 694.1952,2019.788 C693.427196,2020.58 692.659204,2021.312 691.8912,2021.984 C691.123196,2022.656 690.031207,2023.69999 688.6152,2025.116 C687.199193,2026.53201 686.4912,2027.288 686.4912,2027.384 C686.4912,2027.48 686.4552,2027.54 686.3832,2027.564 C686.311199,2027.588 686.479198,2027.888 686.8872,2028.464 C687.295202,2029.04 687.583199,2029.532 687.7512,2029.94 C687.919201,2030.348 688.063199,2030.6 688.1832,2030.696 C688.3032,2030.792 688.447199,2030.852 688.6152,2030.876 C688.783201,2030.9 688.987199,2031.42799 689.2272,2032.46 C689.467201,2033.49201 689.659199,2034.452 689.8032,2035.34 C689.947201,2036.228 690.103199,2037.91999 690.2712,2040.416 C690.439201,2042.91201 690.451201,2044.89199 690.3072,2046.356 C690.163199,2047.82001 690.007201,2048.996 689.8392,2049.884 C689.671199,2050.772 689.443201,2051.612 689.1552,2052.404 C688.867198,2053.196 688.471202,2053.832 687.9672,2054.312 C687.463197,2054.792 687.007202,2055.152 686.5992,2055.392 C686.191198,2055.632 685.747202,2055.74 685.2672,2055.716 C684.787197,2055.692 684.283202,2055.536 683.7552,2055.248 C683.227197,2054.96 682.519204,2054.456 681.6312,2053.736 C680.743195,2053.016 680.047202,2052.608 679.5432,2052.512 C679.039197,2052.416 678.943198,2052.584 679.2552,2053.016 C679.567201,2053.448 679.819199,2053.868 680.0112,2054.276 C680.203201,2054.684 680.575197,2055.104 681.1272,2055.536 C681.679203,2055.968 682.195197,2056.376 682.6752,2056.76 C683.155202,2057.144 683.755196,2057.516 684.4752,2057.876 C685.195203,2058.236 685.975196,2058.452 686.8152,2058.524 L688.0752,2058.632 L688.2912,2058.524 Z M749.9592,2045.528 L749.9952,2045.528 L749.9952,2045.492 C749.9952,2045.468 749.9832,2045.456 749.9592,2045.456 C749.9352,2045.456 749.9232,2045.468 749.9232,2045.492 C749.9232,2045.516 749.9352,2045.528 749.9592,2045.528 Z M754.2072,2052.512 L753.9552,2052.728 L753.6672,2052.62 C753.475199,2052.548 753.3312,2052.404 753.2352,2052.188 C753.139199,2051.972 752.947201,2051.6 752.6592,2051.072 C752.371198,2050.544 752.131201,2050.196 751.9392,2050.028 C751.747199,2049.86 751.471202,2049.56 751.1112,2049.128 C750.751198,2048.696 750.5352,2048.396 750.4632,2048.228 C750.391199,2048.06 750.3312,2047.976 750.2832,2047.976 C750.235199,2047.976 750.055201,2047.712 749.7432,2047.184 C749.431198,2046.656 749.155201,2046.308 748.9152,2046.14 C748.675199,2045.972 748.435201,2045.756 748.1952,2045.492 C747.955199,2045.228 747.175206,2044.50801 745.8552,2043.332 C744.535193,2042.15599 742.783211,2040.50001 740.5992,2038.364 C738.415189,2036.22799 737.203201,2034.92 736.9632,2034.44 C736.723199,2033.96 736.447201,2033.504 736.1352,2033.072 C735.823198,2032.64 735.895197,2032.46 736.3512,2032.532 C736.807202,2032.604 737.311197,2032.772 737.8632,2033.036 C738.415202,2033.3 738.931197,2033.576 739.4112,2033.864 C739.891202,2034.152 740.203199,2034.404 740.3472,2034.62 C740.4912,2034.836 740.5632,2035.124 740.5632,2035.484 C740.5632,2035.844 741.295192,2036.76799 742.7592,2038.256 C744.223207,2039.74401 745.111198,2040.608 745.4232,2040.848 C745.735201,2041.088 746.203197,2041.532 746.8272,2042.18 C747.451203,2042.828 747.943198,2043.32 748.3032,2043.656 C748.663202,2043.992 749.023198,2044.376 749.3832,2044.808 C749.743202,2045.24 749.719202,2045.024 749.3112,2044.16 C748.903198,2043.296 748.879198,2042.876 749.2392,2042.9 C749.599202,2042.924 749.959198,2043.02 750.3192,2043.188 C750.679202,2043.356 750.967199,2043.56 751.1832,2043.8 C751.399201,2044.04 751.795197,2044.71199 752.3712,2045.816 C752.947203,2046.92001 753.343199,2047.808 753.5592,2048.48 C753.775201,2049.152 753.967199,2049.596 754.1352,2049.812 C754.303201,2050.028 754.423199,2050.292 754.4952,2050.604 C754.5672,2050.916 754.5792,2051.276 754.5312,2051.684 C754.483199,2052.092 754.375201,2052.368 754.2072,2052.512 Z M742.9752,2049.92 L743.2272,2049.992 L743.7672,2049.596 C744.127202,2049.332 744.463198,2049.008 744.7752,2048.624 C745.087201,2048.24 745.447198,2047.628 745.8552,2046.788 C746.263202,2045.948 746.863196,2044.41201 747.6552,2042.18 C748.447204,2039.94799 748.8552,2038.34 748.8792,2037.356 C748.9032,2036.372 748.603203,2036.036 747.9792,2036.348 C747.355197,2036.66 746.827202,2036.888 746.3952,2037.032 C745.963198,2037.176 745.7232,2037.248 745.6752,2037.248 C745.627199,2037.248 745.411202,2037.296 745.0272,2037.392 C744.643198,2037.488 744.4272,2037.536 744.3792,2037.536 C744.331199,2037.536 743.935203,2037.956 743.1912,2038.796 C742.447196,2039.636 742.0512,2040.056 742.0032,2040.056 C741.955199,2040.056 741.679202,2040.32 741.1752,2040.848 C740.671197,2041.376 740.4072,2041.64 740.3832,2041.64 C740.3592,2041.64 740.2992,2041.736 740.2032,2041.928 C740.107199,2042.12 740.0472,2042.216 740.0232,2042.216 C739.9992,2042.216 739.9512,2042.348 739.8792,2042.612 C739.807199,2042.876 739.7592,2043.008 739.7352,2043.008 C739.7112,2043.008 739.6872,2043.248 739.6632,2043.728 C739.6392,2044.208 739.663199,2044.592 739.7352,2044.88 C739.8072,2045.168 739.915199,2045.444 740.0592,2045.708 C740.2032,2045.972 740.515197,2046.548 740.9952,2047.436 C741.475202,2048.324 741.883198,2048.948 742.2192,2049.308 C742.555201,2049.668 742.807199,2049.872 742.9752,2049.92 Z M745.1352,2053.232 L744.4512,2053.304 L744.3072,2053.304 C744.211199,2053.304 744.043201,2053.232 743.8032,2053.088 C743.563199,2052.944 743.347201,2052.824 743.1552,2052.728 C742.963199,2052.632 742.735201,2052.44 742.4712,2052.152 C742.207198,2051.864 741.907201,2051.564 741.5712,2051.252 C741.235198,2050.94 740.899201,2050.484 740.5632,2049.884 C740.227198,2049.284 739.855202,2048.66 739.4472,2048.012 C739.039198,2047.364 738.547203,2046.45201 737.9712,2045.276 C737.395197,2044.09999 737.011201,2043.14 736.8192,2042.396 C736.627199,2041.652 736.567199,2041.076 736.6392,2040.668 C736.7112,2040.26 736.843199,2039.852 737.0352,2039.444 C737.227201,2039.036 737.467198,2038.724 737.7552,2038.508 C738.043201,2038.292 738.499197,2037.98 739.1232,2037.572 C739.747203,2037.164 740.407196,2036.66 741.1032,2036.06 C741.799203,2035.46 742.555196,2034.956 743.3712,2034.548 C744.187204,2034.14 745.183194,2033.588 746.3592,2032.892 C747.535206,2032.196 748.255198,2031.27201 748.5192,2030.12 C748.783201,2028.96799 749.071198,2028.404 749.3832,2028.428 C749.695201,2028.452 749.971199,2028.512 750.2112,2028.608 C750.451201,2028.704 750.703198,2028.884 750.9672,2029.148 C751.231201,2029.412 751.387199,2029.628 751.4352,2029.796 C751.4832,2029.964 751.591199,2030.024 751.7592,2029.976 C751.927201,2029.928 752.059199,2029.856 752.1552,2029.76 C752.2512,2029.664 752.467198,2029.616 752.8032,2029.616 C753.139201,2029.616 753.451198,2029.676 753.7392,2029.796 C754.027201,2029.916 754.291199,2030.096 754.5312,2030.336 C754.771201,2030.576 754.927199,2030.816 754.9992,2031.056 C755.0712,2031.296 755.1072,2031.704 755.1072,2032.28 C755.1072,2032.856 755.0592,2033.216 754.9632,2033.36 C754.867199,2033.504 754.543202,2033.66 753.9912,2033.828 C753.439197,2033.996 753.1032,2034.08 752.9832,2034.08 C752.863199,2034.08 752.587202,2034.176 752.1552,2034.368 C751.723198,2034.56 751.4832,2034.656 751.4352,2034.656 C751.387199,2034.656 751.3152,2035.60399 751.2192,2037.5 C751.123199,2039.39601 750.679204,2041.48399 749.8872,2043.764 C749.095196,2046.04401 748.447202,2047.532 747.9432,2048.228 C747.439197,2048.924 747.1752,2049.272 747.1512,2049.272 C747.1272,2049.272 747.0432,2049.488 746.8992,2049.92 C746.755199,2050.352 746.6712,2050.568 746.6472,2050.568 C746.6232,2050.568 746.5392,2050.916 746.3952,2051.612 C746.251199,2052.308 746.1192,2052.74 745.9992,2052.908 C745.879199,2053.076 745.591202,2053.184 745.1352,2053.232 Z M776.8152,2026.52 L776.8512,2026.52 L776.8512,2026.484 C776.8512,2026.46 776.8392,2026.448 776.8152,2026.448 C776.7912,2026.448 776.7792,2026.46 776.7792,2026.484 C776.7792,2026.508 776.7912,2026.52 776.8152,2026.52 Z M770.0472,2035.484 L770.1552,2035.736 L770.6952,2034.98 C771.055202,2034.476 772.015192,2033.22801 773.5752,2031.236 C775.135208,2029.24399 776.059198,2027.96 776.3472,2027.384 C776.635201,2026.808 776.7552,2026.532 776.7072,2026.556 C776.659199,2026.58 776.5992,2026.592 776.5272,2026.592 C776.455199,2026.592 776.203202,2026.712 775.7712,2026.952 C775.339198,2027.192 774.847202,2027.48 774.2952,2027.816 C773.743197,2028.152 773.4432,2028.32 773.3952,2028.32 C773.347199,2028.32 773.011203,2028.572 772.3872,2029.076 C771.763197,2029.58 771.4272,2029.832 771.3792,2029.832 C771.331199,2029.832 771.199201,2029.94 770.9832,2030.156 C770.767199,2030.372 770.6352,2030.48 770.5872,2030.48 C770.539199,2030.48 770.359201,2030.612 770.0472,2030.876 C769.735198,2031.14 769.5552,2031.272 769.5072,2031.272 C769.459199,2031.272 769.291201,2031.404 769.0032,2031.668 C768.715198,2031.932 768.5472,2032.064 768.4992,2032.064 C768.451199,2032.064 768.283201,2032.184 767.9952,2032.424 C767.707198,2032.664 767.743198,2032.844 768.1032,2032.964 C768.463202,2033.084 768.739199,2033.216 768.9312,2033.36 C769.123201,2033.504 769.315199,2033.708 769.5072,2033.972 C769.699201,2034.236 769.819199,2034.512 769.8672,2034.8 C769.9152,2035.088 769.975199,2035.316 770.0472,2035.484 Z M770.5872,2040.812 L770.2992,2041.064 L770.1552,2041.064 C770.059199,2041.064 769.9392,2041.004 769.7952,2040.884 C769.651199,2040.764 769.483201,2040.476 769.2912,2040.02 C769.099199,2039.564 768.847201,2039.132 768.5352,2038.724 C768.223198,2038.316 767.959201,2037.896 767.7432,2037.464 C767.527199,2037.032 767.4072,2036.588 767.3832,2036.132 C767.3592,2035.676 767.2752,2035.1 767.1312,2034.404 C766.987199,2033.708 766.9032,2033.372 766.8792,2033.396 C766.8552,2033.42 766.8192,2033.432 766.7712,2033.432 C766.723199,2033.432 766.603201,2033.528 766.4112,2033.72 C766.219199,2033.912 766.0992,2034.008 766.0512,2034.008 C766.003199,2034.008 765.727202,2034.356 765.2232,2035.052 C764.719197,2035.748 764.287202,2036.264 763.9272,2036.6 C763.567198,2036.936 763.3632,2037.104 763.3152,2037.104 C763.267199,2037.104 763.123201,2037.212 762.8832,2037.428 C762.643199,2037.644 762.4992,2037.752 762.4512,2037.752 C762.403199,2037.752 762.235201,2037.872 761.9472,2038.112 C761.659198,2038.352 761.5032,2038.472 761.4792,2038.472 C761.4552,2038.472 761.4312,2038.544 761.4072,2038.688 C761.3832,2038.832 761.3352,2038.952 761.2632,2039.048 C761.191199,2039.144 760.687204,2039.408 759.7512,2039.84 C758.815195,2040.272 758.251201,2040.464 758.0592,2040.416 C757.867199,2040.368 757.663201,2040.116 757.4472,2039.66 C757.231199,2039.204 756.967201,2038.76 756.6552,2038.328 C756.343198,2037.896 756.547196,2037.5 757.2672,2037.14 C757.987203,2036.78 758.455199,2036.576 758.6712,2036.528 C758.887201,2036.48 759.499195,2036.144 760.5072,2035.52 C761.515205,2034.896 762.415196,2034.296 763.2072,2033.72 C763.999204,2033.144 765.199192,2032.13601 766.8072,2030.696 C768.415208,2029.25599 770.047191,2027.90001 771.7032,2026.628 C773.359208,2025.35599 774.463197,2024.552 775.0152,2024.216 C775.567202,2023.88 776.143197,2023.592 776.7432,2023.352 C777.343203,2023.112 777.847198,2023.004 778.2552,2023.028 C778.663202,2023.052 779.083198,2023.184 779.5152,2023.424 C779.947202,2023.664 780.283199,2023.916 780.5232,2024.18 C780.763201,2024.444 780.919199,2024.72 780.9912,2025.008 C781.0632,2025.296 781.0752,2025.692 781.0272,2026.196 C780.979199,2026.7 780.835201,2027.096 780.5952,2027.384 C780.355199,2027.672 780.2232,2027.816 780.1992,2027.816 C780.1752,2027.816 780.019201,2028.056 779.7312,2028.536 C779.443198,2029.016 779.2872,2029.256 779.2632,2029.256 C779.2392,2029.256 779.131201,2029.424 778.9392,2029.76 C778.747199,2030.096 778.435202,2030.504 778.0032,2030.984 C777.571198,2031.464 776.791205,2032.26799 775.6632,2033.396 C774.535194,2034.52401 773.9592,2035.088 773.9352,2035.088 C773.9112,2035.088 773.755201,2035.328 773.4672,2035.808 C773.179198,2036.288 772.747203,2036.972 772.1712,2037.86 C771.595197,2038.748 771.2952,2039.192 771.2712,2039.192 C771.2472,2039.192 771.2232,2039.288 771.1992,2039.48 C771.1752,2039.672 771.1152,2039.9 771.0192,2040.164 C770.923199,2040.428 770.779201,2040.644 770.5872,2040.812 Z M768.8952,2043.008 L768.6432,2043.224 L768.4992,2043.224 C768.403199,2043.224 768.2952,2043.164 768.1752,2043.044 C768.055199,2042.924 767.899201,2042.816 767.7072,2042.72 C767.515199,2042.624 766.939205,2042.192 765.9792,2041.424 C765.019195,2040.656 764.4672,2040.092 764.3232,2039.732 C764.179199,2039.372 763.903202,2038.904 763.4952,2038.328 C763.087198,2037.752 763.051198,2037.464 763.3872,2037.464 C763.723201,2037.464 764.023198,2037.512 764.2872,2037.608 C764.551201,2037.704 764.923197,2037.932 765.4032,2038.292 C765.883202,2038.652 766.1352,2038.352 766.1592,2037.392 C766.1832,2036.432 766.051201,2033.82802 765.7632,2029.58 C765.475198,2025.33198 765.487198,2023.22 765.7992,2023.244 C766.111201,2023.268 766.387199,2023.328 766.6272,2023.424 C766.867201,2023.52 767.119198,2023.7 767.3832,2023.964 C767.647201,2024.228 767.935198,2024.98399 768.2472,2026.232 C768.559201,2027.48001 768.7152,2028.308 768.7152,2028.716 C768.7152,2029.124 768.6432,2029.388 768.4992,2029.508 C768.355199,2029.628 768.199201,2029.664 768.0312,2029.616 C767.863199,2029.568 767.863199,2030.99599 768.0312,2033.9 C768.199201,2036.80401 768.2232,2038.46 768.1032,2038.868 C767.983199,2039.276 767.947199,2039.588 767.9952,2039.804 C768.0432,2040.02 768.151199,2040.2 768.3192,2040.344 C768.487201,2040.488 768.667199,2040.692 768.8592,2040.956 C769.051201,2041.22 769.1592,2041.484 769.1832,2041.748 C769.2072,2042.012 769.2072,2042.252 769.1832,2042.468 C769.1592,2042.684 769.063201,2042.864 768.8952,2043.008 Z M767.2392,2057.084 L766.0512,2057.336 L765.3312,2057.192 C764.851197,2057.096 764.419202,2056.868 764.0352,2056.508 C763.651198,2056.148 763.351201,2055.812 763.1352,2055.5 C762.919199,2055.188 762.7512,2054.972 762.6312,2054.852 C762.511199,2054.732 762.319201,2054.396 762.0552,2053.844 C761.791198,2053.292 761.515201,2052.836 761.2272,2052.476 C760.939198,2052.116 760.663201,2051.48 760.3992,2050.568 C760.135198,2049.656 759.9552,2048.924 759.8592,2048.372 C759.763199,2047.82 759.6672,2046.66801 759.5712,2044.916 C759.475199,2043.16399 759.3552,2041.44801 759.2112,2039.768 C759.067199,2038.08799 758.827201,2036.62401 758.4912,2035.376 C758.155198,2034.12799 757.9392,2033.156 757.8432,2032.46 C757.747199,2031.764 757.543201,2030.40801 757.2312,2028.392 C756.919198,2026.37599 756.7512,2024.96 756.7272,2024.144 C756.7032,2023.328 756.871198,2022.932 757.2312,2022.956 C757.591202,2022.98 757.903198,2023.04 758.1672,2023.136 C758.431201,2023.232 758.659199,2023.352 758.8512,2023.496 C759.043201,2023.64 759.235199,2023.844 759.4272,2024.108 C759.619201,2024.372 759.7272,2024.912 759.7512,2025.728 C759.7752,2026.544 759.823199,2027.096 759.8952,2027.384 C759.9672,2027.672 760.123199,2028.91999 760.3632,2031.128 C760.603201,2033.33601 760.807199,2034.728 760.9752,2035.304 C761.143201,2035.88 761.275199,2036.528 761.3712,2037.248 C761.4672,2037.968 761.5032,2038.748 761.4792,2039.588 C761.4552,2040.428 761.4312,2040.848 761.4072,2040.848 C761.3832,2040.848 761.3712,2041.244 761.3712,2042.036 C761.3712,2042.828 761.419199,2043.608 761.5152,2044.376 C761.6112,2045.144 761.6592,2046.04399 761.6592,2047.076 C761.6592,2048.10801 761.6472,2048.624 761.6232,2048.624 C761.5992,2048.624 761.5872,2048.816 761.5872,2049.2 C761.5872,2049.584 761.647199,2049.884 761.7672,2050.1 C761.8872,2050.316 761.971199,2050.508 762.0192,2050.676 C762.0672,2050.844 762.271198,2051.24 762.6312,2051.864 C762.991202,2052.488 763.339198,2052.992 763.6752,2053.376 C764.011201,2053.76 764.419197,2053.964 764.8992,2053.988 C765.379202,2054.012 765.871197,2053.988 766.3752,2053.916 C766.879202,2053.844 767.479196,2053.712 768.1752,2053.52 C768.871203,2053.328 769.903193,2052.992 771.2712,2052.512 C772.639207,2052.032 774.151191,2051.42 775.8072,2050.676 C777.463208,2049.932 778.843194,2049.272 779.9472,2048.696 C781.051205,2048.12 781.651199,2047.772 781.7472,2047.652 C781.8432,2047.532 781.8312,2047.436 781.7112,2047.364 C781.591199,2047.292 781.4712,2047.244 781.3512,2047.22 C781.231199,2047.196 781.1592,2047.16 781.1352,2047.112 C781.1112,2047.064 780.919202,2046.968 780.5592,2046.824 C780.199198,2046.68 779.863201,2046.512 779.5512,2046.32 C779.239198,2046.128 778.915201,2045.936 778.5792,2045.744 L777.5712,2045.168 C777.235198,2044.976 777.0072,2044.856 776.8872,2044.808 C776.767199,2044.76 776.479202,2044.592 776.0232,2044.304 C775.567197,2044.016 775.183201,2043.608 774.8712,2043.08 C774.559198,2042.552 774.463199,2042.276 774.5832,2042.252 C774.7032,2042.228 774.871199,2042.264 775.0872,2042.36 C775.303201,2042.456 776.023194,2042.78 777.2472,2043.332 C778.471206,2043.884 779.707193,2044.4 780.9552,2044.88 C782.203206,2045.36 783.139197,2045.84 783.7632,2046.32 C784.387203,2046.8 784.771199,2047.148 784.9152,2047.364 C785.0592,2047.58 785.1312,2047.856 785.1312,2048.192 C785.1312,2048.528 785.0832,2048.78 784.9872,2048.948 C784.891199,2049.116 784.8192,2049.2 784.7712,2049.2 C784.723199,2049.2 784.6632,2049.248 784.5912,2049.344 C784.519199,2049.44 784.4472,2049.488 784.3752,2049.488 C784.303199,2049.488 784.2672,2049.512 784.2672,2049.56 C784.2672,2049.608 784.2312,2049.632 784.1592,2049.632 C784.087199,2049.632 784.0512,2049.656 784.0512,2049.704 C784.0512,2049.752 783.955201,2049.836 783.7632,2049.956 C783.571199,2050.076 783.4152,2050.136 783.2952,2050.136 C783.175199,2050.136 782.863202,2050.244 782.3592,2050.46 C781.855197,2050.676 781.5432,2050.784 781.4232,2050.784 C781.303199,2050.784 781.147201,2050.844 780.9552,2050.964 C780.763199,2051.084 780.6072,2051.144 780.4872,2051.144 C780.367199,2051.144 780.139201,2051.228 779.8032,2051.396 C779.467198,2051.564 779.2512,2051.648 779.1552,2051.648 C779.059199,2051.648 778.903201,2051.708 778.6872,2051.828 C778.471199,2051.948 778.3272,2052.008 778.2552,2052.008 C778.183199,2052.008 777.607205,2052.272 776.5272,2052.8 C775.447194,2053.328 774.523204,2053.832 773.7552,2054.312 C772.987196,2054.792 772.207204,2055.224 771.4152,2055.608 C770.623196,2055.992 769.927203,2056.292 769.3272,2056.508 C768.727197,2056.724 768.031204,2056.916 767.2392,2057.084 Z" id="却常忽略了她"></path>
        </g>
    </g>
</svg>