<?xml version="1.0" encoding="UTF-8"?>
<svg width="217px" height="40px" viewBox="0 0 217 40" version="1.1" xmlns="http://www.w3.org/2000/svg" xmlns:xlink="http://www.w3.org/1999/xlink">
    <!-- Generator: Sketch 43.2 (39069) - http://www.bohemiancoding.com/sketch -->
    <title>Group 7@3x</title>
    <desc>Created with Sketch.</desc>
    <defs></defs>
    <g id="Page-1" stroke="none" stroke-width="1" fill="none" fill-rule="evenodd">
        <g id="我要认真爱妈妈" transform="translate(-427.000000, -1614.000000)">
            <g id="Group-7" transform="translate(427.000000, 1614.000000)">
                <polygon id="Line" fill="#FFFFFF" fill-rule="nonzero" points="109 39.0540146 109 1 108 1 108 39.0540146"></polygon>
                <g id="LOGO-彩色">
                    <g id="Group" transform="translate(31.418919, 35.000000)" fill-rule="nonzero" fill="#FFFFFF">
                        <path d="M3.17227769,0.936170213 L1.09388886,0.936170213 L1.09388886,3.40425532 L3.17227769,3.40425532 L3.17227769,2.55319149 L3.9379999,2.72340426 L3.9379999,3.19148936 C3.9379999,3.53191489 3.86507397,3.78723404 3.75568509,3.91489362 C3.6462962,4.04255319 3.42751843,4.12765957 3.09935177,4.12765957 L1.09388886,4.12765957 C0.765722202,4.12765957 0.54694443,4.04255319 0.437555544,3.91489362 C0.328166658,3.78723404 0.255240734,3.53191489 0.255240734,3.19148936 L0.255240734,1.14893617 C0.255240734,0.808510638 0.328166658,0.553191489 0.437555544,0.425531915 C0.54694443,0.29787234 0.765722202,0.212765957 1.09388886,0.212765957 L3.09935177,0.212765957 C3.42751843,0.212765957 3.6462962,0.29787234 3.75568509,0.425531915 C3.86507397,0.553191489 3.9379999,0.808510638 3.9379999,1.14893617 L3.9379999,1.53191489 L3.17227769,1.65957447 L3.17227769,0.936170213 Z" id="Shape"></path>
                        <polygon id="Shape" points="5.54237022 4.12765957 5.54237022 0.212765957 6.30809243 0.212765957 6.30809243 1.74468085 8.75111088 1.74468085 8.75111088 0.212765957 9.51683308 0.212765957 9.51683308 4.12765957 8.75111088 4.12765957 8.75111088 2.46808511 6.30809243 2.46808511 6.30809243 4.12765957"></polygon>
                        <path d="M11.9963145,0.255319149 L11.9963145,3.40425532 L14.2205552,3.40425532 L14.2205552,0.255319149 L14.9862774,0.255319149 L14.9862774,3.23404255 C14.9862774,3.57446809 14.9133515,3.82978723 14.8039626,3.95744681 C14.6945737,4.08510638 14.4757959,4.17021277 14.1476293,4.17021277 L12.0327775,4.17021277 C11.7046108,4.17021277 11.485833,4.08510638 11.3764441,3.95744681 C11.2670553,3.82978723 11.1941293,3.57446809 11.1941293,3.23404255 L11.1941293,0.255319149 L11.9963145,0.255319149 Z" id="Shape"></path>
                        <path d="M15.9343144,4.12765957 L17.8303884,0.212765957 L18.5961106,0.212765957 L20.4921846,4.12765957 L19.6170736,4.12765957 L19.215981,3.27659574 L17.1011292,3.27659574 L16.7000366,4.12765957 L15.9343144,4.12765957 Z M17.4292958,2.59574468 L18.8878143,2.59574468 L18.1585551,1.0212766 L17.4292958,2.59574468 Z" id="Shape"></path>
                        <path d="M21.5496105,4.12765957 L21.5496105,0.212765957 L22.096555,0.212765957 L24.4301845,2.5106383 C24.5031105,2.59574468 24.5760364,2.63829787 24.6489623,2.72340426 C24.7218882,2.80851064 24.7583512,2.85106383 24.8312771,2.93617021 C24.8312771,2.72340426 24.7948142,2.55319149 24.7948142,2.46808511 L24.7948142,2.25531915 L24.7948142,0.212765957 L25.4876104,0.212765957 L25.4876104,4.12765957 L24.940666,4.12765957 L22.4976476,1.70212766 C22.4247216,1.65957447 22.3882587,1.57446809 22.3517957,1.53191489 C22.3153327,1.4893617 22.2788698,1.44680851 22.2424068,1.36170213 C22.2424068,1.4893617 22.2788698,1.61702128 22.2788698,1.70212766 L22.2788698,2 L22.2788698,4.08510638 L21.5496105,4.08510638 L21.5496105,4.12765957 Z" id="Shape"></path>
                        <path d="M30.3007214,0.936170213 L27.857703,0.936170213 L27.857703,3.40425532 L30.3007214,3.40425532 L30.3007214,2.55319149 L29.0245177,2.55319149 L29.0245177,1.87234043 L31.0664436,1.87234043 L31.0664436,3.23404255 C31.0664436,3.57446809 30.9935177,3.82978723 30.8841288,3.95744681 C30.7747399,4.08510638 30.5559622,4.17021277 30.2277955,4.17021277 L27.9306289,4.17021277 C27.6024622,4.17021277 27.3836845,4.08510638 27.2742956,3.95744681 C27.1649067,3.82978723 27.0919808,3.57446809 27.0919808,3.23404255 L27.0919808,1.19148936 C27.0919808,0.85106383 27.1649067,0.595744681 27.2742956,0.468085106 C27.3836845,0.340425532 27.6024622,0.255319149 27.9306289,0.255319149 L30.2277955,0.255319149 C30.5559622,0.255319149 30.7747399,0.340425532 30.8841288,0.468085106 C30.9935177,0.595744681 31.0664436,0.808510638 31.0664436,1.14893617 L31.0664436,1.23404255 L30.3007214,1.40425532 L30.3007214,0.936170213 Z" id="Shape"></path>
                        <polygon id="Shape" points="32.7072769 4.12765957 32.7072769 0.212765957 33.4729991 0.212765957 33.4729991 1.82978723 35.3326102 0.212765957 36.462962 0.212765957 34.2387213 2.04255319 36.7182027 4.08510638 35.478462 4.08510638 33.4729991 2.38297872 33.4729991 4.08510638 32.7072769 4.08510638"></polygon>
                        <polygon id="Shape" points="37.8485546 4.12765957 37.8485546 0.212765957 38.6142768 0.212765957 38.6142768 4.12765957"></polygon>
                        <polygon id="Shape" points="41.8594804 0.936170213 41.8594804 4.12765957 41.0937582 4.12765957 41.0937582 0.936170213 39.5623138 0.936170213 39.5623138 0.255319149 43.3909248 0.255319149 43.3909248 0.936170213"></polygon>
                        <path d="M44.2295729,2.9787234 L44.3389618,2.9787234 C44.4118877,2.9787234 44.4483507,2.9787234 44.4483507,3.0212766 C44.4848136,3.06382979 44.4848136,3.14893617 44.4848136,3.23404255 L44.4848136,3.82978723 C44.4848136,3.95744681 44.4848136,4.04255319 44.4483507,4.04255319 C44.4118877,4.08510638 44.3389618,4.08510638 44.2295729,4.08510638 L43.6461655,4.08510638 C43.5732396,4.08510638 43.5367766,4.08510638 43.5367766,4.04255319 C43.5003137,4 43.5003137,3.91489362 43.5003137,3.82978723 L43.5003137,3.23404255 C43.5003137,3.10638298 43.5003137,3.06382979 43.5367766,3.0212766 C43.5732396,2.9787234 43.6461655,2.9787234 43.7555544,2.9787234 L44.2295729,2.9787234 Z" id="Shape"></path>
                        <path d="M48.7145172,0.936170213 L46.6361284,0.936170213 L46.6361284,3.40425532 L48.7145172,3.40425532 L48.7145172,2.55319149 L49.4802394,2.72340426 L49.4802394,3.19148936 C49.4802394,3.53191489 49.4073135,3.78723404 49.2979246,3.91489362 C49.1885357,4.04255319 48.969758,4.12765957 48.6415913,4.12765957 L46.6725914,4.12765957 C46.3444247,4.12765957 46.1256469,4.04255319 46.016258,3.91489362 C45.9068692,3.78723404 45.8339432,3.53191489 45.8339432,3.19148936 L45.8339432,1.14893617 C45.8339432,0.808510638 45.9068692,0.553191489 46.016258,0.425531915 C46.1256469,0.29787234 46.3444247,0.212765957 46.6725914,0.212765957 L48.6780543,0.212765957 C49.0062209,0.212765957 49.2249987,0.29787234 49.3343876,0.425531915 C49.4437765,0.553191489 49.5167024,0.808510638 49.5167024,1.14893617 L49.5167024,1.53191489 L48.7509802,1.65957447 L48.7509802,0.936170213 L48.7145172,0.936170213 Z" id="Shape"></path>
                        <path d="M51.0116838,1.14893617 C51.0116838,0.808510638 51.0846098,0.553191489 51.1939986,0.425531915 C51.3033875,0.29787234 51.5221653,0.212765957 51.850332,0.212765957 L54.2933504,0.212765957 C54.6215171,0.212765957 54.8402948,0.29787234 54.9496837,0.425531915 C55.0590726,0.553191489 55.1319985,0.808510638 55.1319985,1.14893617 L55.1319985,3.19148936 C55.1319985,3.53191489 55.0590726,3.78723404 54.9496837,3.91489362 C54.8402948,4.04255319 54.6215171,4.12765957 54.2933504,4.12765957 L51.850332,4.12765957 C51.5221653,4.12765957 51.3033875,4.04255319 51.1939986,3.91489362 C51.0846098,3.78723404 51.0116838,3.53191489 51.0116838,3.19148936 L51.0116838,1.14893617 Z M51.777406,3.40425532 L54.3298134,3.40425532 L54.3298134,0.936170213 L51.777406,0.936170213 L51.777406,3.40425532 Z" id="Shape"></path>
                        <path d="M56.7728318,4.12765957 L56.7728318,0.212765957 L57.3927022,0.212765957 L58.9606095,2.55319149 L60.4920539,0.212765957 L61.1119243,0.212765957 L61.1119243,4.12765957 L60.3826651,4.12765957 L60.3826651,1.70212766 L60.3826651,1.53191489 C60.3826651,1.44680851 60.3826651,1.36170213 60.419128,1.27659574 C60.3826651,1.36170213 60.3462021,1.44680851 60.3097391,1.53191489 C60.2732762,1.61702128 60.2368132,1.65957447 60.2368132,1.70212766 L58.9970725,3.65957447 L58.8512207,3.65957447 L57.61148,1.70212766 C57.575017,1.61702128 57.538554,1.57446809 57.5020911,1.4893617 C57.4656281,1.40425532 57.4291651,1.36170213 57.4291651,1.31914894 L57.4291651,1.53191489 L57.4291651,1.74468085 L57.4291651,4.17021277 L56.7728318,4.17021277 L56.7728318,4.12765957 Z" id="Shape"></path>
                    </g>
                    <g id="img_logo_1" transform="translate(31.418919, 17.500000)">
                        <g id="Page-1">
                            <g id="Group-3" fill="#FFFFFF">
                                <path d="M15.6081244,16.1294155 L15.6081244,0.191478955 L19.1957577,0.191478955 L19.1957577,14.7127519 C19.1957577,15.7358164 18.7890162,16.1294155 17.6054103,16.1294155 L15.6081244,16.1294155 Z M12.6122941,15.5391215 L12.6122941,0.191478955 L14.2026415,0.191478955 L14.2026415,15.5785024 L12.6122941,15.5785024 L12.6122941,15.5391215 Z M7.50814103,2.67079731 L3.84648313,2.67079731 L3.66161852,3.89055659 L-3.93747825e-05,3.89055659 L0.591763606,0.191478955 L10.5041682,0.191478955 L11.2438235,3.89055659 L7.65619021,3.89055659 L7.50814103,2.67079731 Z M1.62732039,16.1294155 C0.517935889,16.1294155 0.0369729208,15.696645 0.0369729208,14.7127519 L0.0369729208,4.99238276 L11.2808358,4.99238276 L11.2808358,11.4464448 C11.2808358,12.6664135 10.9109097,13.1385649 9.69029147,13.1385649 L5.69591666,13.1385649 L5.69591666,11.4464448 L6.84251033,11.4464448 C7.61917791,11.4464448 7.69300563,11.2889213 7.69300563,10.6200751 L7.69300563,6.56656978 L3.43974163,6.56656978 L3.43974163,13.8470014 C3.43974163,14.4372954 3.62460623,14.673371 4.17939691,14.673371 L11.2438235,14.673371 L11.2438235,16.0900346 L1.62732039,16.0900346 L1.62732039,16.1294155 Z M40.4373623,3.11269017 L36.0222799,3.11269017 L36.0222799,2.44469589 L25.5589987,2.44469589 L25.5589987,3.11269017 L21.1437188,3.11269017 L21.1437188,0.872513922 L28.5643357,0.872513922 L28.4900762,0.282971834 L32.8310966,0.282971834 L33.0167454,0.872513922 L40.4373623,0.872513922 L40.4373623,3.11269017 Z M21.1807773,8.83261639 L24.2544586,8.24247691 L21.1807773,7.73107853 L21.1807773,5.80317786 L29.8463391,7.21947074 L36.0307602,6.11793288 C36.2529136,6.07856233 36.3270305,5.80317786 36.2897749,5.68527562 C36.2897749,5.64590506 36.2156581,5.5277934 36.0307602,5.5277934 L22.8472239,5.5277934 C21.7362595,5.5277934 21.1807773,5.09492672 21.1807773,4.26898274 L21.1807773,3.67863384 L26.254234,3.67863384 C26.254234,4.19024163 26.4022706,4.26898274 26.9206943,4.26898274 L40.4373623,4.26898274 L40.4373623,6.35415621 C40.4373623,7.14093905 40.0301138,7.65233742 38.9191494,7.84898078 L36.0676215,8.36058857 L40.4005009,9.10800085 L40.4005009,11.0359015 L30.475741,9.34401476 L21.1437188,11.0359015 L21.1437188,8.83261639 L21.1807773,8.83261639 Z M40.4373623,11.3188734 L40.4373623,14.709893 C40.4373623,15.7352168 39.954878,16.1293945 38.7675282,16.1293945 L21.1437188,16.1293945 L21.1437188,11.3188734 L40.4373623,11.3188734 Z M36.2447063,13.881868 L36.2447063,12.9354637 L25.2992454,12.9354637 L25.2992454,14.7493528 L35.3913233,14.7493528 C36.1704475,14.709893 36.2447063,14.5522639 36.2447063,13.881868 Z M61.5666502,5.07103975 L61.5666502,14.7126472 C61.5666502,15.6965402 61.1226996,16.1293107 59.9761059,16.1293107 L50.7297257,16.1293107 L50.7297257,5.07103975 L51.469381,5.07103975 L51.469381,0.191374219 L55.4639527,0.191374219 L55.4639527,1.01774385 L61.5296379,1.01774385 L61.5296379,2.63131172 L55.4639527,2.63131172 L55.4639527,5.07103975 L61.5666502,5.07103975 Z M57.8309677,13.8862775 L57.8309677,6.64543623 L54.3543713,6.64543623 L54.3543713,14.7126472 L57.0172879,14.7126472 C57.7201277,14.7126472 57.8309677,14.5553332 57.8309677,13.8862775 Z M48.9913291,13.5320593 L49.5829352,16.1293107 L46.845994,16.1293107 L46.2541911,13.5320593 L48.9913291,13.5320593 Z M45.070782,16.1293107 L42.4076686,16.1293107 L42.9254469,12.3120905 L42.4076686,12.3120905 L42.4076686,0.191374219 L49.5829352,0.191374219 L49.5829352,10.738113 C49.5829352,11.9184914 49.1761937,12.3514714 47.9925877,12.3514714 L46.735154,12.3514714 L46.735154,1.76556123 L45.1448066,1.76556123 L45.1448066,11.87932 L45.7364127,11.87932 L45.070782,16.1293107 Z" id="Combined-Shape"></path>
                            </g>
                            <g id="Group-12" transform="translate(42.287438, 0.000000)"></g>
                        </g>
                    </g>
                    <g id="Page-1">
                        <g id="Group-6">
                            <g id="Group-3">
                                <polygon id="Clip-8" fill="#FFFFFF" points="14.4362832 36.5036445 7.16094553 33.104042 8.68283711 38.5502577 24.1991723 38.5502577 25.0895242 29.9982208"></polygon>
                                <path d="M22.1297239,26.6830452 C21.2565309,26.6830452 20.5492064,25.9861361 20.5492064,25.1268495 C20.5492064,24.2670936 21.2565309,23.5701844 22.1297239,23.5701844 C23.002917,23.5701844 23.7102414,24.2670936 23.7102414,25.1268495 C23.7102414,25.9861361 23.002917,26.6830452 22.1297239,26.6830452 M26.0552795,23.434557 C24.7969664,23.2782804 24.2831552,22.6771083 24.4413976,21.713168 C24.59964,20.7492277 25.9823546,18.8039831 23.4142519,16.66351 L27.1682193,14.9130245 L25.3898988,11.4111148 L21.7345945,13.2592146 L16.3996329,0.030143031 L9.5326752e-05,9.36825595 L6.12531571,19.873985 L0.0987585139,22.6949417 L1.67927604,26.7801901 L6.44418369,24.5402256 C6.44418369,24.5402256 4.18636959,28.9783869 6.88459328,31.6731022 C6.88459328,31.6731022 9.891199,34.8615201 16.3562592,33.3499078 C22.8213195,31.8382955 26.0181021,27.6174196 26.5929224,26.5178519 C27.1682193,25.4187535 27.313116,23.5903643 26.0552795,23.434557" id="Fill-1" fill="#FFFFFF"></path>
                                <path d="M6.44570892,24.5327168 L23.3724034,16.6968302 L5.55964677,28.2458111 C5.55964677,28.2458111 5.45764714,26.2836717 6.44570892,24.5327168" id="Fill-4" fill="#F2F2F2"></path>
                            </g>
                        </g>
                        <g id="Group-9" transform="translate(7.096152, 29.715026)"></g>
                    </g>
                </g>
                <path d="M136.008,21.824 L142.464,21.824 L142.464,17.84 L136.008,17.84 L136.008,21.824 Z M128.4,21.824 L134.232,21.824 L134.232,17.84 L128.496,17.84 L128.496,19.256 C128.496,20.048 128.472,20.936 128.4,21.824 Z M134.232,12.32 L128.496,12.32 L128.496,16.16 L134.232,16.16 L134.232,12.32 Z M142.464,16.16 L142.464,12.32 L136.008,12.32 L136.008,16.16 L142.464,16.16 Z M144.216,10.616 L144.216,28.424 C144.216,29.576 143.904,30.104 143.136,30.416 C142.32,30.704 140.928,30.728 138.672,30.704 C138.6,30.224 138.312,29.456 138.072,28.976 C139.752,29.048 141.384,29.024 141.816,29.024 C142.296,29 142.464,28.856 142.464,28.4 L142.464,23.528 L136.008,23.528 L136.008,30.608 L134.232,30.608 L134.232,23.528 L128.232,23.528 C127.872,26.192 127.056,28.928 125.232,30.968 C124.968,30.608 124.248,30.008 123.864,29.792 C126.504,26.816 126.744,22.592 126.744,19.256 L126.744,10.616 L144.216,10.616 Z M154.68,10.928 L155.856,9.752 C158.088,11.288 160.944,13.544 162.312,15.056 L161.04,16.376 C159.72,14.888 156.936,12.536 154.68,10.928 Z M164.64,17.384 L166.296,16.736 C167.688,19.592 169.008,23.264 169.512,25.736 L167.76,26.432 C167.28,23.96 165.984,20.192 164.64,17.384 Z M149.736,17.36 C149.4,20.168 148.608,23.912 147.576,26.36 L149.352,27.104 C150.336,24.56 151.08,20.504 151.464,17.696 L149.736,17.36 Z M153.552,15.56 L155.352,15.56 L155.352,27.392 C155.352,28.496 155.64,28.712 157.008,28.712 L161.592,28.712 C163.08,28.712 163.296,27.872 163.488,23.744 C163.92,24.08 164.664,24.392 165.168,24.536 C164.904,29.072 164.352,30.392 161.688,30.392 L156.864,30.392 C154.272,30.392 153.552,29.744 153.552,27.368 L153.552,15.56 Z M187.776,15.392 L187.776,11.552 L175.848,11.552 L175.848,15.392 L187.776,15.392 Z M189.624,9.944 L189.624,17 L174.096,17 L174.096,9.944 L189.624,9.944 Z M182.712,28.544 L182.712,25.424 L190.224,25.424 L190.224,23.816 L182.712,23.816 L182.712,20.84 L191.088,20.84 L191.088,19.184 L172.68,19.184 L172.68,20.84 L180.864,20.84 L180.864,23.816 L173.496,23.816 L173.496,25.424 L180.864,25.424 L180.864,28.544 L171.504,28.544 L171.504,30.224 L192.216,30.224 L192.216,28.544 L182.712,28.544 Z M205.344,11.672 L205.344,22.76 L203.64,22.76 L203.64,10.088 L214.344,10.088 L214.344,22.76 L212.592,22.76 L212.592,11.672 L205.344,11.672 Z M202.68,24.2 L202.92,25.856 L194.784,28.28 L194.4,26.552 C195.36,26.288 196.56,26 197.856,25.616 L197.856,19.088 L195.024,19.088 L195.024,17.432 L197.856,17.432 L197.856,12.224 L194.688,12.224 L194.688,10.544 L202.56,10.544 L202.56,12.224 L199.584,12.224 L199.584,17.432 L202.08,17.432 L202.08,19.088 L199.584,19.088 L199.584,25.112 C200.592,24.848 201.648,24.512 202.68,24.2 Z M211.608,28.856 L213.552,28.856 C214.416,28.856 214.536,28.208 214.656,24.824 C215.088,25.136 215.64,25.4 216.096,25.496 C215.88,29.264 215.616,30.2 213.552,30.2 L211.368,30.2 C209.736,30.2 209.088,29.768 209.088,28.184 L209.088,23.144 C208.248,26 206.352,28.856 202.392,30.896 C202.176,30.56 201.624,29.864 201.264,29.6 C207.288,26.528 208.032,22.016 208.032,18.296 L208.032,13.688 L209.712,13.688 L209.712,18.344 C209.712,19.64 209.616,20.984 209.28,22.376 L210.744,22.376 L210.744,28.016 C210.744,28.688 210.936,28.856 211.608,28.856 Z" id="用心呈现" fill="#FFFFFF"></path>
            </g>
        </g>
    </g>
</svg>