<?xml version="1.0" encoding="UTF-8"?>
<svg width="326px" height="65px" viewBox="0 0 326 65" version="1.1" xmlns="http://www.w3.org/2000/svg" xmlns:xlink="http://www.w3.org/1999/xlink">
    <!-- Generator: Sketch 43.2 (39069) - http://www.bohemiancoding.com/sketch -->
    <title>只装满了你</title>
    <desc>Created with Sketch.</desc>
    <defs></defs>
    <g id="Page-1" stroke="none" stroke-width="1" fill="none" fill-rule="evenodd">
        <g id="我要认真爱妈妈" transform="translate(-386.000000, -1837.000000)" stroke="#FFFFFF" fill="#FFFFFF">
            <path d="M401.149126,1872.39906 L400.897126,1872.61506 L400.609126,1872.50706 C400.417125,1872.43506 400.273127,1872.29106 400.177126,1872.07506 C400.081126,1871.85906 399.913128,1871.52306 399.673126,1871.06706 C399.433125,1870.61106 399.181128,1870.22706 398.917126,1869.91506 C398.653125,1869.60306 398.497127,1869.20706 398.449126,1868.72706 C398.401126,1868.24706 398.305127,1867.83906 398.161126,1867.50306 C398.017126,1867.16706 397.897127,1866.71106 397.801126,1866.13506 C397.705126,1865.55906 397.477128,1864.53907 397.117126,1863.07506 C396.757125,1861.61105 396.385128,1860.26707 396.001126,1859.04306 C395.617125,1857.81905 395.329127,1857.27906 395.137126,1857.42306 C394.945125,1857.56706 394.753127,1857.60306 394.561126,1857.53106 C394.369125,1857.45906 394.225127,1857.31506 394.129126,1857.09906 C394.033126,1856.88306 393.865128,1856.54706 393.625126,1856.09106 C393.385125,1855.63506 393.133128,1855.25106 392.869126,1854.93906 C392.605125,1854.62706 392.413127,1854.15906 392.293126,1853.53506 C392.173126,1852.91106 392.293125,1852.61106 392.653126,1852.63506 C393.013128,1852.65906 393.373125,1852.75506 393.733126,1852.92306 C394.093128,1853.09106 394.393125,1853.30706 394.633126,1853.57106 C394.873128,1853.83506 395.449122,1854.48305 396.361126,1855.51506 C397.273131,1856.54706 397.801126,1857.24306 397.945126,1857.60306 C398.089127,1857.96306 398.185126,1858.29906 398.233126,1858.61106 C398.281127,1858.92306 398.401125,1859.33106 398.593126,1859.83506 C398.785127,1860.33906 398.989125,1861.07105 399.205126,1862.03106 C399.421128,1862.99106 399.565126,1863.48306 399.637126,1863.50706 C399.709127,1863.53106 399.841125,1863.67506 400.033126,1863.93906 C400.225127,1864.20306 400.405126,1864.86305 400.573126,1865.91906 C400.741127,1866.97506 400.909126,1867.80306 401.077126,1868.40306 C401.245127,1869.00306 401.365126,1869.47106 401.437126,1869.80706 C401.509127,1870.14306 401.521127,1870.62306 401.473126,1871.24706 C401.425126,1871.87106 401.317127,1872.25506 401.149126,1872.39906 Z M407.197126,1865.84706 L407.233126,1865.84706 L407.233126,1865.81106 C407.233126,1865.78706 407.221127,1865.77506 407.197126,1865.77506 C407.173126,1865.77506 407.161126,1865.78706 407.161126,1865.81106 C407.161126,1865.83506 407.173126,1865.84706 407.197126,1865.84706 Z M402.661126,1871.64306 L402.193126,1871.82306 L401.941126,1871.82306 C401.773126,1871.82306 401.629127,1871.78706 401.509126,1871.71506 C401.389126,1871.64306 401.209128,1871.34306 400.969126,1870.81506 C400.729125,1870.28706 400.453128,1869.81906 400.141126,1869.41106 C399.829125,1869.00306 399.829125,1868.61906 400.141126,1868.25906 C400.453128,1867.89906 400.849124,1867.56306 401.329126,1867.25106 C401.809129,1866.93906 402.409123,1866.50706 403.129126,1865.95506 C403.84913,1865.40306 404.749121,1864.75506 405.829126,1864.01106 C406.909132,1863.26706 407.929122,1862.46306 408.889126,1861.59906 C409.849131,1860.73505 410.773122,1859.95506 411.661126,1859.25906 C412.549131,1858.56306 413.473122,1857.78306 414.433126,1856.91906 C415.393131,1856.05505 416.329122,1855.16706 417.241126,1854.25506 C418.153131,1853.34305 418.417128,1852.92306 418.033126,1852.99506 C417.649125,1853.06706 417.349128,1853.10306 417.133126,1853.10306 C416.917125,1853.10306 416.653128,1853.15106 416.341126,1853.24706 C416.029125,1853.34306 415.825127,1853.39106 415.729126,1853.39106 C415.633126,1853.39106 415.297129,1853.43906 414.721126,1853.53506 C414.145124,1853.63106 413.809127,1853.67906 413.713126,1853.67906 C413.617126,1853.67906 413.20913,1853.87106 412.489126,1854.25506 C411.769123,1854.63906 410.809132,1855.03506 409.609126,1855.44306 C408.40912,1855.85106 407.41313,1856.17506 406.621126,1856.41506 C405.829122,1856.65506 405.133129,1856.87106 404.533126,1857.06306 C403.933123,1857.25506 403.585127,1857.35106 403.489126,1857.35106 C403.393126,1857.35106 403.261127,1857.39906 403.093126,1857.49506 C402.925126,1857.59106 402.793127,1857.63906 402.697126,1857.63906 C402.601126,1857.63906 402.397128,1857.74706 402.085126,1857.96306 C401.773125,1858.17906 401.593127,1858.28706 401.545126,1858.28706 C401.497126,1858.28706 401.389127,1858.41906 401.221126,1858.68306 C401.053126,1858.94706 400.861128,1859.17506 400.645126,1859.36706 C400.429125,1859.55906 400.225127,1859.61906 400.033126,1859.54706 C399.841125,1859.47506 399.697127,1859.33106 399.601126,1859.11506 C399.505126,1858.89906 399.313128,1858.52706 399.025126,1857.99906 C398.737125,1857.47106 398.473128,1857.07506 398.233126,1856.81106 C397.993125,1856.54706 397.993125,1856.23506 398.233126,1855.87506 C398.473128,1855.51506 398.821124,1855.22706 399.277126,1855.01106 C399.733129,1854.79506 400.909117,1854.42306 402.805126,1853.89506 C404.701136,1853.36706 406.153121,1852.99506 407.161126,1852.77906 C408.169131,1852.56306 409.093122,1852.32306 409.933126,1852.05906 C410.773131,1851.79506 412.117117,1851.44706 413.965126,1851.01506 C415.813136,1850.58306 417.457119,1850.36706 418.897126,1850.36706 C420.337134,1850.36706 421.237125,1850.45106 421.597126,1850.61906 C421.957128,1850.78706 422.317125,1851.06306 422.677126,1851.44706 C423.037128,1851.83106 423.229126,1852.14306 423.253126,1852.38306 C423.277127,1852.62306 423.265127,1852.94706 423.217126,1853.35506 C423.169126,1853.76306 423.097127,1854.06306 423.001126,1854.25506 C422.905126,1854.44706 422.629129,1854.68706 422.173126,1854.97506 C421.717124,1855.26306 421.201129,1855.57506 420.625126,1855.91106 C420.049124,1856.24706 419.725127,1856.41506 419.653126,1856.41506 C419.581126,1856.41506 419.437128,1856.49906 419.221126,1856.66706 C419.005125,1856.83506 418.873127,1856.91906 418.825126,1856.91906 C418.777126,1856.91906 418.669127,1857.00306 418.501126,1857.17106 C418.333126,1857.33906 418.225127,1857.42306 418.177126,1857.42306 C418.129126,1857.42306 417.78113,1857.68706 417.133126,1858.21506 C416.485123,1858.74306 416.005128,1859.12706 415.693126,1859.36706 C415.381125,1859.60706 415.009129,1859.83506 414.577126,1860.05106 C414.145124,1860.26706 413.893127,1860.37506 413.821126,1860.37506 C413.749126,1860.37506 413.545128,1860.47106 413.209126,1860.66306 C412.873125,1860.85506 412.657127,1860.95106 412.561126,1860.95106 C412.465126,1860.95106 412.405127,1860.97506 412.381126,1861.02306 C412.357126,1861.07106 412.297127,1861.09506 412.201126,1861.09506 C412.105126,1861.09506 412.021127,1861.13106 411.949126,1861.20306 C411.877126,1861.27506 411.805127,1861.31106 411.733126,1861.31106 C411.661126,1861.31106 411.529127,1861.41906 411.337126,1861.63506 C411.145125,1861.85106 410.581131,1862.43905 409.645126,1863.39906 C408.709122,1864.35906 408.217127,1864.83906 408.169126,1864.83906 C408.121126,1864.83906 407.953128,1864.99506 407.665126,1865.30706 C407.377125,1865.61906 408.049118,1865.47506 409.681126,1864.87506 C411.313135,1864.27506 412.381124,1863.91506 412.885126,1863.79506 C413.389129,1863.67506 413.689126,1863.56706 413.785126,1863.47106 C413.881127,1863.37506 414.121125,1863.32706 414.505126,1863.32706 C414.889128,1863.32706 415.261125,1863.41106 415.621126,1863.57906 C415.981128,1863.74706 416.281125,1863.96306 416.521126,1864.22706 C416.761128,1864.49106 416.917126,1864.76706 416.989126,1865.05506 C417.061127,1865.34306 417.073127,1865.69106 417.025126,1866.09906 C416.977126,1866.50706 416.833128,1866.83106 416.593126,1867.07106 C416.353125,1867.31106 416.209127,1867.43106 416.161126,1867.43106 C416.113126,1867.43106 415.945128,1867.57506 415.657126,1867.86306 C415.369125,1868.15106 414.949129,1868.48706 414.397126,1868.87106 C413.845124,1869.25506 413.269129,1869.60306 412.669126,1869.91506 C412.069123,1870.22706 411.38513,1870.55106 410.617126,1870.88706 C409.849123,1871.22306 409.417127,1871.39106 409.321126,1871.39106 C409.225126,1871.39106 409.093127,1871.45106 408.925126,1871.57106 C408.757126,1871.69106 408.577127,1871.71506 408.385126,1871.64306 C408.193125,1871.57106 408.049127,1871.42706 407.953126,1871.21106 C407.857126,1870.99506 407.665128,1870.62306 407.377126,1870.09506 C407.089125,1869.56706 406.897127,1869.29106 406.801126,1869.26706 C406.705126,1869.24306 406.513128,1869.32706 406.225126,1869.51906 C405.937125,1869.71106 405.757127,1869.80706 405.685126,1869.80706 C405.613126,1869.80706 405.421128,1869.91506 405.109126,1870.13106 C404.797125,1870.34706 404.617127,1870.45506 404.569126,1870.45506 C404.521126,1870.45506 404.425127,1870.51506 404.281126,1870.63506 C404.137126,1870.75506 404.041127,1870.81506 403.993126,1870.81506 C403.945126,1870.81506 403.789128,1870.92306 403.525126,1871.13906 C403.261125,1871.35506 402.973128,1871.52306 402.661126,1871.64306 Z M396.541126,1886.51106 C396.709127,1886.36706 396.901125,1885.94706 397.117126,1885.25106 C397.333128,1884.55506 397.441126,1884.01506 397.441126,1883.63106 C397.441126,1883.24706 397.345127,1882.92306 397.153126,1882.65906 C396.961125,1882.39506 396.769127,1882.19106 396.577126,1882.04706 C396.385125,1881.90306 396.157128,1881.78306 395.893126,1881.68706 C395.629125,1881.59106 395.305128,1881.54306 394.921126,1881.54306 C394.537125,1881.54306 394.321127,1881.61506 394.273126,1881.75906 C394.225126,1881.90306 394.021128,1881.72306 393.661126,1881.21906 C393.301125,1880.71506 393.085127,1880.37906 393.013126,1880.21106 C392.941126,1880.04306 392.749128,1879.79106 392.437126,1879.45506 C392.125125,1879.11906 391.58513,1878.68706 390.817126,1878.15906 C390.049123,1877.63106 389.377129,1877.28306 388.801126,1877.11506 C388.225124,1876.94706 387.733128,1876.86306 387.325126,1876.86306 C386.917124,1876.86306 386.893125,1877.11506 387.253126,1877.61906 C387.613128,1878.12306 387.889125,1878.60306 388.081126,1879.05906 C388.273127,1879.51506 388.669123,1879.82706 389.269126,1879.99506 C389.869129,1880.16306 390.457124,1880.45106 391.033126,1880.85906 C391.609129,1881.26706 392.125124,1881.87906 392.581126,1882.69506 C393.037129,1883.51106 393.445125,1884.17106 393.805126,1884.67506 C394.165128,1885.17906 394.573124,1885.64706 395.029126,1886.07906 C395.485129,1886.51106 395.809125,1886.72706 396.001126,1886.72706 L396.289126,1886.72706 L396.541126,1886.51106 Z M421.021126,1887.66306 C421.189127,1887.51906 421.297126,1887.15906 421.345126,1886.58306 C421.393127,1886.00706 421.381127,1885.57506 421.309126,1885.28706 C421.237126,1884.99906 421.177127,1884.84306 421.129126,1884.81906 C421.081126,1884.79506 421.105126,1884.01507 421.201126,1882.47906 C421.297127,1880.94305 421.117129,1879.57507 420.661126,1878.37506 C420.205124,1877.17505 419.845128,1876.43106 419.581126,1876.14306 C419.317125,1875.85506 419.053128,1875.66306 418.789126,1875.56706 C418.525125,1875.47106 418.105129,1875.42306 417.529126,1875.42306 C416.953124,1875.42306 416.857125,1875.69906 417.241126,1876.25106 C417.625128,1876.80306 417.889126,1877.25906 418.033126,1877.61906 C418.177127,1877.97906 418.297126,1878.17106 418.393126,1878.19506 C418.489127,1878.21906 418.537126,1878.54306 418.537126,1879.16706 C418.537126,1879.79106 418.501127,1880.43906 418.429126,1881.11106 C418.357126,1881.78306 418.333126,1882.55105 418.357126,1883.41506 C418.381127,1884.27906 418.525125,1884.86706 418.789126,1885.17906 C419.053128,1885.49106 419.305125,1885.87506 419.545126,1886.33106 C419.785128,1886.78706 419.953126,1887.12306 420.049126,1887.33906 C420.145127,1887.55506 420.289125,1887.69906 420.481126,1887.77106 L420.769126,1887.87906 L421.021126,1887.66306 Z M470.557126,1869.30306 L470.305126,1869.51906 L470.017126,1869.44706 C469.825125,1869.39906 469.681127,1869.26706 469.585126,1869.05106 C469.489126,1868.83506 469.309128,1868.47506 469.045126,1867.97106 C468.781125,1867.46706 468.517128,1867.05906 468.253126,1866.74706 C467.989125,1866.43506 467.845126,1865.00707 467.821126,1862.46306 C467.797126,1859.91905 467.737127,1858.70706 467.641126,1858.82706 C467.545126,1858.94706 467.485126,1859.00706 467.461126,1859.00706 C467.437126,1859.00706 467.281128,1859.19906 466.993126,1859.58306 C466.705125,1859.96706 466.537127,1860.15906 466.489126,1860.15906 C466.441126,1860.15906 466.309127,1860.31506 466.093126,1860.62706 C465.877125,1860.93906 465.745127,1861.09506 465.697126,1861.09506 C465.649126,1861.09506 465.565127,1861.19106 465.445126,1861.38306 C465.325126,1861.57506 465.097128,1861.85106 464.761126,1862.21106 C464.425125,1862.57106 464.233127,1862.75106 464.185126,1862.75106 C464.137126,1862.75106 463.945128,1862.90706 463.609126,1863.21906 C463.273125,1863.53106 463.081127,1863.68706 463.033126,1863.68706 C462.985126,1863.68706 462.817128,1863.83106 462.529126,1864.11906 C462.241125,1864.40706 462.073127,1864.55106 462.025126,1864.55106 C461.977126,1864.55106 461.881127,1864.63506 461.737126,1864.80306 C461.593126,1864.97106 461.497127,1865.05506 461.449126,1865.05506 C461.401126,1865.05506 461.317127,1865.12706 461.197126,1865.27106 C461.077126,1865.41506 460.993127,1865.48706 460.945126,1865.48706 C460.897126,1865.48706 460.801127,1865.57106 460.657126,1865.73906 C460.513126,1865.90706 460.417127,1865.99106 460.369126,1865.99106 C460.321126,1865.99106 460.201127,1866.15906 460.009126,1866.49506 C459.817125,1866.83106 459.541128,1867.07106 459.181126,1867.21506 C458.821125,1867.35906 458.533127,1867.40706 458.317126,1867.35906 C458.101125,1867.31106 457.873128,1867.03506 457.633126,1866.53106 C457.393125,1866.02706 457.117128,1865.57106 456.805126,1865.16306 C456.493125,1864.75506 456.349126,1864.47906 456.373126,1864.33506 C456.397126,1864.19106 456.553125,1863.91506 456.841126,1863.50706 C457.129128,1863.09906 457.609123,1862.55906 458.281126,1861.88706 C458.95313,1861.21506 459.589123,1860.48306 460.189126,1859.69106 C460.789129,1858.89906 461.437123,1858.15506 462.133126,1857.45906 C462.82913,1856.76306 463.549123,1855.99506 464.293126,1855.15506 C465.03713,1854.31505 465.493126,1853.72706 465.661126,1853.39106 C465.829127,1853.05506 465.325132,1852.87506 464.149126,1852.85106 C462.97312,1852.82706 462.325127,1852.86306 462.205126,1852.95906 C462.085126,1853.05506 461.905128,1853.07906 461.665126,1853.03106 C461.425125,1852.98306 461.089129,1852.85106 460.657126,1852.63506 C460.225124,1852.41906 459.913127,1852.09506 459.721126,1851.66306 C459.529125,1851.23106 459.253128,1850.76306 458.893126,1850.25906 C458.533125,1849.75506 458.437126,1849.49106 458.605126,1849.46706 C458.773127,1849.44306 459.289122,1849.51506 460.153126,1849.68306 C461.017131,1849.85106 462.03712,1849.94706 463.213126,1849.97106 C464.389132,1849.99506 465.205124,1850.04306 465.661126,1850.11506 C466.117129,1850.18706 466.549124,1850.28306 466.957126,1850.40306 C467.365128,1850.52306 467.749125,1850.72706 468.109126,1851.01506 C468.469128,1851.30306 468.649126,1851.05106 468.649126,1850.25906 C468.649126,1849.46706 468.697126,1848.93906 468.793126,1848.67506 C468.889127,1848.41106 469.165124,1848.29106 469.621126,1848.31506 C470.077129,1848.33906 470.473125,1848.42306 470.809126,1848.56706 C471.145128,1848.71106 471.481125,1848.95106 471.817126,1849.28706 C472.153128,1849.62306 472.393126,1849.92306 472.537126,1850.18706 C472.681127,1850.45106 472.849125,1850.71506 473.041126,1850.97906 C473.233127,1851.24306 473.365126,1851.53106 473.437126,1851.84306 C473.509127,1852.15506 473.521127,1852.53906 473.473126,1852.99506 C473.425126,1853.45106 473.389126,1853.67906 473.365126,1853.67906 C473.341126,1853.67906 473.293127,1853.88306 473.221126,1854.29106 C473.149126,1854.69906 472.993128,1855.02306 472.753126,1855.26306 C472.513125,1855.50306 472.369127,1855.62306 472.321126,1855.62306 C472.273126,1855.62306 472.201127,1855.68306 472.105126,1855.80306 C472.009126,1855.92306 471.937127,1855.98306 471.889126,1855.98306 C471.841126,1855.98306 471.625128,1856.11506 471.241126,1856.37906 C470.857124,1856.64306 470.653126,1856.77506 470.629126,1856.77506 C470.605126,1856.77506 470.545127,1857.18306 470.449126,1857.99906 C470.353126,1858.81506 470.293126,1859.22306 470.269126,1859.22306 C470.245126,1859.22306 470.185127,1859.78705 470.089126,1860.91506 C469.993126,1862.04306 469.933126,1862.60706 469.909126,1862.60706 C469.885126,1862.60706 469.945126,1863.17105 470.089126,1864.29906 C470.233127,1865.42706 470.377126,1866.07506 470.521126,1866.24306 C470.665127,1866.41106 470.773126,1866.63906 470.845126,1866.92706 C470.917127,1867.21506 470.929127,1867.64706 470.881126,1868.22306 C470.833126,1868.79906 470.725127,1869.15906 470.557126,1869.30306 Z M486.541126,1863.03906 L484.489126,1864.04706 L483.265126,1863.97506 C482.449122,1863.92706 482.017127,1863.91506 481.969126,1863.93906 C481.921126,1863.96306 481.669129,1863.93906 481.213126,1863.86706 C480.757124,1863.79506 480.469127,1863.65106 480.349126,1863.43506 C480.229126,1863.21906 480.049128,1862.90706 479.809126,1862.49906 C479.569125,1862.09106 479.461126,1861.87506 479.485126,1861.85106 C479.509126,1861.82706 479.437127,1861.65906 479.269126,1861.34706 C479.101126,1861.03506 478.885128,1860.72306 478.621126,1860.41106 C478.357125,1860.09906 478.213126,1859.87106 478.189126,1859.72706 C478.165126,1859.58306 478.237126,1859.51106 478.405126,1859.51106 C478.573127,1859.51106 479.125122,1859.39106 480.061126,1859.15106 C480.997131,1858.91106 481.525126,1858.43106 481.645126,1857.71106 C481.765127,1856.99106 481.909126,1856.33106 482.077126,1855.73106 C482.245127,1855.13106 482.389126,1854.39906 482.509126,1853.53506 C482.629127,1852.67105 481.885134,1852.52706 480.277126,1853.10306 C478.669118,1853.67906 477.757127,1853.94306 477.541126,1853.89506 C477.325125,1853.84706 477.181127,1853.73906 477.109126,1853.57106 C477.037126,1853.40306 476.833128,1853.00706 476.497126,1852.38306 C476.161125,1851.75906 475.873128,1851.31506 475.633126,1851.05106 C475.393125,1850.78706 476.569113,1850.18706 479.161126,1849.25106 C481.753139,1848.31505 483.049126,1847.57106 483.049126,1847.01906 C483.049126,1846.46706 483.085126,1846.09506 483.157126,1845.90306 C483.229127,1845.71106 483.277126,1845.43506 483.301126,1845.07506 C483.325126,1844.71506 483.517125,1844.54706 483.877126,1844.57106 C484.237128,1844.59506 484.585125,1844.67906 484.921126,1844.82306 C485.257128,1844.96706 485.665124,1845.27906 486.145126,1845.75906 C486.625129,1846.23906 486.973125,1846.49106 487.189126,1846.51506 C487.405127,1846.53906 487.585126,1846.51506 487.729126,1846.44306 C487.873127,1846.37106 488.173124,1846.33506 488.629126,1846.33506 C489.085129,1846.33506 489.481125,1846.40706 489.817126,1846.55106 C490.153128,1846.69506 490.477125,1846.93506 490.789126,1847.27106 C491.101128,1847.60706 491.269126,1847.90706 491.293126,1848.17106 C491.317126,1848.43506 491.317126,1848.72306 491.293126,1849.03506 C491.269126,1849.34706 491.173127,1849.57506 491.005126,1849.71906 C490.837126,1849.86306 490.585128,1849.93506 490.249126,1849.93506 C489.913125,1849.93506 489.34913,1850.05506 488.557126,1850.29506 C487.765122,1850.53506 487.321127,1850.65506 487.225126,1850.65506 C487.129126,1850.65506 486.865129,1850.73906 486.433126,1850.90706 C486.001124,1851.07506 485.749127,1851.15906 485.677126,1851.15906 C485.605126,1851.15906 485.533127,1851.45906 485.461126,1852.05906 C485.389126,1852.65906 485.257127,1853.36706 485.065126,1854.18306 C484.873125,1854.99906 484.765126,1855.40706 484.741126,1855.40706 C484.717126,1855.40706 484.681127,1855.85105 484.633126,1856.73906 C484.585126,1857.62706 484.765124,1858.03506 485.173126,1857.96306 C485.581128,1857.89106 486.121123,1857.73506 486.793126,1857.49506 C487.46513,1857.25506 488.113123,1857.06306 488.737126,1856.91906 C489.361129,1856.77506 489.997123,1856.70306 490.645126,1856.70306 C491.29313,1856.70306 491.713125,1856.73906 491.905126,1856.81106 C492.097127,1856.88306 492.313125,1856.99106 492.553126,1857.13506 C492.793128,1857.27906 493.033125,1857.50706 493.273126,1857.81906 C493.513128,1858.13106 493.633126,1858.49106 493.633126,1858.89906 C493.633126,1859.30706 493.549127,1859.70306 493.381126,1860.08706 C493.213126,1860.47106 492.985128,1860.72306 492.697126,1860.84306 C492.409125,1860.96306 492.205127,1861.02306 492.085126,1861.02306 C491.965126,1861.02306 491.749128,1861.08306 491.437126,1861.20306 C491.125125,1861.32306 490.909127,1861.38306 490.789126,1861.38306 C490.669126,1861.38306 490.477128,1861.44306 490.213126,1861.56306 C489.949125,1861.68306 489.757127,1861.74306 489.637126,1861.74306 C489.517126,1861.74306 489.361127,1861.79106 489.169126,1861.88706 C488.977125,1861.98306 488.833127,1862.03106 488.737126,1862.03106 C488.641126,1862.03106 487.909133,1862.36706 486.541126,1863.03906 Z M484.957126,1851.73506 L484.705126,1851.95106 L484.417126,1851.87906 C484.225125,1851.83106 484.093127,1851.73506 484.021126,1851.59106 C483.949126,1851.44706 483.853127,1851.35106 483.733126,1851.30306 C483.613126,1851.25506 483.457127,1851.00306 483.265126,1850.54706 C483.073125,1850.09106 482.773128,1849.57506 482.365126,1848.99906 C481.957124,1848.42306 481.825126,1848.12306 481.969126,1848.09906 C482.113127,1848.07506 482.221126,1847.94306 482.293126,1847.70306 C482.365127,1847.46306 482.413126,1846.15507 482.437126,1843.77906 C482.461126,1841.40305 482.365127,1839.99906 482.149126,1839.56706 C481.933125,1839.13506 481.693128,1838.75106 481.429126,1838.41506 C481.165125,1838.07906 481.273124,1837.94706 481.753126,1838.01906 C482.233129,1838.09106 482.605125,1838.19906 482.869126,1838.34306 C483.133128,1838.48706 483.469124,1838.77506 483.877126,1839.20706 C484.285128,1839.63906 484.525126,1839.96306 484.597126,1840.17906 C484.669127,1840.39506 484.813125,1840.68306 485.029126,1841.04306 C485.245127,1841.40306 485.365126,1842.83105 485.389126,1845.32706 C485.413126,1847.82307 485.389127,1849.47906 485.317126,1850.29506 C485.245126,1851.11106 485.125127,1851.59106 484.957126,1851.73506 Z M479.557126,1872.83106 L479.593126,1872.83106 L479.593126,1872.79506 C479.593126,1872.77106 479.581126,1872.75906 479.557126,1872.75906 C479.533126,1872.75906 479.521126,1872.77106 479.521126,1872.79506 C479.521126,1872.81906 479.533126,1872.83106 479.557126,1872.83106 Z M461.917126,1900.40706 L461.665126,1900.62306 L461.377126,1900.55106 C461.185125,1900.50306 461.053127,1900.39506 460.981126,1900.22706 C460.909126,1900.05906 460.729128,1899.69906 460.441126,1899.14706 C460.153125,1898.59506 459.877128,1898.16306 459.613126,1897.85106 C459.349125,1897.53906 459.157127,1897.05906 459.037126,1896.41106 C458.917126,1895.76306 458.941126,1895.27106 459.109126,1894.93506 C459.277127,1894.59906 459.541125,1894.44306 459.901126,1894.46706 C460.261128,1894.49106 460.573125,1894.55106 460.837126,1894.64706 C461.101128,1894.74306 461.317126,1894.69506 461.485126,1894.50306 C461.653127,1894.31106 462.589118,1893.17107 464.293126,1891.08306 C465.997135,1888.99505 467.257122,1887.39906 468.073126,1886.29506 C468.88913,1885.19105 469.777122,1884.05106 470.737126,1882.87506 C471.697131,1881.69905 472.669121,1880.57106 473.653126,1879.49106 C474.637131,1878.41105 475.429123,1877.47506 476.029126,1876.68306 C476.629129,1875.89106 477.361122,1875.05106 478.225126,1874.16306 C479.089131,1873.27505 479.425127,1872.86706 479.233126,1872.93906 C479.041125,1873.01106 478.921127,1873.04706 478.873126,1873.04706 C478.825126,1873.04706 478.741127,1873.11906 478.621126,1873.26306 C478.501126,1873.40706 478.273128,1873.56306 477.937126,1873.73106 C477.601125,1873.89906 477.409127,1873.98306 477.361126,1873.98306 C477.313126,1873.98306 477.193127,1874.06706 477.001126,1874.23506 C476.809125,1874.40306 476.689127,1874.48706 476.641126,1874.48706 C476.593126,1874.48706 476.545127,1874.52306 476.497126,1874.59506 C476.449126,1874.66706 476.401127,1874.70306 476.353126,1874.70306 C476.305126,1874.70306 476.161128,1874.83506 475.921126,1875.09906 C475.681125,1875.36306 475.537127,1875.49506 475.489126,1875.49506 C475.441126,1875.49506 475.321127,1875.60306 475.129126,1875.81906 C474.937125,1876.03506 474.51713,1876.35906 473.869126,1876.79106 C473.221123,1877.22306 472.465131,1877.67906 471.601126,1878.15906 C470.737122,1878.63906 470.077129,1878.95106 469.621126,1879.09506 C469.165124,1879.23906 468.829127,1879.31106 468.613126,1879.31106 C468.397125,1879.31106 468.229127,1879.27506 468.109126,1879.20306 C467.989126,1879.13106 467.833127,1878.86706 467.641126,1878.41106 C467.449125,1877.95506 467.149128,1877.43906 466.741126,1876.86306 C466.333124,1876.28706 466.189126,1875.92706 466.309126,1875.78306 C466.429127,1875.63906 467.17312,1875.27906 468.541126,1874.70306 C469.909133,1874.12706 470.761125,1873.73106 471.097126,1873.51506 C471.433128,1873.29906 471.841124,1873.09506 472.321126,1872.90306 C472.801129,1872.71106 473.221125,1872.48306 473.581126,1872.21906 C473.941128,1871.95506 474.409123,1871.65506 474.985126,1871.31906 C475.561129,1870.98306 476.077124,1870.47906 476.533126,1869.80706 C476.989129,1869.13506 477.109127,1868.57106 476.893126,1868.11506 C476.677125,1867.65906 476.485127,1867.45506 476.317126,1867.50306 C476.149126,1867.55106 475.993127,1867.57506 475.849126,1867.57506 C475.705126,1867.57506 475.561127,1867.51506 475.417126,1867.39506 C475.273126,1867.27506 475.117127,1867.01106 474.949126,1866.60306 C474.781126,1866.19506 474.517128,1865.73906 474.157126,1865.23506 C473.797125,1864.73106 473.737125,1864.43106 473.977126,1864.33506 C474.217128,1864.23906 474.565124,1864.19106 475.021126,1864.19106 C475.477129,1864.19106 475.837125,1864.23906 476.101126,1864.33506 C476.365128,1864.43106 476.629125,1864.59906 476.893126,1864.83906 C477.157128,1865.07906 477.445125,1865.46306 477.757126,1865.99106 C478.069128,1866.51906 478.249126,1866.86706 478.297126,1867.03506 C478.345127,1867.20306 478.417126,1867.34706 478.513126,1867.46706 C478.609127,1867.58706 478.861124,1868.03106 479.269126,1868.79906 C479.677128,1869.56706 480.205123,1869.85506 480.853126,1869.66306 C481.50113,1869.47106 482.101124,1869.23106 482.653126,1868.94306 C483.205129,1868.65506 483.685124,1868.46306 484.093126,1868.36706 C484.501128,1868.27106 484.753126,1868.17506 484.849126,1868.07906 C484.945127,1867.98306 485.185124,1867.93506 485.569126,1867.93506 C485.953128,1867.93506 486.313125,1868.00706 486.649126,1868.15106 C486.985128,1868.29506 487.309125,1868.53506 487.621126,1868.87106 C487.933128,1869.20706 488.101126,1869.50706 488.125126,1869.77106 C488.149126,1870.03506 488.149126,1870.32306 488.125126,1870.63506 C488.101126,1870.94706 488.005127,1871.17506 487.837126,1871.31906 C487.669126,1871.46306 487.549127,1871.53506 487.477126,1871.53506 C487.405126,1871.53506 487.225128,1871.66706 486.937126,1871.93106 C486.649125,1872.19506 486.481127,1872.32706 486.433126,1872.32706 C486.385126,1872.32706 486.169128,1872.51906 485.785126,1872.90306 C485.401124,1873.28706 484.981129,1873.64706 484.525126,1873.98306 C484.069124,1874.31906 483.817127,1874.48706 483.769126,1874.48706 C483.721126,1874.48706 483.637127,1874.54706 483.517126,1874.66706 C483.397126,1874.78706 483.313127,1874.84706 483.265126,1874.84706 C483.217126,1874.84706 483.109127,1874.93106 482.941126,1875.09906 C482.773126,1875.26706 482.665127,1875.35106 482.617126,1875.35106 C482.569126,1875.35106 482.485127,1875.41106 482.365126,1875.53106 C482.245126,1875.65106 481.78913,1875.99906 480.997126,1876.57506 C480.205122,1877.15106 479.785127,1877.43906 479.737126,1877.43906 C479.689126,1877.43906 479.569127,1877.53506 479.377126,1877.72706 C479.185125,1877.91906 479.065127,1878.01506 479.017126,1878.01506 C478.969126,1878.01506 478.873127,1878.09906 478.729126,1878.26706 C478.585126,1878.43506 478.489127,1878.51906 478.441126,1878.51906 C478.393126,1878.51906 478.273127,1878.61506 478.081126,1878.80706 C477.889125,1878.99906 477.769127,1879.09506 477.721126,1879.09506 C477.673126,1879.09506 477.577127,1879.17906 477.433126,1879.34706 C477.289126,1879.51506 477.193127,1879.59906 477.145126,1879.59906 C477.097126,1879.59906 476.977127,1879.70706 476.785126,1879.92306 C476.593125,1880.13906 476.473127,1880.24706 476.425126,1880.24706 C476.377126,1880.24706 476.149128,1880.46306 475.741126,1880.89506 C475.333124,1881.32706 475.105127,1881.54306 475.057126,1881.54306 C475.009126,1881.54306 474.709129,1881.83106 474.157126,1882.40706 C473.605124,1882.98306 473.305127,1883.27106 473.257126,1883.27106 C473.209126,1883.27106 472.84913,1883.59506 472.177126,1884.24306 C471.505123,1884.89106 471.157126,1885.21506 471.133126,1885.21506 C471.109126,1885.21506 470.941128,1885.43106 470.629126,1885.86306 C470.317125,1886.29506 470.149126,1886.51106 470.125126,1886.51106 C470.101126,1886.51106 470.017127,1886.63106 469.873126,1886.87106 C469.729126,1887.11106 469.057132,1887.99905 467.857126,1889.53506 C466.65712,1891.07107 466.045126,1891.83906 466.021126,1891.83906 C465.997126,1891.83906 465.877127,1892.04306 465.661126,1892.45106 C465.445125,1892.85906 465.325126,1893.06306 465.301126,1893.06306 C465.277126,1893.06306 465.241127,1893.12306 465.193126,1893.24306 C465.145126,1893.36306 465.109126,1893.42306 465.085126,1893.42306 C465.061126,1893.42306 464.893128,1893.69906 464.581126,1894.25106 C464.269125,1894.80306 464.101126,1895.07906 464.077126,1895.07906 C464.053126,1895.07906 463.909128,1895.34306 463.645126,1895.87106 C463.381125,1896.39906 463.093128,1896.92706 462.781126,1897.45506 C462.469125,1897.98306 462.301126,1898.24706 462.277126,1898.24706 C462.253126,1898.24706 462.253126,1898.39106 462.277126,1898.67906 C462.301126,1898.96706 462.289127,1899.29106 462.241126,1899.65106 C462.193126,1900.01106 462.085127,1900.26306 461.917126,1900.40706 Z M474.697126,1900.37106 L474.121126,1900.62306 L473.905126,1900.62306 C473.761126,1900.62306 473.509128,1900.55106 473.149126,1900.40706 C472.789125,1900.26306 472.561127,1900.08306 472.465126,1899.86706 C472.369126,1899.65106 472.189128,1899.29106 471.925126,1898.78706 C471.661125,1898.28306 471.397128,1897.87506 471.133126,1897.56306 C470.869125,1897.25106 470.725126,1896.95106 470.701126,1896.66306 C470.677126,1896.37506 470.617127,1896.01506 470.521126,1895.58306 C470.425126,1895.15106 470.413126,1894.65906 470.485126,1894.10706 C470.557127,1893.55506 470.605126,1892.63107 470.629126,1891.33506 C470.653126,1890.03905 470.749126,1888.56307 470.917126,1886.90706 C471.085127,1885.25105 471.181126,1883.91906 471.205126,1882.91106 C471.229126,1881.90305 471.409125,1881.41106 471.745126,1881.43506 C472.081128,1881.45906 472.381125,1881.51906 472.645126,1881.61506 C472.909128,1881.71106 473.137125,1881.83106 473.329126,1881.97506 C473.521127,1882.11906 473.701126,1882.31106 473.869126,1882.55106 C474.037127,1882.79106 474.133126,1883.41505 474.157126,1884.42306 C474.181126,1885.43106 474.097127,1886.75105 473.905126,1888.38306 C473.713125,1890.01507 473.605126,1890.83106 473.581126,1890.83106 C473.557126,1890.83106 473.533126,1891.47905 473.509126,1892.77506 C473.485126,1894.07107 473.413127,1894.97106 473.293126,1895.47506 C473.173126,1895.97906 473.305124,1896.05106 473.689126,1895.69106 C474.073128,1895.33106 474.481124,1894.86306 474.913126,1894.28706 C475.345129,1893.71106 475.921123,1892.99106 476.641126,1892.12706 C477.36113,1891.26305 477.973124,1890.47106 478.477126,1889.75106 C478.981129,1889.03106 479.425124,1888.70706 479.809126,1888.77906 C480.193128,1888.85106 480.505125,1888.99506 480.745126,1889.21106 C480.985128,1889.42706 481.117126,1889.70306 481.141126,1890.03906 C481.165126,1890.37506 481.165126,1890.54306 481.141126,1890.54306 C481.117126,1890.54306 480.877129,1890.85506 480.421126,1891.47906 C479.965124,1892.10306 479.725126,1892.41506 479.701126,1892.41506 C479.677126,1892.41506 479.617127,1892.57106 479.521126,1892.88306 C479.425126,1893.19506 479.365126,1893.35106 479.341126,1893.35106 C479.317126,1893.35106 479.281127,1893.43506 479.233126,1893.60306 C479.185126,1893.77106 479.149126,1893.85506 479.125126,1893.85506 C479.101126,1893.85506 479.065127,1893.93906 479.017126,1894.10706 C478.969126,1894.27506 478.861127,1894.50306 478.693126,1894.79106 C478.525126,1895.07906 478.429126,1895.22306 478.405126,1895.22306 C478.381126,1895.22306 478.105129,1895.61906 477.577126,1896.41106 C477.049124,1897.20306 476.533129,1898.01905 476.029126,1898.85906 C475.525124,1899.69906 475.081128,1900.20306 474.697126,1900.37106 Z M491.257126,1885.46706 L490.753126,1885.93506 L490.429126,1885.82706 C490.213125,1885.75506 490.009127,1885.49106 489.817126,1885.03506 C489.625125,1884.57906 489.325128,1884.06306 488.917126,1883.48706 C488.509124,1882.91106 488.365126,1882.53906 488.485126,1882.37106 C488.605127,1882.20306 488.857124,1882.11906 489.241126,1882.11906 C489.625128,1882.11906 489.985125,1882.19106 490.321126,1882.33506 C490.657128,1882.47906 490.981125,1882.71906 491.293126,1883.05506 C491.605128,1883.39106 491.773126,1883.69106 491.797126,1883.95506 C491.821126,1884.21906 491.821126,1884.45906 491.797126,1884.67506 C491.773126,1884.89106 491.593128,1885.15506 491.257126,1885.46706 Z M502.489126,1894.14306 L502.345126,1894.28706 L502.273126,1894.25106 C502.225126,1894.22706 501.86513,1894.10706 501.193126,1893.89106 C500.521123,1893.67506 500.065128,1893.53106 499.825126,1893.45906 C499.585125,1893.38706 498.769133,1893.14706 497.377126,1892.73906 C495.985119,1892.33106 495.097128,1892.09106 494.713126,1892.01906 C494.329124,1891.94706 493.645131,1891.79106 492.661126,1891.55106 C491.677121,1891.31106 490.741131,1891.17906 489.853126,1891.15506 C488.965122,1891.13106 488.509126,1891.13106 488.485126,1891.15506 C488.461126,1891.17906 488.209129,1891.16706 487.729126,1891.11906 C487.249124,1891.07106 486.793129,1891.02306 486.361126,1890.97506 C485.929124,1890.92706 485.37713,1890.83106 484.705126,1890.68706 C484.033123,1890.54306 483.685126,1890.48306 483.661126,1890.50706 C483.637126,1890.53106 483.349129,1890.49506 482.797126,1890.39906 C482.245124,1890.30306 481.765128,1890.23106 481.357126,1890.18306 C480.949124,1890.13506 480.42113,1890.02706 479.773126,1889.85906 C479.125123,1889.69106 478.609128,1889.55906 478.225126,1889.46306 C477.841124,1889.36706 477.541127,1889.30706 477.325126,1889.28306 C477.109125,1889.25906 476.64113,1889.15106 475.921126,1888.95906 C475.201123,1888.76706 474.649128,1888.65906 474.265126,1888.63506 C473.881124,1888.61106 473.653127,1888.57506 473.581126,1888.52706 C473.509126,1888.47906 473.353128,1888.21506 473.113126,1887.73506 C472.873125,1887.25506 472.609128,1886.81106 472.321126,1886.40306 C472.033125,1885.99506 472.141124,1885.79106 472.645126,1885.79106 C473.149129,1885.79106 474.385117,1886.09106 476.353126,1886.69106 C478.321136,1887.29106 479.689123,1887.67506 480.457126,1887.84306 C481.22513,1888.01106 483.073112,1888.41906 486.001126,1889.06706 C488.929141,1889.71506 490.705123,1890.08706 491.329126,1890.18306 C491.953129,1890.27906 493.213117,1890.53106 495.109126,1890.93906 C497.005136,1891.34706 498.61312,1891.74306 499.933126,1892.12706 C501.253133,1892.51106 502.021125,1892.79906 502.237126,1892.99106 C502.453127,1893.18306 502.573126,1893.39906 502.597126,1893.63906 C502.621126,1893.87906 502.585127,1894.04706 502.489126,1894.14306 Z M480.961126,1887.95106 L479.665126,1888.02306 L478.225126,1887.98706 C477.265122,1887.96306 476.773126,1887.96306 476.749126,1887.98706 C476.725126,1888.01106 476.581128,1888.02306 476.317126,1888.02306 C476.053125,1888.02306 475.861127,1887.98706 475.741126,1887.91506 C475.621126,1887.84306 475.489127,1887.62706 475.345126,1887.26706 C475.201126,1886.90706 474.973128,1886.51106 474.661126,1886.07906 C474.349125,1885.64706 475.165117,1885.38306 477.109126,1885.28706 C479.053136,1885.19106 480.853118,1884.87906 482.509126,1884.35106 C484.165135,1883.82306 485.60512,1883.40306 486.829126,1883.09106 C488.053132,1882.77906 488.893124,1882.62306 489.349126,1882.62306 C489.805129,1882.62306 490.177125,1882.68306 490.465126,1882.80306 C490.753128,1882.92306 491.041125,1883.13906 491.329126,1883.45106 C491.617128,1883.76306 491.761126,1884.09906 491.761126,1884.45906 C491.761126,1884.81906 491.725127,1885.04706 491.653126,1885.14306 C491.581126,1885.23906 491.19713,1885.38306 490.501126,1885.57506 C489.805123,1885.76706 489.397127,1885.86306 489.277126,1885.86306 C489.157126,1885.86306 488.521132,1886.04306 487.369126,1886.40306 C486.217121,1886.76306 485.569127,1886.94306 485.425126,1886.94306 C485.281126,1886.94306 484.717131,1887.09906 483.733126,1887.41106 C482.749121,1887.72306 481.825131,1887.90306 480.961126,1887.95106 Z M470.773126,1854.90306 L470.521126,1855.11906 L470.269126,1855.11906 C470.101126,1855.11906 469.921127,1855.04706 469.729126,1854.90306 C469.537125,1854.75906 469.405127,1854.60306 469.333126,1854.43506 C469.261126,1854.26706 469.081128,1853.90706 468.793126,1853.35506 C468.505125,1852.80306 468.229128,1852.37106 467.965126,1852.05906 C467.701125,1851.74706 467.557126,1851.21906 467.533126,1850.47506 C467.509126,1849.73106 467.533126,1849.26306 467.605126,1849.07106 C467.677127,1848.87906 467.725126,1848.17107 467.749126,1846.94706 C467.773126,1845.72305 467.869126,1845.02706 468.037126,1844.85906 C468.205127,1844.69106 468.481124,1844.60706 468.865126,1844.60706 C469.249128,1844.60706 469.537125,1844.64306 469.729126,1844.71506 C469.921127,1844.78706 470.137125,1844.89506 470.377126,1845.03906 C470.617128,1845.18306 470.857125,1845.41106 471.097126,1845.72306 C471.337128,1846.03506 471.457126,1846.38306 471.457126,1846.76706 C471.457126,1847.15106 471.397127,1847.42706 471.277126,1847.59506 C471.157126,1847.76306 471.085126,1847.84706 471.061126,1847.84706 C471.037126,1847.84706 471.013126,1848.33905 470.989126,1849.32306 C470.965126,1850.30706 470.929127,1850.91906 470.881126,1851.15906 C470.833126,1851.39906 470.797126,1851.51906 470.773126,1851.51906 C470.749126,1851.51906 470.725126,1851.74706 470.701126,1852.20306 C470.677126,1852.65906 470.725126,1852.94706 470.845126,1853.06706 C470.965127,1853.18706 471.037126,1853.37906 471.061126,1853.64306 C471.085126,1853.90706 471.085126,1854.14706 471.061126,1854.36306 C471.037126,1854.57906 470.941127,1854.75906 470.773126,1854.90306 Z M532.513126,1858.10706 C532.753127,1857.89106 532.897126,1857.57906 532.945126,1857.17106 C532.993127,1856.76306 532.981127,1856.41506 532.909126,1856.12706 C532.837126,1855.83906 532.681127,1855.56306 532.441126,1855.29906 C532.201125,1855.03506 531.901128,1854.81906 531.541126,1854.65106 C531.181124,1854.48306 530.893127,1854.37506 530.677126,1854.32706 C530.461125,1854.27906 529.129139,1853.75106 526.681126,1852.74306 C524.233114,1851.73505 522.829128,1851.23106 522.469126,1851.23106 C522.109124,1851.23106 522.133124,1851.51906 522.541126,1852.09506 C522.949128,1852.67106 523.237125,1853.16306 523.405126,1853.57106 C523.573127,1853.97906 523.909124,1854.42306 524.413126,1854.90306 C524.917129,1855.38306 525.217126,1855.62306 525.313126,1855.62306 C525.409127,1855.62306 525.517126,1855.56306 525.637126,1855.44306 C525.757127,1855.32306 526.033124,1855.33506 526.465126,1855.47906 C526.897128,1855.62306 527.797119,1855.98306 529.165126,1856.55906 C530.533133,1857.13506 531.277126,1857.55506 531.397126,1857.81906 C531.517127,1858.08306 531.673125,1858.25106 531.865126,1858.32306 L532.153126,1858.43106 L532.513126,1858.10706 Z M524.629126,1889.03106 C524.845127,1888.83906 525.085125,1888.55106 525.349126,1888.16706 C525.613128,1887.78306 525.793126,1887.35106 525.889126,1886.87106 C525.985127,1886.39106 526.045126,1886.15106 526.069126,1886.15106 C526.093126,1886.15106 526.249125,1885.71906 526.537126,1884.85506 C526.825128,1883.99105 526.981126,1883.55906 527.005126,1883.55906 C527.029126,1883.55906 527.077126,1883.41506 527.149126,1883.12706 C527.221127,1882.83906 527.269126,1882.69506 527.293126,1882.69506 C527.317126,1882.69506 527.389126,1882.43106 527.509126,1881.90306 C527.629127,1881.37506 527.701126,1881.11106 527.725126,1881.11106 C527.749126,1881.11106 527.821126,1880.82306 527.941126,1880.24706 C528.061127,1879.67106 528.133126,1879.38306 528.157126,1879.38306 C528.181126,1879.38306 528.373124,1878.31507 528.733126,1876.17906 C529.093128,1874.04305 529.189127,1872.87906 529.021126,1872.68706 C528.853125,1872.49506 528.625128,1872.37506 528.337126,1872.32706 C528.049125,1872.27906 527.593129,1873.02305 526.969126,1874.55906 C526.345123,1876.09507 525.853128,1877.47505 525.493126,1878.69906 C525.133124,1879.92307 524.62913,1881.19505 523.981126,1882.51506 C523.333123,1883.83507 522.949127,1884.56706 522.829126,1884.71106 C522.709126,1884.85506 522.601127,1884.39906 522.505126,1883.34306 C522.409126,1882.28705 522.361126,1880.85907 522.361126,1879.05906 C522.361126,1877.25905 522.373126,1876.35906 522.397126,1876.35906 C522.421126,1876.35906 522.613124,1876.01106 522.973126,1875.31506 C523.333128,1874.61906 523.549126,1873.85106 523.621126,1873.01106 C523.693127,1872.17105 523.741126,1871.75106 523.765126,1871.75106 C523.789126,1871.75106 523.813126,1871.45106 523.837126,1870.85106 C523.861126,1870.25106 523.885126,1869.95106 523.909126,1869.95106 C523.933126,1869.95106 523.957126,1869.48306 523.981126,1868.54706 C524.005126,1867.61105 523.909127,1866.71106 523.693126,1865.84706 C523.477125,1864.98305 523.249127,1864.43106 523.009126,1864.19106 C522.769125,1863.95106 522.493128,1863.78306 522.181126,1863.68706 C521.869125,1863.59106 521.641127,1863.54306 521.497126,1863.54306 C521.353126,1863.54306 521.377125,1863.95106 521.569126,1864.76706 C521.761127,1865.58306 521.797127,1867.16705 521.677126,1869.51906 C521.557126,1871.87107 521.413127,1873.40706 521.245126,1874.12706 C521.077125,1874.84706 520.933127,1875.79505 520.813126,1876.97106 C520.693126,1878.14706 520.549127,1879.05906 520.381126,1879.70706 C520.213125,1880.35506 520.141126,1881.38705 520.165126,1882.80306 C520.189126,1884.21907 520.261126,1885.04706 520.381126,1885.28706 C520.501127,1885.52706 520.705125,1885.82706 520.993126,1886.18706 C521.281128,1886.54706 521.569125,1887.02706 521.857126,1887.62706 C522.145128,1888.22706 522.433125,1888.65906 522.721126,1888.92306 C523.009128,1889.18706 523.345124,1889.31906 523.729126,1889.31906 L524.305126,1889.31906 L524.629126,1889.03106 Z M540.577126,1853.71506 L540.361126,1853.89506 L540.181126,1853.89506 C540.061126,1853.89506 539.869128,1853.72706 539.605126,1853.39106 C539.341125,1853.05506 539.149127,1852.73106 539.029126,1852.41906 C538.909126,1852.10706 538.777127,1851.85506 538.633126,1851.66306 C538.489126,1851.47106 538.309127,1851.20706 538.093126,1850.87106 C537.877125,1850.53506 538.573118,1850.35506 540.181126,1850.33106 C541.789134,1850.30706 543.997112,1850.11506 546.805126,1849.75506 C549.61314,1849.39506 551.65312,1849.07106 552.925126,1848.78306 C554.197133,1848.49506 554.977125,1848.29106 555.265126,1848.17106 C555.553128,1848.05106 555.637127,1847.90706 555.517126,1847.73906 C555.397126,1847.57106 555.721122,1847.29506 556.489126,1846.91106 C557.25713,1846.52706 558.121121,1846.21506 559.081126,1845.97506 C560.041131,1845.73506 560.665125,1845.54306 560.953126,1845.39906 C561.241128,1845.25506 561.793122,1845.18306 562.609126,1845.18306 C563.42513,1845.18306 564.013124,1845.26706 564.373126,1845.43506 C564.733128,1845.60306 565.045125,1845.83106 565.309126,1846.11906 C565.573128,1846.40706 565.717126,1846.68306 565.741126,1846.94706 C565.765126,1847.21106 565.765126,1847.45106 565.741126,1847.66706 C565.717126,1847.88306 565.621127,1848.06306 565.453126,1848.20706 C565.285125,1848.35106 564.985128,1848.42306 564.553126,1848.42306 C564.121124,1848.42306 563.857127,1848.45906 563.761126,1848.53106 C563.665126,1848.60306 563.437128,1848.66306 563.077126,1848.71106 C562.717124,1848.75906 562.441127,1848.78306 562.249126,1848.78306 C562.057125,1848.78306 561.661129,1848.86706 561.061126,1849.03506 C560.461123,1849.20306 560.113127,1849.28706 560.017126,1849.28706 C559.921126,1849.28706 559.51313,1849.44306 558.793126,1849.75506 C558.073123,1850.06706 557.605127,1850.22306 557.389126,1850.22306 C557.173125,1850.22306 556.993127,1850.10306 556.849126,1849.86306 C556.705126,1849.62306 556.465128,1849.55106 556.129126,1849.64706 C555.793125,1849.74306 555.193131,1850.01906 554.329126,1850.47506 C553.465122,1850.93106 552.853128,1851.19506 552.493126,1851.26706 C552.133124,1851.33906 551.60513,1851.43506 550.909126,1851.55506 C550.213123,1851.67506 549.253132,1851.84306 548.029126,1852.05906 C546.80512,1852.27506 545.881129,1852.43106 545.257126,1852.52706 C544.633123,1852.62306 543.829131,1852.71906 542.845126,1852.81506 C541.861121,1852.91106 541.285127,1852.95906 541.117126,1852.95906 C540.949125,1852.95906 540.853126,1853.05506 540.829126,1853.24706 C540.805126,1853.43906 540.721127,1853.59506 540.577126,1853.71506 Z M544.933126,1863.29106 L543.889126,1863.68706 L543.457126,1863.68706 C543.169125,1863.68706 542.965127,1863.63906 542.845126,1863.54306 C542.725126,1863.44706 542.581127,1863.19506 542.413126,1862.78706 C542.245125,1862.37906 541.957128,1861.88706 541.549126,1861.31106 C541.141124,1860.73506 540.997126,1860.43506 541.117126,1860.41106 C541.237127,1860.38706 541.369126,1860.33906 541.513126,1860.26706 C541.657127,1860.19506 542.149122,1860.09906 542.989126,1859.97906 C543.82913,1859.85906 544.369125,1859.75106 544.609126,1859.65506 C544.849127,1859.55906 545.941117,1858.68307 547.885126,1857.02706 C549.829136,1855.37105 551.149123,1854.14706 551.845126,1853.35506 C552.54113,1852.56306 553.309122,1851.18307 554.149126,1849.21506 C554.98913,1847.24705 555.301127,1846.32306 555.085126,1846.44306 C554.869125,1846.56306 554.737127,1846.62306 554.689126,1846.62306 C554.641126,1846.62306 554.401128,1846.85106 553.969126,1847.30706 C553.537124,1847.76306 553.309126,1847.99106 553.285126,1847.99106 C553.261126,1847.99106 552.805131,1848.54305 551.917126,1849.64706 C551.029122,1850.75106 550.573126,1851.30306 550.549126,1851.30306 C550.525126,1851.30306 550.417127,1851.54306 550.225126,1852.02306 C550.033125,1852.50306 549.817127,1852.91106 549.577126,1853.24706 C549.337125,1853.58306 549.193127,1853.75106 549.145126,1853.75106 C549.097126,1853.75106 549.037127,1853.83506 548.965126,1854.00306 C548.893126,1854.17106 548.833127,1854.25506 548.785126,1854.25506 C548.737126,1854.25506 548.629127,1854.37506 548.461126,1854.61506 C548.293125,1854.85506 548.077128,1855.04706 547.813126,1855.19106 C547.549125,1855.33506 547.261128,1855.50306 546.949126,1855.69506 C546.637125,1855.88706 546.337128,1855.98306 546.049126,1855.98306 C545.761125,1855.98306 545.521127,1855.93506 545.329126,1855.83906 C545.137125,1855.74306 544.981127,1855.56306 544.861126,1855.29906 C544.741126,1855.03506 544.573127,1854.69906 544.357126,1854.29106 C544.141125,1853.88306 543.901128,1853.52306 543.637126,1853.21106 C543.373125,1852.89906 543.145127,1852.49106 542.953126,1851.98706 C542.761125,1851.48306 542.653126,1850.11507 542.629126,1847.88306 C542.605126,1845.65105 542.773124,1844.54706 543.133126,1844.57106 C543.493128,1844.59506 543.805125,1844.65506 544.069126,1844.75106 C544.333128,1844.84706 544.561125,1844.96706 544.753126,1845.11106 C544.945127,1845.25506 545.173125,1845.51906 545.437126,1845.90306 C545.701128,1846.28706 545.845126,1846.61106 545.869126,1846.87506 C545.893126,1847.13906 545.893126,1847.39106 545.869126,1847.63106 C545.845126,1847.87106 545.821126,1847.99106 545.797126,1847.99106 C545.773126,1847.99106 545.749126,1848.67505 545.725126,1850.04306 C545.701126,1851.41107 545.965124,1851.87906 546.517126,1851.44706 C547.069129,1851.01506 547.861121,1850.13907 548.893126,1848.81906 C549.925131,1847.49905 551.02912,1846.23907 552.205126,1845.03906 C553.381132,1843.83905 554.089125,1843.17906 554.329126,1843.05906 C554.569127,1842.93906 555.013123,1842.87906 555.661126,1842.87906 C556.30913,1842.87906 556.813124,1842.96306 557.173126,1843.13106 C557.533128,1843.29906 557.845125,1843.52706 558.109126,1843.81506 C558.373128,1844.10306 558.565126,1844.73905 558.685126,1845.72306 C558.805127,1846.70706 558.853126,1847.33106 558.829126,1847.59506 C558.805126,1847.85906 558.685127,1848.09906 558.469126,1848.31506 C558.253125,1848.53106 558.121127,1848.63906 558.073126,1848.63906 C558.025126,1848.63906 557.881127,1848.74706 557.641126,1848.96306 C557.401125,1849.17906 557.257127,1849.28706 557.209126,1849.28706 C557.161126,1849.28706 557.113127,1849.35906 557.065126,1849.50306 C557.017126,1849.64706 556.981126,1849.71906 556.957126,1849.71906 C556.933126,1849.71906 556.849127,1849.89906 556.705126,1850.25906 C556.561126,1850.61906 556.477126,1850.79906 556.453126,1850.79906 C556.429126,1850.79906 556.381127,1850.88306 556.309126,1851.05106 C556.237126,1851.21906 555.985128,1851.73505 555.553126,1852.59906 C555.121124,1853.46306 554.833127,1853.96706 554.689126,1854.11106 C554.545126,1854.25506 554.449127,1854.32706 554.401126,1854.32706 C554.353126,1854.32706 554.053129,1854.50706 553.501126,1854.86706 C552.949124,1855.22706 552.649127,1855.40706 552.601126,1855.40706 C552.553126,1855.40706 552.433127,1855.50306 552.241126,1855.69506 C552.049125,1855.88706 551.929127,1855.98306 551.881126,1855.98306 C551.833126,1855.98306 551.665128,1856.17506 551.377126,1856.55906 C551.089125,1856.94306 550.921127,1857.13506 550.873126,1857.13506 C550.825126,1857.13506 550.741127,1857.23106 550.621126,1857.42306 C550.501126,1857.61506 550.417127,1857.71106 550.369126,1857.71106 C550.321126,1857.71106 550.177127,1857.89106 549.937126,1858.25106 C549.697125,1858.61106 550.837114,1858.55106 553.357126,1858.07106 C555.877139,1857.59106 557.869119,1857.13506 559.333126,1856.70306 C560.797134,1856.27106 561.757124,1856.09106 562.213126,1856.16306 C562.669129,1856.23506 563.017125,1856.36706 563.257126,1856.55906 C563.497127,1856.75106 563.677126,1856.97906 563.797126,1857.24306 C563.917127,1857.50706 563.941127,1857.77106 563.869126,1858.03506 C563.797126,1858.29906 563.533129,1858.51506 563.077126,1858.68306 C562.621124,1858.85106 562.333127,1858.93506 562.213126,1858.93506 C562.093126,1858.93506 561.937127,1858.99506 561.745126,1859.11506 C561.553125,1859.23506 561.205129,1859.39106 560.701126,1859.58306 C560.197124,1859.77506 559.861127,1859.87106 559.693126,1859.87106 C559.525125,1859.87106 559.369127,1859.90706 559.225126,1859.97906 C559.081126,1860.05106 558.913127,1860.08706 558.721126,1860.08706 C558.529125,1860.08706 558.325127,1860.13506 558.109126,1860.23106 C557.893125,1860.32706 557.701127,1860.37506 557.533126,1860.37506 C557.365125,1860.37506 557.077128,1860.43506 556.669126,1860.55506 C556.261124,1860.67506 555.985127,1860.73506 555.841126,1860.73506 C555.697126,1860.73506 555.601127,1860.74706 555.553126,1860.77106 C555.505126,1860.79506 554.449137,1860.93906 552.385126,1861.20306 C550.321116,1861.46706 549.229127,1861.59906 549.109126,1861.59906 C548.989126,1861.59906 548.845127,1861.63506 548.677126,1861.70706 C548.509125,1861.77906 548.365127,1861.81506 548.245126,1861.81506 C548.125126,1861.81506 547.945127,1861.87506 547.705126,1861.99506 C547.465125,1862.11506 547.273127,1862.17506 547.129126,1862.17506 C546.985126,1862.17506 546.865127,1862.21106 546.769126,1862.28306 C546.673126,1862.35506 546.589127,1862.39106 546.517126,1862.39106 C546.445126,1862.39106 546.337127,1862.47506 546.193126,1862.64306 C546.049126,1862.81106 545.62913,1863.02706 544.933126,1863.29106 Z M540.109126,1890.83106 L539.857126,1891.04706 L539.569126,1890.93906 C539.377125,1890.86706 539.233127,1890.72306 539.137126,1890.50706 C539.041126,1890.29106 538.873127,1889.95506 538.633126,1889.49906 C538.393125,1889.04306 538.141128,1888.65906 537.877126,1888.34706 C537.613125,1888.03506 537.469126,1887.74706 537.445126,1887.48306 C537.421126,1887.21906 537.373127,1887.01506 537.301126,1886.87106 C537.229126,1886.72706 537.157127,1886.42706 537.085126,1885.97106 C537.013126,1885.51506 536.869127,1884.95106 536.653126,1884.27906 C536.437125,1883.60706 536.377126,1883.25906 536.473126,1883.23506 C536.569127,1883.21106 536.473128,1882.38307 536.185126,1880.75106 C535.897125,1879.11905 535.309131,1876.13108 534.421126,1871.78706 C533.533122,1867.44304 533.305124,1865.30706 533.737126,1865.37906 C534.169128,1865.45106 534.505125,1865.55906 534.745126,1865.70306 C534.985127,1865.84706 535.237125,1866.08706 535.501126,1866.42306 C535.765128,1866.75906 535.897126,1867.10706 535.897126,1867.46706 C535.897126,1867.82706 535.885126,1868.00706 535.861126,1868.00706 C535.837126,1868.00706 535.825126,1868.11506 535.825126,1868.33106 C535.825126,1868.54706 535.813126,1868.65506 535.789126,1868.65506 C535.765126,1868.65506 535.789126,1869.01506 535.861126,1869.73506 C535.933127,1870.45506 536.017126,1870.98306 536.113126,1871.31906 C536.209127,1871.65506 536.281126,1872.05106 536.329126,1872.50706 C536.377127,1872.96306 536.449126,1873.37106 536.545126,1873.73106 C536.641127,1874.09106 536.713126,1874.48706 536.761126,1874.91906 C536.809127,1875.35106 536.905126,1875.85506 537.049126,1876.43106 C537.193127,1877.00706 537.241127,1877.82305 537.193126,1878.87906 C537.145126,1879.93506 537.193126,1880.64306 537.337126,1881.00306 C537.481127,1881.36306 537.577126,1881.62706 537.625126,1881.79506 C537.673127,1881.96306 537.805125,1882.35906 538.021126,1882.98306 C538.237127,1883.60706 538.429125,1884.00306 538.597126,1884.17106 C538.765127,1884.33906 538.933125,1884.65106 539.101126,1885.10706 C539.269127,1885.56306 539.509125,1886.24705 539.821126,1887.15906 C540.133128,1888.07106 540.325126,1888.67106 540.397126,1888.95906 C540.469127,1889.24706 540.481127,1889.59506 540.433126,1890.00306 C540.385126,1890.41106 540.277127,1890.68706 540.109126,1890.83106 Z M559.477126,1894.35906 L559.153126,1894.64706 L558.289126,1894.64706 C557.713123,1894.64706 557.317127,1894.58706 557.101126,1894.46706 C556.885125,1894.34706 556.741127,1894.23906 556.669126,1894.14306 C556.597126,1894.04706 556.345128,1893.85506 555.913126,1893.56706 C555.481124,1893.27906 555.109128,1892.94306 554.797126,1892.55906 C554.485125,1892.17506 554.209127,1891.85106 553.969126,1891.58706 C553.729125,1891.32306 553.345129,1890.84306 552.817126,1890.14706 C552.289124,1889.45106 551.857128,1888.91106 551.521126,1888.52706 C551.185125,1888.14306 550.921127,1887.74706 550.729126,1887.33906 C550.537125,1886.93106 550.309128,1886.53506 550.045126,1886.15106 C549.781125,1885.76706 549.817125,1885.58706 550.153126,1885.61106 C550.489128,1885.63506 550.789125,1885.71906 551.053126,1885.86306 C551.317128,1886.00706 551.521126,1886.18706 551.665126,1886.40306 C551.809127,1886.61906 552.145124,1887.05106 552.673126,1887.69906 C553.201129,1888.34706 553.777123,1889.01906 554.401126,1889.71506 C555.025129,1890.41106 555.517124,1890.87906 555.877126,1891.11906 C556.237128,1891.35906 556.669124,1891.43106 557.173126,1891.33506 C557.677129,1891.23906 558.073125,1891.04706 558.361126,1890.75906 C558.649128,1890.47106 559.033124,1890.00306 559.513126,1889.35506 C559.993129,1888.70706 560.557123,1887.86706 561.205126,1886.83506 C561.85313,1885.80305 562.585122,1884.74706 563.401126,1883.66706 C564.21713,1882.58705 565.489118,1880.78707 567.217126,1878.26706 C568.945135,1875.74705 570.109123,1873.80307 570.709126,1872.43506 C571.309129,1871.06705 571.585127,1870.35906 571.537126,1870.31106 C571.489126,1870.26306 571.321128,1870.22706 571.033126,1870.20306 C570.745125,1870.17906 570.577127,1870.17906 570.529126,1870.20306 C570.481126,1870.22706 569.785133,1870.23906 568.441126,1870.23906 C567.09712,1870.23906 566.401127,1870.25106 566.353126,1870.27506 C566.305126,1870.29906 565.89713,1870.28706 565.129126,1870.23906 C564.361122,1870.19106 563.965126,1870.17906 563.941126,1870.20306 C563.917126,1870.22706 563.773128,1870.23906 563.509126,1870.23906 C563.245125,1870.23906 562.78913,1870.32306 562.141126,1870.49106 C561.493123,1870.65906 560.689131,1870.82706 559.729126,1870.99506 C558.769121,1871.16306 558.181127,1871.24706 557.965126,1871.24706 C557.749125,1871.24706 557.605127,1871.25906 557.533126,1871.28306 C557.461126,1871.30706 557.341127,1871.31906 557.173126,1871.31906 C557.005125,1871.31906 556.777128,1871.37906 556.489126,1871.49906 C556.201125,1871.61906 555.433133,1871.94306 554.185126,1872.47106 C552.93712,1872.99906 552.073129,1873.35906 551.593126,1873.55106 C551.113124,1873.74306 550.54913,1873.95906 549.901126,1874.19906 C549.253123,1874.43906 548.701129,1874.60706 548.245126,1874.70306 C547.789124,1874.79906 547.273129,1874.90706 546.697126,1875.02706 C546.121123,1875.14706 545.305132,1875.32706 544.249126,1875.56706 C543.193121,1875.80706 542.125132,1876.02306 541.045126,1876.21506 C539.965121,1876.40706 539.269128,1876.52706 538.957126,1876.57506 C538.645125,1876.62306 538.321128,1876.67106 537.985126,1876.71906 C537.649125,1876.76706 537.445127,1876.79106 537.373126,1876.79106 C537.301126,1876.79106 537.253126,1876.88706 537.229126,1877.07906 C537.205126,1877.27106 537.109127,1877.43906 536.941126,1877.58306 C536.773125,1877.72706 536.593127,1877.76306 536.401126,1877.69106 C536.209125,1877.61906 536.065127,1877.47506 535.969126,1877.25906 C535.873126,1877.04306 535.705127,1876.70706 535.465126,1876.25106 C535.225125,1875.79506 534.973128,1875.41106 534.709126,1875.09906 C534.445125,1874.78706 534.301126,1874.46306 534.277126,1874.12706 C534.253126,1873.79106 535.057118,1873.57506 536.689126,1873.47906 C538.321134,1873.38306 540.505113,1873.10706 543.241126,1872.65106 C545.97714,1872.19506 547.777122,1871.83506 548.641126,1871.57106 C549.505131,1871.30706 550.681119,1870.99506 552.169126,1870.63506 C553.657134,1870.27506 555.145119,1869.97506 556.633126,1869.73506 C558.121134,1869.49506 559.357121,1869.23106 560.341126,1868.94306 C561.325131,1868.65506 562.189123,1868.47506 562.933126,1868.40306 C563.67713,1868.33106 564.817119,1868.18706 566.353126,1867.97106 C567.889134,1867.75506 569.197121,1867.64706 570.277126,1867.64706 C571.357132,1867.64706 572.101124,1867.71906 572.509126,1867.86306 C572.917128,1868.00706 573.265125,1868.17506 573.553126,1868.36706 C573.841128,1868.55906 574.129125,1868.85906 574.417126,1869.26706 C574.705128,1869.67506 574.861126,1869.99906 574.885126,1870.23906 C574.909126,1870.47906 574.897127,1870.87506 574.849126,1871.42706 C574.801126,1871.97906 574.489129,1872.67505 573.913126,1873.51506 C573.337123,1874.35506 573.037126,1874.77506 573.013126,1874.77506 C572.989126,1874.77506 572.893127,1874.90706 572.725126,1875.17106 C572.557125,1875.43506 572.185129,1875.93906 571.609126,1876.68306 C571.033123,1877.42706 570.733126,1877.79906 570.709126,1877.79906 C570.685126,1877.79906 570.601127,1877.90706 570.457126,1878.12306 C570.313126,1878.33906 570.229126,1878.44706 570.205126,1878.44706 C570.181126,1878.44706 569.977128,1878.68706 569.593126,1879.16706 C569.209124,1879.64706 568.993127,1879.88706 568.945126,1879.88706 C568.897126,1879.88706 568.645129,1880.16306 568.189126,1880.71506 C567.733124,1881.26706 567.481127,1881.54306 567.433126,1881.54306 C567.385126,1881.54306 567.253127,1881.68706 567.037126,1881.97506 C566.821125,1882.26306 566.701126,1882.40706 566.677126,1882.40706 C566.653126,1882.40706 566.197131,1883.00705 565.309126,1884.20706 C564.421122,1885.40707 563.965126,1886.00706 563.941126,1886.00706 C563.917126,1886.00706 563.881127,1886.06706 563.833126,1886.18706 C563.785126,1886.30706 563.557128,1886.77506 563.149126,1887.59106 C562.741124,1888.40706 562.525126,1888.81506 562.501126,1888.81506 C562.477126,1888.81506 562.333128,1889.13906 562.069126,1889.78706 C561.805125,1890.43506 561.661126,1890.75906 561.637126,1890.75906 C561.613126,1890.75906 561.553127,1890.90306 561.457126,1891.19106 C561.361126,1891.47906 561.301126,1891.62306 561.277126,1891.62306 C561.253126,1891.62306 561.229126,1891.68306 561.205126,1891.80306 C561.181126,1891.92306 560.941129,1892.33106 560.485126,1893.02706 C560.029124,1893.72306 559.693127,1894.16706 559.477126,1894.35906 Z M544.753126,1881.86706 L544.465126,1882.11906 L544.141126,1882.11906 C543.925125,1882.11906 543.685128,1882.03506 543.421126,1881.86706 C543.157125,1881.69906 542.977127,1881.50706 542.881126,1881.29106 C542.785126,1881.07506 542.617127,1880.73906 542.377126,1880.28306 C542.137125,1879.82706 541.885128,1879.44306 541.621126,1879.13106 C541.357125,1878.81906 541.213126,1878.60306 541.189126,1878.48306 C541.165126,1878.36306 541.345124,1878.31506 541.729126,1878.33906 C542.113128,1878.36306 542.329126,1878.30306 542.377126,1878.15906 C542.425127,1878.01506 542.641124,1877.16307 543.025126,1875.60306 C543.409128,1874.04305 543.817124,1872.02707 544.249126,1869.55506 C544.681128,1867.08305 545.077124,1865.85906 545.437126,1865.88306 C545.797128,1865.90706 546.157124,1866.00306 546.517126,1866.17106 C546.877128,1866.33906 547.177125,1866.55506 547.417126,1866.81906 C547.657127,1867.08306 547.813126,1867.35906 547.885126,1867.64706 C547.957127,1867.93506 547.813128,1869.15905 547.453126,1871.31906 C547.093124,1873.47907 546.721128,1875.41105 546.337126,1877.11506 C545.953124,1878.81907 545.641127,1879.99506 545.401126,1880.64306 C545.161125,1881.29106 544.945127,1881.69906 544.753126,1881.86706 Z M553.645126,1883.91906 L553.393126,1884.13506 L552.961126,1883.99106 C552.673125,1883.89506 551.341138,1883.13907 548.965126,1881.72306 C546.589114,1880.30705 545.089129,1879.34706 544.465126,1878.84306 C543.841123,1878.33906 543.445127,1877.88306 543.277126,1877.47506 C543.109125,1877.06706 542.821128,1876.57506 542.413126,1875.99906 C542.005124,1875.42306 541.969125,1875.13506 542.305126,1875.13506 C542.641128,1875.13506 542.941125,1875.18306 543.205126,1875.27906 C543.469128,1875.37506 543.817124,1875.60306 544.249126,1875.96306 C544.681128,1876.32306 545.953116,1877.13905 548.065126,1878.41106 C550.177137,1879.68307 551.197127,1880.24706 551.125126,1880.10306 C551.053126,1879.95906 550.921127,1879.58706 550.729126,1878.98706 C550.537125,1878.38706 550.609125,1878.08706 550.945126,1878.08706 C551.281128,1878.08706 551.629124,1878.17106 551.989126,1878.33906 C552.349128,1878.50706 552.661125,1878.73506 552.925126,1879.02306 C553.189128,1879.31106 553.405125,1879.70706 553.573126,1880.21106 C553.741127,1880.71506 553.897126,1881.09906 554.041126,1881.36306 C554.185127,1881.62706 554.257126,1881.96306 554.257126,1882.37106 C554.257126,1882.77906 554.197127,1883.10306 554.077126,1883.34306 C553.957126,1883.58306 553.813127,1883.77506 553.645126,1883.91906 Z M553.069126,1886.15106 L552.817126,1886.36706 L552.529126,1886.29506 C552.337125,1886.24706 552.205127,1886.13906 552.133126,1885.97106 C552.061126,1885.80306 551.917127,1885.50306 551.701126,1885.07106 C551.485125,1884.63906 551.221128,1884.23106 550.909126,1883.84706 C550.597125,1883.46306 550.429126,1882.63507 550.405126,1881.36306 C550.381126,1880.09105 550.609124,1879.49106 551.089126,1879.56306 C551.569129,1879.63506 551.965125,1879.17906 552.277126,1878.19506 C552.589128,1877.21105 553.009124,1875.66307 553.537126,1873.55106 C554.065129,1871.43905 554.401126,1869.60307 554.545126,1868.04306 C554.689127,1866.48305 554.617128,1865.49906 554.329126,1865.09106 C554.041125,1864.68306 554.065125,1864.28706 554.401126,1863.90306 C554.737128,1863.51906 555.073125,1863.32706 555.409126,1863.32706 C555.745128,1863.32706 556.057125,1863.38706 556.345126,1863.50706 C556.633128,1863.62706 556.885125,1863.80706 557.101126,1864.04706 C557.317127,1864.28706 557.461126,1864.51506 557.533126,1864.73106 C557.605127,1864.94706 557.533127,1865.82305 557.317126,1867.35906 C557.101125,1868.89507 556.981126,1869.66306 556.957126,1869.66306 C556.933126,1869.66306 556.897127,1869.90306 556.849126,1870.38306 C556.801126,1870.86306 556.681127,1871.51106 556.489126,1872.32706 C556.297125,1873.14306 556.189126,1873.55106 556.165126,1873.55106 C556.141126,1873.55106 555.949128,1874.27105 555.589126,1875.71106 C555.229124,1877.15107 554.845128,1878.18306 554.437126,1878.80706 C554.029124,1879.43106 553.813126,1879.74306 553.789126,1879.74306 C553.765126,1879.74306 553.729127,1880.05506 553.681126,1880.67906 C553.633126,1881.30306 553.621126,1882.01106 553.645126,1882.80306 C553.669126,1883.59506 553.621127,1884.31506 553.501126,1884.96306 C553.381126,1885.61106 553.237127,1886.00706 553.069126,1886.15106 Z M556.453126,1877.87106 L556.201126,1878.08706 L555.805126,1878.08706 C555.541125,1878.08706 555.349127,1878.03906 555.229126,1877.94306 C555.109126,1877.84706 554.965127,1877.59506 554.797126,1877.18706 C554.629125,1876.77906 554.341128,1876.28706 553.933126,1875.71106 C553.525124,1875.13506 553.573124,1874.84706 554.077126,1874.84706 C554.581129,1874.84706 555.013124,1874.93106 555.373126,1875.09906 C555.733128,1875.26706 556.045125,1875.49506 556.309126,1875.78306 C556.573128,1876.07106 556.717126,1876.34706 556.741126,1876.61106 C556.765126,1876.87506 556.765126,1877.11506 556.741126,1877.33106 C556.717126,1877.54706 556.621127,1877.72706 556.453126,1877.87106 Z M561.421126,1881.61506 L561.169126,1881.83106 L561.025126,1881.83106 C560.929126,1881.83106 560.845127,1881.79506 560.773126,1881.72306 C560.701126,1881.65106 560.605127,1881.60306 560.485126,1881.57906 C560.365126,1881.55506 559.94513,1881.29106 559.225126,1880.78706 C558.505123,1880.28306 558.097127,1879.94706 558.001126,1879.77906 C557.905126,1879.61106 557.425131,1879.27506 556.561126,1878.77106 C555.697122,1878.26706 555.241127,1878.02706 555.193126,1878.05106 C555.145126,1878.07506 555.025127,1878.05106 554.833126,1877.97906 C554.641125,1877.90706 554.497127,1877.76306 554.401126,1877.54706 C554.305126,1877.33106 554.137127,1876.99506 553.897126,1876.53906 C553.657125,1876.08306 553.405128,1875.69906 553.141126,1875.38706 C552.877125,1875.07506 552.733126,1874.84706 552.709126,1874.70306 C552.685126,1874.55906 552.853124,1874.49906 553.213126,1874.52306 C553.573128,1874.54706 553.885125,1874.60706 554.149126,1874.70306 C554.413128,1874.79906 554.965122,1875.09906 555.805126,1875.60306 C556.64513,1876.10706 557.377123,1876.51506 558.001126,1876.82706 C558.625129,1877.13906 559.069125,1877.40306 559.333126,1877.61906 C559.597128,1877.83506 559.861125,1878.02706 560.125126,1878.19506 C560.389128,1878.36306 560.713124,1878.65106 561.097126,1879.05906 C561.481128,1879.46706 561.685126,1879.80306 561.709126,1880.06706 C561.733126,1880.33106 561.733126,1880.61906 561.709126,1880.93106 C561.685126,1881.24306 561.589127,1881.47106 561.421126,1881.61506 Z M614.017126,1892.81106 C614.161127,1892.73906 614.449124,1892.47506 614.881126,1892.01906 C615.313128,1891.56306 615.709124,1890.99906 616.069126,1890.32706 C616.429128,1889.65506 616.717125,1888.82706 616.933126,1887.84306 C617.149127,1886.85905 617.317126,1885.73107 617.437126,1884.45906 C617.557127,1883.18705 617.629126,1881.86707 617.653126,1880.49906 C617.677126,1879.13105 617.641127,1877.63107 617.545126,1875.99906 C617.449126,1874.36705 617.377126,1872.93907 617.329126,1871.71506 C617.281126,1870.49105 617.269126,1869.87906 617.293126,1869.87906 C617.317126,1869.87906 617.317126,1869.61506 617.293126,1869.08706 C617.269126,1868.55906 617.113128,1867.52707 616.825126,1865.99106 C616.537125,1864.45505 616.321127,1863.54306 616.177126,1863.25506 C616.033125,1862.96706 615.973126,1862.82306 615.997126,1862.82306 C616.021126,1862.82306 616.117125,1862.72706 616.285126,1862.53506 C616.453127,1862.34306 616.561126,1862.24706 616.609126,1862.24706 C616.657126,1862.24706 616.765125,1862.16306 616.933126,1861.99506 C617.101127,1861.82706 617.209126,1861.74306 617.257126,1861.74306 C617.305126,1861.74306 618.133118,1860.95107 619.741126,1859.36706 C621.349134,1857.78305 622.177126,1856.99106 622.225126,1856.99106 C622.273126,1856.99106 622.465125,1856.89506 622.801126,1856.70306 C623.137128,1856.51106 623.557124,1856.11506 624.061126,1855.51506 C624.565129,1854.91506 624.901125,1854.36306 625.069126,1853.85906 C625.237127,1853.35506 625.321126,1852.89906 625.321126,1852.49106 C625.321126,1852.08306 625.225127,1851.74706 625.033126,1851.48306 C624.841125,1851.21906 624.529128,1850.94306 624.097126,1850.65506 C623.665124,1850.36706 623.269128,1850.15106 622.909126,1850.00706 C622.549124,1849.86306 621.769132,1849.79106 620.569126,1849.79106 C619.36912,1849.79106 618.38513,1849.85106 617.617126,1849.97106 C616.849122,1850.09106 615.577135,1850.39106 613.801126,1850.87106 C612.025117,1851.35106 610.537132,1851.71106 609.337126,1851.95106 C608.13712,1852.19106 607.237129,1852.29906 606.637126,1852.27506 C606.037123,1852.25106 605.701127,1852.21506 605.629126,1852.16706 C605.557126,1852.11906 605.329128,1852.09506 604.945126,1852.09506 C604.561124,1852.09506 604.345126,1852.14306 604.297126,1852.23906 C604.249126,1852.33506 604.429124,1852.67106 604.837126,1853.24706 C605.245128,1853.82306 605.533125,1854.31506 605.701126,1854.72306 C605.869127,1855.13106 606.013126,1855.38306 606.133126,1855.47906 C606.253127,1855.57506 606.88912,1855.62306 608.041126,1855.62306 C609.193132,1855.62306 609.853125,1855.58706 610.021126,1855.51506 C610.189127,1855.44306 610.333126,1855.40706 610.453126,1855.40706 C610.573127,1855.40706 610.801125,1855.34706 611.137126,1855.22706 C611.473128,1855.10706 611.701126,1855.04706 611.821126,1855.04706 C611.941127,1855.04706 612.229124,1854.97506 612.685126,1854.83106 C613.141128,1854.68706 613.429126,1854.61506 613.549126,1854.61506 C613.669127,1854.61506 613.825125,1854.56706 614.017126,1854.47106 C614.209127,1854.37506 614.353126,1854.32706 614.449126,1854.32706 C614.545127,1854.32706 615.373118,1854.11106 616.933126,1853.67906 C618.493134,1853.24706 619.345125,1853.03106 619.489126,1853.03106 C619.633127,1853.03106 619.933124,1853.00706 620.389126,1852.95906 C620.845128,1852.91106 620.68913,1853.28306 619.921126,1854.07506 C619.153122,1854.86706 618.38513,1855.59906 617.617126,1856.27106 C616.849122,1856.94306 615.757133,1857.98705 614.341126,1859.40306 C612.925119,1860.81907 612.217126,1861.57506 612.217126,1861.67106 C612.217126,1861.76706 612.181127,1861.82706 612.109126,1861.85106 C612.037126,1861.87506 612.205124,1862.17506 612.613126,1862.75106 C613.021128,1863.32706 613.309125,1863.81906 613.477126,1864.22706 C613.645127,1864.63506 613.789126,1864.88706 613.909126,1864.98306 C614.029127,1865.07906 614.173125,1865.13906 614.341126,1865.16306 C614.509127,1865.18706 614.713125,1865.71505 614.953126,1866.74706 C615.193127,1867.77906 615.385125,1868.73905 615.529126,1869.62706 C615.673127,1870.51506 615.829125,1872.20705 615.997126,1874.70306 C616.165127,1877.19907 616.177127,1879.17905 616.033126,1880.64306 C615.889125,1882.10707 615.733127,1883.28305 615.565126,1884.17106 C615.397125,1885.05906 615.169128,1885.89906 614.881126,1886.69106 C614.593125,1887.48306 614.197129,1888.11906 613.693126,1888.59906 C613.189124,1889.07906 612.733128,1889.43906 612.325126,1889.67906 C611.917124,1889.91906 611.473129,1890.02706 610.993126,1890.00306 C610.513124,1889.97906 610.009129,1889.82306 609.481126,1889.53506 C608.953124,1889.24706 608.245131,1888.74306 607.357126,1888.02306 C606.469122,1887.30306 605.773129,1886.89506 605.269126,1886.79906 C604.765124,1886.70306 604.669125,1886.87106 604.981126,1887.30306 C605.293128,1887.73506 605.545125,1888.15506 605.737126,1888.56306 C605.929127,1888.97106 606.301123,1889.39106 606.853126,1889.82306 C607.405129,1890.25506 607.921124,1890.66306 608.401126,1891.04706 C608.881129,1891.43106 609.481123,1891.80306 610.201126,1892.16306 C610.92113,1892.52306 611.701122,1892.73906 612.541126,1892.81106 L613.801126,1892.91906 L614.017126,1892.81106 Z M677.197126,1896.15906 C677.461127,1895.91906 677.617126,1895.70306 677.665126,1895.51106 C677.713126,1895.31906 677.725126,1894.79106 677.701126,1893.92706 C677.677126,1893.06305 677.605127,1892.45106 677.485126,1892.09106 C677.365126,1891.73106 677.173127,1891.40706 676.909126,1891.11906 C676.645125,1890.83106 676.417127,1890.63906 676.225126,1890.54306 C676.033125,1890.44706 675.841127,1889.89506 675.649126,1888.88706 C675.457125,1887.87905 675.253127,1886.18707 675.037126,1883.81106 C674.821125,1881.43505 674.713126,1879.07107 674.713126,1876.71906 C674.713126,1874.36705 674.725126,1872.55507 674.749126,1871.28306 C674.773126,1870.01105 674.713127,1868.95506 674.569126,1868.11506 C674.425125,1867.27505 674.329126,1866.83106 674.281126,1866.78306 C674.233126,1866.73506 674.221126,1866.56706 674.245126,1866.27906 C674.269126,1865.99106 674.293126,1865.84706 674.317126,1865.84706 C674.341126,1865.84706 674.92912,1865.28306 676.081126,1864.15506 C677.233132,1863.02705 677.833126,1862.46306 677.881126,1862.46306 C677.929126,1862.46306 678.169124,1862.23506 678.601126,1861.77906 C679.033128,1861.32306 679.285126,1861.09506 679.357126,1861.09506 C679.429127,1861.09506 679.657124,1860.96306 680.041126,1860.69906 C680.425128,1860.43506 680.941123,1859.53507 681.589126,1857.99906 C682.237129,1856.46305 682.561126,1855.49106 682.561126,1855.08306 C682.561126,1854.67506 682.465127,1854.33906 682.273126,1854.07506 C682.081125,1853.81106 681.889127,1853.60706 681.697126,1853.46306 C681.505125,1853.31906 681.277127,1853.19906 681.013126,1853.10306 C680.749125,1853.00706 680.437128,1852.94706 680.077126,1852.92306 C679.717124,1852.89906 679.237129,1853.63105 678.637126,1855.11906 C678.037123,1856.60707 677.269131,1857.81905 676.333126,1858.75506 C675.397121,1859.69106 674.413131,1860.73505 673.381126,1861.88706 C672.349121,1863.03906 671.48513,1863.61506 670.789126,1863.61506 C670.093123,1863.61506 669.601128,1863.68706 669.313126,1863.83106 C669.025125,1863.97506 668.557129,1864.33506 667.909126,1864.91106 C667.261123,1865.48706 666.781128,1866.06306 666.469126,1866.63906 C666.157125,1867.21506 666.013126,1867.68306 666.037126,1868.04306 C666.061126,1868.40306 666.205125,1868.73906 666.469126,1869.05106 C666.733127,1869.36306 666.985125,1869.74706 667.225126,1870.20306 C667.465127,1870.65906 667.633126,1870.99506 667.729126,1871.21106 C667.825127,1871.42706 667.921126,1871.57106 668.017126,1871.64306 C668.113127,1871.71506 668.257125,1871.75106 668.449126,1871.75106 C668.641127,1871.75106 668.821125,1871.67906 668.989126,1871.53506 C669.157127,1871.39106 669.277126,1871.13906 669.349126,1870.77906 C669.421127,1870.41906 669.469126,1870.23906 669.493126,1870.23906 C669.517126,1870.23906 669.613125,1870.08306 669.781126,1869.77106 C669.949127,1869.45906 670.057126,1869.30306 670.105126,1869.30306 C670.153126,1869.30306 670.525123,1869.11106 671.221126,1868.72706 C671.91713,1868.34306 672.385125,1869.35105 672.625126,1871.75106 C672.865127,1874.15107 673.153124,1877.64304 673.489126,1882.22706 C673.825128,1886.81108 674.053126,1889.51106 674.173126,1890.32706 C674.293127,1891.14306 674.365126,1891.85106 674.389126,1892.45106 C674.413126,1893.05106 674.557125,1893.50706 674.821126,1893.81906 C675.085127,1894.13106 675.337125,1894.51506 675.577126,1894.97106 C675.817127,1895.42706 675.985126,1895.76306 676.081126,1895.97906 C676.177127,1896.19506 676.321125,1896.33906 676.513126,1896.41106 L676.801126,1896.51906 L677.197126,1896.15906 Z M698.725126,1867.64706 L698.833126,1867.64706 L700.201126,1866.38706 C701.113131,1865.54705 701.785124,1864.97106 702.217126,1864.65906 C702.649128,1864.34706 703.189123,1863.81906 703.837126,1863.07506 C704.485129,1862.33106 704.737127,1861.97106 704.593126,1861.99506 C704.449125,1862.01906 704.341127,1862.03106 704.269126,1862.03106 C704.197126,1862.03106 703.705131,1862.10306 702.793126,1862.24706 C701.881122,1862.39106 701.389127,1862.46306 701.317126,1862.46306 C701.245126,1862.46306 701.113127,1862.49906 700.921126,1862.57106 C700.729125,1862.64306 700.585127,1862.67906 700.489126,1862.67906 C700.393126,1862.67906 700.105129,1862.77506 699.625126,1862.96706 C699.145124,1863.15906 698.857127,1863.25506 698.761126,1863.25506 C698.665126,1863.25506 698.509127,1863.31506 698.293126,1863.43506 C698.077125,1863.55506 697.921127,1863.61506 697.825126,1863.61506 C697.729126,1863.61506 697.585127,1863.67506 697.393126,1863.79506 C697.201125,1863.91506 697.069127,1863.97506 696.997126,1863.97506 C696.925126,1863.97506 696.625129,1864.13106 696.097126,1864.44306 C695.569124,1864.75506 695.497124,1864.93506 695.881126,1864.98306 C696.265128,1865.03106 696.637124,1865.13906 696.997126,1865.30706 C697.357128,1865.47506 697.669125,1865.70306 697.933126,1865.99106 C698.197127,1866.27906 698.341126,1866.55506 698.365126,1866.81906 C698.389126,1867.08306 698.437126,1867.28706 698.509126,1867.43106 C698.581127,1867.57506 698.653126,1867.64706 698.725126,1867.64706 Z M698.365126,1888.23906 L698.113126,1888.45506 L697.825126,1888.45506 C697.633125,1888.45506 697.20113,1888.13106 696.529126,1887.48306 C695.857123,1886.83506 695.437127,1886.30706 695.269126,1885.89906 C695.101125,1885.49106 694.813128,1884.99906 694.405126,1884.42306 C693.997124,1883.84706 693.961124,1883.55906 694.297126,1883.55906 C694.633128,1883.55906 694.933125,1883.60706 695.197126,1883.70306 C695.461127,1883.79906 695.605126,1881.68708 695.629126,1877.36706 C695.653126,1873.04704 695.617127,1870.32306 695.521126,1869.19506 C695.425126,1868.06705 695.341127,1867.40706 695.269126,1867.21506 C695.197126,1867.02306 695.149126,1866.60306 695.125126,1865.95506 C695.101126,1865.30706 694.837129,1865.09106 694.333126,1865.30706 C693.829124,1865.52306 693.529127,1865.63106 693.433126,1865.63106 C693.337126,1865.63106 693.157127,1865.70306 692.893126,1865.84706 C692.629125,1865.99106 692.449127,1866.06306 692.353126,1866.06306 C692.257126,1866.06306 692.125127,1866.11106 691.957126,1866.20706 C691.789125,1866.30306 691.657127,1866.35106 691.561126,1866.35106 C691.465126,1866.35106 691.345127,1866.39906 691.201126,1866.49506 C691.057125,1866.59106 690.961126,1866.63906 690.913126,1866.63906 C690.865126,1866.63906 690.661128,1866.77106 690.301126,1867.03506 C689.941124,1867.29906 689.665127,1867.39506 689.473126,1867.32306 C689.281125,1867.25106 689.137127,1867.10706 689.041126,1866.89106 C688.945126,1866.67506 688.777127,1866.33906 688.537126,1865.88306 C688.297125,1865.42706 688.045127,1865.04306 687.781126,1864.73106 C687.517125,1864.41906 687.373126,1864.03506 687.349126,1863.57906 C687.325126,1863.12306 687.397125,1862.69106 687.565126,1862.28306 C687.733127,1861.87506 688.297121,1860.96307 689.257126,1859.54706 C690.217131,1858.13105 690.997123,1856.42707 691.597126,1854.43506 C692.197129,1852.44305 692.677124,1851.45906 693.037126,1851.48306 C693.397128,1851.50706 693.709125,1851.56706 693.973126,1851.66306 C694.237127,1851.75906 694.465125,1851.87906 694.657126,1852.02306 C694.849127,1852.16706 695.041125,1852.37106 695.233126,1852.63506 C695.425127,1852.89906 695.521126,1853.23506 695.521126,1853.64306 C695.521126,1854.05106 695.233129,1855.20305 694.657126,1857.09906 C694.081123,1858.99507 693.43313,1860.49505 692.713126,1861.59906 C691.993123,1862.70306 692.389119,1863.07506 693.901126,1862.71506 C695.413134,1862.35506 696.721121,1861.93506 697.825126,1861.45506 C698.929132,1860.97506 700.369117,1860.49506 702.145126,1860.01506 C703.921135,1859.53506 705.133123,1859.28306 705.781126,1859.25906 C706.429129,1859.23506 706.921124,1859.25906 707.257126,1859.33106 C707.593128,1859.40306 707.929124,1859.54706 708.265126,1859.76306 C708.601128,1859.97906 708.901125,1860.23106 709.165126,1860.51906 C709.429127,1860.80706 709.573126,1861.08306 709.597126,1861.34706 C709.621126,1861.61106 709.609126,1861.87506 709.561126,1862.13906 C709.513126,1862.40306 709.273128,1862.75106 708.841126,1863.18306 C708.409124,1863.61506 708.181126,1863.83106 708.157126,1863.83106 C708.133126,1863.83106 707.665131,1864.34705 706.753126,1865.37906 C705.841122,1866.41106 705.157128,1867.01106 704.701126,1867.17906 C704.245124,1867.34706 703.993126,1867.43106 703.945126,1867.43106 C703.897126,1867.43106 703.741127,1867.62306 703.477126,1868.00706 C703.213125,1868.39106 703.069126,1868.58306 703.045126,1868.58306 C703.021126,1868.58306 702.937127,1868.70306 702.793126,1868.94306 C702.649125,1869.18306 702.565126,1869.30306 702.541126,1869.30306 C702.517126,1869.30306 702.361128,1869.50706 702.073126,1869.91506 C701.785125,1870.32306 701.125131,1870.86306 700.093126,1871.53506 C699.061121,1872.20706 698.449127,1872.54306 698.257126,1872.54306 C698.065125,1872.54306 697.897127,1872.99905 697.753126,1873.91106 C697.609125,1874.82306 697.525126,1875.27906 697.501126,1875.27906 C697.477126,1875.27906 697.477126,1875.91505 697.501126,1877.18706 C697.525126,1878.45907 697.669125,1880.16305 697.933126,1882.29906 C698.197127,1884.43507 698.353126,1885.53906 698.401126,1885.61106 C698.449126,1885.68306 698.521126,1885.93506 698.617126,1886.36706 C698.713127,1886.79906 698.737126,1887.18306 698.689126,1887.51906 C698.641126,1887.85506 698.533127,1888.09506 698.365126,1888.23906 Z M686.665126,1887.84306 C686.905127,1887.62706 687.037126,1887.41106 687.061126,1887.19506 C687.085126,1886.97906 687.085126,1886.73906 687.061126,1886.47506 C687.037126,1886.21106 686.941127,1885.98306 686.773126,1885.79106 C686.605125,1885.59906 686.485127,1885.25106 686.413126,1884.74706 C686.341126,1884.24306 686.257127,1882.91107 686.161126,1880.75106 C686.065126,1878.59105 685.921127,1877.37906 685.729126,1877.11506 C685.537125,1876.85106 685.345127,1876.64706 685.153126,1876.50306 C684.961125,1876.35906 684.733127,1876.23906 684.469126,1876.14306 C684.205125,1876.04706 683.893128,1875.98706 683.533126,1875.96306 C683.173124,1875.93906 683.053126,1877.15105 683.173126,1879.59906 C683.293127,1882.04707 683.413126,1883.51106 683.533126,1883.99106 C683.653127,1884.47106 683.869125,1884.90306 684.181126,1885.28706 C684.493128,1885.67106 684.817124,1886.19906 685.153126,1886.87106 C685.489128,1887.54306 685.717126,1887.92706 685.837126,1888.02306 C685.957127,1888.11906 686.065126,1888.16706 686.161126,1888.16706 L686.305126,1888.16706 L686.665126,1887.84306 Z M710.749126,1887.37506 L710.497126,1887.59106 L710.209126,1887.48306 C710.017125,1887.41106 709.813127,1887.14706 709.597126,1886.69106 C709.381125,1886.23506 709.153127,1885.82706 708.913126,1885.46706 C708.673125,1885.10706 708.433127,1884.75906 708.193126,1884.42306 C707.953125,1884.08706 707.821126,1883.72706 707.797126,1883.34306 C707.773126,1882.95906 707.677127,1882.56306 707.509126,1882.15506 C707.341125,1881.74706 707.365125,1881.54306 707.581126,1881.54306 C707.797127,1881.54306 707.881126,1881.21906 707.833126,1880.57106 C707.785126,1879.92306 707.42513,1878.79507 706.753126,1877.18706 C706.081123,1875.57905 705.925124,1874.78706 706.285126,1874.81106 C706.645128,1874.83506 707.005124,1874.93106 707.365126,1875.09906 C707.725128,1875.26706 708.025125,1875.48306 708.265126,1875.74706 C708.505127,1876.01106 708.973123,1876.95905 709.669126,1878.59106 C710.36513,1880.22307 710.761126,1881.41106 710.857126,1882.15506 C710.953127,1882.89906 711.025126,1883.82305 711.073126,1884.92706 C711.121126,1886.03106 711.121126,1886.67906 711.073126,1886.87106 C711.025126,1887.06306 710.917127,1887.23106 710.749126,1887.37506 Z" id="只装满了你"></path>
        </g>
    </g>
</svg>