<?xml version="1.0" encoding="UTF-8"?>
<svg width="54px" height="33px" viewBox="0 0 54 33" version="1.1" xmlns="http://www.w3.org/2000/svg" xmlns:xlink="http://www.w3.org/1999/xlink">
    <!-- Generator: Sketch 48.1 (47250) - http://www.bohemiancoding.com/sketch -->
    <title>Group 14</title>
    <desc>Created with Sketch.</desc>
    <defs></defs>
    <g id="Page-1" stroke="none" stroke-width="1" fill="none" fill-rule="evenodd">
        <g id="Group-14" fill="#FFFFFF">
            <g id="Page-1-Copy-2" transform="translate(36.000000, 0.000000)">
                <path d="M1.56827607,33 C1.16679758,33 0.763798333,32.845453 0.458127208,32.5363589 C-0.153215043,31.9197009 -0.153215043,30.9205008 0.461168711,30.305373 L14.2118071,16.4986611 L0.493104501,2.69500956 C-0.119758502,2.07835159 -0.119758502,1.07915145 0.493104501,0.462493479 C1.10444675,-0.154164493 2.09749772,-0.154164493 2.71036072,0.462493479 L17.5407329,15.3846983 C17.834238,15.6800209 18,16.0824552 18,16.5017214 C18,16.9194575 17.834238,17.3218918 17.5392122,17.6172144 L2.67538343,32.5394192 C2.36971231,32.8469831 1.96975456,33 1.56827607,33" id="Fill-2"></path>
            </g>
            <g id="Page-1-Copy-3" transform="translate(18.000000, 0.000000)">
                <path d="M1.56827607,33 C1.16679758,33 0.763798333,32.845453 0.458127208,32.5363589 C-0.153215043,31.9197009 -0.153215043,30.9205008 0.461168711,30.305373 L14.2118071,16.4986611 L0.493104501,2.69500956 C-0.119758502,2.07835159 -0.119758502,1.07915145 0.493104501,0.462493479 C1.10444675,-0.154164493 2.09749772,-0.154164493 2.71036072,0.462493479 L17.5407329,15.3846983 C17.834238,15.6800209 18,16.0824552 18,16.5017214 C18,16.9194575 17.834238,17.3218918 17.5392122,17.6172144 L2.67538343,32.5394192 C2.36971231,32.8469831 1.96975456,33 1.56827607,33" id="Fill-2"></path>
            </g>
            <g id="Page-1-Copy-4">
                <path d="M1.56827607,33 C1.16679758,33 0.763798333,32.845453 0.458127208,32.5363589 C-0.153215043,31.9197009 -0.153215043,30.9205008 0.461168711,30.305373 L14.2118071,16.4986611 L0.493104501,2.69500956 C-0.119758502,2.07835159 -0.119758502,1.07915145 0.493104501,0.462493479 C1.10444675,-0.154164493 2.09749772,-0.154164493 2.71036072,0.462493479 L17.5407329,15.3846983 C17.834238,15.6800209 18,16.0824552 18,16.5017214 C18,16.9194575 17.834238,17.3218918 17.5392122,17.6172144 L2.67538343,32.5394192 C2.36971231,32.8469831 1.96975456,33 1.56827607,33" id="Fill-2"></path>
            </g>
        </g>
    </g>
</svg>