<?xml version="1.0" encoding="UTF-8"?>
<svg width="249px" height="33px" viewBox="0 0 249 33" version="1.1" xmlns="http://www.w3.org/2000/svg" xmlns:xlink="http://www.w3.org/1999/xlink">
    <!-- Generator: Sketch 43.2 (39069) - http://www.bohemiancoding.com/sketch -->
    <title>向左滑动</title>
    <desc>Created with Sketch.</desc>
    <defs></defs>
    <g id="Page-1" stroke="none" stroke-width="1" fill="none" fill-rule="evenodd">
        <g id="我要认真爱妈妈" transform="translate(-437.000000, -990.000000)" fill="#FFFFFF">
            <g id="向左滑动" transform="translate(438.000000, 990.000000)">
                <g id="箭头-(1)" transform="translate(206.000000, 3.000000)" fill-rule="nonzero">
                    <path d="M0.578216043,14.5727563 L35.1241522,14.5727563 L26.3026136,22.9153059 C26.0767995,23.1371842 26.0767995,23.4968343 26.3026136,23.7187588 L28.074607,25.4595041 C28.3004682,25.6813361 28.6665744,25.6813361 28.8924827,25.4595041 L39.9974991,14.9572497 C40.0103085,14.9466555 40.0229767,14.9357373 40.0350327,14.923894 L40.0943236,14.8656486 L41.806979,13.2460204 C41.9278685,13.1272165 41.9833919,12.9689038 41.9748209,12.813367 C41.9836745,12.6575063 41.928151,12.4987772 41.8070732,12.3797883 L40.0350798,10.701961 C40.023636,10.6908116 40.0117213,10.6805411 39.9996654,10.670502 L28.8925298,0.166443413 C28.6666686,-0.0554811375 28.3005624,-0.0554811375 28.0746541,0.166443413 L26.3026607,1.90718868 C26.0768466,2.1290207 26.0768466,2.48867079 26.3026607,2.7106416 L35.0414557,10.9749601 L0.578310231,10.9749601 C0.258873887,10.9749601 0,11.2293152 0,11.5430721 L0,14.0048756 C0,14.3185863 0.258873887,14.5729876 0.578310231,14.5729876 L0.578216043,14.5727563 Z" id="Shape"></path>
                </g>
                <path d="M1.61399989,14.516 L1.48799989,14.624 L1.36199989,14.606 C1.27799947,14.5939999 1.19400031,14.5460004 1.10999989,14.462 C1.02599947,14.3779996 0.924000488,14.2100013 0.803999888,13.958 C0.683999288,13.7059987 0.558000548,13.5020008 0.425999888,13.346 C0.293999228,13.1899992 0.221999948,12.9920012 0.209999888,12.752 C0.197999828,12.5119988 0.209999708,12.3200007 0.245999888,12.176 C0.282000068,12.0319993 0.395998928,11.96 0.587999888,11.96 C0.780000848,11.96 0.929999348,11.9779998 1.03799989,12.014 C1.14600043,12.0500002 1.31999869,11.9480012 1.55999989,11.708 C1.80000109,11.4679988 2.31599593,10.8800047 3.10799989,9.944 C3.90000385,9.00799532 4.68599599,8.0000054 5.46599989,6.92 C6.24600379,5.8399946 6.82199803,5.3 7.19399989,5.3 C7.56600175,5.3 7.79999941,5.31799982 7.89599989,5.354 C7.99200037,5.39000018 8.09999929,5.44999958 8.21999989,5.534 C8.34000049,5.61800042 8.44199947,5.7199994 8.52599989,5.84 C8.61000031,5.9600006 8.65199989,6.11599904 8.65199989,6.308 C8.65199989,6.50000096 8.61000031,6.63199964 8.52599989,6.704 C8.44199947,6.77600036 8.31600073,6.812 8.14799989,6.812 C7.97999905,6.812 7.88400001,6.83599976 7.85999989,6.884 C7.83599977,6.93200024 7.81200001,6.956 7.78799989,6.956 C7.76399977,6.956 7.71600025,7.0159994 7.64399989,7.136 C7.57199953,7.2560006 7.52400001,7.316 7.49999989,7.316 C7.47599977,7.316 7.44600007,7.35199964 7.40999989,7.424 C7.37399971,7.49600036 7.34999995,7.532 7.33799989,7.532 C7.32599983,7.532 7.21200097,7.66999862 6.99599989,7.946 C6.77999881,8.22200138 6.66599995,8.36 6.65399989,8.36 C6.64199983,8.36 6.57600049,8.44399916 6.45599989,8.612 C6.33599929,8.78000084 6.26400001,8.864 6.23999989,8.864 C6.21599977,8.864 6.15000043,8.94199922 6.04199989,9.098 C5.93399935,9.25400078 5.43000439,9.86599466 4.52999989,10.934 C3.62999539,12.0020053 3.16800001,12.536 3.14399989,12.536 C3.11999977,12.536 2.90400193,12.7099983 2.49599989,13.058 C2.08799785,13.4060017 1.87799995,13.58 1.86599989,13.58 C1.85399983,13.58 1.83000007,13.7179986 1.79399989,13.994 C1.75799971,14.2700014 1.69800031,14.4439996 1.61399989,14.516 Z M3.77399989,26.036 L3.64799989,26.144 L3.57599989,26.144 C3.52799965,26.144 3.46800025,26.1200002 3.39599989,26.072 C3.32399953,26.0239998 3.22200055,25.8500015 3.08999989,25.55 C2.95799923,25.2499985 2.80800073,24.998001 2.63999989,24.794 C2.47199905,24.589999 2.38199995,24.4220007 2.36999989,24.29 C2.35799983,24.1579993 2.34000001,24.0800001 2.31599989,24.056 C2.29199977,24.0319999 2.25000019,23.9300009 2.18999989,23.75 C2.12999959,23.5699991 2.12399965,23.4740001 2.17199989,23.462 C2.22000013,23.4499999 2.22000013,23.3120013 2.17199989,23.048 C2.12399965,22.7839987 2.04600043,22.0460061 1.93799989,20.834 C1.82999935,19.6219939 1.73400031,18.8480017 1.64999989,18.512 C1.56599947,18.1759983 1.41600097,17.4320058 1.19999989,16.28 C0.983998808,15.1279942 0.774000908,14.0840047 0.569999888,13.148 C0.365998868,12.2119953 0.252000008,11.6240012 0.227999888,11.384 C0.203999768,11.1439988 0.269999108,11.0299999 0.425999888,11.042 C0.582000668,11.0540001 0.725999228,11.0839998 0.857999888,11.132 C0.990000548,11.1800002 1.12799917,11.2819992 1.27199989,11.438 C1.41600061,11.5940008 1.53599941,12.1219955 1.63199989,13.022 C1.72800037,13.9220045 1.81199953,14.5579981 1.88399989,14.93 C1.95600025,15.3020019 2.00399977,15.6079988 2.02799989,15.848 C2.05200001,16.0880012 2.10599947,16.4239978 2.18999989,16.856 C2.27400031,17.2880022 2.32799977,17.8459966 2.35199989,18.53 C2.37600001,19.2140034 2.42999947,19.7899977 2.51399989,20.258 C2.59800031,20.7260023 2.64599983,21.0139995 2.65799989,21.122 C2.66999995,21.2300005 2.70599959,21.3679992 2.76599989,21.536 C2.82600019,21.7040008 2.86799977,21.8539993 2.89199989,21.986 C2.91600001,22.1180007 2.95799959,22.2619992 3.01799989,22.418 C3.07800019,22.5740008 3.15599941,22.8439981 3.25199989,23.228 C3.34800037,23.6120019 3.41999965,23.8519995 3.46799989,23.948 C3.51600013,24.0440005 3.59399935,24.2059989 3.70199989,24.434 C3.81000043,24.6620011 3.88199971,24.8539992 3.91799989,25.01 C3.95400007,25.1660008 3.96000001,25.3579989 3.93599989,25.586 C3.91199977,25.8140011 3.85800031,25.9639996 3.77399989,26.036 Z M15.2939999,27.188 L15.1679999,27.296 L14.6819999,27.206 C14.3579983,27.1459997 14.0640012,27.0260009 13.7999999,26.846 C13.5359986,26.6659991 13.3260007,26.474001 13.1699999,26.27 C13.0139991,26.065999 12.8040012,25.8380013 12.5399999,25.586 C12.2759986,25.3339987 12.0780005,25.1600005 11.9459999,25.064 C11.8139992,24.9679995 11.7000004,24.8060011 11.6039999,24.578 C11.5079994,24.3499989 11.3700008,24.1100013 11.1899999,23.858 C11.009999,23.6059987 10.9979991,23.48 11.1539999,23.48 C11.3100007,23.48 11.4659991,23.5159996 11.6219999,23.588 C11.7780007,23.6600004 12.0539979,23.8579984 12.4499999,24.182 C12.8460019,24.5060016 13.1219991,24.769999 13.2779999,24.974 C13.4340007,25.178001 13.5839992,25.3159996 13.7279999,25.388 C13.8720006,25.4600004 14.0399989,25.4540004 14.2319999,25.37 C14.4240008,25.2859996 14.711998,25.0340021 15.0959999,24.614 C15.4800018,24.1939979 15.8519981,23.7380025 16.2119999,23.246 C16.5720017,22.7539975 16.937998,22.1960031 17.3099999,21.572 C17.6820017,20.9479969 18.0419981,20.138005 18.3899999,19.142 C18.7380016,18.145995 19.0199988,17.2580039 19.2359999,16.478 C19.452001,15.6979961 19.5899996,15.0800023 19.6499999,14.624 C19.7100002,14.1679977 19.7459998,13.6340031 19.7579999,13.022 C19.7699999,12.4099969 19.7520001,11.9600014 19.7039999,11.672 C19.6559996,11.3839986 19.5900003,11.2220002 19.5059999,11.186 C19.4219995,11.1499998 19.0500032,11.0900004 18.3899999,11.006 C17.7299966,10.9219996 17.0940029,10.8740001 16.4819999,10.862 C15.8699968,10.8499999 15.4260013,10.8679998 15.1499999,10.916 C14.8739985,10.9640002 14.7120001,10.988 14.6639999,10.988 C14.6159996,10.988 14.5500003,10.9939999 14.4659999,11.006 C14.3819995,11.0180001 14.3100002,11.024 14.2499999,11.024 C14.1899996,11.024 13.9620019,11.0779995 13.5659999,11.186 C13.1699979,11.2940005 12.96,11.348 12.9359999,11.348 C12.9119998,11.348 12.8280006,11.3659998 12.6839999,11.402 C12.5399992,11.4380002 12.4380002,11.456 12.3779999,11.456 C12.3179996,11.456 12.0840019,11.5639989 11.6759999,11.78 C11.2679978,11.9960011 10.554005,12.3319977 9.53399989,12.788 C8.51399479,13.2440023 7.98600007,13.472 7.94999989,13.472 C7.91399971,13.472 7.83000055,13.5079996 7.69799989,13.58 C7.56599923,13.6520004 7.48200007,13.688 7.44599989,13.688 C7.40999971,13.688 7.26000121,13.7479994 6.99599989,13.868 C6.73199857,13.9880006 6.58200007,14.048 6.54599989,14.048 C6.50999971,14.048 6.46800013,14.0659998 6.41999989,14.102 C6.37199965,14.1380002 6.25200085,14.1919996 6.05999989,14.264 C5.86799893,14.3360004 5.64000121,14.4199995 5.37599989,14.516 C5.11199857,14.6120005 4.75200217,14.7439992 4.29599989,14.912 C3.83999761,15.0800008 3.48600115,15.2119995 3.23399989,15.308 C2.98199863,15.4040005 2.67600169,15.4819997 2.31599989,15.542 C1.95599809,15.6020003 1.72800037,15.632 1.63199989,15.632 C1.53599941,15.632 1.45200025,15.6080002 1.37999989,15.56 C1.30799953,15.5119998 1.21200049,15.3500014 1.09199989,15.074 C0.971999288,14.7979986 0.822000788,14.5400012 0.641999888,14.3 C0.461998988,14.0599988 0.539998208,13.9160002 0.875999888,13.868 C1.21200157,13.8199998 1.88399485,13.6460015 2.89199989,13.346 C3.90000493,13.0459985 5.24999143,12.6020029 6.94199989,12.014 C8.63400835,11.4259971 9.88799581,11.0240011 10.7039999,10.808 C11.520004,10.5919989 12.2519966,10.4060008 12.8999999,10.25 C13.5480031,10.0939992 14.1719969,9.97400042 14.7719999,9.89 C15.3720029,9.80599958 16.2479941,9.75800006 17.3999999,9.746 C18.5520056,9.73399994 19.2299989,9.75199976 19.4339999,9.8 C19.6380009,9.84800024 19.8119992,9.91999952 19.9559999,10.016 C20.1000006,10.1120005 20.3159984,10.357998 20.6039999,10.754 C20.8920013,11.150002 21.0719995,11.5219983 21.1439999,11.87 C21.2160002,12.2180017 21.24,12.6439975 21.2159999,13.148 C21.1919998,13.6520025 21.1320004,14.1559975 21.0359999,14.66 C20.9399994,15.1640025 20.8560002,15.5419987 20.7839999,15.794 C20.7119995,16.0460013 20.6699999,16.172 20.6579999,16.172 C20.6459998,16.172 20.5440008,16.3639981 20.3519999,16.748 C20.1599989,17.1320019 20.0579999,17.324 20.0459999,17.324 C20.0339998,17.324 20.0040001,17.4079992 19.9559999,17.576 C19.9079996,17.7440008 19.8779999,17.828 19.8659999,17.828 C19.8539998,17.828 19.8120002,17.9539987 19.7399999,18.206 C19.6679995,18.4580013 19.4940013,18.9559963 19.2179999,19.7 C18.9419985,20.4440037 18.7380005,20.9539986 18.6059999,21.23 C18.4739992,21.5060014 18.4019999,21.644 18.3899999,21.644 C18.3779998,21.644 18.2700009,21.8239982 18.0659999,22.184 C17.8619989,22.5440018 17.7539999,22.724 17.7419999,22.724 C17.7299998,22.724 17.5980011,22.9759975 17.3459999,23.48 C17.0939986,23.9840025 16.9619999,24.236 16.9499999,24.236 C16.9379998,24.236 16.8900003,24.3259991 16.8059999,24.506 C16.7219995,24.6860009 16.6739999,24.776 16.6619999,24.776 C16.6499998,24.776 16.6200001,24.8299995 16.5719999,24.938 C16.5239996,25.0460005 16.4939999,25.1 16.4819999,25.1 C16.4699998,25.1 16.4460001,25.1419996 16.4099999,25.226 C16.3739997,25.3100004 16.3499999,25.352 16.3379999,25.352 C16.3259998,25.352 16.2960001,25.4059995 16.2479999,25.514 C16.1999996,25.6220005 16.1699999,25.676 16.1579999,25.676 C16.1459998,25.676 16.0680006,25.8079987 15.9239999,26.072 C15.7799992,26.3360013 15.7019999,26.468 15.6899999,26.468 C15.6779998,26.468 15.6300003,26.569999 15.5459999,26.774 C15.4619995,26.978001 15.3780003,27.1159996 15.2939999,27.188 Z M8.14799989,20.276 L8.18399989,20.276 L8.45399989,20.078 C8.63400079,19.9459993 8.89199821,19.7900009 9.22799989,19.61 C9.56400157,19.4299991 9.92999791,19.1480019 10.3259999,18.764 C10.7220019,18.3799981 11.0519986,18.0080018 11.3159999,17.648 C11.5800012,17.2879982 11.7659993,17.0540005 11.8739999,16.946 C11.9820004,16.8379995 12.0719995,16.7300005 12.1439999,16.622 C12.2160002,16.5139995 12.1200012,16.4839998 11.8559999,16.532 C11.5919986,16.5800002 11.4360001,16.604 11.3879999,16.604 C11.3399996,16.604 11.1360017,16.6759993 10.7759999,16.82 C10.4159981,16.9640007 10.2180001,17.036 10.1819999,17.036 C10.1459997,17.036 9.87600241,17.1679987 9.37199989,17.432 C8.86799737,17.6960013 8.59800007,17.828 8.56199989,17.828 C8.52599971,17.828 8.41200085,17.8939993 8.21999989,18.026 C8.02799893,18.1580007 7.92599995,18.224 7.91399989,18.224 C7.90199983,18.224 7.88400001,18.2659996 7.85999989,18.35 C7.83599977,18.4340004 7.81799995,18.476 7.80599989,18.476 C7.79399983,18.476 7.78199995,18.5419993 7.76999989,18.674 C7.75799983,18.8060007 7.77599965,18.9559992 7.82399989,19.124 C7.87200013,19.2920008 7.93199953,19.5259985 8.00399989,19.826 C8.07600025,20.1260015 8.12399977,20.276 8.14799989,20.276 Z M9.10199989,22.436 L8.97599989,22.544 L8.90399989,22.544 C8.85599965,22.544 8.79600025,22.5200002 8.72399989,22.472 C8.65199953,22.4239998 8.58000025,22.3100009 8.50799989,22.13 C8.43599953,21.9499991 8.35200037,21.9019996 8.25599989,21.986 C8.15999941,22.0700004 8.04000061,22.0940002 7.89599989,22.058 C7.75199917,22.0219998 7.65600013,21.9560005 7.60799989,21.86 C7.55999965,21.7639995 7.50000025,21.6260009 7.42799989,21.446 C7.35599953,21.2659991 7.24200067,21.080001 7.08599989,20.888 C6.92999911,20.695999 6.84599995,20.5700003 6.83399989,20.51 C6.82199983,20.4499997 6.79800007,20.4020002 6.76199989,20.366 C6.72599971,20.3299998 6.69000007,20.1920012 6.65399989,19.952 C6.61799971,19.7119988 6.55800031,19.4540014 6.47399989,19.178 C6.38999947,18.9019986 6.31200025,18.6080016 6.23999989,18.296 C6.16799953,17.9839984 6.13199989,17.7440008 6.13199989,17.576 C6.13199989,17.4079992 6.07800043,17.0660026 5.96999989,16.55 C5.86199935,16.0339974 5.89199905,15.7819999 6.05999989,15.794 C6.22800073,15.8060001 6.35999941,15.8299998 6.45599989,15.866 C6.55200037,15.9020002 6.65999929,15.9619996 6.77999989,16.046 C6.90000049,16.1300004 6.98399965,16.2139996 7.03199989,16.298 C7.08000013,16.3820004 7.25399839,16.3700005 7.55399989,16.262 C7.85400139,16.1539995 8.18399809,16.0520005 8.54399989,15.956 C8.90400169,15.8599995 9.26399809,15.7400007 9.62399989,15.596 C9.98400169,15.4519993 10.4699968,15.3080007 11.0819999,15.164 C11.6940029,15.0199993 12.1559983,14.9420001 12.4679999,14.93 C12.7800014,14.9179999 13.019999,14.9299998 13.1879999,14.966 C13.3560007,15.0020002 13.523999,15.0679995 13.6919999,15.164 C13.8600007,15.2600005 14.0219991,15.3919992 14.1779999,15.56 C14.3340007,15.7280008 14.4239998,15.9439987 14.4479999,16.208 C14.472,16.4720013 14.4540002,16.705999 14.3939999,16.91 C14.3339996,17.114001 14.2080008,17.3659985 14.0159999,17.666 C13.8239989,17.9660015 13.6740004,18.1639995 13.5659999,18.26 C13.4579993,18.3560005 13.392,18.404 13.3679999,18.404 C13.3439998,18.404 13.2600006,18.4819992 13.1159999,18.638 C12.9719992,18.7940008 12.8939999,18.872 12.8819999,18.872 C12.8699998,18.872 12.852,18.9019997 12.8279999,18.962 C12.8039998,19.0220003 12.8399994,19.1119994 12.9359999,19.232 C13.0320004,19.3520006 13.0919998,19.5199989 13.1159999,19.736 C13.14,19.9520011 13.1459999,20.1259993 13.1339999,20.258 C13.1219998,20.3900007 13.0140009,20.551999 12.8099999,20.744 C12.6059989,20.936001 12.3120018,21.133999 11.9279999,21.338 C11.543998,21.542001 11.2320011,21.6739997 10.9919999,21.734 C10.7519987,21.7940003 10.6020002,21.824 10.5419999,21.824 C10.4819996,21.824 10.4220002,21.8060002 10.3619999,21.77 C10.3019996,21.7339998 10.2480001,21.6620005 10.1999999,21.554 C10.1519996,21.4459995 10.0980002,21.4339996 10.0379999,21.518 C9.97799959,21.6020004 9.85200085,21.7159993 9.65999989,21.86 C9.46799893,22.0040007 9.36599995,22.076 9.35399989,22.076 C9.34199983,22.076 9.31800007,22.1179996 9.28199989,22.202 C9.24599971,22.2860004 9.18600031,22.3639996 9.10199989,22.436 Z M45.6959999,9.152 L45.8039999,9.152 L46.8659999,9.044 C47.5740035,8.97199964 47.8620006,8.9060003 47.7299999,8.846 C47.5979993,8.7859997 47.3640016,8.73800018 47.0279999,8.702 C46.6919982,8.66599982 46.5000002,8.63000018 46.4519999,8.594 C46.4039997,8.55799982 46.2900008,8.4800006 46.1099999,8.36 C45.929999,8.2399994 45.828,8.2399994 45.8039999,8.36 C45.7799998,8.4800006 45.7380002,8.64199898 45.6779999,8.846 C45.6179996,9.05000102 45.6239996,9.152 45.6959999,9.152 Z M36.2819999,27.584 L36.1559999,27.692 L36.0119999,27.656 C35.9159994,27.6319999 35.7900007,27.4580016 35.6339999,27.134 C35.4779991,26.8099984 35.3160008,26.546001 35.1479999,26.342 C34.9799991,26.137999 34.9199997,25.9160012 34.9679999,25.676 C35.0160002,25.4359988 35.129999,25.3219999 35.3099999,25.334 C35.4900008,25.3460001 35.8619971,24.9860037 36.4259999,24.254 C36.9900027,23.5219963 37.5479972,22.7360042 38.0999999,21.896 C38.6520027,21.0559958 39.1079981,20.3300031 39.4679999,19.718 C39.8280017,19.1059969 40.3139969,18.2540055 40.9259999,17.162 C41.538003,16.0699945 42.1139972,14.9780055 42.6539999,13.886 C43.1940026,12.7939945 43.5419991,11.9840026 43.6979999,11.456 C43.8540007,10.9279974 43.8540007,10.6819998 43.6979999,10.718 C43.5419991,10.7540002 43.4280003,10.772 43.3559999,10.772 C43.2839996,10.772 43.140001,10.8019997 42.9239999,10.862 C42.7079988,10.9220003 42.5640003,10.952 42.4919999,10.952 C42.4199996,10.952 42.3540002,10.9699998 42.2939999,11.006 C42.2339996,11.0420002 42.1680003,11.06 42.0959999,11.06 C42.0239996,11.06 41.9520003,11.0779998 41.8799999,11.114 C41.8079996,11.1500002 41.7360003,11.168 41.6639999,11.168 C41.5919996,11.168 41.4900006,11.1919998 41.3579999,11.24 C41.2259993,11.2880002 41.1240003,11.312 41.0519999,11.312 C40.9799996,11.312 40.9140002,11.3299998 40.8539999,11.366 C40.7939996,11.4020002 40.7280003,11.42 40.6559999,11.42 C40.5839996,11.42 40.3620018,11.4739995 39.9899999,11.582 C39.6179981,11.6900005 39.4080002,11.744 39.3599999,11.744 C39.3119997,11.744 39.2220006,11.7080004 39.0899999,11.636 C38.9579993,11.5639996 38.8320005,11.4080012 38.7119999,11.168 C38.5919993,10.9279988 38.4600006,10.706001 38.3159999,10.502 C38.1719992,10.297999 38.195999,10.2019999 38.3879999,10.214 C38.5800009,10.2260001 38.8619981,10.2020003 39.2339999,10.142 C39.6060018,10.0819997 40.5419924,9.93800114 42.0419999,9.71 C43.5420074,9.48199886 44.3279996,9.17600192 44.3999999,8.792 C44.4720003,8.40799808 44.5139999,7.84400372 44.5259999,7.1 C44.538,6.35599628 44.633999,5.98999994 44.8139999,6.002 C44.9940008,6.01400006 45.1679991,6.05599964 45.3359999,6.128 C45.5040008,6.20000036 45.6599992,6.31399922 45.8039999,6.47 C45.9480006,6.62600078 46.0379997,6.7639994 46.0739999,6.884 C46.1100001,7.0040006 46.1579996,7.0939997 46.2179999,7.154 C46.2780002,7.2140003 46.4579984,7.28599958 46.7579999,7.37 C47.0580014,7.45400042 47.6159958,7.62199874 48.4319999,7.874 C49.248004,8.12600126 49.7879986,8.2819997 50.0519999,8.342 C50.3160012,8.4020003 50.5499989,8.47399958 50.7539999,8.558 C50.9580009,8.64200042 51.1619989,8.79199892 51.3659999,9.008 C51.5700009,9.22400108 51.6779999,9.39799934 51.6899999,9.53 C51.702,9.66200066 51.702,9.78199946 51.6899999,9.89 C51.6779999,9.99800054 51.6300003,10.0879996 51.5459999,10.16 C51.4619995,10.2320004 51.3720004,10.268 51.2759999,10.268 C51.1799994,10.268 50.8620026,10.2080006 50.3219999,10.088 C49.7819972,9.9679994 49.2540025,9.89000018 48.7379999,9.854 C48.2219973,9.81799982 47.9280003,9.80599994 47.8559999,9.818 C47.7839996,9.83000006 47.5620018,9.88399952 47.1899999,9.98 C46.8179981,10.0760005 46.4100021,10.1719995 45.9659999,10.268 C45.5219977,10.3640005 45.2640003,10.412 45.1919999,10.412 C45.1199996,10.412 44.9820009,10.7059971 44.7779999,11.294 C44.5739989,11.8820029 44.4120005,12.3139986 44.2919999,12.59 C44.1719993,12.8660014 44.106,13.004 44.0939999,13.004 C44.0819999,13.004 44.0460002,13.0699993 43.9859999,13.202 C43.9259996,13.3340007 43.89,13.4 43.8779999,13.4 C43.8659999,13.4 43.7700008,13.5559984 43.5899999,13.868 C43.409999,14.1800016 43.314,14.336 43.3019999,14.336 C43.2899999,14.336 43.2480003,14.4079993 43.1759999,14.552 C43.1039996,14.6960007 43.062,14.768 43.0499999,14.768 C43.0379999,14.768 42.9960003,14.8339993 42.9239999,14.966 C42.8519996,15.0980007 42.81,15.164 42.7979999,15.164 C42.7859999,15.164 42.6360014,15.4279974 42.3479999,15.956 C42.0599985,16.4840026 41.5800033,17.3419941 40.9079999,18.53 C40.2359966,19.7180059 39.7080018,20.6179969 39.3239999,21.23 C38.939998,21.8420031 38.742,22.148 38.7299999,22.148 C38.7179999,22.148 38.6700003,22.2379991 38.5859999,22.418 C38.5019995,22.5980009 38.3820007,22.8079988 38.2259999,23.048 C38.0699991,23.2880012 37.986,23.408 37.9739999,23.408 C37.9619999,23.408 37.95,23.4379997 37.9379999,23.498 C37.9259999,23.5580003 37.914,23.588 37.9019999,23.588 C37.8899999,23.588 37.8600002,23.6419995 37.8119999,23.75 C37.7639997,23.8580005 37.734,23.912 37.7219999,23.912 C37.7099999,23.912 37.6800002,23.9659995 37.6319999,24.074 C37.5839997,24.1820005 37.554,24.236 37.5419999,24.236 C37.5299999,24.236 37.5000002,24.2899995 37.4519999,24.398 C37.4039997,24.5060005 37.374,24.56 37.3619999,24.56 C37.3499999,24.56 37.3200002,24.6139995 37.2719999,24.722 C37.2239997,24.8300005 37.194,24.884 37.1819999,24.884 C37.1699999,24.884 37.152,24.9139997 37.1279999,24.974 C37.1039998,25.0340003 37.086,25.064 37.0739999,25.064 C37.0619999,25.064 37.0080004,25.1779989 36.9119999,25.406 C36.8159994,25.6340011 36.762,25.748 36.7499999,25.748 C36.7379999,25.748 36.7140001,25.8019995 36.6779999,25.91 C36.6419997,26.0180005 36.618,26.072 36.6059999,26.072 C36.5939999,26.072 36.5879999,26.1379993 36.5879999,26.27 C36.5879999,26.4020007 36.5580002,26.6359983 36.4979999,26.972 C36.4379996,27.3080017 36.3660003,27.5119996 36.2819999,27.584 Z M46.0379999,23.444 L46.0559999,23.444 L46.0559999,23.426 C46.0559999,23.4139999 46.05,23.408 46.0379999,23.408 C46.0259999,23.408 46.0199999,23.4139999 46.0199999,23.426 C46.0199999,23.4380001 46.0259999,23.444 46.0379999,23.444 Z M44.9759999,25.874 L44.5439999,26.108 L44.4539999,26.108 C44.3939996,26.108 44.3100005,26.0660004 44.2019999,25.982 C44.0939994,25.8979996 43.9920004,25.7420011 43.8959999,25.514 C43.7999994,25.2859989 43.6500009,25.0280014 43.4459999,24.74 C43.2419989,24.4519986 43.1699996,24.2720004 43.2299999,24.2 C43.2900002,24.1279996 43.3979991,23.9840011 43.5539999,23.768 C43.7100007,23.5519989 43.8959988,23.3600008 44.1119999,23.192 C44.328001,23.0239992 45.0179941,22.436005 46.1819999,21.428 C47.3460057,20.419995 48.1859973,19.6280029 48.7019999,19.052 C49.2180025,18.4759971 49.0140045,18.2359995 48.0899999,18.332 C47.1659953,18.4280005 46.3200038,18.4580002 45.5519999,18.422 C44.7839961,18.3859998 44.3220007,18.3500002 44.1659999,18.314 C44.0099991,18.2779998 43.9140001,18.2180004 43.8779999,18.134 C43.8419997,18.0499996 43.7700005,17.9000011 43.6619999,17.684 C43.5539994,17.4679989 43.4100008,17.2400012 43.2299999,17 C43.049999,16.7599988 43.3319962,16.6579998 44.0759999,16.694 C44.8200036,16.7300002 45.3719981,16.7420001 45.7319999,16.73 C46.0920017,16.7179999 46.763995,16.6520006 47.7479999,16.532 C48.7320048,16.4119994 49.2839993,16.3220003 49.4039999,16.262 C49.5240005,16.2019997 49.7099987,16.1360004 49.9619999,16.064 C50.2140012,15.9919996 50.5199981,15.956 50.8799999,15.956 C51.2400017,15.956 51.4679994,15.9739998 51.5639999,16.01 C51.6600004,16.0460002 51.7679993,16.0999996 51.8879999,16.172 C52.0080005,16.2440004 52.1279993,16.3579992 52.2479999,16.514 C52.3680005,16.6700008 52.4279999,16.8919986 52.4279999,17.18 C52.4279999,17.4680014 52.3680005,17.707999 52.2479999,17.9 C52.1279993,18.092001 52.0140005,18.2239996 51.9059999,18.296 C51.7979994,18.3680004 51.732,18.404 51.7079999,18.404 C51.6839998,18.404 51.6420002,18.4339997 51.5819999,18.494 C51.5219996,18.5540003 51.48,18.584 51.4559999,18.584 C51.4319998,18.584 51.3540006,18.6559993 51.2219999,18.8 C51.0899993,18.9440007 51.012,19.016 50.9879999,19.016 C50.9639998,19.016 50.8980005,19.0759994 50.7899999,19.196 C50.6819994,19.3160006 50.3520027,19.6279975 49.7999999,20.132 C49.2479972,20.6360025 48.8760009,20.9419995 48.6839999,21.05 C48.491999,21.1580005 48.3780001,21.212 48.3419999,21.212 C48.3059997,21.212 48.1920009,21.2659995 47.9999999,21.374 C47.807999,21.4820005 47.6940001,21.536 47.6579999,21.536 C47.6219997,21.536 47.5800002,21.5659997 47.5319999,21.626 C47.4839997,21.6860003 47.448,21.716 47.4239999,21.716 C47.3999998,21.716 47.3580002,21.7639995 47.2979999,21.86 C47.2379996,21.9560005 47.196,22.004 47.1719999,22.004 C47.1479998,22.004 47.0580007,22.099999 46.9019999,22.292 C46.7459991,22.484001 46.656,22.58 46.6319999,22.58 C46.6079998,22.58 46.5060008,22.7179986 46.3259999,22.994 C46.145999,23.2700014 46.3319972,23.3180009 46.8839999,23.138 C47.4360027,22.9579991 48.005997,22.7480012 48.5939999,22.508 C49.1820029,22.2679988 49.7759969,22.0760007 50.3759999,21.932 C50.9760029,21.7879993 51.3779989,21.7219999 51.5819999,21.734 C51.7860009,21.7460001 51.9599992,21.7939996 52.1039999,21.878 C52.2480006,21.9620004 52.409999,22.1359987 52.5899999,22.4 C52.7700008,22.6640013 52.8599999,22.897999 52.8599999,23.102 C52.8599999,23.306001 52.7940006,23.5279988 52.6619999,23.768 C52.5299993,24.0080012 52.3860007,24.1579997 52.2299999,24.218 C52.0739991,24.2780003 51.984,24.308 51.9599999,24.308 C51.9359998,24.308 51.8040011,24.409999 51.5639999,24.614 C51.3239987,24.818001 51.0360016,25.0099991 50.6999999,25.19 C50.3639982,25.3700009 50.1360005,25.46 50.0159999,25.46 C49.8959993,25.46 49.7220011,25.4420002 49.4939999,25.406 C49.2659988,25.3699998 49.1160003,25.3340002 49.0439999,25.298 C48.9719996,25.2619998 48.9180001,25.2020004 48.8819999,25.118 C48.8459997,25.0339996 48.7500007,24.8480014 48.5939999,24.56 C48.4379991,24.2719986 48.2460011,24.1759995 48.0179999,24.272 C47.7899988,24.3680005 47.6580001,24.416 47.6219999,24.416 C47.5859997,24.416 47.5020006,24.4519996 47.3699999,24.524 C47.2379993,24.5960004 47.1540001,24.632 47.1179999,24.632 C47.0819997,24.632 46.9680009,24.6799995 46.7759999,24.776 C46.583999,24.8720005 46.4700001,24.92 46.4339999,24.92 C46.3979997,24.92 46.3260005,24.9619996 46.2179999,25.046 C46.1099994,25.1300004 46.044,25.172 46.0199999,25.172 C45.9959998,25.172 45.9060007,25.2379993 45.7499999,25.37 C45.5939991,25.5020007 45.4980001,25.568 45.4619999,25.568 C45.4259997,25.568 45.4079999,25.5799999 45.4079999,25.604 C45.4079999,25.6280001 45.2640014,25.7179992 44.9759999,25.874 Z M72.66,10.358 L72.552,10.412 L72.444,10.394 C72.3719996,10.3819999 72.2760006,10.2560012 72.156,10.016 C72.0359994,9.7759988 71.8980007,9.54800108 71.742,9.332 C71.5859992,9.11599892 71.7419976,8.92400084 72.21,8.756 C72.6780023,8.58799916 72.8760003,8.43200072 72.804,8.288 C72.7319996,8.14399928 72.3000039,8.00000072 71.508,7.856 C70.715996,7.71199928 70.2840003,7.6100003 70.212,7.55 C70.1399996,7.4899997 70.0620004,7.35800102 69.978,7.154 C69.8939995,6.94999898 69.7620009,6.7280012 69.582,6.488 C69.4019991,6.2479988 69.7499956,6.19399934 70.626,6.326 C71.5020043,6.45800066 72.0479989,6.5539997 72.264,6.614 C72.480001,6.6740003 72.6479994,6.74599958 72.768,6.83 C72.8880006,6.91400042 73.0079994,7.03999916 73.128,7.208 C73.2480006,7.37600084 73.3319997,7.51399946 73.38,7.622 C73.4280002,7.73000054 73.6139983,8.01199772 73.938,8.468 C74.2620016,8.92400228 74.424,9.23599916 74.424,9.404 C74.424,9.57200084 74.4060001,9.6859997 74.37,9.746 C74.3339998,9.8060003 74.2500006,9.8659997 74.118,9.926 C73.9859993,9.9860003 73.8780004,10.016 73.794,10.016 C73.7099995,10.016 73.5540011,10.0639995 73.326,10.16 C73.0979988,10.2560005 72.9480003,10.304 72.876,10.304 C72.8039996,10.304 72.7320003,10.3219998 72.66,10.358 Z M71.022,22.472 L71.04,22.472 L71.04,22.454 C71.04,22.4419999 71.034,22.436 71.022,22.436 C71.0099999,22.436 71.004,22.4419999 71.004,22.454 C71.004,22.4660001 71.0099999,22.472 71.022,22.472 Z M70.986,27.44 L70.86,27.548 L70.716,27.512 C70.6199995,27.4879999 70.5540001,27.4340004 70.518,27.35 C70.4819998,27.2659996 70.3920007,27.0860014 70.248,26.81 C70.1039992,26.5339986 69.9660006,26.3180008 69.834,26.162 C69.7019993,26.0059992 69.63,25.8380009 69.618,25.658 C69.6059999,25.4779991 69.6179998,25.3400005 69.654,25.244 C69.6900001,25.1479995 69.7139999,24.8900021 69.726,24.47 C69.738,24.0499979 69.7619998,23.6780016 69.798,23.354 C69.8340001,23.0299984 69.8939995,22.6760019 69.978,22.292 C70.0620004,21.9079981 70.1339997,21.4640025 70.194,20.96 C70.2540003,20.4559975 70.2899999,19.4780073 70.302,18.026 C70.314,16.5739927 70.2720004,15.248006 70.176,14.048 C70.0799995,12.847994 69.9840004,12.044002 69.888,11.636 C69.7919995,11.227998 69.8279991,11.0299999 69.996,11.042 C70.1640008,11.0540001 70.3259992,11.0959996 70.482,11.168 C70.6380007,11.2400004 70.7819993,11.3419993 70.914,11.474 C71.0460006,11.6060007 71.1719994,11.9239975 71.292,12.428 C71.4120006,12.9320025 71.4959997,13.7719941 71.544,14.948 C71.5920002,16.1240059 71.5980001,16.9519976 71.562,17.432 C71.5259998,17.9120024 71.4660004,18.4339972 71.382,18.998 C71.2979995,19.5620028 71.25,19.844 71.238,19.844 C71.2259999,19.844 71.1900003,20.2639958 71.13,21.104 C71.0699997,21.9440042 71.0819995,22.2380013 71.166,21.986 C71.2500004,21.7339987 71.3819991,21.6139999 71.562,21.626 C71.7420009,21.6380001 71.8919994,21.6859996 72.012,21.77 C72.1320006,21.8540004 72.2219997,21.9619993 72.282,22.094 C72.3420003,22.2260007 72.2760009,22.7659953 72.084,23.714 C71.891999,24.6620047 71.7120008,25.3579978 71.544,25.802 C71.3759991,26.2460022 71.286,26.468 71.274,26.468 C71.2619999,26.468 71.2320002,26.6119986 71.184,26.9 C71.1359997,27.1880014 71.0700004,27.3679996 70.986,27.44 Z M79.338,13.472 L79.212,13.58 L79.068,13.544 C78.9719995,13.5199999 78.822001,13.3580015 78.618,13.058 C78.4139989,12.7579985 78.3000001,12.5660004 78.276,12.482 C78.2519998,12.3979996 78.1680007,12.2420011 78.024,12.014 C77.8799992,11.7859989 77.7420006,11.570001 77.61,11.366 C77.4779993,11.161999 77.4719994,11.0659999 77.592,11.078 C77.7120006,11.0900001 77.6580011,10.4060069 77.43,9.026 C77.2019988,7.6459931 76.9260016,6.54200414 76.602,5.714 C76.2779983,4.88599586 76.0620005,4.31600156 75.954,4.004 C75.8459994,3.69199844 75.8819991,3.54199994 76.062,3.554 C76.2420009,3.56600006 76.4159991,3.60799964 76.584,3.68 C76.7520008,3.75200036 76.9079992,3.86599922 77.052,4.022 C77.1960007,4.17800078 77.4899977,4.83199424 77.934,5.984 C78.3780022,7.13600576 78.7139988,8.34799364 78.942,9.62 C79.1700011,10.8920064 79.3019998,11.6959983 79.338,12.032 C79.3740001,12.3680017 79.4039998,12.5479999 79.428,12.572 C79.4520001,12.5960001 79.4699999,12.6739993 79.482,12.806 C79.494,12.9380007 79.494,13.0639994 79.482,13.184 C79.4699999,13.3040006 79.4220004,13.3999996 79.338,13.472 Z M82.794,12.644 L82.452,12.824 L82.362,12.824 C82.3019997,12.824 82.2420003,12.8060002 82.182,12.77 C82.1219997,12.7339998 82.0440004,12.6020011 81.948,12.374 C81.8519995,12.1459989 81.702001,11.8880014 81.498,11.6 C81.2939989,11.3119986 81.2819991,11.1200005 81.462,11.024 C81.6420009,10.9279995 81.8339989,10.7600012 82.038,10.52 C82.242001,10.2799988 82.4099993,10.0280013 82.542,9.764 C82.6740006,9.49999868 82.8179992,9.24200126 82.974,8.99 C83.1300007,8.73799874 83.3759983,8.32400288 83.712,7.748 C84.0480016,7.17199712 84.2759994,6.7340015 84.396,6.434 C84.5160006,6.1339985 84.6659991,5.79200192 84.846,5.408 C85.0260009,5.02399808 84.9960012,4.84999982 84.756,4.886 C84.5159988,4.92200018 84.2760012,4.96399976 84.036,5.012 C83.7959988,5.06000024 83.2920038,5.11999964 82.524,5.192 C81.7559961,5.26400036 80.8140055,5.34799952 79.698,5.444 C78.5819944,5.54000048 77.9460007,5.588 77.79,5.588 C77.6339992,5.588 77.5320002,5.59999988 77.484,5.624 C77.4359997,5.64800012 77.3520006,5.66 77.232,5.66 C77.1119994,5.66 77.0220003,5.64200018 76.962,5.606 C76.9019997,5.56999982 76.8240004,5.43800114 76.728,5.21 C76.6319995,4.98199886 76.482001,4.72400144 76.278,4.436 C76.0739989,4.14799856 76.9139905,3.93200072 78.798,3.788 C80.6820094,3.64399928 81.923997,3.52400048 82.524,3.428 C83.124003,3.33199952 83.6099981,3.27800006 83.982,3.266 C84.3540018,3.25399994 84.5999994,3.23000018 84.72,3.194 C84.8400006,3.15799982 85.1039979,3.14 85.512,3.14 C85.920002,3.14 86.1719995,3.15799982 86.268,3.194 C86.3640004,3.23000018 86.4719994,3.28399964 86.592,3.356 C86.7120006,3.42800036 86.8319994,3.54199922 86.952,3.698 C87.0720006,3.85400078 87.132,4.06399868 87.132,4.328 C87.132,4.59200132 87.0840004,4.9039982 86.988,5.264 C86.8919995,5.6240018 86.8080003,5.8639994 86.736,5.984 C86.6639996,6.1040006 86.5800004,6.18799976 86.484,6.236 C86.3879995,6.28400024 86.334,6.308 86.322,6.308 C86.3099999,6.308 86.2080009,6.52399784 86.016,6.956 C85.823999,7.38800216 85.5540017,7.90999694 85.206,8.522 C84.8579982,9.13400306 84.6720001,9.44 84.648,9.44 C84.6239998,9.44 84.5160009,9.56599874 84.324,9.818 C84.131999,10.0700013 84.03,10.196 84.018,10.196 C84.0059999,10.196 83.9640003,10.3279987 83.892,10.592 C83.8199996,10.8560013 83.778,10.988 83.766,10.988 C83.7539999,10.988 83.7060004,11.1619983 83.622,11.51 C83.5379995,11.8580017 83.4360006,12.1039993 83.316,12.248 C83.1959994,12.3920007 83.0220011,12.5239994 82.794,12.644 Z M80.634,13.76 L80.508,13.868 L80.292,13.832 C80.1479992,13.8079999 80.0580001,13.7540004 80.022,13.67 C79.9859998,13.5859996 79.9080006,13.4240012 79.788,13.184 C79.6679994,12.9439988 79.5360007,12.7340009 79.392,12.554 C79.2479992,12.3739991 79.1520002,12.2300005 79.104,12.122 C79.0559997,12.0139995 79.0619997,11.9540001 79.122,11.942 C79.1820003,11.9299999 79.2779993,11.7560017 79.41,11.42 C79.5420006,11.0839983 79.6799992,10.7840013 79.824,10.52 C79.9680007,10.2559987 79.7820025,10.2079992 79.266,10.376 C78.7499974,10.5440008 78.4680002,10.628 78.42,10.628 C78.3719997,10.628 78.2520009,10.7119992 78.06,10.88 C77.867999,11.0480008 77.7180005,11.1140002 77.61,11.078 C77.5019994,11.0419998 77.4000004,10.9100011 77.304,10.682 C77.2079995,10.4539989 77.058001,10.1960014 76.854,9.908 C76.6499989,9.61999856 76.6079994,9.40400072 76.728,9.26 C76.8480006,9.11599928 77.5859932,8.82800216 78.942,8.396 C80.2980067,7.96399784 81.0899988,7.748 81.318,7.748 C81.5460011,7.748 81.7079995,7.76599982 81.804,7.802 C81.9000004,7.83800018 82.0079994,7.89199964 82.128,7.964 C82.2480006,8.03600036 82.3679994,8.14999922 82.488,8.306 C82.6080006,8.46200078 82.668,8.63599904 82.668,8.828 C82.668,9.02000096 82.6260004,9.16999946 82.542,9.278 C82.4579995,9.38600054 82.4040001,9.44 82.38,9.44 C82.3559998,9.44 82.2780006,9.60799832 82.146,9.944 C82.0139993,10.2800017 81.8340011,10.6399981 81.606,11.024 C81.3779988,11.4080019 81.258,11.6 81.246,11.6 C81.2339999,11.6 81.1440008,11.7499985 80.976,12.05 C80.8079991,12.3500015 80.718,12.5 80.706,12.5 C80.6939999,12.5 80.682,12.5479995 80.67,12.644 C80.6579999,12.7400005 80.6699998,12.8059998 80.706,12.842 C80.7420001,12.8780002 80.7659999,12.9679993 80.778,13.112 C80.79,13.2560007 80.79,13.3819995 80.778,13.49 C80.7659999,13.5980005 80.7180004,13.6879996 80.634,13.76 Z M87.204,11.456 L87.24,11.456 L87.24,11.438 C87.24,11.4259999 87.2280001,11.42 87.204,11.42 C87.1799998,11.42 87.168,11.4259999 87.168,11.438 C87.168,11.4500001 87.1799998,11.456 87.204,11.456 Z M74.586,16.928 L74.46,17.036 L74.316,17 C74.2199995,16.9759999 74.0820009,16.7840018 73.902,16.424 C73.7219991,16.0639982 73.5660006,15.8060008 73.434,15.65 C73.3019993,15.4939992 73.23,15.3800004 73.218,15.308 C73.2059999,15.2359996 73.2539994,15.1700003 73.362,15.11 C73.4700005,15.0499997 73.721998,14.8280019 74.118,14.444 C74.5140019,14.0599981 75.0479966,13.4300044 75.72,12.554 C76.3920033,11.6779956 76.8479988,11.1620008 77.088,11.006 C77.3280012,10.8499992 77.5319991,10.772 77.7,10.772 C77.8680008,10.772 78.0059994,10.7959998 78.114,10.844 C78.2220005,10.8920002 78.3299994,10.9699995 78.438,11.078 C78.5460005,11.1860005 78.6059999,11.3119993 78.618,11.456 C78.63,11.6000007 78.6180001,11.7079996 78.582,11.78 C78.5459998,11.8520004 78.420001,11.9539993 78.204,12.086 C77.9879989,12.2180007 77.8680001,12.284 77.844,12.284 C77.8199998,12.284 77.6700013,12.4699981 77.394,12.842 C77.1179986,13.2140019 77.0339994,13.3820002 77.142,13.346 C77.2500005,13.3099998 77.5259977,13.190001 77.97,12.986 C78.4140022,12.781999 78.8219981,12.6200006 79.194,12.5 C79.5660018,12.3799994 80.0699968,12.2360008 80.706,12.068 C81.3420031,11.8999992 82.0139964,11.6900013 82.722,11.438 C83.4300035,11.1859987 84.4139937,10.9040016 85.674,10.592 C86.9340063,10.2799984 87.8159974,10.0880004 88.32,10.016 C88.8240025,9.94399964 89.1419993,9.88400024 89.274,9.836 C89.4060006,9.78799976 89.6039986,9.764 89.868,9.764 C90.1320013,9.764 90.3479991,9.79999964 90.516,9.872 C90.6840008,9.94400036 90.8399992,10.0579992 90.984,10.214 C91.1280007,10.3700008 91.2119998,10.5379991 91.236,10.718 C91.2600001,10.8980009 91.2480002,11.0479994 91.2,11.168 C91.1519997,11.2880006 91.0860004,11.3839996 91.002,11.456 C90.9179995,11.5280004 90.8640001,11.564 90.84,11.564 C90.8159998,11.564 90.6780012,11.6479992 90.426,11.816 C90.1739987,11.9840008 90.0300001,12.068 89.994,12.068 C89.9579998,12.068 89.7720016,12.169999 89.436,12.374 C89.0999983,12.578001 88.9140001,12.68 88.878,12.68 C88.8419998,12.68 88.6740015,12.7699991 88.374,12.95 C88.0739985,13.1300009 87.8760004,13.2080001 87.78,13.184 C87.6839995,13.1599999 87.5820005,13.0340011 87.474,12.806 C87.3659994,12.5779989 87.2280008,12.3440012 87.06,12.104 C86.8919991,11.8639988 86.8679994,11.6960005 86.988,11.6 C87.1080006,11.5039995 86.9880018,11.4859997 86.628,11.546 C86.2679982,11.6060003 86.0400004,11.636 85.944,11.636 C85.8479995,11.636 85.5540024,11.7019993 85.062,11.834 C84.5699975,11.9660007 84.3000002,12.032 84.252,12.032 C84.2039997,12.032 84.0300015,12.0979993 83.73,12.23 C83.4299985,12.3620007 83.1180016,12.4939993 82.794,12.626 C82.4699983,12.7580007 81.8760043,12.9379989 81.012,13.166 C80.1479956,13.3940011 79.6920002,13.508 79.644,13.508 C79.5959997,13.508 79.5000007,13.5799993 79.356,13.724 C79.2119992,13.8680007 79.1280001,13.94 79.104,13.94 C79.0799998,13.94 79.0140005,13.9939995 78.906,14.102 C78.7979994,14.2100005 78.6600008,14.3179995 78.492,14.426 C78.3239991,14.5340005 78.2220001,14.588 78.186,14.588 C78.1499998,14.588 78.0480008,14.6359995 77.88,14.732 C77.7119991,14.8280005 77.6100001,14.876 77.574,14.876 C77.5379998,14.876 77.418001,14.9299995 77.214,15.038 C77.0099989,15.1460005 76.8900001,15.2 76.854,15.2 C76.8179998,15.2 76.6260017,15.3259987 76.278,15.578 C75.9299982,15.8300013 75.7440001,15.956 75.72,15.956 C75.6959998,15.956 75.6180006,16.0399992 75.486,16.208 C75.3539993,16.3760008 75.2160007,16.5019996 75.072,16.586 C74.9279992,16.6700004 74.8440001,16.712 74.82,16.712 C74.7959998,16.712 74.7720001,16.7299998 74.748,16.766 C74.7239998,16.8020002 74.6700004,16.8559996 74.586,16.928 Z M81.21,29.6 L81.084,29.708 L80.904,29.69 C80.7839994,29.6779999 80.6700005,29.6180005 80.562,29.51 C80.4539994,29.4019995 80.3280007,29.1980015 80.184,28.898 C80.0399992,28.5979985 79.8780009,28.3280012 79.698,28.088 C79.5179991,27.8479988 79.422,27.5900014 79.41,27.314 C79.3979999,27.0379986 79.3740001,26.8160008 79.338,26.648 C79.3019998,26.4799992 79.278,26.0840031 79.266,25.46 C79.2539999,24.8359969 79.2659998,24.3920013 79.302,24.128 C79.3380001,23.8639987 79.3619999,23.0540068 79.374,21.698 C79.386,20.3419932 79.4399995,19.2020046 79.536,18.278 C79.6320004,17.3539954 79.7519992,16.7060019 79.896,16.334 C80.0400007,15.9619981 80.2439986,15.7999998 80.508,15.848 C80.7720013,15.8960002 80.9579994,15.9619996 81.066,16.046 C81.1740005,16.1300004 81.2879994,16.2619991 81.408,16.442 C81.5280006,16.6220009 81.588,16.807999 81.588,17 C81.588,17.192001 81.5640002,17.3179997 81.516,17.378 C81.4679997,17.4380003 81.4020004,17.468 81.318,17.468 C81.2339995,17.468 81.1380005,17.5399993 81.03,17.684 C80.9219994,17.8280007 80.862,17.9 80.85,17.9 C80.8379999,17.9 80.7660006,18.3319957 80.634,19.196 C80.5019993,20.0600043 80.3760006,20.7199977 80.256,21.176 C80.1359994,21.6320023 80.07,21.86 80.058,21.86 C80.0459999,21.86 80.0699997,22.4839938 80.13,23.732 C80.1900003,24.9800062 80.2499997,25.8319977 80.31,26.288 C80.3700003,26.7440023 80.4419995,26.9839999 80.526,27.008 C80.6100004,27.0320001 80.7119994,27.0799996 80.832,27.152 C80.9520006,27.2240004 81.0719994,27.3379992 81.192,27.494 C81.3120006,27.6500008 81.3779999,27.9739975 81.39,28.466 C81.402,28.9580025 81.3960001,29.2519995 81.372,29.348 C81.3479998,29.4440005 81.2940004,29.5279996 81.21,29.6 Z M84.936,31.868 L84.684,32.012 L84.594,32.012 C84.5339997,32.012 84.4440006,31.9820003 84.324,31.922 C84.2039994,31.8619997 84.1140003,31.7960004 84.054,31.724 C83.9939997,31.6519996 83.8980006,31.5680005 83.766,31.472 C83.6339993,31.3759995 83.4960007,31.1780015 83.352,30.878 C83.2079992,30.5779985 83.0700006,30.3500008 82.938,30.194 C82.8059993,30.0379992 82.6200012,29.6960026 82.38,29.168 C82.1399988,28.6399974 82.0919992,28.376 82.236,28.376 C82.3800007,28.376 82.5179993,28.3999998 82.65,28.448 C82.7820006,28.4960002 82.9259992,28.6039992 83.082,28.772 C83.2380007,28.9400008 83.3999991,29.1919983 83.568,29.528 C83.7360008,29.8640017 83.8679995,29.828002 83.964,29.42 C84.0600004,29.011998 84.1139999,27.7340107 84.126,25.586 C84.138,23.4379893 84.1260001,22.1480022 84.09,21.716 C84.0539998,21.2839978 83.9640007,20.6480042 83.82,19.808 C83.6759992,18.9679958 83.4780012,17.9360061 83.226,16.712 C82.9739987,15.4879939 82.8180003,14.876 82.758,14.876 C82.6979997,14.876 82.6380003,14.8939998 82.578,14.93 C82.5179997,14.9660002 82.4700001,14.984 82.434,14.984 C82.3979998,14.984 82.2300015,15.3379965 81.93,16.046 C81.6299985,16.7540035 81.4380004,17.1439996 81.354,17.216 C81.2699995,17.2880004 81.1800004,17.3120001 81.084,17.288 C80.9879995,17.2639999 80.9220001,17.2100004 80.886,17.126 C80.8499998,17.0419996 80.7480008,16.8440016 80.58,16.532 C80.4119991,16.2199984 80.2680006,15.9980007 80.148,15.866 C80.0279994,15.7339993 80.1359983,15.2780039 80.472,14.498 C80.8080016,13.7179961 81.173998,13.2860004 81.57,13.202 C81.9660019,13.1179996 82.2959986,13.076 82.56,13.076 C82.8240013,13.076 83.0399991,13.1119996 83.208,13.184 C83.3760008,13.2560004 83.5319992,13.3699992 83.676,13.526 C83.8200007,13.6820008 83.9459994,13.9099985 84.054,14.21 C84.1620005,14.5100015 84.2339998,14.8399982 84.27,15.2 C84.3060001,15.5600018 84.3659995,16.1479959 84.45,16.964 C84.5340004,17.7800041 84.5879998,18.5179967 84.612,19.178 C84.6360001,19.8380033 84.6719997,20.269999 84.72,20.474 C84.7680002,20.678001 84.8219997,21.1159966 84.882,21.788 C84.9420003,22.4600034 84.9839998,23.4619933 85.008,24.794 C85.0320001,26.1260067 85.0919995,27.1639963 85.188,27.908 C85.2840004,28.6520037 85.3379999,29.1799984 85.35,29.492 C85.362,29.8040016 85.362,29.96 85.35,29.96 C85.3379999,29.96 85.3439998,30.055999 85.368,30.248 C85.3920001,30.440001 85.404,30.6679987 85.404,30.932 C85.404,31.1960013 85.3680003,31.3939993 85.296,31.526 C85.2239996,31.6580007 85.1040008,31.7719995 84.936,31.868 Z M80.886,22.022 L80.58,22.184 L80.418,22.148 C80.3099994,22.1239999 80.1960006,21.9800013 80.076,21.716 C79.9559994,21.4519987 79.8180007,21.218001 79.662,21.014 C79.5059992,20.809999 79.5059992,20.6600005 79.662,20.564 C79.8180007,20.4679995 80.0759982,20.3840004 80.436,20.312 C80.7960018,20.2399996 81.3059967,20.1200008 81.966,19.952 C82.6260033,19.7839992 82.9979995,19.6760002 83.082,19.628 C83.1660004,19.5799998 83.3579985,19.556 83.658,19.556 C83.9580015,19.556 84.1559995,19.5739998 84.252,19.61 C84.3480004,19.6460002 84.4559994,19.6999996 84.576,19.772 C84.6960006,19.8440004 84.8159994,19.9579992 84.936,20.114 C85.0560006,20.2700008 85.116,20.443999 85.116,20.636 C85.116,20.828001 85.0800003,20.9659996 85.008,21.05 C84.9359996,21.1340004 84.8100009,21.176 84.63,21.176 C84.4499991,21.176 84.3300003,21.1460003 84.27,21.086 C84.2099997,21.0259997 83.9460023,21.0619993 83.478,21.194 C83.0099976,21.3260007 82.7520002,21.392 82.704,21.392 C82.6559997,21.392 82.530001,21.4339996 82.326,21.518 C82.1219989,21.6020004 81.9900003,21.644 81.93,21.644 C81.8699997,21.644 81.8160002,21.6619998 81.768,21.698 C81.7199997,21.7340002 81.6660003,21.752 81.606,21.752 C81.5459997,21.752 81.4860003,21.7699998 81.426,21.806 C81.3659997,21.8420002 81.3120002,21.86 81.264,21.86 C81.2159997,21.86 81.090001,21.9139995 80.886,22.022 Z M81.21,25.604 L80.508,25.892 L80.364,25.856 C80.2679995,25.8319999 80.1840003,25.7300009 80.112,25.55 C80.0399996,25.3699991 79.9080009,25.1420014 79.716,24.866 C79.523999,24.5899986 79.4879994,24.3800007 79.608,24.236 C79.7280006,24.0919993 79.8719991,24.02 80.04,24.02 C80.2080008,24.02 80.3459994,24.0439998 80.454,24.092 C80.5620005,24.1400002 81.0299958,24.0440012 81.858,23.804 C82.6860041,23.5639988 83.1659993,23.3960005 83.298,23.3 C83.4300006,23.2039995 83.5559994,23.1500001 83.676,23.138 C83.7960006,23.1259999 83.856,23.0960002 83.856,23.048 C83.856,22.9999998 83.9459991,22.9819999 84.126,22.994 C84.3060009,23.0060001 84.4439995,23.0299998 84.54,23.066 C84.6360004,23.1020002 84.7439994,23.1559996 84.864,23.228 C84.9840006,23.3000004 85.1039994,23.4139992 85.224,23.57 C85.3440006,23.7260008 85.404,23.9239988 85.404,24.164 C85.404,24.4040012 85.3680003,24.5719995 85.296,24.668 C85.2239996,24.7640005 85.0560013,24.8779993 84.792,25.01 C84.5279986,25.1420007 84.3780001,25.208 84.342,25.208 C84.3059998,25.208 84.2100007,25.2619995 84.054,25.37 C83.8979992,25.4780005 83.7060011,25.5739996 83.478,25.658 C83.2499988,25.7420004 83.0220011,25.784 82.794,25.784 C82.5659988,25.784 82.4100004,25.7420004 82.326,25.658 C82.2419995,25.5739996 82.1880001,25.4900004 82.164,25.406 C82.1399998,25.3219996 82.1160001,25.2859999 82.092,25.298 C82.0679998,25.3100001 82.0320002,25.316 81.984,25.316 C81.9359997,25.316 81.6780023,25.411999 81.21,25.604 Z M110.964,10.106 C111.348002,9.87799886 111.558,9.764 111.594,9.764 C111.63,9.764 111.767999,9.7040006 112.008,9.584 C112.248001,9.4639994 112.41,9.35600048 112.494,9.26 C112.578,9.16399952 112.62,9.02000096 112.62,8.828 C112.62,8.63599904 112.560001,8.46200078 112.44,8.306 C112.319999,8.14999922 112.200001,8.03600036 112.08,7.964 C111.959999,7.89199964 111.852,7.83800018 111.756,7.802 C111.66,7.76599982 111.252004,7.71200036 110.532,7.64 C109.811996,7.56799964 109.056004,7.46600066 108.264,7.334 C107.471996,7.20199934 107.022001,7.136 106.914,7.136 C106.805999,7.136 106.734,7.35799778 106.698,7.802 C106.662,8.24600222 106.745999,8.61199856 106.95,8.9 C107.154001,9.18800144 107.304,9.44599886 107.4,9.674 C107.496,9.90200114 107.597999,10.0339998 107.706,10.07 C107.814001,10.1060002 107.91,10.0880004 107.994,10.016 C108.078,9.94399964 108.144,9.74000168 108.192,9.404 C108.24,9.06799832 108.437998,8.92399976 108.786,8.972 C109.134002,9.02000024 109.403999,9.18799856 109.596,9.476 C109.788001,9.76400144 109.914,9.98599922 109.974,10.142 C110.034,10.2980008 110.117999,10.3879999 110.226,10.412 L110.388,10.448 L110.964,10.106 Z M109.83,15.128 L109.848,15.128 L109.848,15.11 C109.848,15.0979999 109.842,15.092 109.83,15.092 C109.818,15.092 109.812,15.0979999 109.812,15.11 C109.812,15.1220001 109.818,15.128 109.83,15.128 Z M107.382,22.4 L107.4,22.4 L107.4,22.382 C107.4,22.3699999 107.394,22.364 107.382,22.364 C107.37,22.364 107.364,22.3699999 107.364,22.382 C107.364,22.3940001 107.37,22.4 107.382,22.4 Z M112.314,24.992 L112.188,25.1 L112.044,25.064 C111.948,25.0399999 111.882,24.9860004 111.846,24.902 C111.81,24.8179996 111.720001,24.6380014 111.576,24.362 C111.431999,24.0859986 111.294001,23.8700008 111.162,23.714 C111.029999,23.5579992 110.958,23.1860029 110.946,22.598 C110.934,22.0099971 110.712002,21.8899983 110.28,22.238 C109.847998,22.5860017 109.62,22.76 109.596,22.76 C109.572,22.76 109.518,22.8019996 109.434,22.886 C109.35,22.9700004 109.296,23.012 109.272,23.012 C109.248,23.012 109.158001,23.0779993 109.002,23.21 C108.845999,23.3420007 108.756,23.408 108.732,23.408 C108.708,23.408 108.636001,23.4679994 108.516,23.588 C108.395999,23.7080006 108.324,23.768 108.3,23.768 C108.276,23.768 108.222,23.8159995 108.138,23.912 C108.054,24.0080005 108,24.056 107.976,24.056 C107.952,24.056 107.832001,24.1699989 107.616,24.398 C107.399999,24.6260011 107.196001,24.7999994 107.004,24.92 C106.811999,25.0400006 106.644001,25.0880001 106.5,25.064 C106.355999,25.0399999 106.266,24.9860004 106.23,24.902 C106.194,24.8179996 106.092001,24.6200016 105.924,24.308 C105.755999,23.9959984 105.612001,23.7740007 105.492,23.642 C105.371999,23.5099993 105.33,23.3540009 105.366,23.174 C105.402,22.9939991 105.575998,22.6460026 105.888,22.13 C106.200002,21.6139974 106.529998,21.0980026 106.878,20.582 C107.226002,20.0659974 107.519999,19.5440026 107.76,19.016 C108.000001,18.4879974 108.257999,17.9960023 108.534,17.54 C108.810001,17.0839977 109.091999,16.5680029 109.38,15.992 C109.668001,15.4159971 109.740001,15.1699996 109.596,15.254 C109.451999,15.3380004 109.260001,15.4519993 109.02,15.596 C108.779999,15.7400007 108.642,15.812 108.606,15.812 C108.57,15.812 108.276003,15.9439987 107.724,16.208 C107.171997,16.4720013 106.878,16.604 106.842,16.604 C106.806,16.604 106.692001,16.6579995 106.5,16.766 C106.307999,16.8740005 105.936003,16.9699996 105.384,17.054 C104.831997,17.1380004 104.316002,17.2159996 103.836,17.288 C103.355998,17.3600004 103.068,17.396 102.972,17.396 C102.876,17.396 102.81,17.4079999 102.774,17.432 C102.738,17.4560001 102.69,17.468 102.63,17.468 C102.57,17.468 102.51,17.4500002 102.45,17.414 C102.39,17.3779998 102.312,17.2460011 102.216,17.018 C102.12,16.7899989 101.970001,16.5320014 101.766,16.244 C101.561999,15.9559986 101.687998,15.5720024 102.144,15.092 C102.600002,14.6119976 102.923999,14.372 103.116,14.372 C103.308001,14.372 103.487999,14.4079996 103.656,14.48 C103.824001,14.5520004 103.985999,14.6719992 104.142,14.84 C104.298001,15.0080008 104.382,15.1459995 104.394,15.254 C104.406,15.3620005 104.501999,15.4040001 104.682,15.38 C104.862001,15.3559999 105.365996,15.1700017 106.194,14.822 C107.022004,14.4739983 107.789996,14.102002 108.498,13.706 C109.206004,13.309998 109.757998,12.9560016 110.154,12.644 C110.550002,12.3319984 110.813999,12.1400004 110.946,12.068 C111.078001,11.9959996 111.174,11.9300003 111.234,11.87 C111.294,11.8099997 111.419999,11.78 111.612,11.78 C111.804001,11.78 111.948,11.7979998 112.044,11.834 C112.14,11.8700002 112.247999,11.9239996 112.368,11.996 C112.488001,12.0680004 112.607999,12.1819992 112.728,12.338 C112.848001,12.4940008 112.908,12.6919988 112.908,12.932 C112.908,13.1720012 112.872,13.3459995 112.8,13.454 C112.728,13.5620005 112.626001,13.7059991 112.494,13.886 C112.361999,14.0660009 112.29,14.156 112.278,14.156 C112.266,14.156 112.248,14.1859997 112.224,14.246 C112.2,14.3060003 112.182,14.336 112.17,14.336 C112.158,14.336 112.128,14.3839995 112.08,14.48 C112.032,14.5760005 112.002,14.624 111.99,14.624 C111.978,14.624 111.96,14.6539997 111.936,14.714 C111.912,14.7740003 111.732002,15.0619974 111.396,15.578 C111.059998,16.0940026 110.736002,16.5319982 110.424,16.892 C110.111998,17.2520018 109.95,17.432 109.938,17.432 C109.926,17.432 109.836001,17.5759986 109.668,17.864 C109.499999,18.1520014 109.41,18.296 109.398,18.296 C109.386,18.296 109.332,18.3799992 109.236,18.548 C109.14,18.7160008 109.086,18.8 109.074,18.8 C109.062,18.8 108.918001,19.1239968 108.642,19.772 C108.365999,20.4200032 108.222,20.744 108.21,20.744 C108.198,20.744 108.15,20.8339991 108.066,21.014 C107.982,21.1940009 107.934,21.284 107.922,21.284 C107.91,21.284 107.832001,21.4339985 107.688,21.734 C107.543999,22.0340015 107.466,22.184 107.454,22.184 C107.442,22.184 107.43,22.2139997 107.418,22.274 C107.406,22.3340003 107.681997,22.1960017 108.246,21.86 C108.810003,21.5239983 109.205999,21.260001 109.434,21.068 C109.662001,20.875999 109.937998,20.6540013 110.262,20.402 C110.586002,20.1499987 110.754,19.9880004 110.766,19.916 C110.778,19.8439996 110.766,19.7840002 110.73,19.736 C110.694,19.6879998 110.67,19.5920007 110.658,19.448 C110.646,19.3039993 110.777999,19.2379999 111.054,19.25 C111.330001,19.2620001 111.599999,19.3279994 111.864,19.448 C112.128001,19.5680006 112.337999,19.7119992 112.494,19.88 C112.650001,20.0480008 112.734,20.1979993 112.746,20.33 C112.758,20.4620007 112.758,20.6059992 112.746,20.762 C112.734,20.9180008 112.68,21.0379996 112.584,21.122 C112.488,21.2060004 112.428,21.248 112.404,21.248 C112.38,21.248 112.368,21.3139993 112.368,21.446 C112.368,21.5780007 112.386,21.7039994 112.422,21.824 C112.458,21.9440006 112.482,22.4359957 112.494,23.3 C112.506,24.1640043 112.5,24.6439995 112.476,24.74 C112.452,24.8360005 112.398,24.9199996 112.314,24.992 Z M118.92,12.896 L118.956,12.896 L119.55,12.77 C119.946002,12.6859996 120.126,12.3680028 120.09,11.816 C120.054,11.2639972 119.970001,10.988 119.838,10.988 C119.705999,10.988 119.616,10.9999999 119.568,11.024 C119.52,11.0480001 119.472,11.06 119.424,11.06 C119.376,11.06 119.328,11.1019996 119.28,11.186 C119.232,11.2700004 119.202,11.312 119.19,11.312 C119.178,11.312 119.154,11.3959992 119.118,11.564 C119.082,11.7320008 119.058,11.816 119.046,11.816 C119.034,11.816 119.004,11.9959982 118.956,12.356 C118.908,12.7160018 118.896,12.896 118.92,12.896 Z M119.784,16.01 L119.928,16.28 L119.946,16.136 C119.958,16.0399995 119.994,15.6380035 120.054,14.93 C120.114,14.2219965 119.994002,13.9099996 119.694,13.994 C119.393999,14.0780004 119.226,14.12 119.19,14.12 C119.154,14.12 119.136,14.1559996 119.136,14.228 C119.136,14.3000004 119.219999,14.5699977 119.388,15.038 C119.556001,15.5060023 119.688,15.8299991 119.784,16.01 Z M122.808,21.266 L122.88,21.284 L122.988,21.122 C123.06,21.0139995 123.293998,20.7320023 123.69,20.276 C124.086002,19.8199977 124.433999,19.3460025 124.734,18.854 C125.034002,18.3619975 125.435997,17.5940052 125.94,16.55 C126.444003,15.5059948 126.797999,14.6900029 127.002,14.102 C127.206001,13.5139971 127.338,12.8780034 127.398,12.194 C127.458,11.5099966 127.356001,11.1979997 127.092,11.258 C126.827999,11.3180003 126.672,11.348 126.624,11.348 C126.576,11.348 126.264003,11.4559989 125.688,11.672 C125.111997,11.8880011 124.638002,12.0259997 124.266,12.086 C123.893998,12.1460003 123.672,12.176 123.6,12.176 C123.528,12.176 123.456,12.1939998 123.384,12.23 C123.312,12.2660002 123.258,12.284 123.222,12.284 C123.186,12.284 123.132,12.3079998 123.06,12.356 C122.988,12.4040002 122.934,12.428 122.898,12.428 C122.862,12.428 122.796,12.4579997 122.7,12.518 C122.604,12.5780003 122.532,12.608 122.484,12.608 C122.436,12.608 122.394,12.6259998 122.358,12.662 C122.322,12.6980002 122.28,12.716 122.232,12.716 C122.184,12.716 122.100001,12.7819993 121.98,12.914 C121.859999,13.0460007 121.788,13.112 121.764,13.112 C121.74,13.112 121.644001,13.1959992 121.476,13.364 C121.307999,13.5320008 121.218,13.616 121.206,13.616 C121.194,13.616 121.17,13.7239989 121.134,13.94 C121.098,14.1560011 121.074,14.264 121.062,14.264 C121.05,14.264 121.014,14.4919977 120.954,14.948 C120.894,15.4040023 120.858,15.632 120.846,15.632 C120.834,15.632 120.81,15.7819985 120.774,16.082 C120.738,16.3820015 120.714,16.532 120.702,16.532 C120.69,16.532 120.66,16.6999983 120.612,17.036 C120.564,17.3720017 120.605999,17.6599988 120.738,17.9 C120.870001,18.1400012 120.966,18.3379992 121.026,18.494 C121.086,18.6500008 121.217999,18.8839984 121.422,19.196 C121.626001,19.5080016 121.871999,19.8799978 122.16,20.312 C122.448001,20.7440022 122.616,21.0079995 122.664,21.104 C122.712,21.2000005 122.76,21.2539999 122.808,21.266 Z M117.606,31.292 L117.516,31.364 L117.408,31.328 C117.336,31.3039999 117.258,31.2020009 117.174,31.022 C117.09,30.8419991 116.994001,30.6860007 116.886,30.554 C116.777999,30.4219993 116.718,30.2480011 116.706,30.032 C116.694,29.8159989 116.724,29.5880012 116.796,29.348 C116.868,29.1079988 117.029999,28.4120058 117.282,27.26 C117.534001,26.1079942 117.785999,25.1480038 118.038,24.38 C118.290001,23.6119962 118.541999,22.724005 118.794,21.716 C119.046001,20.707995 119.267999,19.7180049 119.46,18.746 C119.652001,17.7739951 119.610001,17.0180027 119.334,16.478 C119.057999,15.9379973 118.836001,15.4400023 118.668,14.984 C118.499999,14.5279977 118.092003,14.3719993 117.444,14.516 C116.795997,14.6600007 116.418001,14.732 116.31,14.732 C116.201999,14.732 115.962002,14.6240011 115.59,14.408 C115.217998,14.1919989 114.978001,13.9700011 114.87,13.742 C114.761999,13.5139989 114.630001,13.2920011 114.474,13.076 C114.317999,12.8599989 114.371999,12.7759998 114.636,12.824 C114.900001,12.8720002 115.139999,12.9619993 115.356,13.094 C115.572001,13.2260007 115.865998,13.2979999 116.238,13.31 C116.610002,13.3220001 116.999998,13.2860004 117.408,13.202 C117.816002,13.1179996 117.996,12.9860009 117.948,12.806 C117.9,12.6259991 117.87,12.134004 117.858,11.33 C117.846,10.525996 117.882,10.0400008 117.966,9.872 C118.05,9.70399916 118.157999,9.57200048 118.29,9.476 C118.422001,9.37999952 118.685998,9.332 119.082,9.332 C119.478002,9.332 119.724,9.34999982 119.82,9.386 C119.916,9.42200018 120.029999,9.47599964 120.162,9.548 C120.294001,9.62000036 120.384,9.6859997 120.432,9.746 C120.48,9.8060003 120.557999,9.87199964 120.666,9.944 C120.774001,10.0160004 120.881999,10.1239993 120.99,10.268 C121.098001,10.4120007 121.182,10.6339985 121.242,10.934 C121.302,11.2340015 121.332,11.5099987 121.332,11.762 C121.332,12.0140013 121.368,12.1280001 121.44,12.104 C121.512,12.0799999 121.829997,11.8940017 122.394,11.546 C122.958003,11.1979983 123.659996,10.8080022 124.5,10.376 C125.340004,9.94399784 125.873999,9.68600042 126.102,9.602 C126.330001,9.51799958 126.569999,9.476 126.822,9.476 C127.074001,9.476 127.319999,9.51799958 127.56,9.602 C127.800001,9.68600042 127.997999,9.7879994 128.154,9.908 C128.310001,10.0280006 128.471999,10.189999 128.64,10.394 C128.808001,10.598001 128.892,10.795999 128.892,10.988 C128.892,11.180001 128.868,11.3119996 128.82,11.384 C128.772,11.4560004 128.736,11.492 128.712,11.492 C128.688,11.492 128.688,11.5579993 128.712,11.69 C128.736,11.8220007 128.724,12.091998 128.676,12.5 C128.628,12.908002 128.562,13.2919982 128.478,13.652 C128.394,14.0120018 128.346,14.192 128.334,14.192 C128.322,14.192 128.190001,14.4019979 127.938,14.822 C127.685999,15.2420021 127.554,15.452 127.542,15.452 C127.53,15.452 127.434001,15.6679978 127.254,16.1 C127.073999,16.5320022 126.978,16.748 126.966,16.748 C126.954,16.748 126.93,16.8079994 126.894,16.928 C126.858,17.0480006 126.684002,17.4259968 126.372,18.062 C126.059998,18.6980032 125.898,19.016 125.886,19.016 C125.874,19.016 125.802001,19.1659985 125.67,19.466 C125.537999,19.7660015 125.376001,20.0959982 125.184,20.456 C124.991999,20.8160018 124.89,20.996 124.878,20.996 C124.866,20.996 124.842,21.0379996 124.806,21.122 C124.77,21.2060004 124.746,21.248 124.734,21.248 C124.722,21.248 124.698,21.2899996 124.662,21.374 C124.626,21.4580004 124.602,21.5 124.59,21.5 C124.578,21.5 124.518001,21.6139989 124.41,21.842 C124.301999,22.0700011 124.242,22.184 124.23,22.184 C124.218,22.184 124.17,22.3219986 124.086,22.598 C124.002,22.8740014 123.918,23.0479996 123.834,23.12 C123.75,23.1920004 123.588001,23.1860004 123.348,23.102 C123.107999,23.0179996 122.892001,22.8500013 122.7,22.598 C122.507999,22.3459987 122.352001,22.118001 122.232,21.914 C122.111999,21.709999 122.04,21.5780003 122.016,21.518 C121.992,21.4579997 121.926001,21.3500008 121.818,21.194 C121.709999,21.0379992 121.422002,20.5460041 120.954,19.718 C120.485998,18.8899959 120.24,18.5359994 120.216,18.656 C120.192,18.7760006 120.174,18.836 120.162,18.836 C120.15,18.836 120.126,18.9259991 120.09,19.106 C120.054,19.2860009 120.03,19.376 120.018,19.376 C120.006,19.376 119.982,19.4599992 119.946,19.628 C119.91,19.7960008 119.886,19.88 119.874,19.88 C119.862,19.88 119.814,20.0599982 119.73,20.42 C119.646,20.7800018 119.478001,21.4459951 119.226,22.418 C118.973999,23.3900049 118.842,23.876 118.83,23.876 C118.818,23.876 118.8,23.9479993 118.776,24.092 C118.752,24.2360007 118.674001,24.5299978 118.542,24.974 C118.409999,25.4180022 118.338,25.64 118.326,25.64 C118.314,25.64 118.242001,26.1559948 118.11,27.188 C117.977999,28.2200052 117.858001,28.9939974 117.75,29.51 C117.641999,30.0260026 117.582,30.284 117.57,30.284 C117.558,30.284 117.576,30.3619992 117.624,30.518 C117.672,30.6740008 117.696,30.8299992 117.696,30.986 C117.696,31.1420008 117.666,31.2439998 117.606,31.292 Z M151.734,4.292 L151.788,4.292 L152.076,4.22 C152.268001,4.17199976 152.34,4.12400024 152.292,4.076 C152.244,4.02799976 152.166001,3.89600108 152.058,3.68 C151.949999,3.46399892 151.878,3.34400012 151.842,3.32 C151.806,3.29599988 151.788,3.3139997 151.788,3.374 C151.788,3.4340003 151.782,3.464 151.77,3.464 C151.758,3.464 151.74,3.60199862 151.716,3.878 C151.692,4.15400138 151.698,4.292 151.734,4.292 Z M150.33,5.804 L150.348,5.804 L150.348,5.786 C150.348,5.77399994 150.342,5.768 150.33,5.768 C150.318,5.768 150.312,5.77399994 150.312,5.786 C150.312,5.79800006 150.318,5.804 150.33,5.804 Z M151.23,14.516 L151.104,14.624 L150.96,14.588 C150.864,14.5639999 150.78,14.4920006 150.708,14.372 C150.636,14.2519994 150.558,14.090001 150.474,13.886 C150.39,13.681999 150.264001,13.478001 150.096,13.274 C149.927999,13.069999 149.838,12.9380003 149.826,12.878 C149.814,12.8179997 149.79,12.7700002 149.754,12.734 C149.718,12.6979998 149.694,12.584001 149.682,12.392 C149.67,12.199999 149.646,12.0440006 149.61,11.924 C149.574,11.8039994 149.526,11.3900035 149.466,10.682 C149.406,9.97399646 149.465999,9.63199988 149.646,9.656 C149.826001,9.68000012 149.964,9.43400258 150.06,8.918 C150.156001,8.40199742 150.222,7.7540039 150.258,6.974 C150.294,6.1939961 150.216001,5.80999994 150.024,5.822 C149.831999,5.83400006 149.622001,5.84 149.394,5.84 C149.165999,5.84 149.04,5.85199988 149.016,5.876 C148.992,5.90000012 148.938,5.912 148.854,5.912 C148.77,5.912 148.722,5.94799964 148.71,6.02 C148.698,6.09200036 148.656,6.1579997 148.584,6.218 C148.512,6.2780003 148.44,6.308 148.368,6.308 C148.296,6.308 148.032002,6.2480006 147.576,6.128 C147.119998,6.0079994 146.856,5.8580009 146.784,5.678 C146.712,5.4979991 146.580001,5.27000138 146.388,4.994 C146.195999,4.71799862 146.813993,4.55600024 148.242,4.508 C149.670007,4.45999976 150.384,3.83000606 150.384,2.618 C150.384,1.40599394 150.473999,0.80599994 150.654,0.818 C150.834001,0.83000006 151.013999,0.87199964 151.194,0.944 C151.374001,1.01600036 151.529999,1.11799934 151.662,1.25 C151.794001,1.38200066 151.902,1.5379991 151.986,1.718 C152.07,1.8980009 152.142,2.0179997 152.202,2.078 C152.262,2.1380003 152.334,2.25199916 152.418,2.42 C152.502,2.58800084 152.849997,2.672 153.462,2.672 C154.074003,2.672 154.457999,2.68999982 154.614,2.726 C154.770001,2.76200018 155.033998,2.79199988 155.406,2.816 C155.778002,2.84000012 156.125998,2.9119994 156.45,3.032 C156.774002,3.1520006 157.013999,3.29599916 157.17,3.464 C157.326001,3.63200084 157.41,3.78199934 157.422,3.914 C157.434,4.04600066 157.434,4.1719994 157.422,4.292 C157.41,4.4120006 157.362,4.50799964 157.278,4.58 C157.194,4.65200036 157.098001,4.688 156.99,4.688 C156.881999,4.688 156.798,4.67000018 156.738,4.634 C156.678,4.59799982 156.504001,4.57400006 156.216,4.562 C155.927999,4.54999994 155.706001,4.59799946 155.55,4.706 C155.393999,4.81400054 154.764006,4.99999868 153.66,5.264 C152.555995,5.52800132 151.932001,5.66 151.788,5.66 C151.643999,5.66 151.572,5.68399976 151.572,5.732 C151.572,5.78000024 151.566,5.804 151.554,5.804 C151.542,5.804 151.524,5.94199862 151.5,6.218 C151.476,6.49400138 151.458,6.632 151.446,6.632 C151.434,6.632 151.416,6.76399868 151.392,7.028 C151.368,7.29200132 151.35,7.424 151.338,7.424 C151.326,7.424 151.308,7.54999874 151.284,7.802 C151.26,8.05400126 151.242,8.18 151.23,8.18 C151.218,8.18 151.188,8.4199976 151.14,8.9 C151.092,9.3800024 151.062,9.62 151.05,9.62 C151.038,9.62 151.032,9.78199838 151.032,10.106 C151.032,10.4300016 151.026,10.592 151.014,10.592 C151.002,10.592 151.014,10.8859971 151.05,11.474 C151.086,12.0620029 151.157999,12.5839977 151.266,13.04 C151.374001,13.4960023 151.416,13.8379989 151.392,14.066 C151.368,14.2940011 151.314,14.4439996 151.23,14.516 Z M141.708,16.64 L141.492,16.784 L141.42,16.784 C141.372,16.784 141.312,16.7540003 141.24,16.694 C141.168,16.6339997 141.09,16.502001 141.006,16.298 C140.922,16.093999 140.790001,15.8660013 140.61,15.614 C140.429999,15.3619987 140.346,15.2180002 140.358,15.182 C140.37,15.1459998 140.603998,14.9660016 141.06,14.642 C141.516002,14.3179984 142.001997,13.9940016 142.518,13.67 C143.034003,13.3459984 143.585997,12.9680022 144.174,12.536 C144.762003,12.1039978 145.241998,11.7260016 145.614,11.402 C145.986002,11.0779984 146.699995,10.418005 147.756,9.422 C148.812005,8.42599502 149.675997,7.56200366 150.348,6.83 C151.020003,6.09799634 151.439999,5.732 151.608,5.732 C151.776001,5.732 151.931999,5.7619997 152.076,5.822 C152.220001,5.8820003 152.363999,5.98999922 152.508,6.146 C152.652001,6.30200078 152.724,6.4699991 152.724,6.65 C152.724,6.8300009 152.616001,7.02799892 152.4,7.244 C152.183999,7.46000108 152.064,7.568 152.04,7.568 C152.016,7.568 151.950001,7.62199946 151.842,7.73 C151.733999,7.83800054 151.668,7.892 151.644,7.892 C151.62,7.892 151.524001,7.96999922 151.356,8.126 C151.187999,8.28200078 151.092,8.36 151.068,8.36 C151.044,8.36 151.002,8.39599964 150.942,8.468 C150.882,8.54000036 150.84,8.576 150.816,8.576 C150.792,8.576 150.702001,8.64799928 150.546,8.792 C150.389999,8.93600072 150.3,9.008 150.276,9.008 C150.252,9.008 150.126001,9.11599892 149.898,9.332 C149.669999,9.54800108 149.544,9.656 149.52,9.656 C149.496,9.656 149.400001,9.73399922 149.232,9.89 C149.063999,10.0460008 148.902001,10.1839994 148.746,10.304 C148.589999,10.4240006 148.344002,10.6279986 148.008,10.916 C147.671998,11.2040014 147.384001,11.4139993 147.144,11.546 C146.903999,11.6780007 146.76,11.744 146.712,11.744 C146.664,11.744 146.634,11.7559999 146.622,11.78 C146.61,11.8040001 146.586,11.816 146.55,11.816 C146.514,11.816 146.484,11.8339998 146.46,11.87 C146.436,11.9060002 146.406,11.924 146.37,11.924 C146.334,11.924 146.196001,11.9899993 145.956,12.122 C145.715999,12.2540007 145.584,12.32 145.56,12.32 C145.536,12.32 145.422001,12.415999 145.218,12.608 C145.013999,12.800001 144.9,12.896 144.876,12.896 C144.852,12.896 144.762001,12.9739992 144.606,13.13 C144.449999,13.2860008 144.36,13.364 144.336,13.364 C144.312,13.364 144.216001,13.4479992 144.048,13.616 C143.879999,13.7840008 144.653991,13.5320034 146.37,12.86 C148.086009,12.1879966 149.363996,11.7140014 150.204,11.438 C151.044004,11.1619986 151.973995,10.8860014 152.994,10.61 C154.014005,10.3339986 154.799997,10.1600004 155.352,10.088 C155.904003,10.0159996 156.623996,9.94400036 157.512,9.872 C158.400004,9.79999964 159.551993,9.75800006 160.968,9.746 C162.384007,9.73399994 163.163999,9.74599982 163.308,9.782 C163.452001,9.81800018 163.667999,9.91999916 163.956,10.088 C164.244001,10.2560008 164.465999,10.4179992 164.622,10.574 C164.778001,10.7300008 164.862,10.8679994 164.874,10.988 C164.886,11.1080006 164.886,11.263999 164.874,11.456 C164.862,11.648001 164.826,11.8219992 164.766,11.978 C164.706,12.1340008 164.508002,12.3439987 164.172,12.608 C163.835998,12.8720013 163.614001,12.9860002 163.506,12.95 C163.397999,12.9139998 163.260001,12.7220017 163.092,12.374 C162.923999,12.0259983 162.762001,11.7620009 162.606,11.582 C162.449999,11.4019991 162.473999,11.2220009 162.678,11.042 C162.882001,10.8619991 162.978,10.7600001 162.966,10.736 C162.954,10.7119999 162.606003,10.6640004 161.922,10.592 C161.237997,10.5199996 160.398005,10.4780001 159.402,10.466 C158.405995,10.4539999 157.530004,10.4899996 156.774,10.574 C156.017996,10.6580004 155.586001,10.7 155.478,10.7 C155.369999,10.7 155.220001,10.7239998 155.028,10.772 C154.835999,10.8200002 154.722,10.844 154.686,10.844 C154.65,10.844 154.422002,10.8979995 154.002,11.006 C153.581998,11.1140005 153.324001,11.168 153.228,11.168 C153.132,11.168 152.994001,11.1979997 152.814,11.258 C152.633999,11.3180003 152.52,11.348 152.472,11.348 C152.424,11.348 152.130003,11.4379991 151.59,11.618 C151.049997,11.7980009 150.738,11.888 150.654,11.888 C150.57,11.888 150.378002,11.9419995 150.078,12.05 C149.777999,12.1580005 149.61,12.212 149.574,12.212 C149.538,12.212 149.484,12.2419997 149.412,12.302 C149.34,12.3620003 149.28,12.392 149.232,12.392 C149.184,12.392 149.112001,12.4279996 149.016,12.5 C148.92,12.5720004 148.848,12.608 148.8,12.608 C148.752,12.608 148.680001,12.6439996 148.584,12.716 C148.488,12.7880004 148.422,12.824 148.386,12.824 C148.35,12.824 148.296,12.8539997 148.224,12.914 C148.152,12.9740003 148.098,13.004 148.062,13.004 C148.026,13.004 147.882001,13.0759993 147.63,13.22 C147.377999,13.3640007 147.234,13.436 147.198,13.436 C147.162,13.436 147.096001,13.4659997 147,13.526 C146.904,13.5860003 146.838,13.616 146.802,13.616 C146.766,13.616 146.496003,13.7299989 145.992,13.958 C145.487998,14.1860011 145.218,14.3 145.182,14.3 C145.146,14.3 144.948002,14.3839992 144.588,14.552 C144.227998,14.7200008 144.036,14.804 144.012,14.804 C143.988,14.804 143.850001,14.9359987 143.598,15.2 C143.345999,15.4640013 143.166001,15.6319996 143.058,15.704 C142.949999,15.7760004 142.884,15.812 142.86,15.812 C142.836,15.812 142.812,15.8299998 142.788,15.866 C142.764,15.9020002 142.74,15.92 142.716,15.92 C142.692,15.92 142.590001,15.9859993 142.41,16.118 C142.229999,16.2500007 142.128,16.316 142.104,16.316 C142.08,16.316 142.044,16.3459997 141.996,16.406 C141.948,16.4660003 141.852001,16.5439995 141.708,16.64 Z M152.706,21.05 L152.94,21.14 L153.012,20.834 C153.06,20.629999 153.084,20.432001 153.084,20.24 C153.084,20.047999 153.054,19.9579999 152.994,19.97 C152.934,19.9820001 152.712002,20.0059998 152.328,20.042 C151.943998,20.0780002 151.74,20.096 151.716,20.096 C151.692,20.096 151.608001,20.1619993 151.464,20.294 C151.319999,20.4260007 151.242,20.492 151.23,20.492 C151.218,20.492 151.188,20.5459995 151.14,20.654 C151.092,20.7620005 151.074,20.816 151.086,20.816 C151.098,20.816 151.331998,20.8399998 151.788,20.888 C152.244002,20.9360002 152.549999,20.9899997 152.706,21.05 Z M150.042,24.11 L150.168,24.128 L150.492,24.02 C150.708001,23.9479996 150.959999,23.8340008 151.248,23.678 C151.536001,23.5219992 151.751999,23.3540009 151.896,23.174 C152.040001,22.9939991 152.189999,22.7840012 152.346,22.544 C152.502001,22.3039988 152.514001,22.1660002 152.382,22.13 C152.249999,22.0939998 152.154,22.0879999 152.094,22.112 C152.034,22.1360001 151.950001,22.148 151.842,22.148 C151.733999,22.148 151.626001,22.1659998 151.518,22.202 C151.409999,22.2380002 151.308001,22.256 151.212,22.256 C151.116,22.256 151.056,22.2679999 151.032,22.292 C151.008,22.3160001 150.966,22.328 150.906,22.328 C150.846,22.328 150.678001,22.4059992 150.402,22.562 C150.125999,22.7180008 149.976,22.796 149.952,22.796 C149.928,22.796 149.886,22.8259997 149.826,22.886 C149.766,22.9460003 149.73,22.976 149.718,22.976 C149.706,22.976 149.688,23.0479993 149.664,23.192 C149.64,23.3360007 149.622,23.408 149.61,23.408 C149.598,23.408 149.645999,23.5219989 149.754,23.75 C149.862001,23.9780011 149.958,24.0979999 150.042,24.11 Z M151.734,25.64 L151.392,25.82 L150.888,25.802 C150.551998,25.7899999 150.270001,25.7600002 150.042,25.712 C149.813999,25.6639998 149.586001,25.5320011 149.358,25.316 C149.129999,25.0999989 148.968001,24.8780011 148.872,24.65 C148.776,24.4219989 148.698,24.2960001 148.638,24.272 C148.578,24.2479999 148.524,24.2120002 148.476,24.164 C148.428,24.1159998 148.344001,23.9540014 148.224,23.678 C148.103999,23.4019986 147.936001,23.1200014 147.72,22.832 C147.503999,22.5439986 147.39,21.6560074 147.378,20.168 C147.366,18.6799926 147.449999,17.9419999 147.63,17.954 C147.810001,17.9660001 147.971999,17.9959998 148.116,18.044 C148.260001,18.0920002 148.38,18.1519996 148.476,18.224 C148.572001,18.2960004 148.673999,18.4039993 148.782,18.548 C148.890001,18.6920007 148.95,19.0999966 148.962,19.772 C148.974,20.4440034 149.255997,20.4320035 149.808,19.736 C150.360003,19.0399965 150.809998,18.6200007 151.158,18.476 C151.506002,18.3319993 151.865998,18.26 152.238,18.26 C152.610002,18.26 152.867999,18.2839998 153.012,18.332 C153.156001,18.3800002 153.293999,18.4579995 153.426,18.566 C153.558001,18.6740005 153.767999,18.8899984 154.056,19.214 C154.344001,19.5380016 154.506,19.8139989 154.542,20.042 C154.578,20.2700011 154.614,20.581998 154.65,20.978 C154.686,21.374002 154.686,21.6319994 154.65,21.752 C154.614,21.8720006 154.608,21.932 154.632,21.932 C154.656,21.932 154.733999,22.027999 154.866,22.22 C154.998001,22.412001 155.082,22.5859992 155.118,22.742 C155.154,22.8980008 155.16,23.1079987 155.136,23.372 C155.112,23.6360013 155.034001,23.8399993 154.902,23.984 C154.769999,24.1280007 154.590001,24.2359996 154.362,24.308 C154.133999,24.3800004 153.996,24.416 153.948,24.416 C153.9,24.416 153.84,24.3920002 153.768,24.344 C153.696,24.2959998 153.564001,24.367999 153.372,24.56 C153.179999,24.752001 153.000001,24.9079994 152.832,25.028 C152.663999,25.1480006 152.568,25.208 152.544,25.208 C152.52,25.208 152.454001,25.2499996 152.346,25.334 C152.237999,25.4180004 152.166,25.46 152.13,25.46 C152.094,25.46 151.962001,25.5199994 151.734,25.64 Z M148.584,31.616 C148.824001,31.5199995 148.968,31.472 149.016,31.472 C149.064,31.472 149.237999,31.4360004 149.538,31.364 C149.838002,31.2919996 150.024,31.256 150.096,31.256 C150.168,31.256 150.281999,31.2320002 150.438,31.184 C150.594001,31.1359998 150.714,31.112 150.798,31.112 C150.882,31.112 151.073999,31.0760004 151.374,31.004 C151.674002,30.9319996 151.86,30.896 151.932,30.896 C152.004,30.896 152.183999,30.8600004 152.472,30.788 C152.760001,30.7159996 152.934,30.7159996 152.994,30.788 C153.054,30.8600004 153.108,30.896 153.156,30.896 C153.204,30.896 153.323999,30.8660003 153.516,30.806 C153.708001,30.7459997 153.852,30.716 153.948,30.716 C154.044001,30.716 154.193999,30.6860003 154.398,30.626 C154.602001,30.5659997 154.752,30.536 154.848,30.536 C154.944001,30.536 155.159998,30.4580008 155.496,30.302 C155.832002,30.1459992 156.024,30.068 156.072,30.068 C156.12,30.068 156.174,30.0500002 156.234,30.014 C156.294,29.9779998 156.354,29.96 156.414,29.96 C156.474,29.96 156.635999,29.9240004 156.9,29.852 C157.164001,29.7799996 157.338,29.7080004 157.422,29.636 C157.506,29.5639996 157.578,29.3900014 157.638,29.114 C157.698,28.8379986 157.71,28.6460005 157.674,28.538 C157.638,28.4299995 157.560001,28.3100007 157.44,28.178 C157.319999,28.0459993 157.182001,27.9440004 157.026,27.872 C156.869999,27.7999996 156.696001,27.764 156.504,27.764 C156.311999,27.764 156.078001,27.8359993 155.802,27.98 C155.525999,28.1240007 155.142002,28.2559994 154.65,28.376 C154.157998,28.4960006 153.612003,28.657999 153.012,28.862 C152.411997,29.066001 151.920002,29.2099996 151.536,29.294 C151.151998,29.3780004 150.312007,29.521999 149.016,29.726 C147.719994,29.930001 146.814003,30.0379999 146.298,30.05 C145.781997,30.0620001 145.613999,30.1879988 145.794,30.428 C145.974001,30.6680012 146.123999,30.9259986 146.244,31.202 C146.364001,31.4780014 146.46,31.6399998 146.532,31.688 C146.604,31.7360002 146.903997,31.76 147.432,31.76 L148.224,31.76 L148.584,31.616 Z M188.598,5.678 L188.22,6.02 L188.076,5.966 C187.98,5.92999982 187.908,5.85800054 187.86,5.75 C187.812,5.64199946 187.716001,5.45600132 187.572,5.192 C187.427999,4.92799868 187.314,4.75400042 187.23,4.67 C187.146,4.58599958 186.678004,4.60999934 185.826,4.742 C184.973996,4.87400066 184.212003,4.94 183.54,4.94 C182.867997,4.94 182.508,4.96399976 182.46,5.012 C182.412,5.06000024 182.358,5.084 182.298,5.084 C182.238,5.084 182.154001,5.0540003 182.046,4.994 C181.938,4.9339997 181.824001,4.77800126 181.704,4.526 C181.583999,4.27399874 181.446001,4.04600102 181.29,3.842 C181.133999,3.63799898 181.451996,3.57799958 182.244,3.662 C183.036004,3.74600042 184.031994,3.6980009 185.232,3.518 C186.432006,3.3379991 187.445996,3.11000138 188.274,2.834 C189.102004,2.55799862 189.659999,2.42 189.948,2.42 C190.236002,2.42 190.469999,2.46199958 190.65,2.546 C190.830001,2.63000042 190.985999,2.74399928 191.118,2.888 C191.250001,3.03200072 191.322,3.16999934 191.334,3.302 C191.346,3.43400066 191.346,3.55399946 191.334,3.662 C191.322,3.77000054 191.274,3.85999964 191.19,3.932 C191.106,4.00400036 191.046,4.04 191.01,4.04 C190.974,4.04 190.902001,4.0999994 190.794,4.22 C190.686,4.3400006 190.62,4.4 190.596,4.4 C190.572,4.4 190.308003,4.55599844 189.804,4.868 C189.299998,5.18000156 189.036,5.336 189.012,5.336 C188.988,5.336 188.850001,5.44999886 188.598,5.678 Z M180.768,10.808 L180.624,10.88 L180.462,10.844 C180.354,10.8199999 180.240001,10.6820013 180.12,10.43 C179.999999,10.1779987 179.862001,9.95600096 179.706,9.764 C179.549999,9.57199904 179.555999,9.40400072 179.724,9.26 C179.892001,9.11599928 180.065999,9.044 180.246,9.044 C180.426001,9.044 180.552,9.06199982 180.624,9.098 C180.696,9.13400018 181.349994,9.01400138 182.586,8.738 C183.822006,8.46199862 184.601998,8.2640006 184.926,8.144 C185.250002,8.0239994 185.879995,7.80800156 186.816,7.496 C187.752005,7.18399844 188.363999,7.028 188.652,7.028 C188.940002,7.028 189.149999,7.05199976 189.282,7.1 C189.414001,7.14800024 189.528,7.20799964 189.624,7.28 C189.720001,7.35200036 189.816,7.45399934 189.912,7.586 C190.008001,7.71800066 190.056,7.9339985 190.056,8.234 C190.056,8.5340015 190.032,8.73199952 189.984,8.828 C189.936,8.92400048 189.864001,9.01399958 189.768,9.098 C189.672,9.18200042 189.570001,9.224 189.462,9.224 C189.354,9.224 189.198001,9.32599898 188.994,9.53 C188.789999,9.73400102 188.67,9.836 188.634,9.836 C188.598,9.836 188.502001,9.90799928 188.346,10.052 C188.189999,10.1960007 188.034001,10.3159995 187.878,10.412 C187.721999,10.5080005 187.614,10.556 187.554,10.556 C187.494,10.556 187.44,10.5320002 187.392,10.484 C187.344,10.4359998 187.272001,10.2980011 187.176,10.07 C187.08,9.84199886 186.954001,9.62600102 186.798,9.422 C186.641999,9.21799898 186.312003,9.19999916 185.808,9.368 C185.303998,9.53600084 184.770003,9.69799922 184.206,9.854 C183.641997,10.0100008 183.204002,10.1299996 182.892,10.214 C182.579999,10.2980004 182.298001,10.3759996 182.046,10.448 C181.793999,10.5200004 181.566001,10.5859997 181.362,10.646 C181.157999,10.7060003 181.032,10.736 180.984,10.736 C180.936,10.736 180.864001,10.7599998 180.768,10.808 Z M179.274,17.09 L178.32,17.396 L178.158,17.36 C178.05,17.3359999 177.948001,17.2100011 177.852,16.982 C177.756,16.7539989 177.618001,16.5260011 177.438,16.298 C177.257999,16.0699989 177.455997,15.8660009 178.032,15.686 C178.608003,15.5059991 179.741992,15.0800034 181.434,14.408 C183.126009,13.7359966 184.571994,13.1240028 185.772,12.572 C186.972006,12.0199972 187.973996,11.5220022 188.778,11.078 C189.582004,10.6339978 190.097999,10.3340008 190.326,10.178 C190.554001,10.0219992 190.668,9.92000024 190.668,9.872 C190.668,9.82399976 190.566001,9.65600144 190.362,9.368 C190.157999,9.07999856 190.139999,8.936 190.308,8.936 C190.476001,8.936 190.649999,8.97799958 190.83,9.062 C191.010001,9.14600042 191.201999,9.28399904 191.406,9.476 C191.610001,9.66800096 191.795999,9.86599898 191.964,10.07 C192.132001,10.274001 192.216,10.5199986 192.216,10.808 C192.216,11.0960014 192.18,11.2819996 192.108,11.366 C192.036,11.4500004 191.964,11.492 191.892,11.492 C191.82,11.492 191.724001,11.4800001 191.604,11.456 C191.483999,11.4319999 191.220002,11.4859993 190.812,11.618 C190.403998,11.7500007 190.176,11.816 190.128,11.816 C190.08,11.816 189.816002,11.911999 189.336,12.104 C188.855998,12.296001 188.592,12.392 188.544,12.392 C188.496,12.392 188.43,12.4339996 188.346,12.518 C188.262,12.6020004 188.208,12.644 188.184,12.644 C188.16,12.644 188.094001,12.6919995 187.986,12.788 C187.878,12.8840005 187.812,12.932 187.788,12.932 C187.764,12.932 187.602002,13.0459989 187.302,13.274 C187.001999,13.5020011 186.834,13.616 186.798,13.616 C186.762,13.616 186.690001,13.6579996 186.582,13.742 C186.474,13.8260004 186.402,13.868 186.366,13.868 C186.33,13.868 186.162002,13.9579991 185.862,14.138 C185.561999,14.3180009 185.298001,14.4679994 185.07,14.588 C184.841999,14.7080006 184.71,14.768 184.674,14.768 C184.638,14.768 184.464002,14.8459992 184.152,15.002 C183.839999,15.1580008 183.666,15.236 183.63,15.236 C183.594,15.236 183.420002,15.3139992 183.108,15.47 C182.795999,15.6260008 182.622,15.704 182.586,15.704 C182.55,15.704 182.460001,15.7459996 182.316,15.83 C182.171999,15.9140004 182.082,15.956 182.046,15.956 C182.01,15.956 181.698003,16.0939986 181.11,16.37 C180.521997,16.6460014 179.910003,16.885999 179.274,17.09 Z M170.742,31.706 L170.544,31.904 L170.418,31.868 C170.334,31.8439999 170.262,31.7840005 170.202,31.688 C170.142,31.5919995 170.07,31.4600008 169.986,31.292 C169.902,31.1239992 169.788001,30.9260011 169.644,30.698 C169.499999,30.4699989 169.547999,30.3799998 169.788,30.428 C170.028001,30.4760002 170.405997,30.3320017 170.922,29.996 C171.438003,29.6599983 171.959997,29.2040029 172.488,28.628 C173.016003,28.0519971 173.591997,27.3860038 174.216,26.63 C174.840003,25.8739962 175.475997,25.0040049 176.124,24.02 C176.772003,23.0359951 177.359997,22.0640048 177.888,21.104 C178.416003,20.1439952 178.967997,19.0520061 179.544,17.828 C180.120003,16.6039939 180.791996,14.9240107 181.56,12.788 C182.328004,10.6519893 182.939998,8.7440084 183.396,7.064 C183.852002,5.3839916 184.157999,4.54999994 184.314,4.562 C184.470001,4.57400006 184.596,4.59799982 184.692,4.634 C184.788001,4.67000018 185.177997,4.95199736 185.862,5.48 C186.546003,6.00800264 186.965999,6.35599916 187.122,6.524 C187.278001,6.69200084 187.356,6.85999916 187.356,7.028 C187.356,7.19600084 187.326,7.3099997 187.266,7.37 C187.206,7.4300003 187.128001,7.46 187.032,7.46 C186.936,7.46 186.678002,7.29200168 186.258,6.956 C185.837998,6.61999832 185.550001,6.39800054 185.394,6.29 C185.237999,6.18199946 185.154,6.16999958 185.142,6.254 C185.13,6.33800042 185.118,6.38 185.106,6.38 C185.094,6.38 185.058,6.48199898 184.998,6.686 C184.938,6.89000102 184.902,6.992 184.89,6.992 C184.878,6.992 184.848,7.07599916 184.8,7.244 C184.752,7.41200084 184.722,7.496 184.71,7.496 C184.698,7.496 184.632001,7.68799808 184.512,8.072 C184.391999,8.45600192 184.326,8.648 184.314,8.648 C184.302,8.648 184.242001,8.81599832 184.134,9.152 C184.026,9.48800168 183.900001,9.85399802 183.756,10.25 C183.611999,10.646002 183.534,10.844 183.522,10.844 C183.51,10.844 183.438001,11.0179983 183.306,11.366 C183.173999,11.7140017 183.102,11.888 183.09,11.888 C183.078,11.888 183.012001,12.0559983 182.892,12.392 C182.771999,12.7280017 182.706,12.896 182.694,12.896 C182.682,12.896 182.634,13.0159988 182.55,13.256 C182.466,13.4960012 182.418,13.616 182.406,13.616 C182.394,13.616 182.328001,13.7779984 182.208,14.102 C182.087999,14.4260016 182.022,14.588 182.01,14.588 C181.998,14.588 181.938001,14.7379985 181.83,15.038 C181.722,15.3380015 181.662,15.488 181.65,15.488 C181.638,15.488 181.572001,15.6499984 181.452,15.974 C181.331999,16.2980016 181.200001,16.5679989 181.056,16.784 C180.911999,17.0000011 180.834,17.108 180.822,17.108 C180.81,17.108 180.792,17.1379997 180.768,17.198 C180.744,17.2580003 180.69,17.3419995 180.606,17.45 C180.522,17.5580005 180.414001,17.707999 180.282,17.9 C180.149999,18.092001 180.078,18.188 180.066,18.188 C180.054,18.188 180.012,18.2539993 179.94,18.386 C179.868,18.5180007 179.82,18.584 179.796,18.584 C179.772,18.584 179.748,18.6199996 179.724,18.692 C179.7,18.7640004 179.682,18.8 179.67,18.8 C179.658,18.8 179.598001,18.8839992 179.49,19.052 C179.382,19.2200008 179.316,19.304 179.292,19.304 C179.268,19.304 179.25,19.3279998 179.238,19.376 C179.226,19.4240002 179.214,19.448 179.202,19.448 C179.19,19.448 179.118001,19.5859986 178.986,19.862 C178.853999,20.1380014 178.782,20.276 178.77,20.276 C178.758,20.276 178.536002,20.6959958 178.104,21.536 C177.671998,22.3760042 177.45,22.796 177.438,22.796 C177.426,22.796 177.39,22.8619993 177.33,22.994 C177.27,23.1260007 177.234,23.192 177.222,23.192 C177.21,23.192 177.108001,23.3539984 176.916,23.678 C176.723999,24.0020016 176.622,24.164 176.61,24.164 C176.598,24.164 176.562,24.2299993 176.502,24.362 C176.442,24.4940007 176.406,24.56 176.394,24.56 C176.382,24.56 176.358,24.6019996 176.322,24.686 C176.286,24.7700004 176.142001,25.009998 175.89,25.406 C175.637999,25.802002 175.506,26 175.494,26 C175.482,26 175.350001,26.1679983 175.098,26.504 C174.845999,26.8400017 174.714,27.008 174.702,27.008 C174.69,27.008 174.672,27.0379997 174.648,27.098 C174.624,27.1580003 174.540001,27.283999 174.396,27.476 C174.251999,27.668001 174.174,27.764 174.162,27.764 C174.15,27.764 174.090001,27.8419992 173.982,27.998 C173.874,28.1540008 173.760001,28.2979993 173.64,28.43 C173.519999,28.5620007 173.454,28.628 173.442,28.628 C173.43,28.628 173.412,28.6579997 173.388,28.718 C173.364,28.7780003 173.280001,28.8919992 173.136,29.06 C172.991999,29.2280008 172.824001,29.4319988 172.632,29.672 C172.439999,29.9120012 172.146002,30.235998 171.75,30.644 C171.353998,31.052002 171.144,31.256 171.12,31.256 C171.096,31.256 171.06,31.2979996 171.012,31.382 C170.964,31.4660004 170.874001,31.5739993 170.742,31.706 Z M184.566,28.844 L184.44,28.952 L184.296,28.898 C184.2,28.8619998 184.068001,28.6760017 183.9,28.34 C183.731999,28.0039983 183.582001,27.7580008 183.45,27.602 C183.317999,27.4459992 183.246,27.3380003 183.234,27.278 C183.222,27.2179997 183.198,27.1700002 183.162,27.134 C183.126,27.0979998 183.102,26.8040028 183.09,26.252 C183.078,25.6999972 183.09,25.3160011 183.126,25.1 C183.162,24.8839989 183.257999,23.5880119 183.414,21.212 C183.570001,18.8359881 183.737999,17.6539999 183.918,17.666 C184.098001,17.6780001 184.277999,17.7259996 184.458,17.81 C184.638001,17.8940004 184.793999,18.0079993 184.926,18.152 C185.058001,18.2960007 185.136,18.5299984 185.16,18.854 C185.184,19.1780016 185.19,19.34 185.178,19.34 C185.166,19.34 185.148,19.5019984 185.124,19.826 C185.1,20.1500016 185.082,20.312 185.07,20.312 C185.058,20.312 185.004001,21.0199929 184.908,22.436 C184.812,23.8520071 184.722,24.9679959 184.638,25.784 C184.554,26.6000041 184.548,27.0499996 184.62,27.134 C184.692,27.2180004 184.734,27.457998 184.746,27.854 C184.758,28.250002 184.752,28.4959995 184.728,28.592 C184.704,28.6880005 184.65,28.7719996 184.566,28.844 Z M191.73,30.266 L191.496,30.392 L191.424,30.392 C191.376,30.392 191.31,30.3500004 191.226,30.266 C191.142,30.1819996 190.950002,30.044001 190.65,29.852 C190.349999,29.659999 190.158,29.4980007 190.074,29.366 C189.99,29.2339993 189.756002,28.9340023 189.372,28.466 C188.987998,27.9979977 188.754,27.662001 188.67,27.458 C188.586,27.253999 188.436001,26.9960016 188.22,26.684 C188.003999,26.3719984 187.979999,26.216 188.148,26.216 C188.316001,26.216 188.465999,26.2399998 188.598,26.288 C188.730001,26.3360002 188.844,26.3959996 188.94,26.468 C189.036001,26.5400004 189.323998,26.875997 189.804,27.476 C190.284002,28.076003 190.53,28.0280035 190.542,27.332 C190.554,26.6359965 190.542,26.1800011 190.506,25.964 C190.47,25.7479989 190.446,25.3280031 190.434,24.704 C190.422,24.0799969 190.398,23.6780009 190.362,23.498 C190.326,23.3179991 190.182001,22.6760055 189.93,21.572 C189.677999,20.4679945 189.486001,19.7780014 189.354,19.502 C189.221999,19.2259986 189.126,18.9140017 189.066,18.566 C189.006,18.2179983 188.958,18.0140003 188.922,17.954 C188.886,17.8939997 188.832,17.7500011 188.76,17.522 C188.688,17.2939989 188.586001,17.1740001 188.454,17.162 C188.321999,17.1499999 188.034002,17.2099993 187.59,17.342 C187.145998,17.4740007 186.912,17.54 186.888,17.54 C186.864,17.54 186.570003,18.0079953 186.006,18.944 C185.441997,19.8800047 185.112001,20.3899996 185.016,20.474 C184.92,20.5580004 184.824001,20.5820002 184.728,20.546 C184.632,20.5099998 184.56,20.4380005 184.512,20.33 C184.464,20.2219995 184.368001,20.0360013 184.224,19.772 C184.079999,19.5079987 183.948001,19.3100007 183.828,19.178 C183.707999,19.0459993 183.953997,18.476005 184.566,17.468 C185.178003,16.459995 185.723998,15.8840007 186.204,15.74 C186.684002,15.5959993 187.121998,15.524 187.518,15.524 C187.914002,15.524 188.213999,15.5659996 188.418,15.65 C188.622001,15.7340004 188.825999,15.8659991 189.03,16.046 C189.234001,16.2260009 189.431999,16.4539986 189.624,16.73 C189.816001,17.0060014 189.942,17.2579989 190.002,17.486 C190.062,17.7140011 190.146,17.9899984 190.254,18.314 C190.362001,18.6380016 190.428,18.9319987 190.452,19.196 C190.476,19.4600013 190.518,19.693999 190.578,19.898 C190.638,20.102001 190.698,20.2579995 190.758,20.366 C190.818,20.4740005 190.872,20.7199981 190.92,21.104 C190.968,21.4880019 191.028,21.8599982 191.1,22.22 C191.172,22.5800018 191.22,22.8739989 191.244,23.102 C191.268,23.3300011 191.316,23.5939985 191.388,23.894 C191.46,24.1940015 191.502,24.6019974 191.514,25.118 C191.526,25.6340026 191.574,26.0659983 191.658,26.414 C191.742,26.7620017 191.802,27.1219981 191.838,27.494 C191.874,27.8660019 191.922,28.1719988 191.982,28.412 C192.042,28.6520012 192.072,28.969998 192.072,29.366 C192.072,29.762002 192.054,29.9899997 192.018,30.05 C191.982,30.1100003 191.886001,30.1819996 191.73,30.266 Z M186.51,22.256 L184.476,22.904 L184.386,22.904 C184.326,22.904 184.266,22.8800002 184.206,22.832 C184.146,22.7839998 184.074,22.658001 183.99,22.454 C183.906,22.249999 183.762001,22.0040014 183.558,21.716 C183.353999,21.4279986 183.276,21.2600002 183.324,21.212 C183.372,21.1639998 183.455999,21.1340001 183.576,21.122 C183.696001,21.1099999 184.277995,20.9360017 185.322,20.6 C186.366005,20.2639983 186.983999,20.0540004 187.176,19.97 C187.368001,19.8859996 187.523999,19.8380001 187.644,19.826 C187.764001,19.8139999 187.824,19.7840002 187.824,19.736 C187.824,19.6879998 187.913999,19.6699999 188.094,19.682 C188.274001,19.6940001 188.453999,19.7419996 188.634,19.826 C188.814001,19.9100004 188.969999,20.0239993 189.102,20.168 C189.234001,20.3120007 189.306,20.4499993 189.318,20.582 C189.33,20.7140007 189.33,20.8579992 189.318,21.014 C189.306,21.1700008 189.216001,21.3259992 189.048,21.482 C188.879999,21.6380008 188.772,21.716 188.724,21.716 C188.676,21.716 188.634,21.6980002 188.598,21.662 C188.562,21.6259998 187.866007,21.8239978 186.51,22.256 Z M184.872,25.802 L184.728,25.928 L184.584,25.928 C184.488,25.928 184.41,25.9040002 184.35,25.856 C184.29,25.8079998 184.218,25.682001 184.134,25.478 C184.05,25.273999 183.906001,25.0280014 183.702,24.74 C183.497999,24.4519986 183.473999,24.3020001 183.63,24.29 C183.786001,24.2779999 183.929999,24.2540002 184.062,24.218 C184.194001,24.1819998 184.643996,24.0380013 185.412,23.786 C186.180004,23.5339987 186.647999,23.3420007 186.816,23.21 C186.984001,23.0779993 187.175999,22.9700004 187.392,22.886 C187.608001,22.8019996 187.841999,22.6820008 188.094,22.526 C188.346001,22.3699992 188.484,22.2860001 188.508,22.274 C188.532,22.2619999 188.544,22.2320002 188.544,22.184 C188.544,22.1359998 188.633999,22.1179999 188.814,22.13 C188.994001,22.1420001 189.149999,22.1719998 189.282,22.22 C189.414001,22.2680002 189.528,22.3279996 189.624,22.4 C189.720001,22.4720004 189.816,22.5739993 189.912,22.706 C190.008001,22.8380007 190.056,23.0239988 190.056,23.264 C190.056,23.5040012 190.038,23.6539997 190.002,23.714 C189.966,23.7740003 189.888001,23.8399996 189.768,23.912 C189.647999,23.9840004 189.432002,24.02 189.12,24.02 C188.807999,24.02 188.562001,24.0379998 188.382,24.074 C188.201999,24.1100002 188.1,24.128 188.076,24.128 C188.052,24.128 187.968001,24.223999 187.824,24.416 C187.679999,24.608001 187.332003,24.799999 186.78,24.992 C186.227997,25.184001 185.934,25.28 185.898,25.28 C185.862,25.28 185.718001,25.3459993 185.466,25.478 C185.213999,25.6100007 185.076,25.676 185.052,25.676 C185.028,25.676 184.968001,25.7179996 184.872,25.802 Z M185.646,29.708 L185.232,29.816 L185.124,29.816 C185.052,29.816 184.986,29.7920002 184.926,29.744 C184.866,29.6959998 184.794,29.570001 184.71,29.366 C184.626,29.161999 184.482001,28.9160014 184.278,28.628 C184.073999,28.3399986 184.121999,28.1540004 184.422,28.07 C184.722002,27.9859996 184.872,27.9200002 184.872,27.872 C184.872,27.8239998 184.926,27.8 185.034,27.8 C185.142001,27.8 185.465997,27.6740013 186.006,27.422 C186.546003,27.1699987 186.989998,26.9300011 187.338,26.702 C187.686002,26.4739989 187.997999,26.3060005 188.274,26.198 C188.550001,26.0899995 188.801999,26.036 189.03,26.036 C189.258001,26.036 189.437999,26.0599998 189.57,26.108 C189.702001,26.1560002 189.816,26.2159996 189.912,26.288 C190.008001,26.3600004 190.104,26.4619993 190.2,26.594 C190.296001,26.7260007 190.344,26.887999 190.344,27.08 C190.344,27.272001 190.326,27.3979997 190.29,27.458 C190.254,27.5180003 190.140001,27.6079994 189.948,27.728 C189.755999,27.8480006 189.060006,28.1899972 187.86,28.754 C186.659994,29.3180028 185.922001,29.6359996 185.646,29.708 Z" id="向左滑动查看" stroke="#FFFFFF"></path>
            </g>
        </g>
    </g>
</svg>