<?xml version="1.0" encoding="UTF-8"?>
<svg width="390px" height="64px" viewBox="0 0 390 64" version="1.1" xmlns="http://www.w3.org/2000/svg" xmlns:xlink="http://www.w3.org/1999/xlink">
    <!-- Generator: Sketch 43.2 (39069) - http://www.bohemiancoding.com/sketch -->
    <title>你的世界很大</title>
    <desc>Created with Sketch.</desc>
    <defs></defs>
    <g id="Page-1" stroke="none" stroke-width="1" fill="none" fill-rule="evenodd">
        <g id="我要认真爱妈妈" transform="translate(-386.000000, -1919.000000)" stroke="#FFFFFF" fill="#FFFFFF">
            <path d="M398.162571,1971.264 C398.426573,1971.024 398.582571,1970.808 398.630571,1970.616 C398.678572,1970.424 398.690572,1969.896 398.666571,1969.032 C398.642571,1968.168 398.570572,1967.556 398.450571,1967.196 C398.330571,1966.836 398.138573,1966.512 397.874571,1966.224 C397.61057,1965.936 397.382572,1965.744 397.190571,1965.648 C396.998571,1965.552 396.806572,1965.00001 396.614571,1963.992 C396.422571,1962.98399 396.218573,1961.29201 396.002571,1958.916 C395.78657,1956.53999 395.678571,1954.17601 395.678571,1951.824 C395.678571,1949.47199 395.690571,1947.66001 395.714571,1946.388 C395.738572,1945.11599 395.678572,1944.06 395.534571,1943.22 C395.390571,1942.38 395.294572,1941.936 395.246571,1941.888 C395.198571,1941.84 395.186571,1941.672 395.210571,1941.384 C395.234572,1941.096 395.258571,1940.952 395.282571,1940.952 C395.306572,1940.952 395.894566,1940.38801 397.046571,1939.26 C398.198577,1938.13199 398.798571,1937.568 398.846571,1937.568 C398.894572,1937.568 399.134569,1937.34 399.566571,1936.884 C399.998574,1936.428 400.250571,1936.2 400.322571,1936.2 C400.394572,1936.2 400.62257,1936.068 401.006571,1935.804 C401.390573,1935.54 401.906568,1934.64001 402.554571,1933.104 C403.202575,1931.56799 403.526571,1930.596 403.526571,1930.188 C403.526571,1929.78 403.430572,1929.444 403.238571,1929.18 C403.046571,1928.916 402.854572,1928.712 402.662571,1928.568 C402.470571,1928.424 402.242573,1928.304 401.978571,1928.208 C401.71457,1928.112 401.402573,1928.052 401.042571,1928.028 C400.68257,1928.004 400.202574,1928.73599 399.602571,1930.224 C399.002568,1931.71201 398.234576,1932.924 397.298571,1933.86 C396.362567,1934.796 395.378577,1935.83999 394.346571,1936.992 C393.314566,1938.14401 392.450575,1938.72 391.754571,1938.72 C391.058568,1938.72 390.566573,1938.792 390.278571,1938.936 C389.99057,1939.08 389.522575,1939.44 388.874571,1940.016 C388.226568,1940.592 387.746573,1941.168 387.434571,1941.744 C387.12257,1942.32 386.978571,1942.788 387.002571,1943.148 C387.026572,1943.508 387.17057,1943.844 387.434571,1944.156 C387.698573,1944.468 387.95057,1944.852 388.190571,1945.308 C388.430573,1945.764 388.598571,1946.1 388.694571,1946.316 C388.790572,1946.532 388.886571,1946.676 388.982571,1946.748 C389.078572,1946.82 389.222571,1946.856 389.414571,1946.856 C389.606572,1946.856 389.786571,1946.784 389.954571,1946.64 C390.122572,1946.496 390.242571,1946.244 390.314571,1945.884 C390.386572,1945.524 390.434571,1945.344 390.458571,1945.344 C390.482572,1945.344 390.578571,1945.188 390.746571,1944.876 C390.914572,1944.564 391.022571,1944.408 391.070571,1944.408 C391.118572,1944.408 391.490568,1944.216 392.186571,1943.832 C392.882575,1943.448 393.35057,1944.45599 393.590571,1946.856 C393.830573,1949.25601 394.11857,1952.74798 394.454571,1957.332 C394.790573,1961.91602 395.018571,1964.616 395.138571,1965.432 C395.258572,1966.248 395.330571,1966.956 395.354571,1967.556 C395.378572,1968.156 395.52257,1968.612 395.786571,1968.924 C396.050573,1969.236 396.30257,1969.62 396.542571,1970.076 C396.782573,1970.532 396.950571,1970.868 397.046571,1971.084 C397.142572,1971.3 397.286571,1971.444 397.478571,1971.516 L397.766571,1971.624 L398.162571,1971.264 Z M419.690571,1942.752 L419.798571,1942.752 L421.166571,1941.492 C422.078576,1940.652 422.750569,1940.076 423.182571,1939.764 C423.614574,1939.452 424.154568,1938.924 424.802571,1938.18 C425.450575,1937.436 425.702572,1937.076 425.558571,1937.1 C425.414571,1937.124 425.306572,1937.136 425.234571,1937.136 C425.162571,1937.136 424.670576,1937.208 423.758571,1937.352 C422.846567,1937.496 422.354572,1937.568 422.282571,1937.568 C422.210571,1937.568 422.078572,1937.604 421.886571,1937.676 C421.694571,1937.748 421.550572,1937.784 421.454571,1937.784 C421.358571,1937.784 421.070574,1937.88 420.590571,1938.072 C420.110569,1938.264 419.822572,1938.36 419.726571,1938.36 C419.630571,1938.36 419.474573,1938.42 419.258571,1938.54 C419.04257,1938.66 418.886572,1938.72 418.790571,1938.72 C418.694571,1938.72 418.550572,1938.78 418.358571,1938.9 C418.166571,1939.02 418.034572,1939.08 417.962571,1939.08 C417.890571,1939.08 417.590574,1939.236 417.062571,1939.548 C416.534569,1939.86 416.46257,1940.04 416.846571,1940.088 C417.230573,1940.136 417.60257,1940.244 417.962571,1940.412 C418.322573,1940.58 418.63457,1940.808 418.898571,1941.096 C419.162573,1941.384 419.306571,1941.66 419.330571,1941.924 C419.354572,1942.188 419.402571,1942.392 419.474571,1942.536 C419.546572,1942.68 419.618571,1942.752 419.690571,1942.752 Z M419.330571,1963.344 L419.078571,1963.56 L418.790571,1963.56 C418.598571,1963.56 418.166575,1963.236 417.494571,1962.588 C416.822568,1961.94 416.402572,1961.412 416.234571,1961.004 C416.066571,1960.596 415.778574,1960.104 415.370571,1959.528 C414.962569,1958.952 414.92657,1958.664 415.262571,1958.664 C415.598573,1958.664 415.89857,1958.712 416.162571,1958.808 C416.426573,1958.904 416.570571,1956.79202 416.594571,1952.472 C416.618572,1948.15198 416.582572,1945.42801 416.486571,1944.3 C416.390571,1943.17199 416.306572,1942.512 416.234571,1942.32 C416.162571,1942.128 416.114572,1941.708 416.090571,1941.06 C416.066571,1940.412 415.802574,1940.196 415.298571,1940.412 C414.794569,1940.628 414.494572,1940.736 414.398571,1940.736 C414.302571,1940.736 414.122573,1940.808 413.858571,1940.952 C413.59457,1941.096 413.414572,1941.168 413.318571,1941.168 C413.222571,1941.168 413.090572,1941.216 412.922571,1941.312 C412.754571,1941.408 412.622572,1941.456 412.526571,1941.456 C412.430571,1941.456 412.310572,1941.504 412.166571,1941.6 C412.022571,1941.696 411.926572,1941.744 411.878571,1941.744 C411.830571,1941.744 411.626573,1941.876 411.266571,1942.14 C410.90657,1942.404 410.630572,1942.5 410.438571,1942.428 C410.246571,1942.356 410.102572,1942.212 410.006571,1941.996 C409.910571,1941.78 409.742573,1941.444 409.502571,1940.988 C409.26257,1940.532 409.010573,1940.148 408.746571,1939.836 C408.48257,1939.524 408.338572,1939.14 408.314571,1938.684 C408.290571,1938.228 408.362571,1937.796 408.530571,1937.388 C408.698572,1936.98 409.262567,1936.06801 410.222571,1934.652 C411.182576,1933.23599 411.962568,1931.53201 412.562571,1929.54 C413.162574,1927.54799 413.64257,1926.564 414.002571,1926.588 C414.362573,1926.612 414.67457,1926.672 414.938571,1926.768 C415.202573,1926.864 415.430571,1926.984 415.622571,1927.128 C415.814572,1927.272 416.006571,1927.476 416.198571,1927.74 C416.390572,1928.004 416.486571,1928.34 416.486571,1928.748 C416.486571,1929.156 416.198574,1930.30799 415.622571,1932.204 C415.046569,1934.10001 414.398575,1935.59999 413.678571,1936.704 C412.958568,1937.80801 413.354564,1938.18 414.866571,1937.82 C416.378579,1937.46 417.686566,1937.04 418.790571,1936.56 C419.894577,1936.08 421.334563,1935.6 423.110571,1935.12 C424.88658,1934.64 426.098568,1934.388 426.746571,1934.364 C427.394575,1934.34 427.88657,1934.364 428.222571,1934.436 C428.558573,1934.508 428.89457,1934.652 429.230571,1934.868 C429.566573,1935.084 429.86657,1935.336 430.130571,1935.624 C430.394573,1935.912 430.538571,1936.188 430.562571,1936.452 C430.586572,1936.716 430.574572,1936.98 430.526571,1937.244 C430.478571,1937.508 430.238574,1937.856 429.806571,1938.288 C429.374569,1938.72 429.146572,1938.936 429.122571,1938.936 C429.098571,1938.936 428.630576,1939.45199 427.718571,1940.484 C426.806567,1941.51601 426.122574,1942.116 425.666571,1942.284 C425.210569,1942.452 424.958572,1942.536 424.910571,1942.536 C424.862571,1942.536 424.706573,1942.728 424.442571,1943.112 C424.17857,1943.496 424.034572,1943.688 424.010571,1943.688 C423.986571,1943.688 423.902572,1943.808 423.758571,1944.048 C423.614571,1944.288 423.530572,1944.408 423.506571,1944.408 C423.482571,1944.408 423.326573,1944.612 423.038571,1945.02 C422.75057,1945.428 422.090577,1945.968 421.058571,1946.64 C420.026566,1947.312 419.414572,1947.648 419.222571,1947.648 C419.030571,1947.648 418.862572,1948.104 418.718571,1949.016 C418.574571,1949.928 418.490572,1950.384 418.466571,1950.384 C418.442571,1950.384 418.442571,1951.01999 418.466571,1952.292 C418.490572,1953.56401 418.63457,1955.26799 418.898571,1957.404 C419.162573,1959.54001 419.318571,1960.644 419.366571,1960.716 C419.414572,1960.788 419.486571,1961.04 419.582571,1961.472 C419.678572,1961.904 419.702572,1962.288 419.654571,1962.624 C419.606571,1962.96 419.498572,1963.2 419.330571,1963.344 Z M407.630571,1962.948 C407.870573,1962.732 408.002571,1962.516 408.026571,1962.3 C408.050572,1962.084 408.050572,1961.844 408.026571,1961.58 C408.002571,1961.316 407.906572,1961.088 407.738571,1960.896 C407.570571,1960.704 407.450572,1960.356 407.378571,1959.852 C407.306571,1959.348 407.222572,1958.01601 407.126571,1955.856 C407.030571,1953.69599 406.886572,1952.484 406.694571,1952.22 C406.502571,1951.956 406.310572,1951.752 406.118571,1951.608 C405.926571,1951.464 405.698573,1951.344 405.434571,1951.248 C405.17057,1951.152 404.858573,1951.092 404.498571,1951.068 C404.13857,1951.044 404.018571,1952.25599 404.138571,1954.704 C404.258572,1957.15201 404.378571,1958.616 404.498571,1959.096 C404.618572,1959.576 404.83457,1960.008 405.146571,1960.392 C405.458573,1960.776 405.78257,1961.304 406.118571,1961.976 C406.454573,1962.648 406.682571,1963.032 406.802571,1963.128 C406.922572,1963.224 407.030571,1963.272 407.126571,1963.272 L407.270571,1963.272 L407.630571,1962.948 Z M431.714571,1962.48 L431.462571,1962.696 L431.174571,1962.588 C430.982571,1962.516 430.778573,1962.252 430.562571,1961.796 C430.34657,1961.34 430.118573,1960.932 429.878571,1960.572 C429.63857,1960.212 429.398573,1959.864 429.158571,1959.528 C428.91857,1959.192 428.786572,1958.832 428.762571,1958.448 C428.738571,1958.064 428.642572,1957.668 428.474571,1957.26 C428.306571,1956.852 428.33057,1956.648 428.546571,1956.648 C428.762573,1956.648 428.846572,1956.324 428.798571,1955.676 C428.750571,1955.028 428.390575,1953.90001 427.718571,1952.292 C427.046568,1950.68399 426.89057,1949.892 427.250571,1949.916 C427.610573,1949.94 427.97057,1950.036 428.330571,1950.204 C428.690573,1950.372 428.99057,1950.588 429.230571,1950.852 C429.470573,1951.116 429.938568,1952.06399 430.634571,1953.696 C431.330575,1955.32801 431.726571,1956.516 431.822571,1957.26 C431.918572,1958.004 431.990571,1958.92799 432.038571,1960.032 C432.086572,1961.13601 432.086572,1961.784 432.038571,1961.976 C431.990571,1962.168 431.882572,1962.336 431.714571,1962.48 Z M470.054571,1939.692 C470.246572,1939.524 470.43857,1939.212 470.630571,1938.756 C470.822572,1938.3 470.918571,1937.856 470.918571,1937.424 C470.918571,1936.992 470.846572,1936.56 470.702571,1936.128 C470.558571,1935.696 470.330573,1935.312 470.018571,1934.976 C469.70657,1934.64 469.238575,1934.268 468.614571,1933.86 C467.990568,1933.452 467.546573,1933.2 467.282571,1933.104 C467.01857,1933.008 466.646574,1932.96 466.166571,1932.96 C465.686569,1932.96 464.162584,1933.296 461.594571,1933.968 C459.026559,1934.64 457.86257,1935.108 458.102571,1935.372 C458.342573,1935.636 458.63057,1936.08 458.966571,1936.704 C459.302573,1937.328 459.506571,1937.724 459.578571,1937.892 C459.650572,1938.06 459.80657,1938.168 460.046571,1938.216 C460.286573,1938.264 461.54656,1938 463.826571,1937.424 C466.106583,1936.848 467.42657,1936.8 467.786571,1937.28 C468.146573,1937.76 468.43457,1938.216 468.650571,1938.648 C468.866572,1939.08 469.010571,1939.38 469.082571,1939.548 C469.154572,1939.716 469.28657,1939.824 469.478571,1939.872 L469.766571,1939.944 L470.054571,1939.692 Z M486.290571,1960.212 L486.686571,1960.248 L487.586571,1959.996 C488.186574,1959.828 488.810568,1959.48 489.458571,1958.952 C490.106575,1958.424 490.778568,1957.716 491.474571,1956.828 C492.170575,1955.94 492.602571,1955.34 492.770571,1955.028 C492.938572,1954.716 492.422577,1954.452 491.222571,1954.236 C490.022565,1954.02 489.266573,1953.924 488.954571,1953.948 C488.64257,1953.972 488.366573,1953.984 488.126571,1953.984 C487.88657,1953.984 487.646573,1954.02 487.406571,1954.092 C487.16657,1954.164 486.986572,1954.2 486.866571,1954.2 C486.746571,1954.2 486.518573,1954.332 486.182571,1954.596 C485.84657,1954.86 485.666572,1954.992 485.642571,1954.992 C485.618571,1954.992 485.558572,1955.088 485.462571,1955.28 C485.366571,1955.472 485.306572,1955.568 485.282571,1955.568 C485.258571,1955.568 485.174572,1955.712 485.030571,1956 C484.886571,1956.288 484.802572,1956.432 484.778571,1956.432 C484.754571,1956.432 484.754571,1956.732 484.778571,1957.332 C484.802572,1957.932 484.886571,1958.352 485.030571,1958.592 C485.174572,1958.832 485.35457,1959.156 485.570571,1959.564 C485.786572,1959.972 486.02657,1960.188 486.290571,1960.212 Z M463.826571,1963.272 L463.430571,1963.632 L463.286571,1963.632 C463.190571,1963.632 463.046572,1963.56 462.854571,1963.416 C462.66257,1963.272 462.530572,1963.116 462.458571,1962.948 C462.386571,1962.78 462.206573,1962.42 461.918571,1961.868 C461.63057,1961.316 461.354573,1960.884 461.090571,1960.572 C460.82657,1960.26 460.682572,1959.996 460.658571,1959.78 C460.634571,1959.564 460.598572,1959.432 460.550571,1959.384 C460.502571,1959.336 460.454572,1959.252 460.406571,1959.132 C460.358571,1959.012 459.890576,1958.46 459.002571,1957.476 C458.114567,1956.492 457.634572,1955.916 457.562571,1955.748 C457.490571,1955.58 457.334573,1955.256 457.094571,1954.776 C456.85457,1954.296 456.578573,1953.864 456.266571,1953.48 C455.95457,1953.096 455.738572,1952.544 455.618571,1951.824 C455.498571,1951.104 455.61857,1950.756 455.978571,1950.78 C456.338573,1950.804 456.68657,1950.888 457.022571,1951.032 C457.358573,1951.176 457.68257,1951.416 457.994571,1951.752 C458.306573,1952.088 458.510571,1952.58 458.606571,1953.228 C458.702572,1953.876 459.242566,1954.76399 460.226571,1955.892 C461.210576,1957.02001 461.762571,1957.596 461.882571,1957.62 C462.002572,1957.644 462.086571,1957.596 462.134571,1957.476 C462.182572,1957.356 462.33857,1957.164 462.602571,1956.9 C462.866573,1956.636 463.298568,1956.096 463.898571,1955.28 C464.498574,1954.464 465.038569,1953.888 465.518571,1953.552 C465.998574,1953.216 466.40657,1952.964 466.742571,1952.796 C467.078573,1952.628 467.570568,1952.544 468.218571,1952.544 C468.866575,1952.544 469.226571,1952.568 469.298571,1952.616 C469.370572,1952.664 469.430571,1952.544 469.478571,1952.256 C469.526572,1951.968 469.71857,1951.488 470.054571,1950.816 C470.390573,1950.144 470.846569,1949.412 471.422571,1948.62 C471.998574,1947.828 472.730567,1947.084 473.618571,1946.388 C474.506576,1945.692 475.466566,1945.056 476.498571,1944.48 C477.530577,1943.904 478.598566,1943.424 479.702571,1943.04 C480.806577,1942.656 482.414561,1942.356 484.526571,1942.14 C486.638582,1941.924 488.366565,1941.876 489.710571,1941.996 C491.054578,1942.116 492.062568,1942.308 492.734571,1942.572 C493.406575,1942.836 494.126568,1943.172 494.894571,1943.58 C495.662575,1943.988 496.16657,1944.312 496.406571,1944.552 C496.646573,1944.792 496.850571,1945.068 497.018571,1945.38 C497.186572,1945.692 497.294571,1945.932 497.342571,1946.1 C497.390572,1946.268 497.474571,1946.448 497.594571,1946.64 C497.714572,1946.832 497.822571,1947.336 497.918571,1948.152 C498.014572,1948.968 497.954572,1949.868 497.738571,1950.852 C497.52257,1951.836 497.246573,1952.652 496.910571,1953.3 C496.57457,1953.948 496.418571,1954.416 496.442571,1954.704 C496.466572,1954.992 496.430572,1955.208 496.334571,1955.352 C496.238571,1955.496 496.094572,1955.568 495.902571,1955.568 C495.71057,1955.568 495.578572,1955.64 495.506571,1955.784 C495.434571,1955.928 495.386572,1956 495.362571,1956 C495.338571,1956 495.230572,1956.168 495.038571,1956.504 C494.84657,1956.84 494.630573,1957.176 494.390571,1957.512 C494.15057,1957.848 494.006572,1958.016 493.958571,1958.016 C493.910571,1958.016 493.670574,1958.316 493.238571,1958.916 C492.806569,1959.516 492.254575,1960.164 491.582571,1960.86 C490.910568,1961.556 490.286574,1962.048 489.710571,1962.336 C489.134569,1962.624 488.666573,1962.816 488.306571,1962.912 C487.94657,1963.008 487.562573,1963.056 487.154571,1963.056 C486.746569,1963.056 486.278574,1962.84 485.750571,1962.408 C485.222569,1961.976 484.838573,1961.508 484.598571,1961.004 C484.35857,1960.5 484.130572,1960.116 483.914571,1959.852 C483.69857,1959.588 483.374574,1959.048 482.942571,1958.232 C482.510569,1957.416 482.282572,1956.576 482.258571,1955.712 C482.234571,1954.848 482.36657,1954.092 482.654571,1953.444 C482.942573,1952.796 483.314569,1952.292 483.770571,1951.932 C484.226574,1951.572 485.042566,1951.332 486.218571,1951.212 C487.394577,1951.092 488.486566,1951.128 489.494571,1951.32 C490.502576,1951.512 491.510566,1951.8 492.518571,1952.184 C493.526576,1952.568 494.15057,1952.388 494.390571,1951.644 C494.630573,1950.9 494.822571,1950.096 494.966571,1949.232 C495.110572,1948.368 495.146572,1947.6 495.074571,1946.928 C495.002571,1946.256 494.942572,1945.896 494.894571,1945.848 C494.846571,1945.8 494.558574,1945.62 494.030571,1945.308 C493.502569,1944.996 493.106573,1944.768 492.842571,1944.624 C492.57857,1944.48 492.122575,1944.336 491.474571,1944.192 C490.826568,1944.048 490.370573,1943.964 490.106571,1943.94 C489.84257,1943.916 489.686572,1943.88 489.638571,1943.832 C489.590571,1943.784 489.482572,1943.772 489.314571,1943.796 C489.146571,1943.82 488.990572,1943.832 488.846571,1943.832 C488.702571,1943.832 488.450573,1943.844 488.090571,1943.868 C487.73057,1943.892 487.490572,1943.904 487.370571,1943.904 C487.250571,1943.904 486.554578,1943.94 485.282571,1944.012 C484.010565,1944.084 483.266572,1944.12 483.050571,1944.12 C482.83457,1944.12 482.318575,1944.276 481.502571,1944.588 C480.686567,1944.9 480.242572,1945.056 480.170571,1945.056 C480.098571,1945.056 479.942573,1945.128 479.702571,1945.272 C479.46257,1945.416 479.318572,1945.488 479.270571,1945.488 C479.222571,1945.488 478.970574,1945.644 478.514571,1945.956 C478.058569,1946.268 477.806572,1946.424 477.758571,1946.424 C477.710571,1946.424 477.578572,1946.508 477.362571,1946.676 C477.14657,1946.844 477.014572,1946.928 476.966571,1946.928 C476.918571,1946.928 476.786572,1947.024 476.570571,1947.216 C476.35457,1947.408 476.222572,1947.504 476.174571,1947.504 C476.126571,1947.504 476.042572,1947.576 475.922571,1947.72 C475.802571,1947.864 475.514574,1948.128 475.058571,1948.512 C474.602569,1948.896 474.362572,1949.088 474.338571,1949.088 C474.314571,1949.088 474.242572,1949.244 474.122571,1949.556 C474.002571,1949.868 473.930572,1950.024 473.906571,1950.024 C473.882571,1950.024 473.798572,1950.204 473.654571,1950.564 C473.510571,1950.924 473.426572,1951.104 473.402571,1951.104 C473.378571,1951.104 473.210573,1951.56 472.898571,1952.472 C472.58657,1953.384 472.418572,1953.84 472.394571,1953.84 C472.370571,1953.84 472.346572,1954.092 472.322571,1954.596 C472.298571,1955.1 472.334571,1955.412 472.430571,1955.532 C472.526572,1955.652 472.598571,1956 472.646571,1956.576 C472.694572,1957.152 472.766571,1957.692 472.862571,1958.196 C472.958572,1958.7 472.982572,1959.156 472.934571,1959.564 C472.886571,1959.972 472.850572,1960.176 472.826571,1960.176 C472.802571,1960.176 472.754572,1960.488 472.682571,1961.112 C472.610571,1961.736 472.490572,1962.12 472.322571,1962.264 C472.154571,1962.408 472.022572,1962.48 471.926571,1962.48 C471.830571,1962.48 471.686572,1962.408 471.494571,1962.264 C471.30257,1962.12 471.170572,1961.964 471.098571,1961.796 C471.026571,1961.628 470.846573,1961.268 470.558571,1960.716 C470.27057,1960.164 469.994573,1959.732 469.730571,1959.42 C469.46657,1959.108 469.322572,1958.484 469.298571,1957.548 C469.274571,1956.612 469.034574,1956.3 468.578571,1956.612 C468.122569,1956.924 467.870572,1957.08 467.822571,1957.08 C467.774571,1957.08 467.522574,1957.404 467.066571,1958.052 C466.610569,1958.7 466.202573,1959.216 465.842571,1959.6 C465.48257,1959.984 465.290572,1960.176 465.266571,1960.176 C465.242571,1960.176 465.218572,1960.272 465.194571,1960.464 C465.170571,1960.656 465.050572,1960.932 464.834571,1961.292 C464.61857,1961.652 464.498572,1961.832 464.474571,1961.832 C464.450571,1961.832 464.402572,1962.012 464.330571,1962.372 C464.258571,1962.732 464.090573,1963.032 463.826571,1963.272 Z M530.030571,1950.564 L529.526571,1950.744 L525.854571,1950.492 C523.406559,1950.324 522.050573,1950.204 521.786571,1950.132 C521.52257,1950.06 521.318572,1949.856 521.174571,1949.52 C521.030571,1949.184 520.826573,1948.824 520.562571,1948.44 C520.29857,1948.056 521.402559,1947.96 523.874571,1948.152 C526.346584,1948.344 529.238555,1948.092 532.550571,1947.396 C535.862588,1946.7 538.454562,1946.1 540.326571,1945.596 C542.198581,1945.092 544.022562,1944.66 545.798571,1944.3 C547.57458,1943.94 549.302563,1943.544 550.982571,1943.112 C552.66258,1942.68 554.498561,1942.32 556.490571,1942.032 C558.482581,1941.744 560.078565,1941.588 561.278571,1941.564 C562.478577,1941.54 563.042572,1941.48 562.970571,1941.384 C562.898571,1941.288 563.054569,1941.264 563.438571,1941.312 C563.822573,1941.36 564.374568,1941.42 565.094571,1941.492 C565.814575,1941.564 566.35457,1941.672 566.714571,1941.816 C567.074573,1941.96 567.41057,1942.2 567.722571,1942.536 C568.034573,1942.872 568.202571,1943.172 568.226571,1943.436 C568.250571,1943.7 568.250571,1943.952 568.226571,1944.192 C568.202571,1944.432 568.106572,1944.624 567.938571,1944.768 C567.77057,1944.912 567.470573,1944.984 567.038571,1944.984 C566.606569,1944.984 566.174573,1944.936 565.742571,1944.84 C565.310569,1944.744 565.010572,1944.6 564.842571,1944.408 C564.67457,1944.216 563.942578,1944.036 562.646571,1943.868 C561.350565,1943.7 560.366575,1943.592 559.694571,1943.544 C559.022568,1943.496 558.590572,1943.484 558.398571,1943.508 C558.20657,1943.532 558.050572,1943.544 557.930571,1943.544 C557.810571,1943.544 557.642572,1943.556 557.426571,1943.58 C557.21057,1943.604 557.054572,1943.616 556.958571,1943.616 C556.862571,1943.616 556.694573,1943.628 556.454571,1943.652 C556.21457,1943.676 556.058572,1943.688 555.986571,1943.688 C555.914571,1943.688 555.746573,1943.7 555.482571,1943.724 C555.21857,1943.748 555.050572,1943.76 554.978571,1943.76 C554.906571,1943.76 554.534575,1943.82 553.862571,1943.94 C553.190568,1944.06 552.830572,1944.12 552.782571,1944.12 C552.734571,1944.12 552.530573,1944.156 552.170571,1944.228 C551.81057,1944.3 551.618571,1944.336 551.594571,1944.336 C551.570571,1944.336 551.426573,1944.36 551.162571,1944.408 C550.89857,1944.456 550.658572,1944.48 550.442571,1944.48 C550.22657,1944.48 549.950573,1944.528 549.614571,1944.624 C549.27857,1944.72 549.062572,1944.768 548.966571,1944.768 C548.870571,1944.768 548.570574,1944.816 548.066571,1944.912 C547.562569,1945.008 547.190573,1945.056 546.950571,1945.056 C546.71057,1945.056 546.422573,1945.104 546.086571,1945.2 C545.75057,1945.296 545.498572,1945.344 545.330571,1945.344 C545.16257,1945.344 545.042572,1945.356 544.970571,1945.38 C544.898571,1945.404 544.802572,1945.416 544.682571,1945.416 C544.562571,1945.416 544.334573,1945.512 543.998571,1945.704 C543.66257,1945.896 543.458572,1945.992 543.386571,1945.992 C543.314571,1945.992 543.254572,1946.028 543.206571,1946.1 C543.158571,1946.172 543.098572,1946.208 543.026571,1946.208 C542.954571,1946.208 542.426576,1946.484 541.442571,1947.036 C540.458566,1947.588 539.678574,1947.948 539.102571,1948.116 C538.526568,1948.284 537.698577,1948.512 536.618571,1948.8 C535.538566,1949.088 534.782573,1949.292 534.350571,1949.412 C533.918569,1949.532 533.642572,1949.592 533.522571,1949.592 C533.402571,1949.592 533.246572,1949.64 533.054571,1949.736 C532.86257,1949.832 532.706572,1949.88 532.586571,1949.88 C532.466571,1949.88 532.142574,1949.964 531.614571,1950.132 C531.086569,1950.3 530.774572,1950.384 530.678571,1950.384 C530.582571,1950.384 530.366573,1950.444 530.030571,1950.564 Z M548.930571,1957.728 L548.678571,1957.944 L548.534571,1957.944 C548.438571,1957.944 548.318572,1957.896 548.174571,1957.8 C548.030571,1957.704 547.826573,1957.356 547.562571,1956.756 C547.29857,1956.156 546.998573,1955.652 546.662571,1955.244 C546.32657,1954.836 546.146571,1952.95202 546.122571,1949.592 C546.098571,1946.23198 545.906573,1943.67601 545.546571,1941.924 C545.18657,1940.17199 544.682575,1938.84 544.034571,1937.928 C543.386568,1937.016 542.954572,1936.584 542.738571,1936.632 C542.52257,1936.68 542.294573,1936.68 542.054571,1936.632 C541.81457,1936.584 541.622572,1936.38 541.478571,1936.02 C541.334571,1935.66 541.070573,1935.204 540.686571,1934.652 C540.302569,1934.1 540.27857,1933.776 540.614571,1933.68 C540.950573,1933.584 541.334569,1933.548 541.766571,1933.572 C542.198573,1933.596 542.58257,1933.704 542.918571,1933.896 C543.254573,1934.088 543.59057,1934.424 543.926571,1934.904 C544.262573,1935.384 544.478571,1935.732 544.574571,1935.948 C544.670572,1936.164 544.778571,1936.344 544.898571,1936.488 C545.018572,1936.632 545.402568,1937.21999 546.050571,1938.252 C546.698575,1939.28401 547.082571,1939.956 547.202571,1940.268 C547.322572,1940.58 547.406571,1940.964 547.454571,1941.42 C547.502572,1941.876 547.598571,1942.404 547.742571,1943.004 C547.886572,1943.604 547.982571,1944.144 548.030571,1944.624 C548.078572,1945.104 548.138571,1945.464 548.210571,1945.704 C548.282572,1945.944 548.258572,1946.388 548.138571,1947.036 C548.018571,1947.684 548.12657,1948.176 548.462571,1948.512 C548.798573,1948.848 548.954571,1949.83199 548.930571,1951.464 C548.906571,1953.09601 548.930571,1954.116 549.002571,1954.524 C549.074572,1954.932 549.146571,1955.316 549.218571,1955.676 C549.290572,1956.036 549.302572,1956.432 549.254571,1956.864 C549.206571,1957.296 549.098572,1957.584 548.930571,1957.728 Z M548.930571,1959.168 L548.678571,1959.384 L548.534571,1959.384 C548.438571,1959.384 548.318572,1959.336 548.174571,1959.24 C548.030571,1959.144 547.826573,1958.796 547.562571,1958.196 C547.29857,1957.596 546.998573,1957.092 546.662571,1956.684 C546.32657,1956.276 546.146571,1955.952 546.122571,1955.712 C546.098571,1955.472 546.122571,1955.316 546.194571,1955.244 C546.266572,1955.172 546.47057,1955.076 546.806571,1954.956 C547.142573,1954.836 547.586569,1954.572 548.138571,1954.164 C548.690574,1953.756 549.158569,1953.456 549.542571,1953.264 C549.926573,1953.072 550.190571,1952.916 550.334571,1952.796 C550.478572,1952.676 551.030567,1951.92001 551.990571,1950.528 C552.950576,1949.13599 553.682569,1947.96 554.186571,1947 C554.690574,1946.04 555.194569,1944.44401 555.698571,1942.212 C556.202574,1939.97999 556.358572,1938.30001 556.166571,1937.172 C555.97457,1936.04399 555.794572,1935.528 555.626571,1935.624 C555.45857,1935.72 555.314572,1935.768 555.194571,1935.768 C555.074571,1935.768 554.942572,1935.72 554.798571,1935.624 C554.654571,1935.528 554.462573,1935.204 554.222571,1934.652 C553.98257,1934.1 553.682573,1933.584 553.322571,1933.104 C552.96257,1932.624 553.130568,1932.192 553.826571,1931.808 C554.522575,1931.424 555.074569,1931.232 555.482571,1931.232 C555.890573,1931.232 556.27457,1931.304 556.634571,1931.448 C556.994573,1931.592 557.33057,1931.832 557.642571,1932.168 C557.954573,1932.504 558.170571,1932.984 558.290571,1933.608 C558.410572,1934.232 558.494571,1934.76 558.542571,1935.192 C558.590572,1935.624 558.69857,1936.284 558.866571,1937.172 C559.034572,1938.06 559.166571,1938.936 559.262571,1939.8 C559.358572,1940.664 559.106574,1942.21199 558.506571,1944.444 C557.906568,1946.67601 557.366574,1948.2 556.886571,1949.016 C556.406569,1949.832 556.33457,1950.312 556.670571,1950.456 C557.006573,1950.6 557.33057,1950.84 557.642571,1951.176 C557.954573,1951.512 558.134571,1951.884 558.182571,1952.292 C558.230572,1952.7 558.206572,1953.036 558.110571,1953.3 C558.014571,1953.564 557.822573,1953.78 557.534571,1953.948 C557.24657,1954.116 556.910573,1954.176 556.526571,1954.128 C556.142569,1954.08 555.830573,1954.104 555.590571,1954.2 C555.35057,1954.296 555.182572,1954.344 555.086571,1954.344 C554.990571,1954.344 554.882572,1954.392 554.762571,1954.488 C554.642571,1954.584 554.546572,1954.632 554.474571,1954.632 C554.402571,1954.632 554.318572,1954.68 554.222571,1954.776 C554.126571,1954.872 554.054572,1954.92 554.006571,1954.92 C553.958571,1954.92 553.754573,1955.04 553.394571,1955.28 C553.03457,1955.52 552.830572,1955.64 552.782571,1955.64 C552.734571,1955.64 552.530573,1955.76 552.170571,1956 C551.81057,1956.24 551.606572,1956.36 551.558571,1956.36 C551.510571,1956.36 551.354573,1956.528 551.090571,1956.864 C550.82657,1957.2 550.490573,1957.536 550.082571,1957.872 C549.674569,1958.208 549.446572,1958.376 549.398571,1958.376 C549.350571,1958.376 549.302572,1958.472 549.254571,1958.664 C549.206571,1958.856 549.098572,1959.024 548.930571,1959.168 Z M546.590571,1969.932 L545.222571,1970.904 L544.178571,1970.616 C543.482568,1970.424 542.978573,1970.184 542.666571,1969.896 C542.35457,1969.608 542.018573,1969.104 541.658571,1968.384 C541.29857,1967.664 540.998573,1967.16 540.758571,1966.872 C540.51857,1966.584 540.206573,1966.08 539.822571,1965.36 C539.438569,1964.64 539.150572,1963.75201 538.958571,1962.696 C538.76657,1961.63999 538.514573,1960.52401 538.202571,1959.348 C537.89057,1958.17199 537.626572,1957.03201 537.410571,1955.928 C537.19457,1954.82399 536.954573,1953.78 536.690571,1952.796 C536.42657,1951.812 535.970575,1950.37201 535.322571,1948.476 C534.674568,1946.57999 534.050574,1944.61201 533.450571,1942.572 C532.850568,1940.53199 532.826569,1939.524 533.378571,1939.548 C533.930574,1939.572 534.38657,1939.656 534.746571,1939.8 C535.106573,1939.944 535.44257,1940.184 535.754571,1940.52 C536.066573,1940.856 536.234571,1941.156 536.258571,1941.42 C536.282571,1941.684 536.282571,1941.936 536.258571,1942.176 C536.234571,1942.416 536.210571,1942.536 536.186571,1942.536 C536.162571,1942.536 536.162571,1942.692 536.186571,1943.004 C536.210571,1943.316 536.30657,1943.76 536.474571,1944.336 C536.642572,1944.912 536.762571,1945.38 536.834571,1945.74 C536.906572,1946.1 537.002571,1946.424 537.122571,1946.712 C537.242572,1947 537.326571,1947.288 537.374571,1947.576 C537.422572,1947.864 537.506571,1948.14 537.626571,1948.404 C537.746572,1948.668 537.830571,1948.944 537.878571,1949.232 C537.926572,1949.52 538.022571,1949.844 538.166571,1950.204 C538.310572,1950.564 538.406571,1950.888 538.454571,1951.176 C538.502572,1951.464 538.562571,1951.668 538.634571,1951.788 C538.706572,1951.908 538.766571,1952.136 538.814571,1952.472 C538.862572,1952.808 538.97057,1953.24 539.138571,1953.768 C539.306572,1954.296 539.426571,1955.052 539.498571,1956.036 C539.570572,1957.02 539.70257,1957.86 539.894571,1958.556 C540.086572,1959.252 540.31457,1959.948 540.578571,1960.644 C540.842573,1961.34 541.010571,1961.796 541.082571,1962.012 C541.154572,1962.228 541.202571,1962.432 541.226571,1962.624 C541.250571,1962.816 541.334571,1963.128 541.478571,1963.56 C541.622572,1963.992 541.754571,1964.448 541.874571,1964.928 C541.994572,1965.408 542.15057,1965.768 542.342571,1966.008 C542.534572,1966.248 542.702571,1966.512 542.846571,1966.8 C542.990572,1967.088 543.15857,1967.196 543.350571,1967.124 C543.542572,1967.052 543.890569,1966.956 544.394571,1966.836 C544.898574,1966.716 545.450568,1966.524 546.050571,1966.26 C546.650574,1965.996 546.902572,1965.732 546.806571,1965.468 C546.710571,1965.204 546.542573,1964.904 546.302571,1964.568 C546.06257,1964.232 546.06257,1964.064 546.302571,1964.064 C546.542573,1964.064 547.022568,1964.208 547.742571,1964.496 C548.462575,1964.784 549.290567,1964.712 550.226571,1964.28 C551.162576,1963.848 552.134566,1963.464 553.142571,1963.128 C554.150576,1962.792 555.326565,1962.624 556.670571,1962.624 C558.014578,1962.624 558.86657,1962.696 559.226571,1962.84 C559.586573,1962.984 559.91057,1963.212 560.198571,1963.524 C560.486573,1963.836 560.666571,1964.136 560.738571,1964.424 C560.810572,1964.712 560.822572,1965.072 560.774571,1965.504 C560.726571,1965.936 560.618572,1966.224 560.450571,1966.368 C560.28257,1966.512 560.114572,1966.56 559.946571,1966.512 C559.77857,1966.464 559.562573,1966.524 559.298571,1966.692 C559.03457,1966.86 558.470576,1967.052 557.606571,1967.268 C556.742567,1967.484 555.938575,1967.568 555.194571,1967.52 C554.450568,1967.472 553.946573,1967.436 553.682571,1967.412 C553.41857,1967.388 552.902575,1967.352 552.134571,1967.304 C551.366567,1967.256 550.886572,1967.316 550.694571,1967.484 C550.50257,1967.652 550.370572,1967.736 550.298571,1967.736 C550.226571,1967.736 550.106572,1967.808 549.938571,1967.952 C549.77057,1968.096 549.650572,1968.168 549.578571,1968.168 C549.506571,1968.168 549.254573,1968.3 548.822571,1968.564 C548.390569,1968.828 548.138572,1968.96 548.066571,1968.96 C547.994571,1968.96 547.502576,1969.284 546.590571,1969.932 Z M614.450571,1941.528 L614.198571,1941.744 L613.910571,1941.672 C613.71857,1941.624 613.586572,1941.516 613.514571,1941.348 C613.442571,1941.18 613.262573,1940.82 612.974571,1940.268 C612.68657,1939.716 612.410573,1939.284 612.146571,1938.972 C611.88257,1938.66 611.738571,1938.42 611.714571,1938.252 C611.690571,1938.084 611.642572,1937.928 611.570571,1937.784 C611.498571,1937.64 611.498571,1937.568 611.570571,1937.568 C611.642572,1937.568 611.642572,1937.4 611.570571,1937.064 C611.498571,1936.728 611.450571,1936.212 611.426571,1935.516 C611.402571,1934.82 611.354572,1934.256 611.282571,1933.824 C611.210571,1933.392 611.018573,1932.57601 610.706571,1931.376 C610.39457,1930.17599 609.782576,1928.97601 608.870571,1927.776 C607.958567,1926.57599 607.418572,1925.772 607.250571,1925.364 C607.08257,1924.956 606.782573,1924.44 606.350571,1923.816 C605.918569,1923.192 605.87057,1922.88 606.206571,1922.88 C606.542573,1922.88 606.84257,1922.928 607.106571,1923.024 C607.370573,1923.12 607.59857,1923.24 607.790571,1923.384 C607.982572,1923.528 608.882563,1924.66799 610.490571,1926.804 C612.098579,1928.94001 612.974571,1930.212 613.118571,1930.62 C613.262572,1931.028 613.514569,1931.97599 613.874571,1933.464 C614.234573,1934.95201 614.438571,1936.116 614.486571,1936.956 C614.534571,1937.796 614.606571,1938.42 614.702571,1938.828 C614.798572,1939.236 614.822571,1939.752 614.774571,1940.376 C614.726571,1941 614.618572,1941.384 614.450571,1941.528 Z M624.962571,1941.024 L624.062571,1941.456 L622.334571,1941.456 C621.182565,1941.456 620.546572,1941.42 620.426571,1941.348 C620.306571,1941.276 620.150572,1941.012 619.958571,1940.556 C619.76657,1940.1 619.466573,1939.584 619.058571,1939.008 C618.650569,1938.432 618.974566,1938.132 620.030571,1938.108 C621.086577,1938.084 621.818569,1937.988 622.226571,1937.82 C622.634573,1937.652 623.186568,1937.316 623.882571,1936.812 C624.578575,1936.308 625.190569,1935.804 625.718571,1935.3 C626.246574,1934.796 626.930567,1933.94401 627.770571,1932.744 C628.610575,1931.54399 629.534566,1930.15201 630.542571,1928.568 C631.550576,1926.98399 632.234569,1925.65201 632.594571,1924.572 C632.954573,1923.49199 633.050572,1922.928 632.882571,1922.88 C632.71457,1922.832 632.270575,1922.796 631.550571,1922.772 C630.830568,1922.748 630.458571,1922.748 630.434571,1922.772 C630.410571,1922.796 629.918576,1922.808 628.958571,1922.808 C627.998566,1922.808 627.482572,1922.82 627.410571,1922.844 C627.338571,1922.868 627.194572,1922.88 626.978571,1922.88 C626.76257,1922.88 626.558572,1922.928 626.366571,1923.024 C626.17457,1923.12 626.006572,1923.168 625.862571,1923.168 C625.718571,1923.168 625.586572,1923.204 625.466571,1923.276 C625.346571,1923.348 625.226572,1923.384 625.106571,1923.384 C624.986571,1923.384 624.542575,1923.516 623.774571,1923.78 C623.006567,1924.044 622.322574,1924.272 621.722571,1924.464 C621.122568,1924.656 620.486575,1924.86 619.814571,1925.076 C619.142568,1925.292 618.638573,1925.46 618.302571,1925.58 C617.96657,1925.7 617.750572,1925.76 617.654571,1925.76 C617.558571,1925.76 617.438572,1925.808 617.294571,1925.904 C617.150571,1926 617.030572,1926.048 616.934571,1926.048 C616.838571,1926.048 616.574573,1926.156 616.142571,1926.372 C615.710569,1926.588 614.834578,1926.756 613.514571,1926.876 C612.194565,1926.996 611.402573,1927.056 611.138571,1927.056 C610.87457,1927.056 610.586573,1926.972 610.274571,1926.804 C609.96257,1926.636 609.710572,1926.324 609.518571,1925.868 C609.32657,1925.412 609.026573,1924.896 608.618571,1924.32 C608.210569,1923.744 608.186569,1923.456 608.546571,1923.456 C608.906573,1923.456 609.122571,1923.48 609.194571,1923.528 C609.266572,1923.576 609.914565,1923.564 611.138571,1923.492 C612.362577,1923.42 613.490566,1923.228 614.522571,1922.916 C615.554576,1922.604 617.090561,1922.184 619.130571,1921.656 C621.170581,1921.128 623.33056,1920.72 625.610571,1920.432 C627.890583,1920.144 629.774564,1920 631.262571,1920 C632.750579,1920 633.66257,1920.072 633.998571,1920.216 C634.334573,1920.36 634.67057,1920.588 635.006571,1920.9 C635.342573,1921.212 635.65457,1921.596 635.942571,1922.052 C636.230573,1922.508 636.386571,1923.108 636.410571,1923.852 C636.434571,1924.596 636.410572,1925.088 636.338571,1925.328 C636.266571,1925.568 635.930574,1926.23999 635.330571,1927.344 C634.730568,1928.44801 634.406571,1929 634.358571,1929 C634.310571,1929 634.082573,1929.3 633.674571,1929.9 C633.266569,1930.5 632.906573,1930.968 632.594571,1931.304 C632.28257,1931.64 632.102571,1931.808 632.054571,1931.808 C632.006571,1931.808 631.862572,1931.964 631.622571,1932.276 C631.38257,1932.588 631.250571,1932.744 631.226571,1932.744 C631.202571,1932.744 631.166571,1932.804 631.118571,1932.924 C631.070571,1933.044 630.902573,1933.344 630.614571,1933.824 C630.32657,1934.304 630.170571,1934.544 630.146571,1934.544 C630.122571,1934.544 630.098571,1934.604 630.074571,1934.724 C630.050571,1934.844 630.026571,1934.904 630.002571,1934.904 C629.978571,1934.904 629.858572,1935.168 629.642571,1935.696 C629.42657,1936.224 629.174573,1936.692 628.886571,1937.1 C628.59857,1937.508 628.442571,1937.712 628.418571,1937.712 C628.394571,1937.712 628.310572,1937.82 628.166571,1938.036 C628.022571,1938.252 627.938571,1938.36 627.914571,1938.36 C627.890571,1938.36 627.758572,1938.516 627.518571,1938.828 C627.27857,1939.14 626.942573,1939.512 626.510571,1939.944 C626.078569,1940.376 625.562574,1940.736 624.962571,1941.024 Z M615.854571,1938.936 L615.926571,1938.936 L617.114571,1938.108 C617.906575,1937.556 618.578568,1937.016 619.130571,1936.488 C619.682574,1935.96 619.910572,1935.66 619.814571,1935.588 C619.718571,1935.516 619.490573,1935.3 619.130571,1934.94 C618.770569,1934.58 618.470572,1934.436 618.230571,1934.508 C617.99057,1934.58 617.834572,1934.616 617.762571,1934.616 C617.690571,1934.616 617.594572,1934.868 617.474571,1935.372 C617.354571,1935.876 617.174572,1936.344 616.934571,1936.776 C616.69457,1937.208 616.562571,1937.424 616.538571,1937.424 C616.514571,1937.424 616.382572,1937.676 616.142571,1938.18 C615.90257,1938.684 615.806571,1938.936 615.854571,1938.936 Z M603.110571,1963.308 L602.390571,1963.632 L601.958571,1963.632 C601.67057,1963.632 601.478572,1963.608 601.382571,1963.56 C601.286571,1963.512 601.190572,1963.38 601.094571,1963.164 C600.998571,1962.948 600.842572,1962.624 600.626571,1962.192 C600.41057,1961.76 600.158573,1961.364 599.870571,1961.004 C599.58257,1960.644 599.378572,1960.344 599.258571,1960.104 C599.138571,1959.864 599.066571,1959.552 599.042571,1959.168 C599.018571,1958.784 599.186569,1958.604 599.546571,1958.628 C599.906573,1958.652 600.21857,1958.712 600.482571,1958.808 C600.746573,1958.904 600.98657,1959.048 601.202571,1959.24 C601.418572,1959.432 601.718569,1959.384 602.102571,1959.096 C602.486573,1958.808 603.038568,1958.268 603.758571,1957.476 C604.478575,1956.684 605.174568,1955.856 605.846571,1954.992 C606.518575,1954.128 607.142568,1953.228 607.718571,1952.292 C608.294574,1951.356 608.73857,1950.54 609.050571,1949.844 C609.362573,1949.148 609.938567,1947.96001 610.778571,1946.28 C611.618575,1944.59999 611.894573,1943.544 611.606571,1943.112 C611.31857,1942.68 611.246571,1942.368 611.390571,1942.176 C611.534572,1941.984 611.834569,1941.756 612.290571,1941.492 C612.746574,1941.228 613.034571,1941.024 613.154571,1940.88 C613.274572,1940.736 613.49057,1940.05201 613.802571,1938.828 C614.114573,1937.60399 614.150572,1936.788 613.910571,1936.38 C613.67057,1935.972 613.430572,1935.636 613.190571,1935.372 C612.95057,1935.108 612.92657,1934.43601 613.118571,1933.356 C613.310572,1932.27599 613.742568,1931.652 614.414571,1931.484 C615.086575,1931.316 615.458571,1931.196 615.530571,1931.124 C615.602572,1931.052 615.650571,1930.41601 615.674571,1929.216 C615.698571,1928.01599 615.890569,1927.428 616.250571,1927.452 C616.610573,1927.476 616.95857,1927.56 617.294571,1927.704 C617.630573,1927.848 617.95457,1928.088 618.266571,1928.424 C618.578573,1928.76 618.758571,1929.144 618.806571,1929.576 C618.854571,1930.008 619.298567,1930.104 620.138571,1929.864 C620.978575,1929.624 621.650569,1929.504 622.154571,1929.504 C622.658574,1929.504 623.450566,1929.72 624.530571,1930.152 C625.610577,1930.584 626.29457,1930.956 626.582571,1931.268 C626.870573,1931.58 627.050571,1931.88 627.122571,1932.168 C627.194572,1932.456 627.170572,1932.924 627.050571,1933.572 C626.930571,1934.22 626.858571,1934.544 626.834571,1934.544 C626.810571,1934.544 626.846571,1934.616 626.942571,1934.76 C627.038572,1934.904 627.098571,1935.108 627.122571,1935.372 C627.146571,1935.636 627.146571,1935.876 627.122571,1936.092 C627.098571,1936.308 627.002572,1936.5 626.834571,1936.668 C626.66657,1936.836 626.342574,1936.98 625.862571,1937.1 C625.382569,1937.22 625.106572,1937.28 625.034571,1937.28 C624.962571,1937.28 624.602574,1937.436 623.954571,1937.748 C623.306568,1938.06 622.958571,1938.216 622.910571,1938.216 C622.862571,1938.216 622.778572,1938.288 622.658571,1938.432 C622.538571,1938.576 622.142575,1938.948 621.470571,1939.548 C620.798568,1940.148 620.438571,1940.448 620.390571,1940.448 C620.342571,1940.448 620.198572,1940.556 619.958571,1940.772 C619.71857,1940.988 619.574571,1941.096 619.526571,1941.096 C619.478571,1941.096 619.310573,1941.204 619.022571,1941.42 C618.73457,1941.636 618.566571,1941.744 618.518571,1941.744 C618.470571,1941.744 618.410572,1941.792 618.338571,1941.888 C618.266571,1941.984 618.206571,1942.032 618.158571,1942.032 C618.110571,1942.032 617.978572,1942.116 617.762571,1942.284 C617.54657,1942.452 617.414571,1942.536 617.366571,1942.536 C617.318571,1942.536 617.246572,1942.596 617.150571,1942.716 C617.054571,1942.836 616.982571,1942.896 616.934571,1942.896 C616.886571,1942.896 616.718573,1943.076 616.430571,1943.436 C616.14257,1943.796 615.770574,1944.216 615.314571,1944.696 C614.858569,1945.176 614.438573,1945.404 614.054571,1945.38 C613.670569,1945.356 613.142575,1946.06399 612.470571,1947.504 C611.798568,1948.94401 611.258573,1950.108 610.850571,1950.996 C610.442569,1951.884 610.226571,1952.328 610.202571,1952.328 C610.178571,1952.328 610.070572,1952.52 609.878571,1952.904 C609.68657,1953.288 609.578571,1953.48 609.554571,1953.48 C609.530571,1953.48 609.158575,1954.15199 608.438571,1955.496 C607.718568,1956.84001 607.346571,1957.512 607.322571,1957.512 C607.298571,1957.512 607.166572,1957.716 606.926571,1958.124 C606.68657,1958.532 606.254574,1959.204 605.630571,1960.14 C605.006568,1961.076 604.682571,1961.544 604.658571,1961.544 C604.634571,1961.544 604.490573,1961.784 604.226571,1962.264 C603.96257,1962.744 603.590574,1963.092 603.110571,1963.308 Z M647.210571,1954.776 L646.958571,1954.992 L646.418571,1954.812 C646.058569,1954.692 645.530575,1954.608 644.834571,1954.56 C644.138568,1954.512 643.622573,1954.44 643.286571,1954.344 C642.95057,1954.248 642.422575,1954.128 641.702571,1953.984 L639.542571,1953.552 C638.822568,1953.408 638.306573,1953.312 637.994571,1953.264 C637.68257,1953.216 637.274574,1953.108 636.770571,1952.94 C636.266569,1952.772 635.894572,1952.664 635.654571,1952.616 C635.41457,1952.568 635.126573,1952.472 634.790571,1952.328 C634.45457,1952.184 633.950575,1952.016 633.278571,1951.824 C632.606568,1951.632 632.006574,1951.392 631.478571,1951.104 C630.950569,1950.816 630.626572,1950.66 630.506571,1950.636 C630.386571,1950.612 629.846576,1950.348 628.886571,1949.844 C627.926566,1949.34 626.666579,1948.40401 625.106571,1947.036 C623.546563,1945.66799 622.670572,1944.756 622.478571,1944.3 C622.28657,1943.844 621.986573,1943.328 621.578571,1942.752 C621.170569,1942.176 621.13457,1941.888 621.470571,1941.888 C621.806573,1941.888 622.07057,1941.924 622.262571,1941.996 C622.454572,1942.068 622.67057,1942.176 622.910571,1942.32 C623.150572,1942.464 623.954564,1943.14799 625.322571,1944.372 C626.690578,1945.59601 627.758567,1946.412 628.526571,1946.82 C629.294575,1947.228 629.918569,1947.576 630.398571,1947.864 C630.878574,1948.152 631.586567,1948.476 632.522571,1948.836 C633.458576,1949.196 634.634564,1949.592 636.050571,1950.024 C637.466578,1950.456 638.750565,1950.768 639.902571,1950.96 C641.054577,1951.152 642.158566,1951.272 643.214571,1951.32 C644.270577,1951.368 645.074568,1951.5 645.626571,1951.716 C646.178574,1951.932 646.62257,1952.22 646.958571,1952.58 C647.294573,1952.94 647.474571,1953.252 647.498571,1953.516 C647.522571,1953.78 647.522571,1954.02 647.498571,1954.236 C647.474571,1954.452 647.378572,1954.632 647.210571,1954.776 Z M614.450571,1967.16 L614.198571,1967.376 L613.910571,1967.304 C613.71857,1967.256 613.586572,1967.148 613.514571,1966.98 C613.442571,1966.812 613.262573,1966.452 612.974571,1965.9 C612.68657,1965.348 612.410573,1964.916 612.146571,1964.604 C611.88257,1964.292 611.738571,1964.028 611.714571,1963.812 C611.690571,1963.596 611.726571,1963.488 611.822571,1963.488 C611.918572,1963.488 611.966571,1963.308 611.966571,1962.948 C611.966571,1962.588 612.05057,1962.048 612.218571,1961.328 C612.386572,1960.608 612.518571,1959.52801 612.614571,1958.088 C612.710572,1956.64799 612.722572,1955.856 612.650571,1955.712 C612.578571,1955.568 612.362573,1955.244 612.002571,1954.74 C611.642569,1954.236 611.61857,1953.984 611.930571,1953.984 C612.242573,1953.984 612.53057,1954.032 612.794571,1954.128 C613.058573,1954.224 613.502568,1954.512 614.126571,1954.992 C614.750574,1955.472 615.17057,1955.856 615.386571,1956.144 C615.602572,1956.432 615.698571,1956.96 615.674571,1957.728 C615.650571,1958.496 615.626571,1958.88 615.602571,1958.88 C615.578571,1958.88 615.518572,1959.372 615.422571,1960.356 C615.326571,1961.34 615.182572,1962.312 614.990571,1963.272 C614.79857,1964.232 614.690571,1964.712 614.666571,1964.712 C614.642571,1964.712 614.666571,1964.892 614.738571,1965.252 C614.810572,1965.612 614.822571,1965.984 614.774571,1966.368 C614.726571,1966.752 614.618572,1967.016 614.450571,1967.16 Z M625.034571,1981.776 L624.926571,1981.848 L624.710571,1981.812 C624.566571,1981.788 624.446572,1981.656 624.350571,1981.416 C624.254571,1981.176 624.098572,1980.924 623.882571,1980.66 C623.66657,1980.396 623.546571,1979.11201 623.522571,1976.808 C623.498571,1974.50399 623.450572,1973.04 623.378571,1972.416 C623.306571,1971.792 623.258571,1969.87202 623.234571,1966.656 C623.210571,1963.43998 623.150572,1960.92001 623.054571,1959.096 C622.958571,1957.27199 622.742573,1955.52001 622.406571,1953.84 C622.07057,1952.15999 621.794572,1951.188 621.578571,1950.924 C621.36257,1950.66 621.434569,1950.528 621.794571,1950.528 C622.154573,1950.528 622.43057,1950.564 622.622571,1950.636 C622.814572,1950.708 623.102569,1950.852 623.486571,1951.068 C623.870573,1951.284 624.19457,1951.56 624.458571,1951.896 C624.722573,1952.232 624.99857,1953.33599 625.286571,1955.208 C625.574573,1957.08001 625.718571,1958.92799 625.718571,1960.752 C625.718571,1962.57601 625.670572,1964.18399 625.574571,1965.576 C625.478571,1966.96801 625.322572,1968.21599 625.106571,1969.32 C624.89057,1970.42401 624.770571,1970.976 624.746571,1970.976 C624.722571,1970.976 624.770571,1971.50399 624.890571,1972.56 C625.010572,1973.61601 625.082571,1975.40399 625.106571,1977.924 C625.130571,1980.44401 625.106572,1981.728 625.034571,1981.776 Z M678.890571,1971.192 C679.058572,1971.048 679.166571,1970.88 679.214571,1970.688 C679.262571,1970.496 679.274571,1969.956 679.250571,1969.068 C679.226571,1968.18 679.166572,1967.664 679.070571,1967.52 C678.974571,1967.376 678.926571,1966.58401 678.926571,1965.144 C678.926571,1963.70399 678.938571,1962.984 678.962571,1962.984 C678.986571,1962.984 679.09457,1962.04801 679.286571,1960.176 C679.478572,1958.30399 679.598571,1956.82801 679.646571,1955.748 C679.694571,1954.66799 679.730571,1954.128 679.754571,1954.128 C679.778571,1954.128 679.850571,1953.72 679.970571,1952.904 C680.090572,1952.088 680.114572,1951.2 680.042571,1950.24 C679.970571,1949.28 679.874572,1948.596 679.754571,1948.188 C679.634571,1947.78 679.418573,1947.408 679.106571,1947.072 C678.79457,1946.736 678.458573,1946.46 678.098571,1946.244 C677.738569,1946.028 677.63057,1945.812 677.774571,1945.596 C677.918572,1945.38 678.002571,1945.272 678.026571,1945.272 C678.050571,1945.272 678.23057,1945.02 678.566571,1944.516 C678.902573,1944.012 679.094571,1943.76 679.142571,1943.76 C679.190571,1943.76 679.478569,1943.436 680.006571,1942.788 C680.534574,1942.14 680.95457,1941.576 681.266571,1941.096 C681.578573,1940.616 681.746571,1940.376 681.770571,1940.376 C681.794571,1940.376 681.90257,1940.22 682.094571,1939.908 C682.286572,1939.596 682.394571,1939.44 682.418571,1939.44 C682.442571,1939.44 682.53857,1939.296 682.706571,1939.008 C682.874572,1938.72 683.05457,1938.288 683.246571,1937.712 C683.438572,1937.136 683.534571,1936.632 683.534571,1936.2 C683.534571,1935.768 683.486572,1935.348 683.390571,1934.94 C683.294571,1934.532 683.234571,1934.196 683.210571,1933.932 C683.186571,1933.668 682.970573,1933.32 682.562571,1932.888 C682.154569,1932.456 681.842572,1932.18 681.626571,1932.06 C681.41057,1931.94 681.314571,1931.88 681.338571,1931.88 C681.362571,1931.88 681.578569,1931.688 681.986571,1931.304 C682.394573,1930.92 682.850569,1930.38 683.354571,1929.684 C683.858574,1928.988 684.110571,1928.448 684.110571,1928.064 C684.110571,1927.68 684.026572,1927.368 683.858571,1927.128 C683.69057,1926.888 683.486572,1926.684 683.246571,1926.516 C683.00657,1926.348 682.790572,1926.228 682.598571,1926.156 C682.40657,1926.084 682.130573,1926.048 681.770571,1926.048 C681.410569,1926.048 680.930574,1926.456 680.330571,1927.272 C679.730568,1928.088 678.614579,1929.29999 676.982571,1930.908 C675.350563,1932.51601 674.246574,1933.56 673.670571,1934.04 C673.094568,1934.52 672.710572,1934.808 672.518571,1934.904 C672.32657,1935 672.170572,1935.132 672.050571,1935.3 C671.930571,1935.468 672.02657,1935.768 672.338571,1936.2 C672.650573,1936.632 672.91457,1937.076 673.130571,1937.532 C673.346572,1937.988 673.646569,1938.276 674.030571,1938.396 C674.414573,1938.516 674.69057,1938.504 674.858571,1938.36 C675.026572,1938.216 675.326569,1937.916 675.758571,1937.46 C676.190573,1937.004 676.430571,1936.776 676.478571,1936.776 C676.526571,1936.776 676.68257,1936.656 676.946571,1936.416 C677.210573,1936.176 677.366571,1936.056 677.414571,1936.056 C677.462571,1936.056 677.666569,1935.924 678.026571,1935.66 C678.386573,1935.396 678.590571,1935.264 678.638571,1935.264 C678.686571,1935.264 678.770571,1935.216 678.890571,1935.12 C679.010572,1935.024 679.17857,1934.976 679.394571,1934.976 C679.610572,1934.976 679.80257,1934.964 679.970571,1934.94 C680.138572,1934.916 680.150572,1935.132 680.006571,1935.588 C679.86257,1936.044 679.370575,1936.90799 678.530571,1938.18 C677.690567,1939.45201 676.910575,1940.556 676.190571,1941.492 C675.470568,1942.428 674.714575,1943.28 673.922571,1944.048 C673.130567,1944.816 672.662572,1945.224 672.518571,1945.272 C672.37457,1945.32 672.230572,1945.44 672.086571,1945.632 C671.94257,1945.824 672.074569,1946.208 672.482571,1946.784 C672.890573,1947.36 673.19057,1947.876 673.382571,1948.332 C673.574572,1948.788 673.730571,1949.052 673.850571,1949.124 C673.970572,1949.196 674.12657,1949.232 674.318571,1949.232 C674.510572,1949.232 674.69057,1949.16 674.858571,1949.016 C675.026572,1948.872 675.110571,1948.776 675.110571,1948.728 C675.110571,1948.68 675.482567,1948.656 676.226571,1948.656 C676.970575,1948.656 677.378571,1948.872 677.450571,1949.304 C677.522572,1949.736 677.546571,1951.19999 677.522571,1953.696 C677.498571,1956.19201 677.426572,1957.92 677.306571,1958.88 C677.186571,1959.84 677.042572,1960.704 676.874571,1961.472 C676.70657,1962.24 676.586572,1963.19999 676.514571,1964.352 C676.442571,1965.50401 676.358572,1966.08 676.262571,1966.08 C676.166571,1966.08 676.130571,1966.428 676.154571,1967.124 C676.178571,1967.82 676.32257,1968.324 676.586571,1968.636 C676.850573,1968.948 677.12657,1969.38 677.414571,1969.932 C677.702573,1970.484 677.882571,1970.844 677.954571,1971.012 C678.026572,1971.18 678.15857,1971.288 678.350571,1971.336 L678.638571,1971.408 L678.890571,1971.192 Z M699.266571,1938.72 L699.374571,1938.72 L700.490571,1938.36 C701.234575,1938.12 701.654571,1937.952 701.750571,1937.856 C701.846572,1937.76 702.194568,1937.28 702.794571,1936.416 C703.394574,1935.552 703.382574,1935.204 702.758571,1935.372 C702.134568,1935.54 701.774572,1935.624 701.678571,1935.624 C701.582571,1935.624 701.258574,1935.756 700.706571,1936.02 C700.154568,1936.284 699.842572,1936.416 699.770571,1936.416 C699.698571,1936.416 699.626572,1936.464 699.554571,1936.56 C699.482571,1936.656 699.434571,1936.704 699.410571,1936.704 C699.386571,1936.704 699.326572,1936.8 699.230571,1936.992 C699.134571,1937.184 699.074571,1937.28 699.050571,1937.28 C699.026571,1937.28 699.038571,1937.52 699.086571,1938 C699.134571,1938.48 699.194571,1938.72 699.266571,1938.72 Z M706.070571,1956.504 L706.286571,1956.504 L706.286571,1956.468 C706.286571,1956.444 706.214572,1956.432 706.070571,1956.432 C705.92657,1956.432 705.854571,1956.444 705.854571,1956.468 C705.854571,1956.492 705.92657,1956.504 706.070571,1956.504 Z M706.826571,1956.396 L707.150571,1956.432 L707.762571,1956.36 C708.170573,1956.312 708.48257,1956.12 708.698571,1955.784 C708.914572,1955.448 708.998571,1955.292 708.950571,1955.316 C708.902571,1955.34 708.842572,1955.352 708.770571,1955.352 C708.698571,1955.352 708.422574,1955.472 707.942571,1955.712 C707.462569,1955.952 707.174572,1956.072 707.078571,1956.072 C706.982571,1956.072 706.862572,1956.12 706.718571,1956.216 C706.57457,1956.312 706.61057,1956.372 706.826571,1956.396 Z M699.014571,1971.588 L699.230571,1971.768 L700.166571,1970.544 C700.790574,1969.728 701.438568,1968.78001 702.110571,1967.7 C702.782575,1966.61999 703.742565,1964.83201 704.990571,1962.336 C706.238577,1959.83999 706.802572,1958.616 706.682571,1958.664 C706.562571,1958.712 706.370573,1958.736 706.106571,1958.736 C705.84257,1958.736 705.686571,1958.76 705.638571,1958.808 C705.590571,1958.856 705.422573,1958.88 705.134571,1958.88 C704.84657,1958.88 704.546573,1958.916 704.234571,1958.988 C703.92257,1959.06 703.682572,1959.096 703.514571,1959.096 C703.34657,1959.096 702.974574,1959.168 702.398571,1959.312 C701.822568,1959.456 701.486572,1959.528 701.390571,1959.528 C701.294571,1959.528 701.138572,1959.588 700.922571,1959.708 C700.70657,1959.828 700.394573,1959.936 699.986571,1960.032 C699.578569,1960.128 699.230573,1960.176 698.942571,1960.176 C698.65457,1960.176 698.450572,1960.14 698.330571,1960.068 C698.210571,1959.996 698.090572,1959.804 697.970571,1959.492 C697.850571,1959.18 697.646573,1958.796 697.358571,1958.34 C697.07057,1957.884 696.938571,1958.72399 696.962571,1960.86 C696.986571,1962.99601 697.034571,1964.196 697.106571,1964.46 C697.178572,1964.724 697.226571,1964.964 697.250571,1965.18 C697.274571,1965.396 697.334571,1965.672 697.430571,1966.008 C697.526572,1966.344 697.586571,1966.632 697.610571,1966.872 C697.634571,1967.112 697.76657,1967.77199 698.006571,1968.852 C698.246572,1969.93201 698.426571,1970.568 698.546571,1970.76 C698.666572,1970.952 698.738571,1971.108 698.762571,1971.228 C698.786571,1971.348 698.87057,1971.468 699.014571,1971.588 Z M701.462571,1975.296 L700.814571,1975.728 L700.670571,1975.728 C700.574571,1975.728 700.346573,1975.62 699.986571,1975.404 C699.626569,1975.188 699.254573,1974.816 698.870571,1974.288 C698.486569,1973.76 698.162573,1973.232 697.898571,1972.704 C697.63457,1972.176 697.370573,1971.744 697.106571,1971.408 C696.84257,1971.072 696.602572,1970.628 696.386571,1970.076 C696.17057,1969.524 695.966572,1968.38401 695.774571,1966.656 C695.58257,1964.92799 695.474571,1961.11203 695.450571,1955.208 C695.426571,1949.30397 695.282573,1946.184 695.018571,1945.848 C694.75457,1945.512 694.74257,1945.212 694.982571,1944.948 C695.222572,1944.684 695.354571,1944.216 695.378571,1943.544 C695.402571,1942.872 695.330572,1941.63601 695.162571,1939.836 C694.99457,1938.03599 694.898571,1936.52401 694.874571,1935.3 C694.850571,1934.07599 695.066569,1933.476 695.522571,1933.5 C695.978573,1933.524 696.266571,1933.572 696.386571,1933.644 C696.506572,1933.716 696.65057,1933.68 696.818571,1933.536 C696.986572,1933.392 697.346568,1933.164 697.898571,1932.852 C698.450574,1932.54 699.290566,1932.24 700.418571,1931.952 C701.546577,1931.664 702.566567,1931.52 703.478571,1931.52 C704.390576,1931.52 705.050569,1931.616 705.458571,1931.808 C705.866573,1932 706.15457,1931.616 706.322571,1930.656 C706.490572,1929.696 706.586571,1928.808 706.610571,1927.992 C706.634571,1927.176 705.974578,1926.804 704.630571,1926.876 C703.286564,1926.948 702.410573,1926.984 702.002571,1926.984 C701.594569,1926.984 700.562579,1927.068 698.906571,1927.236 C697.250563,1927.404 696.374572,1927.488 696.278571,1927.488 C696.182571,1927.488 695.966573,1927.584 695.630571,1927.776 C695.29457,1927.968 695.018572,1928.04 694.802571,1927.992 C694.58657,1927.944 694.406572,1927.74 694.262571,1927.38 C694.11857,1927.02 693.854573,1926.564 693.470571,1926.012 C693.086569,1925.46 693.05057,1925.088 693.362571,1924.896 C693.674573,1924.704 694.778562,1924.596 696.674571,1924.572 C698.570581,1924.548 699.926567,1924.5 700.742571,1924.428 C701.558575,1924.356 702.434567,1924.32 703.370571,1924.32 C704.306576,1924.32 705.038569,1924.392 705.566571,1924.536 C706.094574,1924.68 706.49057,1924.848 706.754571,1925.04 C707.018573,1925.232 707.330569,1925.52 707.690571,1925.904 C708.050573,1926.288 708.33857,1926.576 708.554571,1926.768 C708.770572,1926.96 708.98657,1927.212 709.202571,1927.524 C709.418572,1927.836 709.538571,1928.112 709.562571,1928.352 C709.586571,1928.592 709.574571,1929.036 709.526571,1929.684 C709.478571,1930.332 709.346572,1931.1 709.130571,1931.988 C708.91457,1932.876 708.794571,1933.32 708.770571,1933.32 C708.746571,1933.32 708.722571,1933.38 708.698571,1933.5 C708.674571,1933.62 708.650571,1933.68 708.626571,1933.68 C708.602571,1933.68 708.434573,1934.04 708.122571,1934.76 C707.81057,1935.48 707.642571,1935.84 707.618571,1935.84 C707.594571,1935.84 707.510572,1935.996 707.366571,1936.308 C707.22257,1936.62 707.24657,1936.8 707.438571,1936.848 C707.630572,1936.896 707.84657,1936.992 708.086571,1937.136 C708.326572,1937.28 708.56657,1937.508 708.806571,1937.82 C709.046572,1938.132 709.166571,1938.48 709.166571,1938.864 C709.166571,1939.248 709.130572,1939.5 709.058571,1939.62 C708.986571,1939.74 708.806573,1939.86 708.518571,1939.98 C708.23057,1940.1 708.038572,1940.16 707.942571,1940.16 C707.846571,1940.16 707.462575,1940.292 706.790571,1940.556 C706.118568,1940.82 705.734572,1940.952 705.638571,1940.952 C705.542571,1940.952 705.482571,1940.976 705.458571,1941.024 C705.434571,1941.072 705.398571,1941.096 705.350571,1941.096 C705.302571,1941.096 705.110573,1941.252 704.774571,1941.564 C704.43857,1941.876 704.246571,1942.032 704.198571,1942.032 C704.150571,1942.032 703.994573,1942.176 703.730571,1942.464 C703.46657,1942.752 703.322571,1942.896 703.298571,1942.896 C703.274571,1942.896 703.190572,1943.028 703.046571,1943.292 C702.90257,1943.556 702.818571,1943.688 702.794571,1943.688 C702.770571,1943.688 702.494574,1944.144 701.966571,1945.056 C701.438569,1945.968 700.994573,1946.592 700.634571,1946.928 C700.274569,1947.264 699.998572,1947.432 699.806571,1947.432 C699.61457,1947.432 699.374573,1947.312 699.086571,1947.072 C698.79857,1946.832 698.486573,1946.868 698.150571,1947.18 C697.81457,1947.492 697.622571,1947.648 697.574571,1947.648 C697.526571,1947.648 697.502571,1947.696 697.502571,1947.792 C697.502571,1947.888 697.442572,1948.008 697.322571,1948.152 C697.202571,1948.296 697.106572,1948.368 697.034571,1948.368 C696.962571,1948.368 696.914571,1949.72399 696.890571,1952.436 C696.866571,1955.14801 697.070569,1956.468 697.502571,1956.396 C697.934573,1956.324 698.630566,1956.096 699.590571,1955.712 C700.550576,1955.328 701.582566,1954.956 702.686571,1954.596 C703.790577,1954.236 705.350561,1953.54001 707.366571,1952.508 C709.382581,1951.47599 710.690568,1950.756 711.290571,1950.348 C711.890574,1949.94 712.35857,1949.676 712.694571,1949.556 C713.030573,1949.436 713.210571,1949.316 713.234571,1949.196 C713.258571,1949.076 713.450569,1949.028 713.810571,1949.052 C714.170573,1949.076 714.44657,1949.124 714.638571,1949.196 C714.830572,1949.268 715.04657,1949.376 715.286571,1949.52 C715.526572,1949.664 715.76657,1949.892 716.006571,1950.204 C716.246572,1950.516 716.366571,1950.912 716.366571,1951.392 C716.366571,1951.872 716.330572,1952.172 716.258571,1952.292 C716.186571,1952.412 715.994573,1952.544 715.682571,1952.688 C715.37057,1952.832 715.178572,1952.904 715.106571,1952.904 C715.034571,1952.904 714.830573,1953.036 714.494571,1953.3 C714.15857,1953.564 713.966571,1953.696 713.918571,1953.696 C713.870571,1953.696 713.714573,1953.816 713.450571,1954.056 C713.18657,1954.296 713.030571,1954.416 712.982571,1954.416 C712.934571,1954.416 712.670574,1954.668 712.190571,1955.172 C711.710569,1955.676 712.646559,1955.928 714.998571,1955.928 C717.350583,1955.928 718.64657,1955.964 718.886571,1956.036 C719.126572,1956.108 719.36657,1956.276 719.606571,1956.54 C719.846572,1956.804 719.966571,1957.068 719.966571,1957.332 C719.966571,1957.596 719.918572,1957.764 719.822571,1957.836 C719.726571,1957.908 719.126577,1957.944 718.022571,1957.944 C716.918566,1957.944 715.754577,1957.896 714.530571,1957.8 C713.306565,1957.704 712.658572,1957.668 712.586571,1957.692 C712.514571,1957.716 712.310573,1957.728 711.974571,1957.728 C711.63857,1957.728 711.362572,1957.74 711.146571,1957.764 C710.93057,1957.788 710.702572,1957.8 710.462571,1957.8 C710.22257,1957.8 710.078571,1957.824 710.030571,1957.872 C709.982571,1957.92 709.922572,1957.944 709.850571,1957.944 C709.778571,1957.944 709.730571,1957.992 709.706571,1958.088 C709.682571,1958.184 709.658571,1958.232 709.634571,1958.232 C709.610571,1958.232 709.418573,1958.508 709.058571,1959.06 C708.698569,1959.612 708.506571,1959.888 708.482571,1959.888 C708.458571,1959.888 708.290573,1960.45199 707.978571,1961.58 C707.66657,1962.70801 707.378573,1963.644 707.114571,1964.388 C706.85057,1965.132 706.706571,1965.504 706.682571,1965.504 C706.658571,1965.504 706.574572,1965.732 706.430571,1966.188 C706.28657,1966.644 706.202571,1966.872 706.178571,1966.872 C706.154571,1966.872 706.094572,1967.028 705.998571,1967.34 C705.902571,1967.652 705.554574,1968.41999 704.954571,1969.644 C704.354568,1970.86801 704.042571,1971.48 704.018571,1971.48 C703.994571,1971.48 703.934572,1971.636 703.838571,1971.948 C703.742571,1972.26 703.682571,1972.416 703.658571,1972.416 C703.634571,1972.416 703.586572,1972.536 703.514571,1972.776 C703.442571,1973.016 703.190573,1973.424 702.758571,1974 C702.326569,1974.576 701.894573,1975.008 701.462571,1975.296 Z M755.462571,1941.384 L755.534571,1941.456 L758.234571,1940.52 C760.03458,1939.896 761.474566,1939.32 762.554571,1938.792 C763.634577,1938.264 764.006573,1937.916 763.670571,1937.748 C763.334569,1937.58 762.818575,1937.352 762.122571,1937.064 C761.426568,1936.776 760.838574,1936.476 760.358571,1936.164 C759.878569,1935.852 759.458573,1935.612 759.098571,1935.444 C758.738569,1935.276 758.306574,1935.06 757.802571,1934.796 C757.298569,1934.532 756.998572,1934.856 756.902571,1935.768 C756.806571,1936.68 756.698572,1937.34 756.578571,1937.748 C756.458571,1938.156 756.386571,1938.36 756.362571,1938.36 C756.338571,1938.36 756.182573,1938.852 755.894571,1939.836 C755.60657,1940.82 755.450571,1941.312 755.426571,1941.312 C755.402571,1941.312 755.414571,1941.336 755.462571,1941.384 Z M752.114571,1945.272 L752.150571,1945.272 L752.150571,1945.236 C752.150571,1945.212 752.138571,1945.2 752.114571,1945.2 C752.090571,1945.2 752.078571,1945.212 752.078571,1945.236 C752.078571,1945.26 752.090571,1945.272 752.114571,1945.272 Z M743.942571,1964.964 L743.438571,1965.216 L743.186571,1965.18 C743.01857,1965.156 742.838572,1965.036 742.646571,1964.82 C742.45457,1964.604 742.310572,1964.352 742.214571,1964.064 C742.118571,1963.776 741.986572,1963.512 741.818571,1963.272 C741.65057,1963.032 741.410573,1962.672 741.098571,1962.192 C740.78657,1961.712 740.810569,1961.484 741.170571,1961.508 C741.530573,1961.532 741.78257,1961.58 741.926571,1961.652 C742.070572,1961.724 742.26257,1961.7 742.502571,1961.58 C742.742572,1961.46 743.162568,1961.112 743.762571,1960.536 C744.362574,1959.96 744.914569,1959.348 745.418571,1958.7 C745.922574,1958.052 746.522568,1957.20001 747.218571,1956.144 C747.914575,1955.08799 748.586568,1953.90001 749.234571,1952.58 C749.882574,1951.25999 750.518568,1949.71201 751.142571,1947.936 C751.766574,1946.15999 751.946572,1945.32 751.682571,1945.416 C751.41857,1945.512 751.082573,1945.644 750.674571,1945.812 C750.266569,1945.98 749.978572,1946.064 749.810571,1946.064 C749.64257,1946.064 749.534571,1946.088 749.486571,1946.136 C749.438571,1946.184 749.222573,1946.208 748.838571,1946.208 C748.454569,1946.208 747.902575,1946.268 747.182571,1946.388 C746.462568,1946.508 745.934573,1946.568 745.598571,1946.568 C745.262569,1946.568 745.070571,1946.592 745.022571,1946.64 C744.974571,1946.688 744.770573,1946.712 744.410571,1946.712 C744.050569,1946.712 743.678573,1946.748 743.294571,1946.82 C742.910569,1946.892 742.586572,1946.928 742.322571,1946.928 C742.05857,1946.928 741.878572,1946.952 741.782571,1947 C741.686571,1947.048 741.494573,1947.072 741.206571,1947.072 C740.91857,1947.072 740.246576,1946.808 739.190571,1946.28 C738.134566,1945.752 737.534572,1945.308 737.390571,1944.948 C737.24657,1944.588 736.982573,1944.132 736.598571,1943.58 C736.214569,1943.028 736.226569,1942.764 736.634571,1942.788 C737.042573,1942.812 737.642567,1943.028 738.434571,1943.436 C739.226575,1943.844 741.050557,1943.964 743.906571,1943.796 C746.762585,1943.628 749.030563,1943.316 750.710571,1942.86 C752.39058,1942.404 753.35057,1941.67201 753.590571,1940.664 C753.830572,1939.65599 754.010571,1938.696 754.130571,1937.784 C754.250572,1936.872 754.322571,1935.44401 754.346571,1933.5 C754.370571,1931.55599 754.562569,1930.596 754.922571,1930.62 C755.282573,1930.644 755.59457,1930.704 755.858571,1930.8 C756.122572,1930.896 756.36257,1931.04 756.578571,1931.232 C756.794572,1931.424 757.05857,1931.64 757.370571,1931.88 C757.682573,1932.12 757.97057,1932.348 758.234571,1932.564 C758.498572,1932.78 758.798569,1932.996 759.134571,1933.212 C759.470573,1933.428 760.382564,1933.848 761.870571,1934.472 C763.358579,1935.096 764.474567,1935.48 765.218571,1935.624 C765.962575,1935.768 766.610568,1935.84 767.162571,1935.84 C767.714574,1935.84 768.08657,1935.792 768.278571,1935.696 C768.470572,1935.6 768.68657,1935.54 768.926571,1935.516 C769.166572,1935.492 769.310571,1935.456 769.358571,1935.408 C769.406571,1935.36 769.51457,1935.312 769.682571,1935.264 C769.850572,1935.216 769.934571,1935.144 769.934571,1935.048 C769.934571,1934.952 770.114569,1934.916 770.474571,1934.94 C770.834573,1934.964 771.11057,1935.012 771.302571,1935.084 C771.494572,1935.156 771.71057,1935.264 771.950571,1935.408 C772.190572,1935.552 772.43057,1935.78 772.670571,1936.092 C772.910572,1936.404 773.030571,1936.8 773.030571,1937.28 C773.030571,1937.76 772.994571,1938.06 772.922571,1938.18 C772.850571,1938.3 772.658573,1938.444 772.346571,1938.612 C772.03457,1938.78 771.758572,1938.864 771.518571,1938.864 C771.27857,1938.864 771.110572,1938.9 771.014571,1938.972 C770.918571,1939.044 770.582574,1939.14 770.006571,1939.26 C769.430568,1939.38 769.058572,1939.44 768.890571,1939.44 C768.72257,1939.44 768.590572,1939.404 768.494571,1939.332 C768.398571,1939.26 768.254572,1939.212 768.062571,1939.188 C767.87057,1939.164 767.762571,1939.164 767.738571,1939.188 C767.714571,1939.212 767.474573,1939.272 767.018571,1939.368 C766.562569,1939.464 766.286572,1939.512 766.190571,1939.512 C766.094571,1939.512 765.794574,1939.608 765.290571,1939.8 C764.786569,1939.992 764.498571,1940.088 764.426571,1940.088 C764.354571,1940.088 764.222572,1940.136 764.030571,1940.232 C763.83857,1940.328 763.694572,1940.376 763.598571,1940.376 C763.502571,1940.376 763.262573,1940.46 762.878571,1940.628 C762.494569,1940.796 762.242572,1940.88 762.122571,1940.88 C762.002571,1940.88 761.378577,1941.096 760.250571,1941.528 C759.122565,1941.96 758.522571,1942.176 758.450571,1942.176 C758.378571,1942.176 758.198573,1942.26 757.910571,1942.428 C757.62257,1942.596 757.442571,1942.68 757.370571,1942.68 C757.298571,1942.68 757.094573,1942.788 756.758571,1943.004 C756.422569,1943.22 756.230571,1943.328 756.182571,1943.328 C756.134571,1943.328 755.870574,1943.472 755.390571,1943.76 C754.910569,1944.048 754.646571,1944.192 754.598571,1944.192 C754.550571,1944.192 754.166575,1945.15199 753.446571,1947.072 C752.726568,1948.99201 752.354571,1949.952 752.330571,1949.952 C752.306571,1949.952 752.198572,1950.216 752.006571,1950.744 C751.81457,1951.272 751.706571,1951.536 751.682571,1951.536 C751.658571,1951.536 751.454573,1952.016 751.070571,1952.976 C750.686569,1953.936 750.254574,1954.884 749.774571,1955.82 C749.294569,1956.756 748.850573,1957.596 748.442571,1958.34 C748.034569,1959.084 747.818571,1959.456 747.794571,1959.456 C747.770571,1959.456 747.674572,1959.612 747.506571,1959.924 C747.33857,1960.236 747.242571,1960.392 747.218571,1960.392 C747.194571,1960.392 747.038573,1960.632 746.750571,1961.112 C746.46257,1961.592 746.006574,1962.312 745.382571,1963.272 C744.758568,1964.232 744.278573,1964.796 743.942571,1964.964 Z M774.722571,1966.872 L774.470571,1967.088 L774.326571,1967.088 C774.230571,1967.088 774.086572,1967.016 773.894571,1966.872 C773.70257,1966.728 773.570571,1966.572 773.498571,1966.404 C773.426571,1966.236 773.246573,1965.876 772.958571,1965.324 C772.67057,1964.772 772.394572,1964.34 772.130571,1964.028 C771.86657,1963.716 771.722571,1963.452 771.698571,1963.236 C771.674571,1963.02 771.602572,1962.864 771.482571,1962.768 C771.362571,1962.672 771.242572,1962.516 771.122571,1962.3 C771.002571,1962.084 770.870572,1961.904 770.726571,1961.76 C770.58257,1961.616 770.438572,1961.424 770.294571,1961.184 C770.15057,1960.944 770.006572,1960.752 769.862571,1960.608 C769.71857,1960.464 769.346574,1959.984 768.746571,1959.168 C768.146568,1958.352 767.450575,1957.608 766.658571,1956.936 C765.866567,1956.264 765.374572,1955.7 765.182571,1955.244 C764.99057,1954.788 764.690573,1954.272 764.282571,1953.696 C763.874569,1953.12 763.838569,1952.832 764.174571,1952.832 C764.510573,1952.832 764.77457,1952.868 764.966571,1952.94 C765.158572,1953.012 765.37457,1953.12 765.614571,1953.264 C765.854572,1953.408 766.370567,1953.828 767.162571,1954.524 C767.954575,1955.22 768.578569,1955.88 769.034571,1956.504 C769.490573,1957.128 769.934569,1957.692 770.366571,1958.196 C770.798573,1958.7 771.15857,1959 771.446571,1959.096 C771.734573,1959.192 771.98657,1959.324 772.202571,1959.492 C772.418572,1959.66 772.778569,1960.128 773.282571,1960.896 C773.786574,1961.664 774.18257,1962.336 774.470571,1962.912 C774.758573,1963.488 774.938571,1963.944 775.010571,1964.28 C775.082571,1964.616 775.094571,1965.096 775.046571,1965.72 C774.998571,1966.344 774.890572,1966.728 774.722571,1966.872 Z" id="你的世界很大"></path>
        </g>
    </g>
</svg>